<svg width="24" height="24" viewBox="0 0 24 24" fill="none" xmlns="http://www.w3.org/2000/svg">
<path d="M2 3V2.5C1.72386 2.5 1.5 2.72386 1.5 3H2ZM12 7L12.5 7L12 7ZM9 18V17.5V18ZM2 18H1.5C1.5 18.2761 1.72386 18.5 2 18.5V18ZM22 3H22.5C22.5 2.72386 22.2761 2.5 22 2.5V3ZM16 3V2.5V3ZM15 18L15 17.5L15 18ZM22 18V18.5C22.2761 18.5 22.5 18.2761 22.5 18H22ZM2 3V3.5H8V3V2.5H2V3ZM8 3V3.5C8.92826 3.5 9.8185 3.86875 10.4749 4.52513L10.8284 4.17157L11.182 3.81802C10.3381 2.97411 9.19347 2.5 8 2.5V3ZM10.8284 4.17157L10.4749 4.52513C11.1313 5.1815 11.5 6.07174 11.5 7L12 7L12.5 7C12.5 5.80653 12.0259 4.66193 11.182 3.81802L10.8284 4.17157ZM12 7H11.5V21H12H12.5V7H12ZM12 21H12.5C12.5 20.0717 12.1313 19.1815 11.4749 18.5251L11.1213 18.8787L10.7678 19.2322C11.2366 19.7011 11.5 20.337 11.5 21H12ZM11.1213 18.8787L11.4749 18.5251C10.8185 17.8687 9.92826 17.5 9 17.5L9 18L9 18.5C9.66304 18.5 10.2989 18.7634 10.7678 19.2322L11.1213 18.8787ZM9 18V17.5H2V18V18.5H9V18ZM2 18H2.5V3H2H1.5V18H2ZM22 3V2.5H16V3V3.5H22V3ZM16 3V2.5C14.8065 2.5 13.6619 2.97411 12.818 3.81802L13.1716 4.17157L13.5251 4.52513C14.1815 3.86875 15.0717 3.5 16 3.5V3ZM13.1716 4.17157L12.818 3.81802C11.9741 4.66193 11.5 5.80653 11.5 7L12 7L12.5 7C12.5 6.07174 12.8687 5.1815 13.5251 4.52513L13.1716 4.17157ZM12 21H12.5C12.5 20.337 12.7634 19.7011 13.2322 19.2322L12.8787 18.8787L12.5251 18.5251C11.8687 19.1815 11.5 20.0717 11.5 21H12ZM12.8787 18.8787L13.2322 19.2322C13.7011 18.7634 14.337 18.5 15 18.5L15 18L15 17.5C14.0717 17.5 13.1815 17.8687 12.5251 18.5251L12.8787 18.8787ZM15 18V18.5H22V18V17.5H15V18ZM22 18H22.5V3H22H21.5V18H22Z" fill="url(#paint0_linear_276_6940)"/>
<defs>
<linearGradient id="paint0_linear_276_6940" x1="5.89063" y1="3" x2="18.8281" y2="3" gradientUnits="userSpaceOnUse">
<stop stop-color="#4D488C"/>
<stop offset="1" stop-color="#515F9D"/>
</linearGradient>
</defs>
</svg>
