<svg width="24" height="24" viewBox="0 0 24 24" fill="none" xmlns="http://www.w3.org/2000/svg">
<g clip-path="url(#clip0_286_6955)">
<path d="M11.9893 0.328157C5.36518 0.325478 0 5.68798 0 12.3067C0 17.5407 3.35625 21.9898 8.03036 23.6237C8.65982 23.7817 8.56339 23.3344 8.56339 23.0291V20.9532C4.92857 21.3791 4.78125 18.9737 4.5375 18.5719C4.04464 17.7308 2.87946 17.5166 3.22768 17.1148C4.05536 16.6889 4.89911 17.2219 5.87679 18.6657C6.58393 19.713 7.96339 19.5362 8.6625 19.3621C8.81518 18.7326 9.14196 18.1701 9.59196 17.7335C5.82589 17.0585 4.25625 14.7603 4.25625 12.0282C4.25625 10.7023 4.69286 9.48352 5.55 8.50048C5.00357 6.87994 5.60089 5.49244 5.68125 5.28619C7.2375 5.14691 8.85536 6.40048 8.98125 6.49959C9.86518 6.26119 10.875 6.1353 12.0054 6.1353C13.1411 6.1353 14.1536 6.26655 15.0455 6.50762C15.3482 6.27726 16.8482 5.20048 18.2946 5.33173C18.3723 5.53798 18.9563 6.89334 18.442 8.49244C19.3098 9.47816 19.7518 10.7076 19.7518 12.0362C19.7518 14.7737 18.1714 17.0746 14.3946 17.7389C14.7181 18.057 14.975 18.4364 15.1502 18.8549C15.3254 19.2734 15.4155 19.7227 15.4152 20.1764V23.1898C15.4366 23.4308 15.4152 23.6692 15.817 23.6692C20.5607 22.0701 23.9759 17.5889 23.9759 12.3094C23.9759 5.68798 18.608 0.328157 11.9893 0.328157V0.328157Z" fill="url(#paint0_linear_286_6955)"/>
</g>
<defs>
<linearGradient id="paint0_linear_286_6955" x1="4.66406" y1="0.328156" x2="20.1735" y2="0.328156" gradientUnits="userSpaceOnUse">
<stop stop-color="#4D488C"/>
<stop offset="1" stop-color="#515F9D"/>
</linearGradient>
<clipPath id="clip0_286_6955">
<rect width="24" height="24" fill="white"/>
</clipPath>
</defs>
</svg>
