<svg width="22" height="22" viewBox="0 0 22 22" fill="none" xmlns="http://www.w3.org/2000/svg">
<g clip-path="url(#clip0_286_6955)">
<path d="M10.9902 0.300813C4.91808 0.298357 0 5.21398 0 11.2812C0 16.0789 3.07656 20.1573 7.36116 21.6551C7.93817 21.7999 7.84978 21.3899 7.84978 21.11V19.2071C4.51786 19.5975 4.38281 17.3926 4.15938 17.0243C3.70759 16.2533 2.63951 16.0568 2.95871 15.6885C3.71741 15.2981 4.49085 15.7868 5.38705 17.1102C6.03527 18.0702 7.29978 17.9082 7.94063 17.7486C8.08058 17.1716 8.38014 16.6559 8.79264 16.2557C5.3404 15.637 3.90156 13.5303 3.90156 11.0258C3.90156 9.81041 4.30179 8.69322 5.0875 7.79211C4.58661 6.30662 5.13415 5.03474 5.20781 4.84568C6.63438 4.718 8.11741 5.86711 8.23281 5.95796C9.04308 5.73943 9.96875 5.62403 11.0049 5.62403C12.046 5.62403 12.9741 5.74434 13.7917 5.96532C14.0692 5.75416 15.4442 4.76711 16.7701 4.88742C16.8413 5.07648 17.3766 6.31889 16.9051 7.78474C17.7007 8.68831 18.1058 9.81532 18.1058 11.0332C18.1058 13.5426 16.6571 15.6517 13.1951 16.2606C13.4916 16.5523 13.7271 16.9 13.8877 17.2837C14.0483 17.6673 14.1309 18.0791 14.1306 18.495V21.2573C14.1502 21.4783 14.1306 21.6968 14.4989 21.6968C18.8473 20.2309 21.9779 16.1231 21.9779 11.2836C21.9779 5.21398 17.0574 0.300813 10.9902 0.300813V0.300813Z" fill="url(#paint0_linear_286_6955)"/>
</g>
<defs>
<linearGradient id="paint0_linear_286_6955" x1="4.27539" y1="0.300812" x2="18.4923" y2="0.300812" gradientUnits="userSpaceOnUse">
<stop stop-color="#4D488C"/>
<stop offset="1" stop-color="#515F9D"/>
</linearGradient>
<clipPath id="clip0_286_6955">
<rect width="22" height="22" fill="white"/>
</clipPath>
</defs>
</svg>
