<svg width="22" height="22" viewBox="0 0 22 22" fill="none" xmlns="http://www.w3.org/2000/svg">
<path d="M7.33333 11C7.81956 11 8.28588 10.8068 8.6297 10.463C8.97351 10.1192 9.16667 9.6529 9.16667 9.16667V7.33333H7.33333M12.8333 11C13.3196 11 13.7859 10.8068 14.1297 10.463C14.4735 10.1192 14.6667 9.6529 14.6667 9.16667V7.33333H12.8333M19.25 13.75C19.25 14.2362 19.0568 14.7025 18.713 15.0464C18.3692 15.3902 17.9029 15.5833 17.4167 15.5833H6.41667L2.75 19.25V4.58333C2.75 4.0971 2.94315 3.63079 3.28697 3.28697C3.63079 2.94315 4.0971 2.75 4.58333 2.75H17.4167C17.9029 2.75 18.3692 2.94315 18.713 3.28697C19.0568 3.63079 19.25 4.0971 19.25 4.58333V13.75Z" stroke="url(#paint0_linear_288_6963)" stroke-width="2" stroke-linecap="round" stroke-linejoin="round"/>
<defs>
<linearGradient id="paint0_linear_288_6963" x1="5.95977" y1="2.75" x2="16.6332" y2="2.75" gradientUnits="userSpaceOnUse">
<stop stop-color="#4D488C"/>
<stop offset="1" stop-color="#515F9D"/>
</linearGradient>
</defs>
</svg>
