<svg width="22" height="22" viewBox="0 0 22 22" fill="none" xmlns="http://www.w3.org/2000/svg">
<path d="M7.33333 1.83334V5.50001M14.6667 1.83334V5.50001M2.75 9.16668H19.25M13.75 20.1667V16.5C13.75 16.0138 13.9432 15.5475 14.287 15.2036C14.6308 14.8598 15.0971 14.6667 15.5833 14.6667H19.25M19.25 15.5833V5.50001C19.25 5.01378 19.0568 4.54746 18.713 4.20365C18.3692 3.85983 17.9029 3.66668 17.4167 3.66668H4.58333C4.0971 3.66668 3.63079 3.85983 3.28697 4.20365C2.94315 4.54746 2.75 5.01378 2.75 5.50001V18.3333C2.75 18.8196 2.94315 19.2859 3.28697 19.6297C3.63079 19.9735 4.0971 20.1667 4.58333 20.1667H14.6667L19.25 15.5833Z" stroke="url(#paint0_linear_316_21)" stroke-width="2" stroke-linecap="round" stroke-linejoin="round"/>
<defs>
<linearGradient id="paint0_linear_316_21" x1="5.95977" y1="1.83334" x2="16.6332" y2="1.83334" gradientUnits="userSpaceOnUse">
<stop stop-color="#4D488C"/>
<stop offset="1" stop-color="#515F9D"/>
</linearGradient>
</defs>
</svg>
