<svg width="24" height="24" viewBox="0 0 24 24" fill="none" xmlns="http://www.w3.org/2000/svg">
<g clip-path="url(#clip0_292_6978)">
<path d="M12 20C12.5523 20 13 20.4477 13 21V23C13 23.5523 12.5523 24 12 24C11.4477 24 11 23.5523 11 23V21C11 20.4477 11.4477 20 12 20ZM4.93262 17.6533C5.32313 17.2628 5.95615 17.2628 6.34668 17.6533C6.73714 18.0438 6.73718 18.6769 6.34668 19.0674L4.92676 20.4873C4.53623 20.8775 3.90312 20.8777 3.5127 20.4873C3.12231 20.0969 3.12249 19.4638 3.5127 19.0732L4.93262 17.6533ZM17.6533 17.6533C18.0438 17.2628 18.6769 17.2628 19.0674 17.6533L20.4873 19.0732C20.8775 19.4638 20.8777 20.0969 20.4873 20.4873C20.0969 20.8777 19.4638 20.8775 19.0732 20.4873L17.6533 19.0674C17.2628 18.6769 17.2628 18.0438 17.6533 17.6533ZM12 6C15.3137 6 18 8.68629 18 12C18 15.3137 15.3137 18 12 18C8.68629 18 6 15.3137 6 12C6 8.68629 8.68629 6 12 6ZM3 11C3.55228 11 4 11.4477 4 12C4 12.5523 3.55228 13 3 13H1C0.447715 13 0 12.5523 0 12C0 11.4477 0.447715 11 1 11H3ZM23 11C23.5523 11 24 11.4477 24 12C24 12.5523 23.5523 13 23 13H21C20.4477 13 20 12.5523 20 12C20 11.4477 20.4477 11 21 11H23ZM3.5127 3.5127C3.90313 3.12227 4.53622 3.12244 4.92676 3.5127L6.34668 4.93262C6.7372 5.32314 6.73719 5.95615 6.34668 6.34668C5.95616 6.7372 5.32314 6.7372 4.93262 6.34668L3.5127 4.92676C3.12243 4.53621 3.12226 3.90313 3.5127 3.5127ZM19.0732 3.5127C19.4638 3.1225 20.0969 3.12232 20.4873 3.5127C20.8777 3.90312 20.8775 4.53622 20.4873 4.92676L19.0674 6.34668C18.6769 6.73719 18.0438 6.73716 17.6533 6.34668C17.2628 5.95615 17.2628 5.32313 17.6533 4.93262L19.0732 3.5127ZM12 0C12.5523 0 13 0.447715 13 1V3C13 3.55228 12.5523 4 12 4C11.4477 4 11 3.55228 11 3V1C11 0.447715 11.4477 0 12 0Z" fill="url(#paint0_linear_292_6978)"/>
</g>
<defs>
<linearGradient id="paint0_linear_292_6978" x1="4.66875" y1="0" x2="20.1937" y2="0" gradientUnits="userSpaceOnUse">
<stop stop-color="#4D488C"/>
<stop offset="1" stop-color="#515F9D"/>
</linearGradient>
<clipPath id="clip0_292_6978">
<rect width="24" height="24" fill="white"/>
</clipPath>
</defs>
</svg>
