<svg width="24" height="24" viewBox="0 0 24 24" fill="none" xmlns="http://www.w3.org/2000/svg">
<path d="M18 20C18 18.4087 17.3679 16.8826 16.2426 15.7574C15.1174 14.6321 13.5913 14 12 14M12 14C10.4087 14 8.88258 14.6321 7.75736 15.7574C6.63214 16.8826 6 18.4087 6 20M12 14C14.2091 14 16 12.2091 16 10C16 7.79086 14.2091 6 12 6C9.79086 6 8 7.79086 8 10C8 12.2091 9.79086 14 12 14ZM22 12C22 17.5228 17.5228 22 12 22C6.47715 22 2 17.5228 2 12C2 6.47715 6.47715 2 12 2C17.5228 2 22 6.47715 22 12Z" stroke="url(#paint0_linear_280_6968)" stroke-linecap="round" stroke-linejoin="round"/>
<defs>
<linearGradient id="paint0_linear_280_6968" x1="5.89063" y1="2" x2="18.8281" y2="2" gradientUnits="userSpaceOnUse">
<stop stop-color="#4D488C"/>
<stop offset="1" stop-color="#515F9D"/>
</linearGradient>
</defs>
</svg>
