<?xml version="1.0" encoding="utf-8"?>
<svg xmlns="http://www.w3.org/2000/svg" version="1.1" width="200px" height="200px" style="shape-rendering:geometricPrecision; text-rendering:geometricPrecision; image-rendering:optimizeQuality; fill-rule:evenodd; clip-rule:evenodd" xmlns:bx="https://boxy-svg.com">
  <defs>
    <bx:export>
      <bx:file format="svg"/>
    </bx:export>
  </defs>
  <g transform="matrix(1.148696, 0, 0, 1.153521, -693.774353, -25.954227)" style="">
    <path style="opacity:0.973" fill="#b8e1f3" d="M 764.5,63.5 C 750.833,63.5 737.167,63.5 723.5,63.5C 723.5,61.5 723.5,59.5 723.5,57.5C 728.607,57.8345 732.94,57.5012 736.5,56.5C 734.073,54.4424 731.407,52.6091 728.5,51C 706.167,50.3333 683.833,50.3333 661.5,51C 657.764,52.4098 654.098,53.9098 650.5,55.5C 647.053,57.0541 645.053,59.7208 644.5,63.5C 659.833,63.5 675.167,63.5 690.5,63.5C 690.173,73.6806 690.506,83.6806 691.5,93.5C 691.5,97.8333 691.5,102.167 691.5,106.5C 691.167,106.5 690.833,106.5 690.5,106.5C 672.032,98.7651 653.699,90.7651 635.5,82.5C 648.016,76.4095 660.683,70.5762 673.5,65C 663.506,64.5002 653.506,64.3335 643.5,64.5C 635.016,63.507 626.349,63.1736 617.5,63.5C 634.269,36.5202 658.769,22.8535 691,22.5C 723.231,22.8535 747.731,36.5202 764.5,63.5 Z"/>
  </g>
  <g transform="matrix(1.148696, 0, 0, 1.153521, -693.774353, -25.954227)" style="">
    <path style="opacity:1" fill="#f5fafd" d="M 736.5,56.5 C 707.662,56.8313 678.995,56.498 650.5,55.5C 654.098,53.9098 657.764,52.4098 661.5,51C 683.833,50.3333 706.167,50.3333 728.5,51C 731.407,52.6091 734.073,54.4424 736.5,56.5 Z"/>
  </g>
  <g transform="matrix(1.148696, 0, 0, 1.153521, -693.774353, -25.954227)" style="">
    <path style="opacity:1" fill="#eaf7fd" d="M 650.5,55.5 C 678.995,56.498 707.662,56.8313 736.5,56.5C 732.94,57.5012 728.607,57.8345 723.5,57.5C 723.5,59.5 723.5,61.5 723.5,63.5C 712.5,63.5 701.5,63.5 690.5,63.5C 675.167,63.5 659.833,63.5 644.5,63.5C 645.053,59.7208 647.053,57.0541 650.5,55.5 Z"/>
  </g>
  <g transform="matrix(1.148696, 0, 0, 1.153521, -693.774353, -25.954227)" style="">
    <path style="opacity:1" fill="#4b94cb" d="M 617.5,63.5 C 626.349,63.1736 635.016,63.507 643.5,64.5C 643.5,65.1667 643.167,65.5 642.5,65.5C 634.167,64.8333 625.833,64.1667 617.5,63.5 Z"/>
  </g>
  <g transform="matrix(1.148696, 0, 0, 1.153521, -693.774353, -25.954227)" style="">
    <path style="opacity:0.985" fill="#277abe" d="M 617.5,63.5 C 625.833,64.1667 634.167,64.8333 642.5,65.5C 640.013,70.4734 637.513,75.4734 635,80.5C 636.926,89.255 640.26,97.5884 645,105.5C 650.7,114.257 656.867,122.591 663.5,130.5C 663.569,135.854 663.902,141.187 664.5,146.5C 664.351,147.552 664.517,148.552 665,149.5C 673.707,158.704 682.207,168.037 690.5,177.5C 691.077,178.773 691.743,178.773 692.5,177.5C 699.178,166.139 705.845,154.806 712.5,143.5C 717.46,139.712 722.293,135.712 727,131.5C 727.5,122.506 727.666,113.506 727.5,104.5C 733.833,97.1667 740.167,89.8333 746.5,82.5C 746.804,81.8501 747.137,81.1835 747.5,80.5C 745.5,75.5 743.5,70.5 741.5,65.5C 749.472,64.5023 757.472,64.169 765.5,64.5C 777.293,84.3207 780.793,105.654 776,128.5C 767.539,160.962 747.372,182.462 715.5,193C 672.603,202.376 639.103,188.876 615,152.5C 602.206,127.892 600.539,102.559 610,76.5C 612.022,71.7768 614.522,67.4434 617.5,63.5 Z"/>
  </g>
  <g transform="matrix(1.148696, 0, 0, 1.153521, -693.774353, -25.954227)" style="">
    <path style="opacity:1" fill="#68c1ea" d="M 723.5,64.5 C 723.5,73.8333 723.5,83.1667 723.5,92.5C 713.663,97.3434 703.663,102.01 693.5,106.5C 692.833,106.5 692.5,106.833 692.5,107.5C 692.167,107.5 691.833,107.5 691.5,107.5C 691.5,107.167 691.5,106.833 691.5,106.5C 691.5,102.167 691.5,97.8333 691.5,93.5C 691.5,83.8333 691.5,74.1667 691.5,64.5C 702.167,64.5 712.833,64.5 723.5,64.5 Z"/>
  </g>
  <g transform="matrix(1.148696, 0, 0, 1.153521, -693.774353, -25.954227)" style="">
    <path style="opacity:1" fill="#4e8bc9" d="M 723.5,63.5 C 737.167,63.5 750.833,63.5 764.5,63.5C 765.167,63.5 765.5,63.8333 765.5,64.5C 757.472,64.169 749.472,64.5023 741.5,65.5C 743.5,70.5 745.5,75.5 747.5,80.5C 747.137,81.1835 746.804,81.8501 746.5,82.5C 738.712,85.5608 731.045,88.8941 723.5,92.5C 723.5,83.1667 723.5,73.8333 723.5,64.5C 723.5,64.1667 723.5,63.8333 723.5,63.5 Z"/>
  </g>
  <g transform="matrix(1.148696, 0, 0, 1.153521, -693.774353, -25.954227)" style="">
    <path style="opacity:1" fill="#a2d8f1" d="M 690.5,63.5 C 701.5,63.5 712.5,63.5 723.5,63.5C 723.5,63.8333 723.5,64.1667 723.5,64.5C 712.833,64.5 702.167,64.5 691.5,64.5C 691.5,74.1667 691.5,83.8333 691.5,93.5C 690.506,83.6806 690.173,73.6806 690.5,63.5 Z"/>
  </g>
  <g transform="matrix(1.148696, 0, 0, 1.153521, -693.774353, -25.954227)" style="">
    <path style="opacity:1" fill="#90d4f0" d="M 643.5,64.5 C 653.506,64.3335 663.506,64.5002 673.5,65C 660.683,70.5762 648.016,76.4095 635.5,82.5C 653.699,90.7651 672.032,98.7651 690.5,106.5C 690.141,108.371 689.141,109.871 687.5,111C 679.021,116.985 671.021,123.485 663.5,130.5C 656.867,122.591 650.7,114.257 645,105.5C 640.26,97.5884 636.926,89.255 635,80.5C 637.513,75.4734 640.013,70.4734 642.5,65.5C 643.167,65.5 643.5,65.1667 643.5,64.5 Z"/>
  </g>
  <g transform="matrix(1.148696, 0, 0, 1.153521, -693.774353, -25.954227)" style="">
    <path style="opacity:1" fill="#266fa8" d="M 746.5,82.5 C 740.167,89.8333 733.833,97.1667 727.5,104.5C 716.812,105.28 706.145,106.28 695.5,107.5C 694.584,107.457 693.917,107.124 693.5,106.5C 703.663,102.01 713.663,97.3434 723.5,92.5C 731.045,88.8941 738.712,85.5608 746.5,82.5 Z"/>
  </g>
  <g transform="matrix(1.148696, 0, 0, 1.153521, -693.774353, -25.954227)" style="">
    <path style="opacity:1" fill="#4d8ac8" d="M 727.5,104.5 C 727.666,113.506 727.5,122.506 727,131.5C 722.293,135.712 717.46,139.712 712.5,143.5C 712.167,142.833 711.833,142.167 711.5,141.5C 704.628,130.419 698.295,119.086 692.5,107.5C 692.5,106.833 692.833,106.5 693.5,106.5C 693.917,107.124 694.584,107.457 695.5,107.5C 706.145,106.28 716.812,105.28 727.5,104.5 Z"/>
  </g>
  <g transform="matrix(1.148696, 0, 0, 1.153521, -693.774353, -25.954227)" style="">
    <path style="opacity:1" fill="#abdcf1" d="M 690.5,106.5 C 690.833,106.5 691.167,106.5 691.5,106.5C 691.5,106.833 691.5,107.167 691.5,107.5C 691.5,115.5 691.5,123.5 691.5,131.5C 691.167,131.5 690.833,131.5 690.5,131.5C 681.502,131.119 672.502,130.786 663.5,130.5C 671.021,123.485 679.021,116.985 687.5,111C 689.141,109.871 690.141,108.371 690.5,106.5 Z"/>
  </g>
  <g transform="matrix(1.148696, 0, 0, 1.153521, -693.774353, -25.954227)" style="">
    <path style="opacity:1" fill="#54a5d7" d="M 691.5,107.5 C 691.833,107.5 692.167,107.5 692.5,107.5C 698.295,119.086 704.628,130.419 711.5,141.5C 704.456,138.721 697.789,135.388 691.5,131.5C 691.5,123.5 691.5,115.5 691.5,107.5 Z"/>
  </g>
  <g transform="matrix(1.148696, 0, 0, 1.153521, -693.774353, -25.954227)" style="">
    <path style="opacity:1" fill="#b6e0f2" d="M 663.5,130.5 C 672.502,130.786 681.502,131.119 690.5,131.5C 690.5,138.833 690.5,146.167 690.5,153.5C 683.125,152.66 675.791,151.493 668.5,150C 666.973,148.968 665.64,147.801 664.5,146.5C 663.902,141.187 663.569,135.854 663.5,130.5 Z"/>
  </g>
  <g transform="matrix(1.148696, 0, 0, 1.153521, -693.774353, -25.954227)" style="">
    <path style="opacity:1" fill="#58afde" d="M 690.5,131.5 C 690.833,131.5 691.167,131.5 691.5,131.5C 697.789,135.388 704.456,138.721 711.5,141.5C 711.833,142.167 712.167,142.833 712.5,143.5C 705.734,146.382 699.067,149.549 692.5,153C 691.544,156.394 691.211,159.894 691.5,163.5C 690.521,160.375 690.187,157.042 690.5,153.5C 690.5,146.167 690.5,138.833 690.5,131.5 Z"/>
  </g>
  <g transform="matrix(1.148696, 0, 0, 1.153521, -693.774353, -25.954227)" style="">
    <path style="opacity:1" fill="#266fa8" d="M 712.5,143.5 C 705.845,154.806 699.178,166.139 692.5,177.5C 691.743,178.773 691.077,178.773 690.5,177.5C 691.486,173.03 691.819,168.363 691.5,163.5C 691.211,159.894 691.544,156.394 692.5,153C 699.067,149.549 705.734,146.382 712.5,143.5 Z"/>
  </g>
  <g transform="matrix(1.148696, 0, 0, 1.153521, -693.774353, -25.954227)" style="">
    <path style="opacity:1" fill="#8fd3f0" d="M 664.5,146.5 C 665.64,147.801 666.973,148.968 668.5,150C 675.791,151.493 683.125,152.66 690.5,153.5C 690.187,157.042 690.521,160.375 691.5,163.5C 691.819,168.363 691.486,173.03 690.5,177.5C 682.207,168.037 673.707,158.704 665,149.5C 664.517,148.552 664.351,147.552 664.5,146.5 Z"/>
  </g>
</svg>