<svg
  width="208"
  height="162"
  viewBox="0 0 208 162"
  fill="none"
  xmlns="http://www.w3.org/2000/svg"
>
  <path
    d="M6 0.5H202C205.038 0.5 207.5 2.96243 207.5 6V156C207.5 159.038 205.038 161.5 202 161.5H6C2.96243 161.5 0.5 159.038 0.5 156V6C0.5 2.96243 2.96243 0.5 6 0.5Z"
    fill="white"
  />
  <path
    d="M6 0.5H202C205.038 0.5 207.5 2.96243 207.5 6V156C207.5 159.038 205.038 161.5 202 161.5H6C2.96243 161.5 0.5 159.038 0.5 156V6C0.5 2.96243 2.96243 0.5 6 0.5Z"
    stroke="#E5E5E5"
  />
  <path d="M21.2217 8H19.4805V9.49453H21.2217V8Z" fill="#5655FF" />
  <path d="M24.2461 8L24.2523 16H26.0005V8H24.2461Z" fill="#5655FF" />
  <path d="M21.8632 16H23.6118V8H21.8574L21.8632 16Z" fill="#5655FF" />
  <path
    d="M18.2592 12.3154C18.6811 11.8445 18.8921 11.2936 18.8921 10.6628C18.8921 9.86853 18.6248 9.22651 18.0904 8.73569C17.5557 8.24523 16.8374 8 15.9352 8H12L12.9042 9.65838H15.6469C16.0644 9.65838 16.3838 9.75785 16.6054 9.95606C16.8266 10.1546 16.9375 10.4136 16.9375 10.7326C16.9375 11.0516 16.8165 11.299 16.5743 11.4976C16.3318 11.6962 16.002 11.7953 15.5844 11.7953H12.6003V13.2786V15.9997H14.2185V13.2786L16.7493 15.9997H19.2802L16.5487 13.22C17.267 13.0876 17.837 12.786 18.2589 12.315L18.2592 12.3154Z"
    fill="#5655FF"
  />
  <path d="M21.2217 10.0867H19.4805V16.0001H21.2217V10.0867Z" fill="#5655FF" />
  <rect width="206" height="16" transform="translate(1 22)" fill="#F5F5F5" />
  <path
    opacity="0.5"
    d="M14 28C14 27.4477 14.4477 27 15 27H47C47.5523 27 48 27.4477 48 28C48 28.5523 47.5523 29 47 29H15C14.4477 29 14 28.5523 14 28Z"
    fill="#6B7280"
  />
  <path
    opacity="0.5"
    d="M52 28C52 27.4477 52.4477 27 53 27H86C86.5523 27 87 27.4477 87 28C87 28.5523 86.5523 29 86 29H53C52.4477 29 52 28.5523 52 28Z"
    fill="#6B7280"
  />
  <path
    opacity="0.5"
    d="M91 28C91 27.4477 91.4477 27 92 27H110C110.552 27 111 27.4477 111 28C111 28.5523 110.552 29 110 29H92C91.4477 29 91 28.5523 91 28Z"
    fill="#6B7280"
  />
  <path
    opacity="0.5"
    d="M14 32C14 31.4477 14.4477 31 15 31H47C47.5523 31 48 31.4477 48 32C48 32.5523 47.5523 33 47 33H15C14.4477 33 14 32.5523 14 32Z"
    fill="#5655FF"
  />
  <path
    opacity="0.5"
    d="M52 32C52 31.4477 52.4477 31 53 31H86C86.5523 31 87 31.4477 87 32C87 32.5523 86.5523 33 86 33H53C52.4477 33 52 32.5523 52 32Z"
    fill="#5655FF"
  />
  <g filter="url(#filter0_d_5782_37856)">
    <path
      d="M15 46C15 44.8954 15.8954 44 17 44H46C47.1046 44 48 44.8954 48 46V90C48 91.1046 47.1046 92 46 92H17C15.8954 92 15 91.1046 15 90V46Z"
      fill="white"
    />
    <g opacity="0.5">
      <path
        d="M25 65.5651C25 65.0609 25.4088 64.6521 25.913 64.6521H38.087C38.5912 64.6521 39 65.0609 39 65.5651C39 66.0694 38.5912 66.4782 38.087 66.4782H25.913C25.4088 66.4782 25 66.0694 25 65.5651Z"
        fill="#5655FF"
      />
      <path
        d="M25 70.4348C25 69.9305 25.4088 69.5217 25.913 69.5217H38.087C38.5912 69.5217 39 69.9305 39 70.4348C39 70.939 38.5912 71.3478 38.087 71.3478H25.913C25.4088 71.3478 25 70.939 25 70.4348Z"
        fill="#5655FF"
      />
      <path
        d="M35.6182 61.1575C36.1149 61.2445 36.4471 61.7176 36.3601 62.2143L34.261 74.2059C34.1741 74.7026 33.701 75.0348 33.2042 74.9478C32.7075 74.8609 32.3754 74.3877 32.4623 73.891L34.5614 61.8994C34.6484 61.4027 35.1215 61.0706 35.6182 61.1575Z"
        fill="#5655FF"
      />
      <path
        d="M30.1397 61.1575C30.6364 61.2445 30.9686 61.7176 30.8816 62.2143L28.7825 74.2059C28.6956 74.7026 28.2224 75.0348 27.7257 74.9478C27.229 74.8609 26.8968 74.3877 26.9838 73.891L29.0829 61.8994C29.1698 61.4027 29.643 61.0706 30.1397 61.1575Z"
        fill="#5655FF"
      />
    </g>
    <g opacity="0.5">
      <path
        d="M54 46C54 44.8954 54.8954 44 56 44H129C130.105 44 131 44.8954 131 46V90C131 91.1046 130.105 92 129 92H56C54.8954 92 54 91.1046 54 90V46Z"
        fill="url(#paint0_linear_5782_37856)"
      />
      <path
        d="M54 76.0002H55.9796C56.3208 76.0002 56.6564 75.9129 56.9544 75.7466L67.4985 69.8606C68.1188 69.5143 68.8762 69.5231 69.4883 69.8836L78.4304 75.1499C79.0855 75.5357 79.9027 75.5167 80.5392 75.1009L94.9566 65.6817C95.5953 65.2644 96.4157 65.2468 97.0716 65.6364L104.362 69.9657C105.052 70.3754 105.92 70.3332 106.567 69.8585L118.707 60.949C119.462 60.3945 120.502 60.4391 121.207 61.0563L127.434 66.5052C127.799 66.8242 128.267 67 128.751 67H131"
        stroke="#FAFAFA"
      />
    </g>
    <path
      d="M137 46C137 44.8954 137.895 44 139 44H191C192.105 44 193 44.8954 193 46V90C193 91.1046 192.105 92 191 92H139C137.895 92 137 91.1046 137 90V46Z"
      fill="white"
    />
    <rect
      x="143"
      y="51"
      width="44"
      height="3"
      fill="url(#paint1_linear_5782_37856)"
      fill-opacity="0.6"
    />
    <rect
      x="143"
      y="57"
      width="39"
      height="3"
      fill="url(#paint2_linear_5782_37856)"
      fill-opacity="0.6"
    />
    <rect
      x="143"
      y="63"
      width="35"
      height="3"
      fill="url(#paint3_linear_5782_37856)"
      fill-opacity="0.6"
    />
    <rect
      x="143"
      y="69"
      width="26"
      height="3"
      fill="url(#paint4_linear_5782_37856)"
      fill-opacity="0.6"
    />
    <rect
      x="143"
      y="75"
      width="20"
      height="3"
      fill="url(#paint5_linear_5782_37856)"
      fill-opacity="0.6"
    />
    <rect
      x="143"
      y="81"
      width="13"
      height="3"
      fill="url(#paint6_linear_5782_37856)"
      fill-opacity="0.6"
    />
  </g>
  <g filter="url(#filter1_d_5782_37856)">
    <path
      d="M15 100C15 98.8954 15.8954 98 17 98H46C47.1046 98 48 98.8954 48 100V144C48 145.105 47.1046 146 46 146H17C15.8954 146 15 145.105 15 144V100Z"
      fill="white"
    />
    <g opacity="0.5">
      <path
        d="M25 119.565C25 119.061 25.4088 118.652 25.913 118.652H38.087C38.5912 118.652 39 119.061 39 119.565C39 120.069 38.5912 120.478 38.087 120.478H25.913C25.4088 120.478 25 120.069 25 119.565Z"
        fill="#5655FF"
      />
      <path
        d="M25 124.435C25 123.931 25.4088 123.522 25.913 123.522H38.087C38.5912 123.522 39 123.931 39 124.435C39 124.939 38.5912 125.348 38.087 125.348H25.913C25.4088 125.348 25 124.939 25 124.435Z"
        fill="#5655FF"
      />
      <path
        d="M35.6182 115.158C36.1149 115.244 36.4471 115.718 36.3601 116.214L34.261 128.206C34.1741 128.703 33.701 129.035 33.2042 128.948C32.7075 128.861 32.3754 128.388 32.4623 127.891L34.5614 115.899C34.6484 115.403 35.1215 115.071 35.6182 115.158Z"
        fill="#5655FF"
      />
      <path
        d="M30.1397 115.158C30.6364 115.244 30.9686 115.718 30.8816 116.214L28.7825 128.206C28.6956 128.703 28.2224 129.035 27.7257 128.948C27.229 128.861 26.8968 128.388 26.9838 127.891L29.0829 115.899C29.1698 115.403 29.643 115.071 30.1397 115.158Z"
        fill="#5655FF"
      />
    </g>
    <g opacity="0.5">
      <path
        d="M54 100C54 98.8954 54.8954 98 56 98H129C130.105 98 131 98.8954 131 100V144C131 145.105 130.105 146 129 146H56C54.8954 146 54 145.105 54 144V100Z"
        fill="url(#paint7_linear_5782_37856)"
      />
      <path
        d="M54 130H55.9796C56.3208 130 56.6564 129.913 56.9544 129.747L67.4985 123.861C68.1188 123.514 68.8762 123.523 69.4883 123.884L78.4304 129.15C79.0855 129.536 79.9027 129.517 80.5392 129.101L94.9566 119.682C95.5953 119.264 96.4157 119.247 97.0716 119.636L104.362 123.966C105.052 124.375 105.92 124.333 106.567 123.858L118.707 114.949C119.462 114.395 120.502 114.439 121.207 115.056L127.434 120.505C127.799 120.824 128.267 121 128.751 121H131"
        stroke="#FAFAFA"
      />
    </g>
    <path
      d="M137 100C137 98.8954 137.895 98 139 98H191C192.105 98 193 98.8954 193 100V144C193 145.105 192.105 146 191 146H139C137.895 146 137 145.105 137 144V100Z"
      fill="white"
    />
    <rect
      x="143"
      y="105"
      width="44"
      height="3"
      fill="url(#paint8_linear_5782_37856)"
      fill-opacity="0.6"
    />
    <rect
      x="143"
      y="111"
      width="39"
      height="3"
      fill="url(#paint9_linear_5782_37856)"
      fill-opacity="0.6"
    />
    <rect
      x="143"
      y="117"
      width="35"
      height="3"
      fill="url(#paint10_linear_5782_37856)"
      fill-opacity="0.6"
    />
    <rect
      x="143"
      y="123"
      width="26"
      height="3"
      fill="url(#paint11_linear_5782_37856)"
      fill-opacity="0.6"
    />
    <rect
      x="143"
      y="129"
      width="20"
      height="3"
      fill="url(#paint12_linear_5782_37856)"
      fill-opacity="0.6"
    />
    <rect
      x="143"
      y="135"
      width="13"
      height="3"
      fill="url(#paint13_linear_5782_37856)"
      fill-opacity="0.6"
    />
  </g>
  <defs>
    <filter
      id="filter0_d_5782_37856"
      x="12"
      y="44"
      width="184"
      height="54"
      filterUnits="userSpaceOnUse"
      color-interpolation-filters="sRGB"
    >
      <feFlood flood-opacity="0" result="BackgroundImageFix" />
      <feColorMatrix
        in="SourceAlpha"
        type="matrix"
        values="0 0 0 0 0 0 0 0 0 0 0 0 0 0 0 0 0 0 127 0"
        result="hardAlpha"
      />
      <feOffset dy="3" />
      <feGaussianBlur stdDeviation="1.5" />
      <feComposite in2="hardAlpha" operator="out" />
      <feColorMatrix
        type="matrix"
        values="0 0 0 0 0 0 0 0 0 0 0 0 0 0 0 0 0 0 0.12 0"
      />
      <feBlend
        mode="normal"
        in2="BackgroundImageFix"
        result="effect1_dropShadow_5782_37856"
      />
      <feBlend
        mode="normal"
        in="SourceGraphic"
        in2="effect1_dropShadow_5782_37856"
        result="shape"
      />
    </filter>
    <filter
      id="filter1_d_5782_37856"
      x="12"
      y="98"
      width="184"
      height="54"
      filterUnits="userSpaceOnUse"
      color-interpolation-filters="sRGB"
    >
      <feFlood flood-opacity="0" result="BackgroundImageFix" />
      <feColorMatrix
        in="SourceAlpha"
        type="matrix"
        values="0 0 0 0 0 0 0 0 0 0 0 0 0 0 0 0 0 0 127 0"
        result="hardAlpha"
      />
      <feOffset dy="3" />
      <feGaussianBlur stdDeviation="1.5" />
      <feComposite in2="hardAlpha" operator="out" />
      <feColorMatrix
        type="matrix"
        values="0 0 0 0 0 0 0 0 0 0 0 0 0 0 0 0 0 0 0.12 0"
      />
      <feBlend
        mode="normal"
        in2="BackgroundImageFix"
        result="effect1_dropShadow_5782_37856"
      />
      <feBlend
        mode="normal"
        in="SourceGraphic"
        in2="effect1_dropShadow_5782_37856"
        result="shape"
      />
    </filter>
    <linearGradient
      id="paint0_linear_5782_37856"
      x1="92.5"
      y1="44"
      x2="92.5"
      y2="92"
      gradientUnits="userSpaceOnUse"
    >
      <stop stop-color="#A7A6FF" />
      <stop offset="1" stop-color="#5655FF" />
    </linearGradient>
    <linearGradient
      id="paint1_linear_5782_37856"
      x1="143"
      y1="52.5"
      x2="187"
      y2="52.5"
      gradientUnits="userSpaceOnUse"
    >
      <stop stop-color="#C6C5FF" stop-opacity="0.2" />
      <stop offset="1" stop-color="#605FEA" stop-opacity="0.8" />
    </linearGradient>
    <linearGradient
      id="paint2_linear_5782_37856"
      x1="143"
      y1="58.5"
      x2="182"
      y2="58.5"
      gradientUnits="userSpaceOnUse"
    >
      <stop stop-color="#C6C5FF" stop-opacity="0.2" />
      <stop offset="1" stop-color="#605FEA" stop-opacity="0.8" />
    </linearGradient>
    <linearGradient
      id="paint3_linear_5782_37856"
      x1="143"
      y1="64.5"
      x2="178"
      y2="64.5"
      gradientUnits="userSpaceOnUse"
    >
      <stop stop-color="#C6C5FF" stop-opacity="0.2" />
      <stop offset="1" stop-color="#605FEA" stop-opacity="0.7" />
    </linearGradient>
    <linearGradient
      id="paint4_linear_5782_37856"
      x1="143"
      y1="70.5"
      x2="169"
      y2="70.5"
      gradientUnits="userSpaceOnUse"
    >
      <stop stop-color="#C6C5FF" stop-opacity="0.2" />
      <stop offset="1" stop-color="#605FEA" stop-opacity="0.8" />
    </linearGradient>
    <linearGradient
      id="paint5_linear_5782_37856"
      x1="143"
      y1="76.5"
      x2="163"
      y2="76.5"
      gradientUnits="userSpaceOnUse"
    >
      <stop stop-color="#B3B2FF" stop-opacity="0.2" />
      <stop offset="1" stop-color="#605FEA" stop-opacity="0.8" />
    </linearGradient>
    <linearGradient
      id="paint6_linear_5782_37856"
      x1="143"
      y1="82.5"
      x2="156"
      y2="82.5"
      gradientUnits="userSpaceOnUse"
    >
      <stop stop-color="#C6C5FF" stop-opacity="0.2" />
      <stop offset="1" stop-color="#605FEA" stop-opacity="0.8" />
    </linearGradient>
    <linearGradient
      id="paint7_linear_5782_37856"
      x1="92.5"
      y1="98"
      x2="92.5"
      y2="146"
      gradientUnits="userSpaceOnUse"
    >
      <stop stop-color="#A7A6FF" />
      <stop offset="1" stop-color="#5655FF" />
    </linearGradient>
    <linearGradient
      id="paint8_linear_5782_37856"
      x1="143"
      y1="106.5"
      x2="187"
      y2="106.5"
      gradientUnits="userSpaceOnUse"
    >
      <stop stop-color="#C6C5FF" stop-opacity="0.2" />
      <stop offset="1" stop-color="#605FEA" stop-opacity="0.8" />
    </linearGradient>
    <linearGradient
      id="paint9_linear_5782_37856"
      x1="143"
      y1="112.5"
      x2="182"
      y2="112.5"
      gradientUnits="userSpaceOnUse"
    >
      <stop stop-color="#C6C5FF" stop-opacity="0.2" />
      <stop offset="1" stop-color="#605FEA" stop-opacity="0.8" />
    </linearGradient>
    <linearGradient
      id="paint10_linear_5782_37856"
      x1="143"
      y1="118.5"
      x2="178"
      y2="118.5"
      gradientUnits="userSpaceOnUse"
    >
      <stop stop-color="#C6C5FF" stop-opacity="0.2" />
      <stop offset="1" stop-color="#605FEA" stop-opacity="0.7" />
    </linearGradient>
    <linearGradient
      id="paint11_linear_5782_37856"
      x1="143"
      y1="124.5"
      x2="169"
      y2="124.5"
      gradientUnits="userSpaceOnUse"
    >
      <stop stop-color="#C6C5FF" stop-opacity="0.2" />
      <stop offset="1" stop-color="#605FEA" stop-opacity="0.8" />
    </linearGradient>
    <linearGradient
      id="paint12_linear_5782_37856"
      x1="143"
      y1="130.5"
      x2="163"
      y2="130.5"
      gradientUnits="userSpaceOnUse"
    >
      <stop stop-color="#B3B2FF" stop-opacity="0.2" />
      <stop offset="1" stop-color="#605FEA" stop-opacity="0.8" />
    </linearGradient>
    <linearGradient
      id="paint13_linear_5782_37856"
      x1="143"
      y1="136.5"
      x2="156"
      y2="136.5"
      gradientUnits="userSpaceOnUse"
    >
      <stop stop-color="#C6C5FF" stop-opacity="0.2" />
      <stop offset="1" stop-color="#605FEA" stop-opacity="0.8" />
    </linearGradient>
  </defs>
</svg>
