<svg width="278" height="279" viewBox="0 0 278 279" fill="none" xmlns="http://www.w3.org/2000/svg">
<path d="M0 16.5C0 7.66344 7.16344 0.5 16 0.5H262C270.837 0.5 278 7.66344 278 16.5V262.5C278 271.337 270.837 278.5 262 278.5H16C7.16344 278.5 0 271.337 0 262.5V16.5Z" fill="url(#paint0_linear_257_2552)"/>
<path d="M166.574 78.5H141.825V101.291H166.574V78.5Z" fill="white"/>
<path d="M209.563 78.5L209.651 200.499H234.5V78.5H209.563Z" fill="white"/>
<path d="M175.685 200.499H200.54V78.5H175.602L175.685 200.499Z" fill="white"/>
<path d="M124.471 144.31C130.466 137.128 133.467 128.727 133.467 119.108C133.467 106.995 129.667 97.2043 122.071 89.7192C114.47 82.2397 104.261 78.5 91.4362 78.5H35.5L48.3519 103.79H87.3379C93.273 103.79 97.8125 105.307 100.962 108.33C104.106 111.358 105.684 115.307 105.684 120.172C105.684 125.037 103.963 128.81 100.521 131.838C97.0734 134.867 92.3849 136.378 86.4499 136.378H44.033V158.998V200.494H67.0341V158.998L103.008 200.494H138.983L100.157 158.105C110.367 156.086 118.469 151.486 124.465 144.304L124.471 144.31Z" fill="white"/>
<path d="M166.574 110.321H141.825V200.499H166.574V110.321Z" fill="white"/>
<defs>
<linearGradient id="paint0_linear_257_2552" x1="139" y1="0.5" x2="139" y2="278.5" gradientUnits="userSpaceOnUse">
<stop stop-color="#4736F5"/>
<stop offset="1" stop-color="#3524C7"/>
</linearGradient>
</defs>
</svg>
