<svg width="199" height="123" viewBox="0 0 199 123" fill="none" xmlns="http://www.w3.org/2000/svg">
<path d="M131.074 0.500275H106.325V23.2917H131.074V0.500275Z" fill="white"/>
<path d="M174.063 0.500275L174.151 122.499H199V0.500275H174.063Z" fill="white"/>
<path d="M140.185 122.499H165.04V0.500275H140.102L140.185 122.499Z" fill="white"/>
<path d="M88.9706 66.3099C94.9664 59.1283 97.9669 50.7277 97.9669 41.108C97.9669 28.9952 94.1665 19.2045 86.5712 11.7195C78.9704 4.24002 68.7606 0.500275 55.9362 0.500275H0L12.8519 25.7905H51.8379C57.773 25.7905 62.3125 27.3073 65.4621 30.33C68.6061 33.3582 70.1836 37.3076 70.1836 42.1726C70.1836 47.0375 68.4627 50.8104 65.0208 53.8386C61.5734 56.8668 56.8849 58.3781 50.9499 58.3781H8.533V80.9987V122.494H31.5341V80.9987L67.5085 122.494H103.483L64.6567 80.1051C74.8666 78.0863 82.9694 73.4861 88.9651 66.3044L88.9706 66.3099Z" fill="white"/>
<path d="M131.074 32.3209H106.325V122.5H131.074V32.3209Z" fill="white"/>
</svg>
