<?xml version="1.0" encoding="UTF-8"?><svg id="a" xmlns="http://www.w3.org/2000/svg" viewBox="0 0 1550 600"><defs><style>.g{fill:#0f284b;}.g,.h,.i{fill-rule:evenodd;}.h{fill:#1e78fa;}.i{fill:#00c8d7;}</style></defs><g id="b"><g id="c"><path id="d" class="h" d="M400,200v400l-100-50V200h100Zm-300,0v250L0,400V200H100Z"/><path id="e" class="i" d="M450,150l100,50v200h-100V150ZM150,0l100,50V400h-100V0Z"/><path id="f" class="g" d="M878,50c94.99,0,172,77.01,172,172v6c0,62.4-33.23,117.04-82.96,147.19,1.38,2.45,2.71,4.95,3.96,7.51l.75,1.54,78.25,165.77h-110l-58.49-122.68h0c-7.85-16.43-24.3-26.99-42.46-27.31h-.85s-38.19,0-38.19,0v100l-100,50V50h178Zm322,250v250h-100v-200l100-50Zm50-250l100,50v450h-100V50Zm150,75l100,50v375h-100V125Zm-525,25h-75v150h75c41.42,0,75-33.58,75-75s-33.58-75-75-75Zm275,0c27.61,0,50,22.39,50,50s-22.39,50-50,50-50-22.39-50-50,22.39-50,50-50Z"/></g></g></svg>