<svg width="36" height="36" viewBox="0 0 36 36" fill="none" xmlns="http://www.w3.org/2000/svg">
<path d="M4.5 16.5H9C9.79565 16.5 10.5587 16.8161 11.1213 17.3787C11.6839 17.9413 12 18.7044 12 19.5V24C12 24.7956 11.6839 25.5587 11.1213 26.1213C10.5587 26.6839 9.79565 27 9 27H7.5C6.70435 27 5.94129 26.6839 5.37868 26.1213C4.81607 25.5587 4.5 24.7956 4.5 24V16.5ZM4.5 16.5C4.5 14.7272 4.84919 12.9717 5.52763 11.3338C6.20606 9.69588 7.20047 8.20765 8.45406 6.95406C9.70765 5.70047 11.1959 4.70606 12.8338 4.02763C14.4717 3.34919 16.2272 3 18 3C19.7728 3 21.5283 3.34919 23.1662 4.02763C24.8041 4.70606 26.2923 5.70047 27.5459 6.95406C28.7995 8.20765 29.7939 9.69588 30.4724 11.3338C31.1508 12.9717 31.5 14.7272 31.5 16.5M31.5 16.5V24M31.5 16.5H27C26.2044 16.5 25.4413 16.8161 24.8787 17.3787C24.3161 17.9413 24 18.7044 24 19.5V24C24 24.7956 24.3161 25.5587 24.8787 26.1213C25.4413 26.6839 26.2044 27 27 27H28.5C29.2956 27 30.0587 26.6839 30.6213 26.1213C31.1839 25.5587 31.5 24.7956 31.5 24M31.5 24V27C31.5 28.5913 30.8679 30.1174 29.7426 31.2426C28.6174 32.3679 27.0913 33 25.5 33H18" stroke="#09090B" stroke-width="2" stroke-linecap="round" stroke-linejoin="round"/>
</svg>
