<svg width="91" height="39" viewBox="0 0 91 39" fill="none" xmlns="http://www.w3.org/2000/svg">
<path d="M42.6481 24.5517C42.6481 23.5175 42.2871 22.8006 41.164 22.8006C40.1746 22.8006 39.5863 23.3521 39.5863 24.4C39.5863 27.1714 44.0988 25.5168 44.0988 29.1156C44.0988 31.3906 42.481 32.0456 41.1306 32.0456C38.8977 32.0456 38.2426 30.8598 38.2426 28.7709H39.4125C39.4125 29.8739 39.4794 31.0597 41.2041 31.0597C41.4261 31.0671 41.6471 31.027 41.8533 30.942C42.0595 30.8569 42.2463 30.7288 42.4021 30.5655C42.5578 30.4023 42.6791 30.2076 42.7583 29.9936C42.8375 29.7797 42.8728 29.5511 42.8621 29.3224C42.8621 26.5372 38.3496 28.1504 38.3496 24.5379C38.3496 23.6279 38.7239 21.8216 41.144 21.8216C42.9623 21.8216 43.7913 22.7592 43.818 24.5655L42.6481 24.5517Z" fill="black"/>
<path d="M47.2475 26.3441H47.8358C48.8386 26.3441 49.2798 25.5996 49.2798 24.6206C49.2798 23.7244 48.9589 22.9936 48.0498 22.9936C46.8063 22.9936 46.686 24.1794 46.686 24.8895H45.5161C45.5161 23.2211 46.2782 22.0767 48.023 22.0767C50.0018 22.0767 50.4564 23.5244 50.4564 24.6137C50.4564 25.5927 49.9751 26.4613 48.9857 26.7095V26.7371C50.0553 26.9577 50.7372 27.6609 50.7372 29.0121C50.7372 30.7908 49.8681 32.0318 48.0498 32.0318C45.5094 32.0318 45.3623 29.7429 45.3623 29.3155V29.1914H46.5322C46.5322 30.0876 46.9601 31.1217 48.0364 31.1217C48.7317 31.1217 49.5406 30.7632 49.5406 29.1087C49.5406 27.9642 49.0057 27.2472 47.8291 27.2472H47.2275L47.2475 26.3441Z" fill="black"/>
<path d="M9.9041 2.94896C11.8161 1.96482 13.7213 0.968623 15.64 0C15.6567 3.2747 15.64 6.5632 15.64 9.84479C13.7715 10.2722 11.9264 10.81 10.0579 11.2357L10.3152 11.408L9.92415 11.3615C9.8807 10.4463 9.92415 9.52939 9.90076 8.6142C9.90076 6.72176 9.9041 4.8345 9.9041 2.94896Z" fill="#8C3223"/>
<path d="M15.64 0C17.5531 0.988156 19.4673 1.97459 21.3826 2.9593V8.6073C21.3725 9.48285 21.3826 10.3601 21.3826 11.2357L21.2589 11.2702C19.392 10.7858 17.5269 10.2877 15.65 9.84479C15.6383 6.5632 15.6567 3.2747 15.64 0Z" fill="#E15343"/>
<path d="M0 8.05058C0.849018 7.62314 1.68634 7.16813 2.54204 6.75104C2.53536 15.2274 2.53536 23.7037 2.54204 32.18C1.68634 31.7749 0.855703 31.3182 0.00668518 30.8908C0.00222839 23.2808 0 15.6674 0 8.05058Z" fill="#8C3223"/>
<path d="M2.54205 6.75104C4.99049 7.39736 7.45566 7.9713 9.90578 8.61762C9.92249 9.53281 9.88572 10.4497 9.92917 11.3649L10.3203 11.4115C12.0952 11.7079 13.8517 12.1009 15.6283 12.3784C15.6483 13.1178 15.645 13.8554 15.6283 14.5948C13.7264 14.8223 11.8161 15.0619 9.90912 15.3394C9.90912 18.1125 9.91915 20.8874 9.90912 23.6606C11.8111 23.9656 13.7264 24.1776 15.635 24.4258C15.6734 25.1549 15.6483 25.8856 15.6467 26.6164C13.7314 26.9491 11.8228 27.3196 9.9158 27.6954V30.3306C7.45231 30.9632 4.9905 31.5405 2.53703 32.1783C2.54595 23.7031 2.54762 15.2274 2.54205 6.75104Z" fill="#E15343"/>
<path d="M21.3792 8.60733C23.836 7.97824 26.2978 7.37156 28.758 6.7597C28.7491 14.9924 28.7491 23.2251 28.758 31.4579C28.758 31.6923 28.7346 31.9267 28.7145 32.1611C26.2678 31.563 23.826 30.9546 21.3809 30.3358C21.3709 29.4569 21.3809 28.5761 21.3809 27.6954C19.4706 27.3197 17.557 26.9491 15.6383 26.613C15.6383 25.8823 15.6651 25.1515 15.6266 24.4224C13.718 24.1794 11.8027 23.9622 9.90076 23.6572C9.91914 20.884 9.90076 18.1091 9.90076 15.336C11.8161 15.0619 13.7264 14.8224 15.6366 14.5862C15.645 13.8469 15.6483 13.1092 15.6366 12.3698C17.2428 12.1337 18.8305 11.7631 20.4366 11.508C20.7191 11.4605 20.9959 11.3819 21.2622 11.2736L21.3859 11.2392C21.3742 10.3584 21.3692 9.47943 21.3792 8.60733Z" fill="#8C3223"/>
<path d="M28.7597 6.7597C29.5953 7.20265 30.451 7.62147 31.2917 8.07131C31.2839 15.6767 31.2839 23.282 31.2917 30.8874C30.4326 31.3338 29.5635 31.7629 28.7112 32.2266V32.1628C28.7312 31.9284 28.748 31.694 28.7546 31.4596C28.7558 23.2257 28.7574 14.9924 28.7597 6.7597Z" fill="#E15343"/>
<path d="M10.0629 11.2357C11.9331 10.81 13.7765 10.2722 15.645 9.84479C17.5219 10.2877 19.387 10.7858 21.2539 11.2701C20.9876 11.3784 20.7108 11.457 20.4283 11.5045C18.8238 11.7631 17.2361 12.1336 15.6283 12.3663C13.85 12.0905 12.0935 11.6959 10.3203 11.3994C10.235 11.3494 10.1481 11.2943 10.0629 11.2357Z" fill="#5E1F19"/>
<path d="M15.6584 14.5897C17.5636 14.8344 19.4723 15.0688 21.3759 15.3394V23.6589C19.4673 23.945 17.5519 24.1932 15.6366 24.4138C15.6634 21.1373 15.6216 17.8626 15.6584 14.5897Z" fill="#E15343"/>
<path d="M9.90912 27.6919C11.8144 27.3162 13.7247 26.9456 15.64 26.613C17.557 26.9491 19.4706 27.3196 21.3826 27.6954C19.4689 28.1814 17.5603 28.7002 15.6383 29.1552C13.723 28.6847 11.8161 28.1883 9.90912 27.6919Z" fill="#F2B0A9"/>
<path d="M9.90409 30.3341C9.91245 29.4551 9.90409 28.5779 9.90409 27.6989C11.811 28.1935 13.7197 28.6916 15.6316 29.1621C15.6517 32.4368 15.64 35.7219 15.6316 39C13.7113 38.0331 11.806 37.0352 9.8924 36.0511C9.90019 34.1425 9.90409 32.2369 9.90409 30.3341Z" fill="#8C3223"/>
<path d="M15.6366 29.1569C17.5586 28.7019 19.4673 28.1831 21.3809 27.6971C21.3725 28.5761 21.3692 29.4568 21.3809 30.3375C21.3892 32.2334 21.3809 34.1293 21.3809 36.0372C19.4667 37.0219 17.5536 38.0084 15.6417 38.9965C15.645 35.7149 15.6567 32.4351 15.6366 29.1569Z" fill="#E15343"/>
<path d="M42.0147 9.08818C40.4704 9.08818 38.764 9.7052 38.3913 11.7217C38.383 11.7589 38.382 11.7974 38.3885 11.8349C38.3949 11.8725 38.4085 11.9083 38.4286 11.9403C38.4488 11.9723 38.4749 11.9998 38.5055 12.0212C38.5362 12.0426 38.5706 12.0574 38.6069 12.0647H38.6337L40.2181 12.2612C40.2906 12.2394 40.3545 12.1941 40.4002 12.1321C40.446 12.07 40.4712 11.9944 40.4721 11.9165C40.532 11.6106 40.6982 11.3379 40.9396 11.1496C41.1809 10.9614 41.4807 10.8706 41.7824 10.8944C41.9561 10.8865 42.1291 10.9219 42.2868 10.9975C42.4444 11.0731 42.5821 11.1867 42.6882 11.3288C42.873 11.7135 42.9466 12.1448 42.9005 12.5714V12.8093C41.857 12.8547 40.825 13.0526 39.8353 13.397C39.3055 13.6288 38.8565 14.021 38.5476 14.5217C38.2387 15.0224 38.0846 15.6081 38.1055 16.2012C38.1055 17.9902 39.1885 18.8813 40.5323 18.8813C41.044 18.9131 41.5555 18.8167 42.0232 18.6003C42.4909 18.3839 42.9009 18.0539 43.218 17.6386C43.453 18.0636 43.7598 18.4418 44.1239 18.7554C44.1843 18.789 44.2533 18.8025 44.3215 18.7942C44.3897 18.7859 44.4537 18.7561 44.5049 18.7089C44.8392 18.4004 45.4108 17.8471 45.75 17.5559C45.81 17.4939 45.8436 17.4099 45.8436 17.3223C45.8436 17.2348 45.81 17.1508 45.75 17.0888C45.3561 16.6585 45.133 16.0914 45.125 15.4997V12.9041C45.125 11.7872 45.2152 10.7238 44.4281 9.93788C43.75 9.36242 42.8924 9.06048 42.0147 9.08818ZM63.2987 9.08818C61.7544 9.08818 60.048 9.7052 59.6753 11.7217C59.6666 11.7585 59.6652 11.7967 59.6711 11.8341C59.677 11.8715 59.69 11.9073 59.7095 11.9394C59.7289 11.9715 59.7544 11.9993 59.7844 12.0211C59.8144 12.0429 59.8483 12.0583 59.8842 12.0664H59.9109L61.5037 12.2595C61.5803 12.2419 61.649 12.1984 61.699 12.136C61.7489 12.0735 61.7772 11.9957 61.7794 11.9148C61.8393 11.6092 62.0053 11.3367 62.2463 11.1485C62.4873 10.9603 62.7866 10.8693 63.0881 10.8927C63.2618 10.8848 63.4348 10.9201 63.5925 10.9957C63.7501 11.0713 63.8878 11.185 63.9939 11.327C64.1692 11.7152 64.233 12.147 64.1778 12.5714V12.8093C63.1413 12.8548 62.1165 13.0527 61.1343 13.397C60.6045 13.6288 60.1555 14.021 59.8466 14.5217C59.5377 15.0224 59.3836 15.6081 59.4045 16.2012C59.4045 17.9902 60.4875 18.8813 61.8313 18.8813C62.3421 18.9122 62.8527 18.8154 63.3194 18.599C63.7862 18.3827 64.1953 18.0532 64.512 17.6386C64.7467 18.0638 65.0535 18.4421 65.4179 18.7554C65.4783 18.789 65.5473 18.8025 65.6155 18.7942C65.6837 18.7859 65.7477 18.7561 65.7989 18.7089C66.1332 18.4004 66.7048 17.8471 67.044 17.5559C67.1009 17.4922 67.1324 17.4089 67.1324 17.3223C67.1324 17.2358 67.1009 17.1524 67.044 17.0888C66.6553 16.6568 66.4372 16.0907 66.4323 15.5014V12.9041C66.4323 11.7872 66.5042 10.7238 65.717 9.93788C65.0398 9.3574 64.1787 9.05487 63.2987 9.08818ZM51.3255 9.17608C50.8451 9.16507 50.3746 9.31862 49.9879 9.6127C49.6011 9.90679 49.3198 10.3248 49.1879 10.8014V9.65177C49.1828 9.57168 49.1496 9.49623 49.0946 9.43947C49.0396 9.38272 48.9664 9.34852 48.8887 9.34326H47.3846C47.3024 9.34544 47.2241 9.3801 47.1659 9.44007C47.1078 9.50005 47.0742 9.58077 47.072 9.66556V18.4866C47.0798 18.5657 47.1138 18.6396 47.1683 18.6959C47.2228 18.7521 47.2945 18.7871 47.3712 18.7951H48.9974C49.0796 18.7929 49.1579 18.7583 49.216 18.6983C49.2742 18.6383 49.3078 18.5576 49.3099 18.4728V13.8038C49.3099 12.7817 49.2598 11.3908 50.428 11.3908C51.5962 11.3908 51.4191 12.83 51.4191 13.8038V18.4745C51.4238 18.5561 51.4565 18.6333 51.5113 18.6923C51.5661 18.7513 51.6394 18.7884 51.7182 18.7968H53.3444C53.4266 18.7946 53.5049 18.76 53.5631 18.7C53.6212 18.64 53.6548 18.5593 53.6569 18.4745V13.8038C53.6195 13.2403 53.6686 12.6744 53.8024 12.1268C53.8713 11.9197 53.9976 11.738 54.1658 11.6044C54.334 11.4708 54.5366 11.3912 54.7483 11.3753C54.9702 11.3464 55.1942 11.4092 55.3714 11.55C55.5487 11.6908 55.6647 11.8981 55.6943 12.1268C55.7483 12.6839 55.7634 13.2444 55.7394 13.8038V18.4745C55.7441 18.5561 55.7768 18.6333 55.8316 18.6923C55.8864 18.7513 55.9597 18.7884 56.0385 18.7968H57.6597C57.7419 18.7946 57.8202 18.76 57.8784 18.7C57.9365 18.64 57.9701 18.5593 57.9722 18.4745V12.8748C57.9722 11.9406 58.0625 10.8531 57.5511 10.1051C57.2886 9.76607 56.9433 9.5053 56.5507 9.34956C56.1581 9.19382 55.7323 9.14874 55.3172 9.21895C54.9021 9.28915 54.5126 9.47212 54.1888 9.74902C53.865 10.0259 53.6185 10.3868 53.4748 10.7945C52.9734 9.69314 52.3383 9.18297 51.3238 9.18297L51.3255 9.17608ZM78.9804 9.17608C76.6406 9.17608 75.3253 11.3064 75.3253 14.0519C75.3253 16.7975 76.6155 18.9743 78.9804 18.9743C81.245 18.9743 82.694 16.8303 82.694 14.1364C82.694 11.3632 81.3771 9.17608 78.9487 9.17608H78.9804ZM88.2544 9.17608C87.1313 9.17608 86.4929 9.73622 86.035 10.9599V9.61558C86.0172 9.54798 85.9785 9.4882 85.9248 9.44529C85.8712 9.40237 85.8054 9.37866 85.7375 9.37773H84.2333C84.1561 9.37601 84.0811 9.4043 84.0232 9.45699C83.9653 9.50968 83.9287 9.5829 83.9208 9.66211V18.4745C83.9255 18.5561 83.9582 18.6333 84.013 18.6923C84.0678 18.7513 84.1411 18.7884 84.2199 18.7968H85.8461C85.9283 18.7946 86.0066 18.76 86.0648 18.7C86.1229 18.64 86.1565 18.5593 86.1586 18.4745V13.7296C86.1352 13.1569 86.2291 12.5854 86.4344 12.0526C86.5001 11.8611 86.617 11.6928 86.7718 11.5671C86.9265 11.4414 87.1126 11.3635 87.3085 11.3426C88.4316 11.3426 88.323 12.7438 88.323 13.7141V18.5055C88.3333 18.5813 88.3687 18.651 88.4233 18.7029C88.4778 18.7547 88.5481 18.7855 88.6221 18.7899H90.25C90.3264 18.7886 90.3998 18.7593 90.4571 18.7072C90.5144 18.655 90.5518 18.5835 90.5625 18.5055V12.9644C90.5625 12.1026 90.5625 10.9237 90.1413 10.2188C89.9434 9.88671 89.6635 9.61483 89.3302 9.431C88.9968 9.24717 88.6221 9.158 88.2444 9.17263L88.2544 9.17608ZM68.732 9.32603C68.6527 9.32603 68.5766 9.35853 68.5205 9.41639C68.4644 9.47424 68.4329 9.55271 68.4329 9.63454V10.8996C68.4292 10.9806 68.4566 11.0598 68.5092 11.1201C68.5617 11.1805 68.6352 11.217 68.7137 11.2219H71.5164L68.341 16.0736C68.1883 16.3331 68.1101 16.6319 68.1153 16.9354V18.2194C68.1131 18.2675 68.1225 18.3155 68.1427 18.3589C68.1629 18.4023 68.1933 18.4398 68.2312 18.4681C68.269 18.4963 68.3131 18.5144 68.3594 18.5206C68.4057 18.5268 68.4528 18.5211 68.4964 18.5038C69.3641 18.0276 70.3321 17.7786 71.315 17.7786C72.298 17.7786 73.2659 18.0276 74.1337 18.5038C74.1788 18.523 74.2278 18.5303 74.2763 18.525C74.3248 18.5198 74.3713 18.5022 74.4116 18.4738C74.4519 18.4454 74.4847 18.4072 74.5071 18.3625C74.5295 18.3178 74.5407 18.268 74.5398 18.2177V16.8906C74.534 16.7925 74.5033 16.6977 74.4508 16.6158C74.3983 16.5338 74.3258 16.4675 74.2406 16.4235C73.308 15.905 72.2554 15.66 71.1972 15.7151L73.9649 11.5115C74.1635 11.2903 74.3039 11.0203 74.3727 10.7273V9.65177C74.3763 9.57078 74.3489 9.49156 74.2964 9.43124C74.2438 9.37093 74.1704 9.33437 74.0919 9.32947H68.7437L68.732 9.32603ZM78.9754 11.003C79.2244 10.9869 79.4707 11.0639 79.669 11.22C79.8674 11.3761 80.0045 11.6008 80.0551 11.8527C80.2384 12.6161 80.316 13.4023 80.2857 14.1881C80.2857 15.3049 80.2305 17.1905 78.9771 17.1905C77.7236 17.1905 77.7153 14.8551 77.7153 13.7882C77.7153 12.7214 77.7704 10.9858 78.947 10.9858L78.9754 11.003ZM42.8754 14.2019V14.5707C42.9375 15.1947 42.8341 15.8244 42.5763 16.3925C42.4763 16.6155 42.3195 16.8062 42.1226 16.9443C41.9256 17.0825 41.696 17.1628 41.4582 17.1767C40.8331 17.1767 40.4671 16.6596 40.4671 15.9116C40.4487 14.4639 41.7122 14.2071 42.8804 14.2071L42.8754 14.2019ZM64.1594 14.2019V14.5707C64.2231 15.1976 64.1197 15.8305 63.8602 16.4011C63.7607 16.6244 63.604 16.8155 63.407 16.9537C63.2099 17.0919 62.9801 17.172 62.7421 17.1853C62.1171 17.1853 61.751 16.6683 61.751 15.9202C61.751 14.4587 62.9828 14.1967 64.151 14.1967L64.1594 14.2019Z" fill="#201C1D"/>
</svg>
