<svg width="75" height="36" viewBox="0 0 75 36" fill="none" xmlns="http://www.w3.org/2000/svg">
<path d="M28.9768 17.5236C28.0296 17.5236 27.2594 17.804 26.669 18.3645C26.0785 18.9255 25.779 19.6608 25.779 20.5618C25.779 21.0288 25.8534 21.4545 26 21.8446C26.1465 22.2355 26.3746 22.5977 26.6813 22.9249C26.9879 23.2524 27.6017 23.6973 28.5165 24.2629C29.639 24.9482 30.3735 25.5043 30.7261 25.9386C31.0789 26.3725 31.254 26.8271 31.254 27.3012C31.254 27.9359 31.045 28.4425 30.6156 28.8234C30.1855 29.2044 29.6102 29.3942 28.897 29.3942C28.1448 29.3942 27.4895 29.129 26.9268 28.6024C26.3641 28.075 26.08 27.3775 26.0736 26.5033H25.7238V29.6765H26.0736C26.1804 29.3761 26.3282 29.2223 26.5217 29.2223C26.6147 29.2223 26.8327 29.2865 27.1723 29.4065C27.9984 29.7004 28.6768 29.8423 29.2101 29.8423C30.129 29.8423 30.9134 29.5204 31.567 28.8663C32.2196 28.2126 32.5491 27.4239 32.5491 26.5033C32.5491 25.7894 32.3315 25.1542 31.9046 24.6005C31.4776 24.0462 30.6473 23.4014 29.4065 22.661C28.3387 22.0195 27.6456 21.497 27.3257 21.0897C27.0053 20.683 26.8408 20.2331 26.8408 19.7393C26.8408 19.2054 27.037 18.7764 27.4239 18.4565C27.8109 18.1364 28.3179 17.9778 28.9523 17.9778C29.6662 17.9778 30.2614 18.1897 30.7322 18.6161C31.2027 19.0433 31.4747 19.6353 31.5547 20.3961H31.9046V17.6463H31.5793C31.5395 17.7865 31.5027 17.8761 31.4688 17.9164C31.4359 17.9564 31.3725 17.9778 31.2785 17.9778C31.1653 17.9778 30.9635 17.9302 30.677 17.8366C30.0632 17.6299 29.4973 17.5236 28.9768 17.5236ZM40.4116 17.5236C39.2575 17.5236 38.2096 17.7956 37.2629 18.3399C36.3148 18.8832 35.5642 19.6377 35.0103 20.5986C34.4567 21.5595 34.1817 22.58 34.1817 23.6676C34.1817 25.1287 34.66 26.4304 35.6241 27.5713C36.5887 28.7114 37.7446 29.4219 39.0859 29.695C39.3925 29.8547 39.8313 30.2672 40.4055 30.9348C41.0527 31.6882 41.6002 32.2316 42.0505 32.5552C42.5002 32.879 42.9859 33.1162 43.499 33.2733C44.0126 33.4297 44.568 33.5066 45.1685 33.5066C45.8957 33.5066 46.5468 33.3802 47.1203 33.1199L46.9914 32.8007C46.6585 32.9208 46.3035 32.9787 45.9296 32.9787C45.4221 32.9787 44.9092 32.8114 44.3951 32.4754C43.8817 32.1386 43.2397 31.496 42.474 30.5481C42.114 30.0939 41.8656 29.8073 41.7251 29.695C43.1926 29.4084 44.3993 28.6972 45.3403 27.559C46.2812 26.4213 46.7521 25.1228 46.7521 23.6676C46.7521 21.9397 46.1373 20.4875 44.9168 19.3036C43.6954 18.1195 42.1933 17.5236 40.4116 17.5236ZM47.55 17.5236L47.5684 17.898C48.3368 17.898 48.7672 18.1244 48.8635 18.5793C48.8993 18.7421 48.9158 19.0426 48.9187 19.4754L48.9126 27.7554C48.9062 28.3738 48.8181 28.7686 48.6487 28.94C48.479 29.1101 48.1922 29.2167 47.7771 29.2592L47.7587 29.6336H55.4187L55.6151 27.7554H55.2653C55.1653 28.267 54.9363 28.6336 54.5717 28.8418C54.2061 29.0515 53.5597 29.1548 52.626 29.1548H51.9017C51.0616 29.1548 50.5755 28.8511 50.4471 28.2403C50.4205 28.1194 50.4115 27.9899 50.4102 27.8475L50.4409 19.4754C50.4407 18.858 50.5187 18.4443 50.6803 18.2417C50.8436 18.0399 51.1379 17.927 51.5641 17.898L51.5457 17.5236H47.55ZM40.5344 17.9778C41.8361 17.9778 42.899 18.4905 43.72 19.5245C44.5407 20.559 44.9475 21.9767 44.9475 23.7719C44.9475 25.4731 44.5348 26.8352 43.7077 27.8597C42.8805 28.884 41.7797 29.3942 40.4116 29.3942C39.0974 29.3942 38.0316 28.8681 37.2138 27.8106C36.3968 26.7532 35.9924 25.3803 35.9924 23.6921C35.9924 21.9573 36.4017 20.5686 37.2261 19.5307C38.05 18.4938 39.1534 17.9778 40.5344 17.9778ZM58.1501 19.7578C57.9632 19.7578 57.8208 19.8209 57.7143 19.948C57.6053 20.0747 57.5719 20.2282 57.6099 20.4145C57.6467 20.5953 57.7486 20.7537 57.9107 20.8871C58.0717 21.0204 58.2456 21.0897 58.4324 21.0897C58.6131 21.0897 58.7508 21.0204 58.8498 20.8871C58.9487 20.7537 58.9789 20.5953 58.9418 20.4145C58.9038 20.2282 58.8053 20.0747 58.6534 19.948C58.4997 19.8209 58.3308 19.7578 58.1501 19.7578ZM63.2015 21.0283C62.8841 22.2495 62.1959 22.9104 61.1392 23.017L61.1515 23.3668H62.3852L62.3606 27.5037C62.3626 28.211 62.3842 28.6819 62.4343 28.9216C62.5558 29.4954 62.9305 29.787 63.5575 29.787C64.4647 29.787 65.4163 29.2344 66.4116 28.1298L66.1109 27.872C65.3922 28.5994 64.7568 28.9645 64.202 28.9645C63.861 28.9645 63.6496 28.7684 63.5698 28.3814C63.5479 28.2875 63.5391 28.1776 63.5391 28.05L63.5514 23.3668H65.4357L65.4173 22.8083H63.5575V21.0283H63.2015ZM70.4871 22.5873C69.4332 22.5873 68.5758 23.099 67.9092 24.1156C67.2461 25.134 67.0409 26.2623 67.3016 27.5037C67.455 28.2309 67.7607 28.7944 68.2284 29.1916C68.6954 29.5887 69.2878 29.787 69.9961 29.787C70.6556 29.787 71.5738 29.62 71.9602 29.2837C72.3477 28.9476 72.7046 28.403 73.0344 27.6572L72.7704 27.381C72.2445 28.3486 71.1832 28.8357 70.3828 28.8357C69.2824 28.8357 68.6085 28.2319 68.3573 27.0311C68.3247 26.8778 68.3004 26.7132 68.2837 26.5401C69.5927 26.3328 70.5849 25.9658 71.2544 25.4353C71.9234 24.9045 72.5951 24.3418 72.4697 23.7474C72.395 23.3941 72.2116 23.1164 71.9295 22.9065C71.6438 22.6966 70.9018 22.5873 70.4871 22.5873ZM58.9664 22.6303L56.6954 23.152V23.5571L57.481 23.4589C57.8616 23.4589 58.0855 23.6312 58.1562 23.9745C58.18 24.0893 58.195 24.2507 58.1992 24.4532L58.1746 28.1666C58.1682 28.6805 58.1113 28.9792 57.9966 29.0689C57.881 29.1587 57.576 29.2039 57.0821 29.2039L57.0698 29.5538H60.6727L60.6666 29.2039C60.166 29.2039 59.8414 29.1644 59.6968 29.0873C59.5547 29.0107 59.4567 28.8712 59.4145 28.6577C59.3818 28.5037 59.3676 28.2385 59.3654 27.872L59.3776 22.6303H58.9664ZM69.9102 23.3177C70.1294 23.3177 70.3413 23.4024 70.5547 23.5694C70.7651 23.7358 70.8932 23.9208 70.9352 24.1218C71.1407 25.109 70.2654 25.7915 68.2959 26.1718C68.2397 25.4519 68.3644 24.7985 68.6826 24.2077C68.9983 23.6175 69.4096 23.3177 69.9102 23.3177Z" fill="#003B57"/>
<path d="M23.8898 3.34611H4.3457C3.03583 3.34611 1.96411 4.41802 1.96411 5.72784V27.2813C1.96411 28.5911 3.03583 29.6628 4.3457 29.6628H17.218C17.0719 23.258 19.259 10.8282 23.8898 3.34611Z" fill="#0F80CC"/>
<path d="M23.1798 4.04092H4.34571C3.41562 4.04092 2.65875 4.79759 2.65875 5.72784V25.7088C6.92427 24.0717 13.3263 22.6591 17.7529 22.7233C18.6424 18.0721 21.2568 8.95674 23.1798 4.04092Z" fill="url(#paint0_linear_1_272)"/>
<path d="M28.4485 2.64075C27.11 1.44706 25.4893 1.92655 23.8898 3.34611C23.6524 3.55701 23.4155 3.79098 23.1798 4.04092C20.4435 6.94363 17.9037 12.3204 17.1146 16.4266C17.422 17.05 17.6621 17.8454 17.8202 18.4531C17.8607 18.609 17.8973 18.7553 17.9265 18.8798C17.996 19.1744 18.0333 19.3654 18.0333 19.3654C18.0333 19.3654 18.0088 19.2726 17.9081 18.9807C17.889 18.9247 17.8676 18.8636 17.8423 18.7917C17.8315 18.762 17.8165 18.7259 17.8001 18.6873C17.6216 18.2724 17.1279 17.3966 16.9106 17.0154C16.7247 17.5636 16.5605 18.0765 16.423 18.5405C17.0503 19.6882 17.4325 21.6551 17.4325 21.6551C17.4325 21.6551 17.3994 21.5277 17.2418 21.0828C17.1018 20.6893 16.4048 19.4681 16.2397 19.1825C15.9573 20.2252 15.8451 20.9291 15.9463 21.1005C16.1427 21.4326 16.3299 22.0057 16.4942 22.6394C16.8654 24.067 17.1234 25.805 17.1234 25.805C17.1234 25.805 17.1318 25.9202 17.1458 26.0974C17.0942 27.2963 17.1252 28.5393 17.218 29.6628C17.341 31.1501 17.5725 32.4277 17.8676 33.1115L18.0679 33.0023C17.6346 31.6551 17.4586 29.8896 17.5357 27.8536C17.6523 24.7414 18.3685 20.9883 19.6918 17.0765C21.9274 11.1714 25.0293 6.43345 27.8681 4.17079C25.2807 6.5076 21.7786 14.0716 20.7303 16.8727C19.5565 20.0094 18.7247 22.9529 18.2234 25.7731C19.0883 23.1292 21.885 21.9927 21.885 21.9927C21.885 21.9927 23.2566 20.3011 24.8596 17.8842C23.8994 18.1032 22.3227 18.4781 21.7946 18.7001C21.0156 19.0269 20.8057 19.1383 20.8057 19.1383C20.8057 19.1383 23.3291 17.6017 25.494 16.9059C28.4714 12.2165 31.7151 5.55476 28.4485 2.64075Z" fill="#003B57"/>
<defs>
<linearGradient id="paint0_linear_1_272" x1="14.4915" y1="4.48434" x2="14.4915" y2="24.5038" gradientUnits="userSpaceOnUse">
<stop stop-color="#97D9F6"/>
<stop offset="0.920245" stop-color="#0F80CC"/>
<stop offset="1" stop-color="#0F80CC"/>
</linearGradient>
</defs>
</svg>
