<svg width="80" height="32" viewBox="0 0 80 32" fill="none" xmlns="http://www.w3.org/2000/svg">
<g clip-path="url(#clip0_1_365)">
<mask id="mask0_1_365" style="mask-type:luminance" maskUnits="userSpaceOnUse" x="0" y="0" width="80" height="32">
<path d="M0 0H80V32H0V0Z" fill="white"/>
</mask>
<g mask="url(#mask0_1_365)">
<path d="M28.66 12.2987C29.348 11.93 30.1333 11.7447 31.0167 11.7447C32.0447 11.7447 32.9753 11.998 33.808 12.5047C34.64 13.0113 35.2987 13.732 35.7847 14.6653C36.27 15.6 36.512 16.682 36.512 17.9133C36.512 19.1447 36.27 20.2347 35.7847 21.182C35.2987 22.1313 34.64 22.8653 33.808 23.3867C32.9747 23.908 32.0447 24.1687 31.0167 24.1687C30.1333 24.1687 29.3547 23.988 28.6813 23.6253C28.008 23.2633 27.4613 22.808 27.0413 22.2567V31.998H24V11.9413H27.0413V13.6787C27.432 13.1287 27.9713 12.6687 28.6587 12.3L28.66 12.2987ZM32.9613 16.0353C32.6647 15.5067 32.2733 15.1053 31.788 14.83C31.3083 14.5569 30.7653 14.4149 30.2133 14.418C29.6487 14.418 29.1453 14.5587 28.66 14.8413C28.1747 15.1233 27.7833 15.5333 27.4867 16.0687C27.19 16.6047 27.0413 17.2347 27.0413 17.9587C27.0413 18.6833 27.1887 19.3133 27.4867 19.8487C27.7833 20.3847 28.1747 20.7933 28.66 21.0767C29.1303 21.3549 29.6669 21.5012 30.2133 21.5C30.768 21.5012 31.3125 21.3509 31.788 21.0653C32.2733 20.7753 32.6633 20.3633 32.9613 19.828C33.258 19.292 33.4067 18.6547 33.4067 17.9167C33.4067 17.1787 33.258 16.5667 32.9613 16.038V16.0353ZM41.9647 11.9413V23.9753H38.9233V11.9413H41.9647ZM42.332 7.88867C42.332 8.38957 42.133 8.86996 41.7788 9.22415C41.4246 9.57835 40.9442 9.77733 40.4433 9.77733C39.9424 9.77733 39.462 9.57835 39.1078 9.22415C38.7537 8.86996 38.5547 8.38957 38.5547 7.88867C38.5547 7.38776 38.7537 6.90737 39.1078 6.55318C39.462 6.19898 39.9424 6 40.4433 6C40.9442 6 41.4246 6.19898 41.7788 6.55318C42.133 6.90737 42.332 7.38776 42.332 7.88867ZM55.3027 13.1247C56.186 14.03 56.628 15.2933 56.628 16.9147V23.9747H53.5867V17.328C53.5867 16.372 53.348 15.6367 52.87 15.1233C52.392 14.6087 51.74 14.352 50.9147 14.352C50.0887 14.352 49.412 14.61 48.9267 15.1233C48.4413 15.638 48.1993 16.372 48.1993 17.328V23.9747H45.158V11.94H48.1993V13.4387C48.6123 12.912 49.1448 12.4913 49.7527 12.2113C50.382 11.9147 51.0733 11.7653 51.8267 11.7653C53.26 11.7653 54.4193 12.2187 55.3027 13.1233V13.1247ZM61.928 23.3987C61.0013 22.8853 60.2733 22.158 59.7447 21.2153C59.2153 20.2747 58.9513 19.188 58.9513 17.9567C58.9513 16.7253 59.222 15.64 59.7653 14.698C60.2888 13.7763 61.0602 13.0199 61.992 12.5147C62.9333 12 63.9833 11.7433 65.142 11.7433C66.3013 11.7433 67.35 12.0013 68.292 12.5147C69.2238 13.0199 69.9953 13.7763 70.5187 14.698C71.062 15.6387 71.3333 16.7253 71.3333 17.9567C71.3333 19.188 71.0547 20.2733 70.4967 21.2153C69.9587 22.1369 69.1772 22.8923 68.238 23.3987C67.2887 23.9133 66.2287 24.17 65.0553 24.17C63.882 24.17 62.8547 23.9133 61.928 23.3987ZM66.6087 21.118C67.0947 20.85 67.4813 20.448 67.7713 19.912C68.0613 19.3767 68.2053 18.7247 68.2053 17.9567C68.2053 16.8133 67.9047 15.9333 67.3047 15.318C66.7033 14.702 65.9687 14.3947 65.1 14.3947C64.2313 14.3947 63.5033 14.702 62.9167 15.318C62.33 15.9333 62.0367 16.8133 62.0367 17.9567C62.0367 19.1 62.322 19.98 62.8947 20.5953C63.4667 21.2113 64.1867 21.5187 65.0553 21.5187C65.6053 21.5187 66.1233 21.3853 66.6087 21.1167V21.118ZM77.3067 14.4387V20.2613C77.3067 20.6667 77.4047 20.96 77.6 21.1413C77.7953 21.322 78.1247 21.412 78.588 21.412H80V23.9753H78.0887C75.5253 23.9753 74.2447 22.73 74.2447 20.2387V14.4387H72.8113V11.9413H74.2447V8.66667L77.308 8V11.9413H80.0013V14.4387H77.3067ZM13.3533 31.1713L9.66133 30.248C9.37712 30.1769 9.12484 30.0128 8.9446 29.7819C8.76437 29.5509 8.66654 29.2663 8.66667 28.9733V25.332C8.66667 24.7713 8.89933 24.2647 9.27133 23.9013C11.0469 23.6268 12.6819 22.7727 13.9213 21.472C15.656 19.6513 16.3393 17.0867 15.8427 14.638L14 6H11.3333V2.66667C11.3333 2.48986 11.2631 2.32029 11.1381 2.19526C11.013 2.07024 10.8435 2 10.6667 2C10.4899 2 10.3203 2.07024 10.1953 2.19526C10.0702 2.32029 10 2.48986 10 2.66667V7.33333C10 7.51014 9.92976 7.67971 9.80474 7.80474C9.67971 7.92976 9.51014 8 9.33333 8C9.15652 8 8.98695 7.92976 8.86193 7.80474C8.73691 7.67971 8.66667 7.51014 8.66667 7.33333V6.66667C8.66667 6.48986 8.59643 6.32029 8.4714 6.19526C8.34638 6.07024 8.17681 6 8 6C7.82319 6 7.65362 6.07024 7.5286 6.19526C7.40357 6.32029 7.33333 6.48986 7.33333 6.66667V11.172C7.8631 10.8172 8.49233 10.6408 9.12933 10.6687C10.648 10.732 11.9 11.958 11.994 13.4753C12.0296 14.0338 11.9083 14.591 11.6439 15.0842C11.3794 15.5773 10.9824 15.9867 10.4976 16.2661C10.0127 16.5454 9.45943 16.6837 8.90017 16.6652C8.34091 16.6467 7.79797 16.4721 7.33267 16.1613V19.3333C7.33267 19.5101 7.26243 19.6797 7.13741 19.8047C7.01238 19.9298 6.84281 20 6.666 20C6.48919 20 6.31962 19.9298 6.1946 19.8047C6.06957 19.6797 5.99933 19.5101 5.99933 19.3333V4.66667C5.99933 4.48986 5.9291 4.32029 5.80407 4.19526C5.67905 4.07024 5.50948 4 5.33267 4C5.15586 4 4.98629 4.07024 4.86126 4.19526C4.73624 4.32029 4.666 4.48986 4.666 4.66667V6H1.99933L0.158 14.638C-0.338667 17.088 0.344 19.6513 2.07933 21.472C3.3185 22.7731 4.95358 23.6273 6.72933 23.9013C7.10133 24.2647 7.334 24.7713 7.334 25.332V28.9333C7.334 29.5587 6.908 30.1047 6.30067 30.2567L2.64733 31.17C2.26733 31.2653 2.00067 31.6067 2.00067 31.9987H14.0007C14.0007 31.6067 13.734 31.2653 13.354 31.17L13.3533 31.1713Z" fill="#C7154A"/>
<path d="M9 15.3333C9.44203 15.3333 9.86595 15.1577 10.1785 14.8452C10.4911 14.5326 10.6667 14.1087 10.6667 13.6667C10.6667 13.2246 10.4911 12.8007 10.1785 12.4882C9.86595 12.1756 9.44203 12 9 12C8.55797 12 8.13405 12.1756 7.82149 12.4882C7.50893 12.8007 7.33333 13.2246 7.33333 13.6667C7.33333 14.1087 7.50893 14.5326 7.82149 14.8452C8.13405 15.1577 8.55797 15.3333 9 15.3333ZM5.33333 3.33333C5.51014 3.33333 5.67971 3.2631 5.80474 3.13807C5.92976 3.01305 6 2.84348 6 2.66667C6 2.48986 5.92976 2.32029 5.80474 2.19526C5.67971 2.07024 5.51014 2 5.33333 2C5.15652 2 4.98695 2.07024 4.86193 2.19526C4.73691 2.32029 4.66667 2.48986 4.66667 2.66667C4.66667 2.84348 4.73691 3.01305 4.86193 3.13807C4.98695 3.2631 5.15652 3.33333 5.33333 3.33333ZM8 5.33333C8.17681 5.33333 8.34638 5.26309 8.4714 5.13807C8.59643 5.01305 8.66667 4.84348 8.66667 4.66667C8.66667 4.48986 8.59643 4.32029 8.4714 4.19526C8.34638 4.07024 8.17681 4 8 4C7.82319 4 7.65362 4.07024 7.5286 4.19526C7.40357 4.32029 7.33333 4.48986 7.33333 4.66667C7.33333 4.84348 7.40357 5.01305 7.5286 5.13807C7.65362 5.26309 7.82319 5.33333 8 5.33333ZM10.6667 1.33333C10.8435 1.33333 11.013 1.2631 11.1381 1.13807C11.2631 1.01305 11.3333 0.843478 11.3333 0.666667C11.3333 0.489856 11.2631 0.320286 11.1381 0.195262C11.013 0.0702379 10.8435 0 10.6667 0C10.4899 0 10.3203 0.0702379 10.1953 0.195262C10.0702 0.320286 10 0.489856 10 0.666667C10 0.843478 10.0702 1.01305 10.1953 1.13807C10.3203 1.2631 10.4899 1.33333 10.6667 1.33333Z" fill="#C7154A"/>
</g>
</g>
<defs>
<clipPath id="clip0_1_365">
<rect width="80" height="32" fill="white"/>
</clipPath>
</defs>
</svg>
