<svg width="66" height="46" viewBox="0 0 66 46" fill="none" xmlns="http://www.w3.org/2000/svg">
<g clip-path="url(#clip0_1_381)">
<mask id="mask0_1_381" style="mask-type:luminance" maskUnits="userSpaceOnUse" x="0" y="0" width="66" height="46">
<path d="M0.0145073 0.120419H65.7727V45.8795H0.0145073V0.120419Z" fill="white"/>
</mask>
<g mask="url(#mask0_1_381)">
<path fill-rule="evenodd" clip-rule="evenodd" d="M27.3187 5.12985C29.4413 2.92859 32.3956 1.56545 35.6593 1.56545C40.011 1.56545 43.7824 3.97382 45.8132 7.56231C47.6158 6.75954 49.5683 6.34508 51.5428 6.34608C59.3758 6.34608 65.734 12.7283 65.734 20.6037C65.734 28.4791 59.3758 34.8613 51.5428 34.8613C50.5855 34.8613 49.6523 34.7654 48.7384 34.5843C46.9615 37.7393 43.5648 39.8828 39.6967 39.8828C38.1218 39.8859 36.5671 39.53 35.1516 38.8423C33.3505 43.057 29.156 46.0193 24.2725 46.0193C19.1714 46.0193 14.8439 42.8162 13.1758 38.3125C12.4334 38.4686 11.6766 38.547 10.9178 38.5466C4.84967 38.5466 -0.0580215 33.5853 -0.0580215 27.4921C-0.0580215 23.3979 2.15165 19.8335 5.42989 17.9068C4.73441 16.3107 4.37642 14.5891 4.37824 12.8492C4.37824 5.81672 10.1079 0.132942 17.1672 0.132942C21.3013 0.132942 25.0002 2.09577 27.3211 5.14237" fill="#00A1E0"/>
</g>
<path fill-rule="evenodd" clip-rule="evenodd" d="M9.52528 23.9152C9.48394 24.0226 9.54003 24.045 9.55332 24.064C9.67686 24.1531 9.80233 24.2177 9.92805 24.2902C10.6001 24.6442 11.2335 24.7478 11.896 24.7478C13.245 24.7478 14.0839 24.0325 14.0839 22.8813V22.8586C14.0839 21.7941 13.1362 21.4064 12.2513 21.1294L12.1355 21.0921C11.4659 20.8758 10.8881 20.6875 10.8881 20.2492V20.2268C10.8881 19.8511 11.2265 19.5741 11.7487 19.5741C12.329 19.5741 13.0204 19.7665 13.4628 20.01C13.4628 20.01 13.5938 20.0943 13.6415 19.9683C13.6673 19.9002 13.8929 19.2988 13.9171 19.2314C13.9427 19.1608 13.8977 19.1076 13.8515 19.0801C13.3439 18.7719 12.6428 18.5623 11.9175 18.5623L11.7828 18.5628C10.5474 18.5628 9.68435 19.307 9.68435 20.3715V20.3944C9.68435 21.5167 10.6369 21.8828 11.5266 22.1356L11.6697 22.18C12.3176 22.3784 12.8785 22.5508 12.8785 23.0036V23.0263C12.8785 23.4429 12.5134 23.7536 11.9284 23.7536C11.7009 23.7536 10.9758 23.7497 10.1901 23.2551C10.0951 23.1999 10.0409 23.1602 9.9677 23.1156C9.92901 23.0922 9.83231 23.0501 9.79024 23.1763L9.52431 23.9133M29.276 23.9133C29.2346 24.0207 29.2907 24.0431 29.3045 24.0621C29.4276 24.1512 29.5535 24.2158 29.6792 24.2882C30.3513 24.6423 30.9847 24.7458 31.6471 24.7458C32.9962 24.7458 33.8351 24.0306 33.8351 22.8793V22.8567C33.8351 21.7922 32.8898 21.4045 32.0025 21.1275L31.8867 21.0902C31.2171 20.8739 30.6392 20.6856 30.6392 20.2472V20.2248C30.6392 19.8491 30.9777 19.5722 31.4999 19.5722C32.0801 19.5722 32.7691 19.7646 33.214 20.0081C33.214 20.0081 33.345 20.0924 33.3929 19.9664C33.4185 19.8983 33.6443 19.2969 33.6661 19.2295C33.6919 19.1589 33.6467 19.1057 33.6008 19.0782C33.0931 18.7699 32.392 18.5604 31.6667 18.5604L31.5318 18.5609C30.2964 18.5609 29.4334 19.3051 29.4334 20.3696V20.3925C29.4334 21.5148 30.3859 21.8808 31.2756 22.1337L31.4184 22.178C32.0688 22.3765 32.6272 22.5489 32.6272 23.0017V23.0243C32.6272 23.441 32.2622 23.7517 31.6771 23.7517C31.4491 23.7517 30.7222 23.7478 29.9389 23.2531C29.8439 23.198 29.7883 23.1599 29.7162 23.1137C29.6918 23.0983 29.5779 23.054 29.539 23.1744L29.2731 23.9113M42.7632 21.6571C42.7632 22.3074 42.6413 22.8203 42.403 23.184C42.1651 23.5429 41.8058 23.7187 41.3054 23.7187C40.805 23.7187 40.4471 23.5443 40.2126 23.1864C39.9764 22.8252 39.8573 22.3098 39.8573 21.6595C39.8573 21.0092 39.9772 20.4987 40.2126 20.1398C40.4467 19.7834 40.8025 19.6124 41.3054 19.6124C41.8083 19.6124 42.166 19.7851 42.403 20.1398C42.6428 20.4987 42.7632 21.0092 42.7632 21.6595M43.8898 20.4529C43.7788 20.0796 43.6069 19.7521 43.3773 19.4775C43.1473 19.203 42.8575 18.9814 42.5118 18.8224C42.1685 18.6623 41.7623 18.5816 41.303 18.5816C40.8436 18.5816 40.4399 18.6628 40.0942 18.8224C39.7509 18.9824 39.4584 19.203 39.2287 19.4775C38.9995 19.7521 38.8274 20.0796 38.7162 20.4529C38.6062 20.8238 38.5503 21.2284 38.5503 21.6595C38.5503 22.0906 38.6062 22.4952 38.7162 22.8661C38.8266 23.2394 38.999 23.5669 39.2287 23.8415C39.4586 24.116 39.7509 24.3352 40.0942 24.4918C40.4399 24.6478 40.846 24.7273 41.303 24.7273C41.7599 24.7273 42.166 24.6478 42.5093 24.4918C42.8526 24.3357 43.1452 24.116 43.3748 23.8415C43.6043 23.5669 43.7762 23.2394 43.8874 22.8661C43.9971 22.4952 44.053 22.0906 44.053 21.6595C44.053 21.2308 43.9971 20.8238 43.8874 20.4529M53.1467 23.5356C53.1097 23.4265 53.0029 23.4677 53.0029 23.4677C52.8392 23.5301 52.6644 23.5879 52.4783 23.6168C52.2907 23.6462 52.0818 23.6609 51.8618 23.6609C51.3178 23.6609 50.8826 23.4993 50.5732 23.1792C50.2613 22.8589 50.0873 22.3435 50.0897 21.6451C50.0914 21.0092 50.2456 20.5324 50.5224 20.1663C50.7956 19.8051 51.2163 19.6172 51.7723 19.6172C52.2365 19.6172 52.5919 19.6709 52.9642 19.787C52.9642 19.787 53.0524 19.8253 53.0947 19.7094C53.1936 19.4373 53.2666 19.2422 53.3728 18.9436C53.4027 18.8581 53.3292 18.822 53.3024 18.8116C53.1564 18.7548 52.8116 18.6616 52.5505 18.6223C52.3064 18.5852 52.0235 18.5659 51.7044 18.5659C51.2305 18.5659 50.8099 18.6466 50.4497 18.8065C50.0894 18.9662 49.7848 19.1871 49.5431 19.4616C49.3013 19.7362 49.1176 20.0637 48.9943 20.437C48.8722 20.8079 48.8105 21.2149 48.8105 21.646C48.8105 22.5757 49.062 23.3295 49.56 23.881C50.058 24.4349 50.8075 24.7143 51.7842 24.7143C52.362 24.7143 52.9543 24.598 53.3798 24.4301C53.3798 24.4301 53.461 24.3911 53.4257 24.2967L53.1477 23.5356M55.118 21.0309C55.1719 20.6697 55.2713 20.3686 55.4275 20.135C55.6612 19.7786 56.0174 19.5835 56.5178 19.5835C57.0182 19.5835 57.3494 19.7795 57.5864 20.135C57.7435 20.3698 57.8122 20.6817 57.8378 21.0309L55.1059 21.0304L55.118 21.0309ZM58.9136 20.2362C58.8176 19.8773 58.58 19.5136 58.4253 19.3475C58.1787 19.085 57.9393 18.8995 57.7 18.7984C57.3545 18.652 56.9827 18.5769 56.6072 18.5775C56.131 18.5775 55.6982 18.6577 55.3477 18.8208C54.9971 18.985 54.7022 19.2085 54.4701 19.4879C54.2383 19.7672 54.0639 20.0972 53.9527 20.4753C53.8415 20.8486 53.7854 21.258 53.7854 21.6867C53.7854 22.125 53.8437 22.5321 53.9583 22.9005C54.0741 23.2714 54.2605 23.5966 54.5119 23.8663C54.7634 24.1384 55.0849 24.3504 55.4717 24.4997C55.8561 24.6478 56.3227 24.7246 56.857 24.723C57.9594 24.7193 58.5396 24.4749 58.7765 24.3424C58.8189 24.3188 58.8587 24.2781 58.8089 24.1608L58.5599 23.4648C58.5217 23.361 58.4163 23.3986 58.4163 23.3986C58.1431 23.5002 57.7563 23.6828 56.8497 23.6804C56.2574 23.6794 55.8198 23.5053 55.5442 23.2324C55.2638 22.953 55.1236 22.546 55.1018 21.968L58.9216 21.9709C58.9216 21.9709 59.0222 21.9699 59.0326 21.8722C59.0367 21.8317 59.1634 21.0919 58.9187 20.2369L58.9136 20.2362ZM24.5839 21.0309C24.6378 20.6697 24.7374 20.3686 24.8934 20.135C25.1274 19.7786 25.4833 19.5835 25.9837 19.5835C26.4841 19.5835 26.8154 19.7795 27.0523 20.135C27.2092 20.3698 27.2778 20.6817 27.3037 21.0309L24.5718 21.0304L24.5839 21.0309ZM28.3795 20.2362C28.2838 19.8773 28.0459 19.5136 27.8912 19.3475C27.6446 19.085 27.4052 18.8995 27.1659 18.7984C26.8204 18.652 26.4486 18.5769 26.0732 18.5775C25.5969 18.5775 25.1641 18.6577 24.8136 18.8208C24.463 18.985 24.1681 19.2085 23.936 19.4879C23.7047 19.7672 23.5299 20.0972 23.4187 20.4753C23.3077 20.8486 23.2518 21.258 23.2518 21.6867C23.2518 22.125 23.3096 22.5321 23.4249 22.9005C23.5405 23.2714 23.7271 23.5966 23.9761 23.8663C24.2276 24.1384 24.5491 24.3504 24.9359 24.4997C25.3203 24.6478 25.7845 24.7246 26.3212 24.723C27.4236 24.7193 28.0038 24.4749 28.2408 24.3424C28.2828 24.3188 28.323 24.2781 28.2729 24.1608L28.0239 23.4648C27.9855 23.361 27.8801 23.3986 27.8801 23.3986C27.6069 23.5002 27.2201 23.6828 26.3135 23.6804C25.7236 23.6794 25.2836 23.5053 25.008 23.2324C24.7275 22.953 24.5873 22.546 24.5656 21.968L28.3853 21.9709C28.3853 21.9709 28.4859 21.9699 28.4963 21.8722C28.5004 21.8317 28.6271 21.0919 28.3822 20.2369L28.3795 20.2362ZM16.34 23.5115C16.1903 23.3926 16.1695 23.3634 16.12 23.2861C16.0443 23.1698 16.0056 23.0043 16.0056 22.7924C16.0056 22.4601 16.1168 22.2192 16.3465 22.0579C16.3441 22.0583 16.6753 21.7737 17.4537 21.7833C17.8002 21.7895 18.1459 21.8188 18.4885 21.8712V23.598H18.489C18.489 23.598 18.0054 23.7018 17.4591 23.7346C16.683 23.781 16.3397 23.512 16.3421 23.5127L16.34 23.5115ZM17.8582 20.8383C17.7035 20.8269 17.5028 20.8214 17.2635 20.8214C16.9371 20.8214 16.6204 20.8619 16.3255 20.9413C16.0281 21.0213 15.7597 21.1451 15.5301 21.3098C15.2998 21.4735 15.1103 21.6877 14.9764 21.936C14.8413 22.1865 14.7724 22.4803 14.7724 22.8126C14.7724 23.1498 14.8312 23.4412 14.9472 23.6797C15.0609 23.9161 15.2321 24.1206 15.4452 24.2745C15.6572 24.4282 15.9191 24.5418 16.2213 24.6093C16.521 24.6774 16.8595 24.7119 17.2318 24.7119C17.6235 24.7119 18.0127 24.6791 18.3898 24.6158C18.711 24.5606 19.031 24.4986 19.3496 24.4299C19.4768 24.4007 19.618 24.3624 19.618 24.3624C19.7123 24.3386 19.705 24.2382 19.705 24.2382L19.7028 20.7701C19.7028 20.009 19.4988 19.4431 19.096 19.0939C18.6947 18.7447 18.1072 18.5688 17.3457 18.5688C17.0604 18.5688 16.5986 18.6074 16.323 18.6625C16.323 18.6625 15.4914 18.8234 15.1481 19.0912C15.1481 19.0912 15.0727 19.1375 15.1138 19.2422L15.3845 19.9647C15.4181 20.0584 15.5098 20.0264 15.5098 20.0264C15.5098 20.0264 15.5385 20.0151 15.5724 19.9951C16.3049 19.5977 17.2333 19.6097 17.2333 19.6097C17.6443 19.6097 17.9634 19.6928 18.1761 19.8554C18.3843 20.0146 18.4904 20.2552 18.4904 20.7609V20.9216C18.164 20.8744 17.8618 20.8472 17.8618 20.8472L17.8582 20.8383ZM48.5615 18.8802C48.567 18.8675 48.5699 18.8539 48.57 18.84C48.5701 18.8262 48.5673 18.8125 48.562 18.7997C48.5567 18.787 48.5488 18.7754 48.5389 18.7657C48.5289 18.7561 48.5172 18.7485 48.5042 18.7434C48.4392 18.7189 48.115 18.6507 47.866 18.6353C47.3873 18.6054 47.1214 18.6859 46.882 18.7928C46.6456 18.899 46.384 19.0698 46.239 19.2673L46.2385 18.8049C46.2385 18.7413 46.1933 18.69 46.129 18.69H45.1523C45.0889 18.69 45.043 18.7413 45.043 18.8049V24.4645C45.043 24.4951 45.0553 24.5244 45.077 24.546C45.0987 24.5677 45.1281 24.5798 45.1588 24.5799H46.1597C46.1903 24.5798 46.2197 24.5677 46.2414 24.546C46.2631 24.5244 46.2752 24.4951 46.2752 24.4645V21.6227C46.2752 21.2421 46.3173 20.864 46.4012 20.6256C46.4839 20.3898 46.5963 20.2017 46.7348 20.0668C46.867 19.9366 47.0287 19.8399 47.2062 19.7851C47.3729 19.7374 47.5454 19.7133 47.7188 19.7133C47.9182 19.7133 48.137 19.7644 48.137 19.7644C48.2105 19.7725 48.2514 19.7277 48.2763 19.6618C48.3418 19.4881 48.5277 18.9681 48.5639 18.8646" fill="#FFFFFE"/>
<path fill-rule="evenodd" clip-rule="evenodd" d="M39.2134 16.2681C39.0897 16.2309 38.9639 16.2011 38.8365 16.179C38.6653 16.1505 38.4918 16.1371 38.3182 16.139C37.6285 16.139 37.0848 16.3331 36.703 16.7165C36.324 17.0971 36.066 17.6768 35.9367 18.4395L35.89 18.697H35.0243C35.0243 18.697 34.9186 18.6926 34.8964 18.8075L34.7542 19.5974C34.7443 19.6731 34.7769 19.7203 34.8785 19.7198H35.7212L34.8662 24.4747C34.7992 24.8576 34.7225 25.1726 34.6377 25.4113C34.554 25.6468 34.4723 25.8233 34.3718 25.9515C34.2743 26.0755 34.182 26.1668 34.0227 26.22C33.8911 26.2641 33.7398 26.2843 33.574 26.2843C33.4816 26.2843 33.3588 26.2689 33.2681 26.2508C33.1775 26.233 33.1303 26.2128 33.0624 26.1844C33.0624 26.1844 32.9635 26.1468 32.9246 26.2455C32.8929 26.3262 32.6683 26.9416 32.6417 27.0177C32.6147 27.0928 32.6526 27.152 32.7005 27.1691C32.8127 27.2091 32.8961 27.2347 33.0489 27.2705C33.2611 27.3204 33.44 27.3235 33.6076 27.3235C33.9586 27.3235 34.2784 27.2744 34.5436 27.179C34.8105 27.0829 35.0429 26.9155 35.2484 26.6889C35.4705 26.4445 35.6103 26.1885 35.744 25.8392C35.8762 25.4932 35.9889 25.0635 36.0791 24.5628L36.9383 19.7198H38.1944C38.1944 19.7198 38.3003 19.7236 38.3223 19.6092L38.4645 18.8193C38.4744 18.7437 38.442 18.6965 38.34 18.697H37.1208C37.1268 18.6695 37.1822 18.2422 37.3222 17.84C37.3819 17.6683 37.4943 17.5299 37.5896 17.4347C37.6785 17.3441 37.788 17.2762 37.9089 17.2368C38.0414 17.1959 38.1795 17.1761 38.3182 17.178C38.4331 17.178 38.5457 17.1917 38.6315 17.2095C38.7498 17.2346 38.7957 17.2478 38.8266 17.257C38.9509 17.2948 38.9676 17.2582 38.992 17.1982L39.2836 16.4006C39.3135 16.3148 39.2405 16.2787 39.2134 16.2681ZM22.1758 24.4848C22.1758 24.5483 22.1303 24.6001 22.0665 24.6001H21.0552C20.9912 24.6001 20.9457 24.5483 20.9457 24.4848V16.3762C20.9457 16.3129 20.9912 16.2616 21.0552 16.2616H22.0665C22.1303 16.2616 22.1758 16.3129 22.1758 16.3762V24.4848Z" fill="#FFFFFE"/>
</g>
<defs>
<clipPath id="clip0_1_381">
<rect width="66" height="46" fill="white"/>
</clipPath>
</defs>
</svg>
