<svg width="91" height="36" viewBox="0 0 91 36" fill="none" xmlns="http://www.w3.org/2000/svg">
<path d="M39.264 20.0265H42.0163C43.3496 20.0265 44.1975 20.8127 44.1975 22.1607C44.1975 23.0899 43.8759 24.0672 42.8871 24.3115V24.3303C43.6243 24.4128 44.0461 25.0215 44.0899 25.7482L44.1609 27.2027C44.209 28.1445 44.3635 28.3826 44.6141 28.5371H43.3517C43.1732 28.3585 43.0907 27.7258 43.0657 27.3092L42.9947 25.9853C42.9111 24.8158 42.2679 24.7448 41.7313 24.7448H40.3134V28.535H39.264V20.0265ZM40.3134 23.8876H41.3491C41.9683 23.8876 43.1001 23.8876 43.1001 22.2431C43.1001 21.4152 42.5405 20.8837 41.5621 20.8837H40.3113L40.3134 23.8876ZM45.7469 20.0265H50.1489V20.9568H46.7942V23.6266H49.9527V24.5559H46.7942V27.6068H50.2868V28.5371H45.7469V20.0265ZM51.6681 20.0265H53.9443C56.5922 20.0265 56.9232 21.933 56.9232 24.2823C56.9232 26.4332 56.3875 28.5371 54.0519 28.5371H51.6681V20.0265ZM52.7175 27.6778H53.8138C55.6253 27.6778 55.8279 25.8192 55.8279 24.2938C55.8279 22.6483 55.7204 20.8858 53.8128 20.8858H52.7175V27.6778ZM62.0957 22.2348C62.0957 21.341 61.7742 20.7219 60.7718 20.7219C59.8895 20.7219 59.3643 21.199 59.3643 22.1043C59.3643 24.4984 63.3821 23.069 63.3821 26.1805C63.3821 28.1466 61.9402 28.7073 60.7332 28.7073C58.7473 28.7073 58.1594 27.684 58.1594 25.8715H59.2088C59.2088 26.8247 59.2683 27.8574 60.8063 27.8574C61.0041 27.8638 61.2011 27.8292 61.385 27.7557C61.5688 27.6822 61.7354 27.5714 61.8743 27.4304C62.0132 27.2893 62.1213 27.1211 62.192 26.9361C62.2626 26.7512 62.2942 26.5537 62.2847 26.3559C62.2847 23.9482 58.267 25.3431 58.267 22.2181C58.267 21.4319 58.5979 19.8688 60.7499 19.8688C62.3703 19.8688 63.1096 20.6811 63.1336 22.2411L62.0957 22.2348ZM69.7585 28.5392H68.7092V24.4389H65.7898V28.5392H64.7405V20.0265H65.7898V23.5034H68.7092V20.0265H69.7585V28.5392ZM71.4385 20.0265H72.4931V28.536H71.4437L71.4385 20.0265ZM74.1657 20.0265H78.5636V20.9568H75.2151V23.6266H78.3735V24.5559H75.2151V28.5287H74.1657V20.0265ZM82.3422 28.5392H81.2929V20.9589H79.1598V20.0265H84.4868V20.9568H82.336L82.3422 28.5392Z" fill="black"/>
<path d="M29.625 5.02686L16.1089 8.29703V27.1277L29.625 30.3958V5.02686Z" fill="#205B98"/>
<path d="M32.2161 29.1053L29.6162 30.4062V5.02686L32.2161 6.32783V29.1053ZM2.59653 5.02686L16.1085 8.29703V27.1277L2.59757 30.3958L2.59653 5.02686Z" fill="#5294CF"/>
<path d="M0 29.1053L2.59672 30.4062V5.02686L0 6.32783V29.1053Z" fill="#205B98"/>
<path d="M24.7005 2.5654L19.5665 0L17.9555 16.8834L19.5665 35.5L24.7005 32.9377V2.5654Z" fill="#5294CF"/>
<path d="M7.51581 2.5654L12.6518 0L14.2598 16.826L12.6529 35.5L7.51685 32.9377L7.51581 2.5654Z" fill="#205B98"/>
<path d="M12.6518 0H19.5722V35.5H12.6518V0Z" fill="#2D72B8"/>
<path d="M42.8902 7.51108C41.3606 7.51108 39.6712 8.1031 39.3016 10.0399C39.293 10.0753 39.2915 10.112 39.2973 10.1479C39.303 10.1838 39.3159 10.2182 39.3352 10.249C39.3544 10.2799 39.3797 10.3065 39.4094 10.3275C39.4392 10.3484 39.4728 10.3632 39.5083 10.3709H39.5355L41.1037 10.5589C41.1756 10.5379 41.2388 10.4944 41.2841 10.4348C41.3294 10.3752 41.3544 10.3027 41.3554 10.2279C41.4148 9.93456 41.5792 9.67301 41.8178 9.49231C42.0564 9.31161 42.3527 9.22417 42.6511 9.24641C42.8233 9.2388 42.9948 9.27278 43.1511 9.34548C43.3074 9.41818 43.4439 9.52745 43.5491 9.66405C43.7318 10.0337 43.8049 10.4471 43.7579 10.8575V11.0893C42.7253 11.1321 41.7031 11.3221 40.7237 11.6531C40.1999 11.8753 39.7559 12.2512 39.4502 12.731C39.1445 13.2108 38.9915 13.7721 39.0113 14.3407C39.0113 16.0593 40.0826 16.9144 41.4128 16.9144C41.9195 16.9453 42.4261 16.853 42.8894 16.6456C43.3527 16.4381 43.7588 16.1216 44.0732 15.7231C44.306 16.1303 44.6099 16.4947 44.9712 16.7954C45.0309 16.8272 45.0989 16.84 45.1661 16.832C45.2334 16.8239 45.2965 16.7955 45.347 16.7505C45.6791 16.455 46.245 15.9235 46.5812 15.6437C46.6405 15.584 46.6738 15.5033 46.6738 15.4192C46.6738 15.3351 46.6405 15.2544 46.5812 15.1947C46.1963 14.7799 45.9803 14.2362 45.9756 13.6703V11.1749C45.9756 10.1026 46.0643 9.08144 45.2844 8.32654C44.6118 7.77309 43.7608 7.48325 42.8902 7.51108ZM63.9678 7.51108C62.4382 7.51108 60.7478 8.1031 60.3792 10.0399C60.3709 10.0753 60.3696 10.1119 60.3755 10.1477C60.3814 10.1835 60.3943 10.2178 60.4135 10.2485C60.4328 10.2793 60.4579 10.306 60.4875 10.327C60.5171 10.348 60.5505 10.3629 60.5859 10.3709H60.6131L62.1813 10.5589C62.2572 10.5419 62.3254 10.5002 62.3749 10.4403C62.4244 10.3803 62.4526 10.3056 62.4549 10.2279C62.5143 9.93456 62.6788 9.67301 62.9173 9.49231C63.1559 9.31161 63.4522 9.22417 63.7507 9.24641C63.9228 9.23889 64.0943 9.27291 64.2506 9.3456C64.4069 9.41829 64.5434 9.52752 64.6486 9.66405C64.823 10.0358 64.8887 10.4492 64.8365 10.8575V11.0893C63.8102 11.1321 62.7953 11.3221 61.8222 11.6531C61.2978 11.8756 60.8532 12.2521 60.5475 12.7327C60.2417 13.2134 60.0891 13.7755 60.1098 14.3448C60.1098 16.0624 61.1821 16.9175 62.5123 16.9175C63.0196 16.9485 63.5269 16.856 63.9906 16.6479C64.4543 16.4399 64.8606 16.1225 65.1748 15.7231C65.4066 16.1313 65.7105 16.4947 66.0707 16.7954C66.1306 16.8277 66.1991 16.8407 66.2668 16.8327C66.3344 16.8247 66.3979 16.7959 66.4487 16.7505C66.7796 16.455 67.3455 15.9235 67.6818 15.6437C67.7382 15.5826 67.7695 15.5024 67.7695 15.4192C67.7695 15.336 67.7382 15.2559 67.6818 15.1947C67.2965 14.7801 67.0805 14.2363 67.0762 13.6703V11.1749C67.0762 10.1026 67.1472 9.08144 66.3672 8.32654C65.6964 7.76924 64.8435 7.4789 63.972 7.51108H63.9678ZM52.1108 7.59461C51.6349 7.58379 51.1688 7.73116 50.7856 8.01364C50.4024 8.29611 50.1238 8.69773 49.9934 9.15557V8.05298C49.988 7.97621 49.955 7.90399 49.9005 7.84967C49.846 7.79535 49.7736 7.7626 49.6968 7.75749H48.2079C48.1265 7.7596 48.049 7.7928 47.9913 7.85028C47.9337 7.90776 47.9002 7.98516 47.8978 8.06655V16.5385C47.9054 16.6146 47.9391 16.6857 47.9931 16.7397C48.0472 16.7938 48.1183 16.8275 48.1943 16.8351H49.8054C49.8867 16.8329 49.9641 16.7997 50.0216 16.7422C50.0791 16.6847 50.1124 16.6073 50.1145 16.526V12.0405C50.1145 11.059 50.0644 9.72252 51.2212 9.72252C52.3781 9.72252 52.2027 11.106 52.2027 12.0405V16.526C52.2073 16.6044 52.2397 16.6785 52.294 16.7352C52.3484 16.7918 52.4211 16.8272 52.4992 16.8351H54.1093C54.1908 16.8332 54.2684 16.8001 54.3261 16.7425C54.3839 16.685 54.4173 16.6075 54.4194 16.526V12.0405C54.3823 11.4995 54.4309 10.9562 54.5635 10.4304C54.6329 10.2306 54.7598 10.0559 54.9283 9.92803C55.0968 9.80021 55.2994 9.72508 55.5105 9.71208C55.7292 9.68662 55.9492 9.74824 56.1229 9.88363C56.2966 10.019 56.41 10.2173 56.4387 10.4357C56.4919 10.9702 56.5066 11.508 56.4836 12.0457V16.5312C56.4883 16.6094 56.5206 16.6833 56.5747 16.7399C56.6288 16.7964 56.7012 16.832 56.7791 16.8403H58.3902C58.4714 16.8379 58.5486 16.8046 58.6061 16.7471C58.6635 16.6897 58.6968 16.6124 58.6992 16.5312V11.1488C58.6992 10.2508 58.789 9.20673 58.2816 8.48838C58.0217 8.16285 57.6797 7.91243 57.2909 7.76287C56.9021 7.61331 56.4805 7.57001 56.0695 7.63742C55.6584 7.70483 55.2727 7.88053 54.952 8.14643C54.6314 8.41234 54.3873 8.75885 54.245 9.15035C53.7491 8.0937 53.1194 7.60296 52.115 7.60296L52.1108 7.59461ZM79.497 7.59461C77.1801 7.59461 75.877 9.64108 75.877 12.2775C75.877 14.9139 77.155 17.0042 79.497 17.0042C81.7398 17.0042 83.1744 14.9452 83.1744 12.3579C83.1744 9.69538 81.8703 7.59461 79.4657 7.59461H79.497ZM88.6811 7.59461C87.5691 7.59461 86.9363 8.13338 86.4832 9.30801V8.01748C86.4655 7.95215 86.4269 7.89437 86.3734 7.85292C86.3199 7.81147 86.2543 7.78859 86.1867 7.78777H84.6977C84.6213 7.78654 84.5471 7.8139 84.4897 7.8645C84.4324 7.9151 84.396 7.9853 84.3876 8.06133V16.526C84.393 16.6041 84.4257 16.6778 84.4799 16.7343C84.5341 16.7908 84.6064 16.8264 84.6842 16.8351H86.2942C86.3756 16.833 86.4531 16.7997 86.5108 16.7423C86.5685 16.6848 86.6019 16.6074 86.6043 16.526V11.9695C86.5814 11.4196 86.6742 10.8711 86.8768 10.3594C86.9421 10.1757 87.058 10.0142 87.2112 9.89358C87.3643 9.77294 87.5485 9.69807 87.7424 9.67763C88.8554 9.67763 88.7479 11.0224 88.7479 11.9538V16.5511C88.7575 16.6239 88.7923 16.6912 88.8463 16.7411C88.9002 16.7911 88.9699 16.8206 89.0434 16.8246H90.6544C90.7301 16.8233 90.8028 16.7951 90.8595 16.7449C90.9162 16.6948 90.9531 16.626 90.9635 16.5511V11.2323C90.9635 10.4054 90.9635 9.27355 90.5469 8.59592C90.3505 8.27739 90.0733 8.01662 89.7433 7.84017C89.4133 7.66372 89.0425 7.57791 88.6685 7.59148L88.6811 7.59461ZM69.3482 7.74079C69.2697 7.74133 69.1946 7.77275 69.1391 7.82824C69.0836 7.88374 69.0522 7.95884 69.0516 8.03732V9.25163C69.0488 9.32929 69.0763 9.40502 69.1283 9.46273C69.1804 9.52043 69.2529 9.55557 69.3304 9.56068H72.1057L68.9608 14.2206C68.8096 14.4696 68.7321 14.7563 68.7374 15.0475V16.2806C68.7354 16.3268 68.7449 16.3728 68.7649 16.4145C68.7849 16.4562 68.8149 16.4924 68.8522 16.5197C68.8896 16.5467 68.9332 16.564 68.9789 16.57C69.0246 16.576 69.0712 16.5706 69.1143 16.5542C69.9738 16.0974 70.9323 15.8585 71.9057 15.8585C72.8791 15.8585 73.8376 16.0974 74.6972 16.5542C74.7643 16.5808 74.8388 16.5816 74.9064 16.5566C74.9741 16.5315 75.0301 16.4823 75.0637 16.4184C75.0859 16.376 75.097 16.3286 75.096 16.2806V14.9964C75.0919 14.903 75.0633 14.8124 75.0131 14.7336C74.9629 14.6547 74.8928 14.5905 74.81 14.5474C73.8854 14.0525 72.8428 13.8203 71.7956 13.876L74.5364 9.83946C74.7316 9.62646 74.8695 9.36752 74.9352 9.08666V8.05298C74.9389 7.97528 74.9119 7.89925 74.8599 7.84139C74.8079 7.78353 74.7352 7.7485 74.6575 7.74392H69.3482V7.74079ZM79.4918 9.35082C79.7391 9.33435 79.9841 9.40795 80.1814 9.55804C80.3787 9.70812 80.515 9.92454 80.5651 10.1673C80.7468 10.9013 80.823 11.6573 80.7927 12.4122C80.7927 13.4855 80.7384 15.296 79.497 15.296C78.2555 15.296 78.2409 13.0533 78.2409 12.0352C78.2409 11.0183 78.2952 9.34455 79.4604 9.34455L79.4918 9.35082ZM43.7422 12.4226V12.7776C43.8035 13.3767 43.701 13.9811 43.4457 14.5265C43.3467 14.7405 43.1915 14.9236 42.9966 15.0562C42.8016 15.1888 42.5743 15.2659 42.3389 15.2793C41.7198 15.2793 41.3575 14.7834 41.3575 14.065C41.3387 12.6742 42.5895 12.4278 43.7474 12.4278L43.7422 12.4226ZM64.8198 12.4226V12.7776C64.8828 13.3794 64.7803 13.987 64.5233 14.5349C64.4248 14.7492 64.2697 14.9326 64.0747 15.0652C63.8796 15.1979 63.6521 15.2748 63.4165 15.2877C62.7974 15.2877 62.4351 14.7917 62.4351 14.0734C62.4351 12.669 63.6546 12.4184 64.8115 12.4184L64.8198 12.4226Z" fill="#201C1D"/>
</svg>
