<svg width="98" height="26" viewBox="0 0 98 26" fill="none" xmlns="http://www.w3.org/2000/svg">
<g clip-path="url(#clip0_1_347)">
<path d="M17.9938 0.00578704C20.239 0.00578704 22.4841 -0.00576338 24.7283 0.00578704C29.0276 0.032738 32.9724 2.79714 34.4733 6.83209C35.1201 8.57428 35.2605 10.3771 35.0762 12.2281C34.8058 14.9463 34.0004 17.4691 32.4746 19.7301C30.1206 23.2202 26.8025 25.1597 22.6934 25.8056C21.3004 26.0241 19.9027 25.9981 18.503 25.9981C17.9221 25.9981 17.6116 25.7305 17.5773 25.2463C17.54 24.7275 17.8639 24.3291 18.4371 24.2944C19.0715 24.2549 19.7106 24.2877 20.3479 24.2703C24.2163 24.1645 27.5658 22.8217 30.219 19.9389C32.0781 17.9176 33.0202 15.4554 33.3393 12.7421C33.5609 10.8593 33.537 8.98816 32.7985 7.20459C31.6654 4.4758 29.6352 2.80291 26.8398 2.02711C25.7544 1.72584 24.6424 1.66905 23.5293 1.66231C19.3743 1.63728 15.2174 1.65268 11.0634 1.65172C10.8886 1.65172 10.7118 1.65846 10.5379 1.64306C10.3385 1.62447 10.1524 1.53438 10.0133 1.38917C9.87428 1.24397 9.7916 1.0533 9.78032 0.851856C9.77739 0.657417 9.84297 0.468227 9.96541 0.317903C10.0879 0.167579 10.2592 0.0658573 10.4491 0.030813C10.639 0.00434079 10.8308 -0.00500088 11.0223 0.00289937C13.3465 0.00289937 15.6713 0.00289937 17.9967 0.00289937L17.9938 0.00578704Z" fill="#29F1FB"/>
<path d="M13.7385 20.0265H6.28646C6.12717 20.0336 5.96759 20.0301 5.80876 20.0159C5.37788 19.9572 5.10655 19.7079 5.06451 19.269C5.02248 18.8301 5.22693 18.5297 5.63775 18.3757C5.89857 18.2795 6.17181 18.2997 6.44123 18.2997C11.3433 18.2997 16.2464 18.3074 21.1485 18.291C22.8682 18.2853 24.3529 17.6433 25.5328 16.3727C26.5445 15.2831 27.0748 13.9664 27.2324 12.4841C27.3566 11.3213 27.1923 10.2519 26.4757 9.30289C25.6789 8.2441 24.6022 7.71278 23.3077 7.707C18.6759 7.68679 14.0404 7.6993 9.41249 7.69257C8.92046 7.69257 8.42748 7.65214 7.93737 7.60594C7.51413 7.56647 7.28006 7.30948 7.2514 6.88019C7.21987 6.41239 7.45776 6.07551 7.87909 5.99369C8.02018 5.97349 8.16284 5.96673 8.30519 5.97348C13.2732 5.97348 18.2412 5.97348 23.2093 5.97348C25.7133 5.97829 27.8783 7.50391 28.6674 9.88907C29.2273 11.5822 29.0276 13.2887 28.3999 14.9299C27.1942 18.0802 24.3557 20.0178 20.9966 20.0265C18.5775 20.0332 16.1575 20.0265 13.7385 20.0265Z" fill="#29F1FB"/>
<path d="M2.62541 7.60981C2.05218 7.60981 1.47894 7.61751 0.90571 7.60981C0.428016 7.60114 0.0611461 7.28447 0.0066889 6.85325C-0.0477683 6.42204 0.220696 6.05146 0.737562 5.94558C1.01984 5.89946 1.30583 5.88044 1.59168 5.88879C2.37128 5.88206 3.15183 5.88013 3.93143 5.88879C4.16949 5.88844 4.40678 5.91622 4.63842 5.97157C5.05974 6.07938 5.28999 6.44129 5.24031 6.88117C5.19063 7.32105 4.92694 7.58574 4.48555 7.60018C3.86551 7.62136 3.24355 7.60596 2.6235 7.60596L2.62541 7.60981Z" fill="#29F1FB"/>
<path d="M13.0821 25.9942C12.5414 25.9942 12.0006 26.0038 11.458 25.9942C10.944 25.9827 10.5981 25.6891 10.5456 25.256C10.5256 25.0282 10.5959 24.8017 10.741 24.6259C10.8862 24.4501 11.0945 24.3392 11.3204 24.3175C12.4771 24.2259 13.6391 24.2243 14.7961 24.3127C14.9053 24.3174 15.0123 24.3445 15.1107 24.3923C15.2091 24.4402 15.2968 24.5077 15.3683 24.5909C15.4399 24.6741 15.4938 24.7711 15.5269 24.876C15.5599 24.981 15.5713 25.0916 15.5604 25.2011C15.5251 25.6824 15.1888 25.9769 14.6576 25.9981H13.0821V25.9942Z" fill="#29F1FB"/>
<path d="M51.3417 18.5115C50.7156 19.2103 50.0414 19.7236 49.3191 20.0515C48.5444 20.3882 47.7074 20.5549 46.8637 20.5405C45.2268 20.5405 43.995 20.0913 43.1683 19.193C42.3416 18.2946 41.9276 17.086 41.9263 15.5671C41.9124 14.548 42.0545 13.5328 42.3476 12.5572C42.6011 11.7152 43.0323 10.9384 43.6116 10.2799C44.1902 9.64067 44.9066 9.14376 45.7058 8.82742C46.5402 8.48668 47.5112 8.31632 48.6188 8.31632C49.3916 8.30571 50.157 8.47018 50.8582 8.79758C51.5321 9.11843 52.1018 9.64333 52.5674 10.3723L53.5333 2.78174H55.0982L52.6658 20.5126H51.1009L51.3417 18.5115ZM47.1045 19.0572C48.2599 19.0572 49.1707 18.8776 49.8369 18.5182C50.4575 18.2016 50.9785 17.7174 51.3417 17.1197C51.6845 16.5294 51.9018 15.8739 51.9799 15.1946C52.0676 14.4922 52.1119 13.785 52.1127 13.077C52.1187 12.6206 52.0621 12.1655 51.9445 11.7247C51.8388 11.339 51.6357 10.9874 51.355 10.7044C51.0362 10.3997 50.6477 10.1792 50.2238 10.0624C49.75 9.91733 49.1522 9.84482 48.4306 9.84482C46.8899 9.84482 45.702 10.3303 44.867 11.3011C44.032 12.272 43.6141 13.6725 43.6135 15.5026C43.6135 17.873 44.7772 19.0579 47.1045 19.0572Z" fill="black"/>
<path d="M64.2709 8.31244L64.0541 9.84094H63.8133C62.914 9.84094 62.1716 9.94747 61.5863 10.1605C61.0441 10.3448 60.556 10.662 60.1656 11.0836C59.7901 11.5115 59.5108 12.0162 59.3469 12.563C59.1472 13.2128 58.9984 13.8774 58.9017 14.5506L58.059 20.5183H56.518L58.2272 8.34228H59.7682L59.5274 10.3915C60.1854 9.6587 60.8956 9.12995 61.658 8.80526C62.4076 8.4833 63.2143 8.31762 64.0292 8.31821L64.2709 8.31244Z" fill="black"/>
<path d="M75.4891 8.33651H77.0302L75.3449 20.5126H73.8048L74.0455 18.5384C73.4507 19.1996 72.7192 19.7214 71.9026 20.0669C71.1456 20.377 70.3361 20.5362 69.5189 20.5357C68.9671 20.5374 68.4186 20.4493 67.8947 20.2748C67.39 20.111 66.926 19.8399 66.5343 19.4798C66.1395 19.1097 65.8381 18.65 65.6553 18.139C65.4547 17.6006 65.4104 16.9589 65.5225 16.2139L66.6537 8.33362H68.2186L67.0874 16.1898C67.017 16.6142 67.0541 17.0496 67.1954 17.4556C67.3185 17.7914 67.5208 18.092 67.7849 18.3315C68.0468 18.5632 68.3545 18.7364 68.6877 18.8397C69.0273 18.9496 69.3819 19.0054 69.7386 19.0052C70.6373 19.0052 71.3797 18.8987 71.9656 18.6857C72.5078 18.5014 72.996 18.1842 73.3863 17.7626C73.7617 17.335 74.041 16.8306 74.2051 16.2842C74.4044 15.6342 74.5533 14.9697 74.6503 14.2965L75.4891 8.33651Z" fill="black"/>
<path d="M80.9062 8.33655H82.4434L80.7342 20.5126H79.1951L80.9062 8.33655ZM81.2797 4.31026C81.4105 4.17769 81.5663 4.07292 81.7379 4.00215C81.9096 3.93138 82.0936 3.89607 82.2791 3.8983C82.4242 3.89289 82.5687 3.9182 82.7035 3.97258C82.8383 4.02696 82.9603 4.10921 83.0615 4.21401C83.1614 4.32027 83.2394 4.4454 83.2911 4.58219C83.3427 4.71897 83.367 4.86471 83.3625 5.01099C83.3652 5.19668 83.3278 5.38075 83.2529 5.55044C83.178 5.72013 83.0674 5.87139 82.9287 5.99374C82.6637 6.25096 82.3099 6.39451 81.9418 6.39415C81.7973 6.40165 81.6529 6.37846 81.5179 6.32607C81.3829 6.27369 81.2603 6.19329 81.1581 6.09008C81.056 5.98688 80.9765 5.86319 80.9249 5.72703C80.8732 5.59087 80.8506 5.44529 80.8584 5.29975C80.8567 5.11439 80.8932 4.9307 80.9658 4.76035C81.0383 4.59 81.1452 4.43672 81.2797 4.31026Z" fill="black"/>
<path d="M94.2444 18.5115C93.6183 19.2103 92.9441 19.7236 92.2218 20.0515C91.4471 20.3882 90.6101 20.5549 89.7664 20.5405C88.1295 20.5405 86.8977 20.0913 86.071 19.1929C85.2443 18.2946 84.8303 17.0859 84.829 15.5671C84.815 14.5479 84.9571 13.5327 85.2503 12.5572C85.5038 11.7152 85.935 10.9383 86.5143 10.2799C87.0929 9.64064 87.8093 9.14373 88.6085 8.82739C89.4429 8.48665 90.4139 8.31628 91.5215 8.31628C92.2943 8.30568 93.0597 8.47015 93.7609 8.79755C94.4348 9.11839 95.0045 9.6433 95.4701 10.3723L96.4332 2.78363H97.9981L95.5666 20.5145H94.0036L94.2444 18.5115ZM90.0072 19.0572C91.1626 19.0572 92.0734 18.8775 92.7396 18.5182C93.3602 18.2016 93.8812 17.7173 94.2444 17.1196C94.5872 16.5294 94.8045 15.8739 94.8826 15.1946C94.9703 14.4921 95.0146 13.7849 95.0154 13.077C95.0214 12.6205 94.9649 12.1654 94.8472 11.7246C94.7415 11.3389 94.5384 10.9874 94.2577 10.7043C93.9389 10.3997 93.5504 10.1792 93.1266 10.0623C92.6527 9.9173 92.0549 9.84479 91.3333 9.84479C89.7926 9.84479 88.6047 10.3302 87.7697 11.3011C86.9347 12.272 86.5169 13.6725 86.5162 15.5026C86.5162 17.873 87.6799 19.0579 90.0072 19.0572Z" fill="black"/>
</g>
<defs>
<clipPath id="clip0_1_347">
<rect width="98" height="26" fill="white"/>
</clipPath>
</defs>
</svg>
