<svg width="92" height="36" viewBox="0 0 92 36" fill="none" xmlns="http://www.w3.org/2000/svg">
<path d="M63.5316 28.0625V19.5435H64.5321L67.7004 25.5569V19.5435H68.8676V28.0625H67.7838L64.5321 21.715V28.0625H63.5316Z" fill="black"/>
<path d="M43.2109 5.47214C41.6706 5.47214 39.9677 6.07035 39.5966 8.02472C39.5882 8.06038 39.5868 8.09737 39.5928 8.13354C39.5987 8.16971 39.6117 8.20435 39.6311 8.23543C39.6505 8.26651 39.6759 8.29343 39.7057 8.31461C39.7356 8.33578 39.7694 8.35081 39.8051 8.3588H39.8311L41.4121 8.54985C41.4846 8.52878 41.5483 8.48492 41.5939 8.42476C41.6395 8.36459 41.6646 8.29132 41.6654 8.21577C41.7248 7.91933 41.8903 7.65488 42.1309 7.4722C42.3714 7.28953 42.6703 7.20125 42.9712 7.22397C43.1446 7.21636 43.3172 7.25073 43.4745 7.32415C43.6318 7.39757 43.7691 7.50788 43.8748 7.64575C44.0593 8.01846 44.1333 8.4371 44.0864 8.85053V9.08438C43.0452 9.12823 42.0156 9.31928 41.0286 9.65336C40.5007 9.87771 40.0532 10.2571 39.7451 10.7416C39.4369 11.226 39.2827 11.7927 39.3027 12.3667C39.3027 14.0998 40.3835 14.9642 41.7237 14.9642C42.2341 14.9952 42.7444 14.902 43.211 14.6925C43.6775 14.4831 44.0866 14.1637 44.4032 13.7615C44.6377 14.1728 44.9451 14.5393 45.3078 14.8431C45.368 14.8754 45.4367 14.8885 45.5046 14.8804C45.5724 14.8724 45.6362 14.8437 45.6872 14.7982C46.0207 14.4996 46.5918 13.963 46.9295 13.6811C46.9894 13.621 47.0231 13.5395 47.0231 13.4546C47.0231 13.3696 46.9894 13.2881 46.9295 13.228C46.5421 12.8094 46.3246 12.261 46.3198 11.6902V9.17103C46.3198 8.0884 46.4094 7.05798 45.6247 6.29586C44.9467 5.73674 44.0887 5.44394 43.2109 5.47214ZM64.4466 5.47214C62.9062 5.47214 61.2033 6.07035 60.8323 8.02472C60.8238 8.06038 60.8225 8.09737 60.8284 8.13354C60.8343 8.16971 60.8473 8.20435 60.8667 8.23543C60.8861 8.26651 60.9115 8.29343 60.9413 8.31461C60.9712 8.33578 61.005 8.35081 61.0407 8.3588H61.0667L62.6477 8.54985C62.7241 8.53272 62.7927 8.49057 62.8425 8.43007C62.8923 8.36957 62.9206 8.29417 62.9229 8.21577C62.9823 7.91933 63.1478 7.65488 63.3884 7.4722C63.6289 7.28953 63.9278 7.20125 64.2287 7.22397C64.4021 7.21636 64.5747 7.25073 64.732 7.32415C64.8893 7.39757 65.0266 7.50788 65.1323 7.64575C65.3095 8.02159 65.3752 8.43919 65.322 8.85053V9.08438C64.2882 9.12823 63.2658 9.32033 62.2861 9.65336C61.7577 9.8779 61.3098 10.2578 61.0017 10.7429C60.6935 11.2279 60.5396 11.7953 60.5602 12.3698C60.5602 14.1029 61.641 14.9673 62.9812 14.9673C63.4922 14.9983 64.0031 14.9048 64.4701 14.6948C64.9371 14.4848 65.3463 14.1645 65.6628 13.7615C65.8973 14.1728 66.2026 14.5393 66.5664 14.8431C66.6267 14.8757 66.6956 14.8888 66.7636 14.8808C66.8317 14.8728 66.8957 14.8439 66.9468 14.7982C67.2803 14.4996 67.8503 13.963 68.1891 13.6811C68.2457 13.6193 68.2771 13.5385 68.2771 13.4546C68.2771 13.3707 68.2457 13.2898 68.1891 13.228C67.8014 12.8095 67.5837 12.2611 67.5783 11.6902V9.17103C67.5783 8.0884 67.6502 7.05798 66.8644 6.29586C66.1889 5.73311 65.3298 5.43981 64.4518 5.47214H64.4466ZM52.501 5.55775C52.0217 5.54718 51.5524 5.69607 51.1666 5.98113C50.7808 6.26618 50.5002 6.67132 50.3687 7.13314V6.02024C50.3635 5.94257 50.3303 5.86944 50.2753 5.8145C50.2203 5.75956 50.1471 5.72656 50.0696 5.72166H48.5688C48.4868 5.72377 48.4088 5.75734 48.3508 5.81543C48.2928 5.87351 48.2593 5.95169 48.2572 6.03381V14.5842C48.2648 14.6609 48.2986 14.7327 48.3529 14.7873C48.4072 14.8419 48.4787 14.876 48.5553 14.8838H50.178C50.2603 14.8819 50.3388 14.8483 50.397 14.79C50.4552 14.7317 50.4888 14.6531 50.4906 14.5706V10.0449C50.4906 9.05306 50.4396 7.7063 51.6058 7.7063C52.7709 7.7063 52.5948 9.10109 52.5948 10.0449V14.5716C52.5996 14.6506 52.6321 14.7253 52.6867 14.7825C52.7413 14.8396 52.8143 14.8755 52.8929 14.8838H54.5156C54.5977 14.8817 54.6759 14.848 54.7339 14.7897C54.7919 14.7313 54.8253 14.6529 54.8272 14.5706V10.0449C54.7901 9.49871 54.8393 8.95012 54.9731 8.41935C55.0429 8.21787 55.1705 8.04153 55.34 7.91244C55.5094 7.78336 55.7132 7.70729 55.9256 7.69377C56.1462 7.66802 56.368 7.73024 56.5431 7.86699C56.7183 8.00374 56.8326 8.20403 56.8615 8.42457C56.9157 8.96432 56.9303 9.5072 56.9063 10.049V14.5758C56.9109 14.6551 56.9435 14.7302 56.9983 14.7876C57.0531 14.845 57.1266 14.881 57.2054 14.889H58.8271C58.9094 14.8872 58.9879 14.8536 59.0461 14.7952C59.1043 14.7369 59.1379 14.6583 59.1397 14.5758V9.14389C59.1397 8.23874 59.2294 7.1843 58.7187 6.45976C58.4568 6.13127 58.1123 5.87857 57.7207 5.72766C57.329 5.57675 56.9042 5.53307 56.4901 5.60112C56.076 5.66916 55.6874 5.84647 55.3644 6.11481C55.0413 6.38315 54.7955 6.73284 54.6521 7.12792C54.1518 6.06096 53.5182 5.5661 52.5052 5.5661L52.501 5.55775ZM80.0929 5.55775C77.7584 5.55775 76.4463 7.62278 76.4463 10.2829C76.4463 12.9451 77.7334 15.054 80.0929 15.054C82.3524 15.054 83.7979 12.9764 83.7979 10.3654C83.7979 7.67707 82.4847 5.55775 80.0617 5.55775H80.0929ZM89.3465 5.55775C88.2251 5.55775 87.5883 6.10063 87.1319 7.28661V5.9837C87.1133 5.9183 87.0741 5.86063 87.0203 5.81926C86.9664 5.77789 86.9006 5.75501 86.8328 5.75402H85.332C85.2553 5.753 85.181 5.78052 85.1235 5.83124C85.0659 5.88197 85.0292 5.95229 85.0204 6.02859V14.5716C85.0253 14.6508 85.0581 14.7257 85.1128 14.783C85.1676 14.8403 85.2408 14.8764 85.3195 14.8848H86.9411C87.0233 14.8825 87.1015 14.8487 87.1596 14.7905C87.2177 14.7323 87.2514 14.654 87.2538 14.5716V9.97283C87.2298 9.4176 87.3236 8.86359 87.5289 8.34732C87.5941 8.16156 87.7105 7.99817 87.8648 7.87618C88.019 7.75419 88.2047 7.67862 88.4002 7.65828C89.5216 7.65828 89.4132 9.01756 89.4132 9.95716V14.5967C89.4231 14.6702 89.4582 14.738 89.5126 14.7883C89.5671 14.8386 89.6373 14.8684 89.7113 14.8723H91.334C91.4102 14.8711 91.4834 14.8426 91.5405 14.7921C91.5977 14.7416 91.6349 14.6723 91.6456 14.5967V9.2295C91.6456 8.3943 91.6456 7.25112 91.2256 6.56834C91.0276 6.24692 90.7482 5.98378 90.4158 5.80571C90.0833 5.62764 89.7097 5.541 89.333 5.55462L89.3465 5.55775ZM69.868 5.70391C69.8288 5.70377 69.79 5.7114 69.7538 5.72636C69.7176 5.74131 69.6847 5.7633 69.6569 5.79105C69.6292 5.81881 69.6073 5.85178 69.5924 5.88807C69.5774 5.92435 69.5698 5.96324 69.57 6.00249V7.23024C69.5657 7.30883 69.5927 7.38592 69.645 7.44463C69.6974 7.50333 69.7708 7.53886 69.8493 7.54344H72.6465L69.4782 12.2446C69.325 12.4951 69.2479 12.7854 69.2531 13.0798V14.3242C69.25 14.3711 69.2593 14.4179 69.2802 14.4599C69.3103 14.5237 69.3633 14.5737 69.4287 14.5998C69.494 14.626 69.5669 14.6264 69.6325 14.6009C70.4983 14.1394 71.464 13.898 72.4447 13.8978C73.4254 13.8976 74.3912 14.1387 75.2572 14.5998C75.3019 14.6173 75.3503 14.6236 75.398 14.6182C75.4457 14.6127 75.4914 14.5957 75.531 14.5685C75.5707 14.5413 75.6031 14.5049 75.6255 14.4623C75.6479 14.4197 75.6595 14.3723 75.6595 14.3242V13.0276C75.6546 12.9335 75.6255 12.8422 75.5749 12.7628C75.5243 12.6834 75.4539 12.6185 75.3708 12.5745C74.4392 12.075 73.3889 11.8407 72.3338 11.8969L75.0956 7.82323C75.2917 7.60804 75.4301 7.34655 75.4979 7.0632V6.02024C75.5011 5.94175 75.4736 5.86511 75.4212 5.80663C75.3689 5.74814 75.2958 5.71241 75.2176 5.70704H69.868V5.70391ZM80.0877 7.33046C80.3367 7.31368 80.5833 7.38774 80.7819 7.53897C80.9806 7.6902 81.1179 7.90836 81.1685 8.15313C81.3519 8.89437 81.429 9.65754 81.3988 10.4207C81.3988 11.5023 81.3435 13.3303 80.0929 13.3303C78.8423 13.3303 78.8277 11.0669 78.8277 10.0396C78.8277 9.01235 78.8829 7.32315 80.0564 7.32315L80.0877 7.33046ZM44.0697 10.4311V10.7882C44.1322 11.3927 44.028 12.0024 43.7716 12.5525C43.6722 12.7688 43.5159 12.9539 43.3194 13.088C43.123 13.222 42.8938 13.3 42.6565 13.3136C42.0322 13.3136 41.6664 12.8125 41.6664 12.0869C41.6487 10.6838 42.9098 10.4353 44.0749 10.4353L44.0697 10.4301V10.4311ZM65.3053 10.4311V10.7882C65.3691 11.3956 65.266 12.0089 65.0073 12.5619C64.9081 12.7784 64.7519 12.9635 64.5553 13.0975C64.3588 13.2314 64.1295 13.3091 63.8921 13.322C63.2678 13.322 62.902 12.8209 62.902 12.0953C62.902 10.6796 64.1318 10.4249 65.297 10.4249L65.3053 10.4301V10.4311Z" fill="#201C1D"/>
<path d="M57.5287 19.5435H62.1977V20.4831H58.6959V23.2184H61.8642V24.0536H58.6959V27.2273H62.1977V28.0625H57.5287V19.5435ZM55.8612 28.0625H54.8607V24.0536H51.8592V28.0625H50.8587V19.5435H51.8592V23.0513H54.8607V19.5435H55.8612V28.0625ZM47.5237 28.0625H46.5232V20.5457H44.3554V19.5435H49.6914V20.5457H47.5237V28.0625Z" fill="black"/>
<path fill-rule="evenodd" clip-rule="evenodd" d="M41.3538 19.5435L38.6858 28.0625H39.6863L40.52 25.724H42.8545L43.6883 28.0625H44.6888L42.0208 19.5435H41.3538ZM41.6873 21.2139L40.8535 24.7217H42.521L41.6873 21.2139ZM72.8695 19.5435L70.2015 28.0625H71.202L72.0358 25.724H74.3703L75.204 28.0625H76.2045L73.5365 19.5435H72.8695ZM73.203 21.2139L72.3693 24.7217H74.0368L73.203 21.2139Z" fill="black"/>
<path fill-rule="evenodd" clip-rule="evenodd" d="M33.35 21.4561L16.675 19.2459L0 21.4561L16.675 35.4958L33.35 21.4561Z" fill="#FCBF92"/>
<path fill-rule="evenodd" clip-rule="evenodd" d="M0 21.4566L16.675 26.8196V35.4963L0 26.5033V21.4566Z" fill="#9D5025"/>
<path fill-rule="evenodd" clip-rule="evenodd" d="M33.35 21.4566L16.675 26.8196V35.4963L33.35 26.5033V21.4566Z" fill="#F58534"/>
<path fill-rule="evenodd" clip-rule="evenodd" d="M2.15316 13.8291H0V18.9301L2.15316 19.3518L4.54602 16.6197L2.15316 13.8291Z" fill="#9D5025"/>
<path fill-rule="evenodd" clip-rule="evenodd" d="M4.54613 19.1409L2.15327 19.3518V13.8291H4.54613V19.1409Z" fill="#F58534"/>
<path fill-rule="evenodd" clip-rule="evenodd" d="M6.15932 7.4686L3.32457 8.0428V19.6145L6.15932 20.2482L8.75437 13.8286L6.15932 7.4686Z" fill="#9D5025"/>
<path fill-rule="evenodd" clip-rule="evenodd" d="M8.75443 19.9319L6.15939 20.2482V7.4686L8.75443 7.78493V19.9319Z" fill="#F58534"/>
<path fill-rule="evenodd" clip-rule="evenodd" d="M11.6872 10.0434L7.77377 10.4642V20.6118L11.6872 21.4564L15.8413 15.7228L11.6872 10.0434Z" fill="#9D5025"/>
<path fill-rule="evenodd" clip-rule="evenodd" d="M14.3259 20.9811L11.6871 21.4561V10.042L14.3259 10.2529V20.9811Z" fill="#F58534"/>
<path fill-rule="evenodd" clip-rule="evenodd" d="M16.675 0.83812L14.0362 1.73596V21.9301L16.675 22.5053L19.3138 11.6717L16.675 0.83812Z" fill="#9D5025"/>
<path fill-rule="evenodd" clip-rule="evenodd" d="M19.1169 20.982L21.663 21.457L25.5764 13.8296L21.663 6.25641L19.1169 6.67818V20.982Z" fill="#9D5025"/>
<path fill-rule="evenodd" clip-rule="evenodd" d="M25.5764 13.8296L21.663 6.25641L19.1169 6.67818" fill="#9D5025"/>
<path fill-rule="evenodd" clip-rule="evenodd" d="M24.5466 19.9319L27.1896 20.2482L30.0244 10.6225L27.1896 1.04906L24.5466 1.73497V19.9319Z" fill="#9D5025"/>
<path fill-rule="evenodd" clip-rule="evenodd" d="M28.804 19.1407L31.1969 19.3516L33.3501 9.83031L31.1969 0L28.804 0.632664V19.1407Z" fill="#9D5025"/>
<path fill-rule="evenodd" clip-rule="evenodd" d="M16.675 0.838332L19.3138 1.73617V21.9303L16.675 22.5045V0.838332ZM25.5763 7.0992L21.6629 6.25565V21.4563L25.5763 20.6117V7.0992ZM30.0243 2.26235L27.1896 1.04922V20.2484L30.0243 19.6147V2.26339V2.26235ZM33.35 1.15571L31.1968 0V19.3516L33.35 18.9298V1.15571Z" fill="#F58534"/>
</svg>
