<svg width="123" height="19" viewBox="0 0 123 19" fill="none" xmlns="http://www.w3.org/2000/svg">
<path d="M31.1077 9.54537H26.3811V4.88116H31.3645C33.1887 4.88116 34.1008 5.66987 34.1008 7.2492C34.1008 8.78062 33.1028 9.54537 31.1077 9.54537ZM34.5051 4.82653C33.8538 4.25728 32.9514 3.97266 31.7864 3.97266L25.0188 4.00907V15.1689H26.3821L26.3694 10.4184H31.4065C32.6692 10.4184 33.6633 10.1338 34.3889 9.56453C35.1145 8.99528 35.4778 8.20562 35.4778 7.19553C35.4778 6.18545 35.1536 5.39578 34.5061 4.82653H34.5051ZM43.3323 12.8257C43.2024 13.1899 42.9788 13.5177 42.6848 13.7745C42.0745 14.36 41.1418 14.6523 39.8889 14.6523C38.7561 14.6523 37.887 14.3725 37.2815 13.7994C36.676 13.2263 36.3723 12.4692 36.3723 11.5157C36.3723 11.0193 36.4514 10.5784 36.6106 10.1932C36.7607 9.82099 36.9967 9.48803 37.3 9.22049C37.927 8.65986 38.7903 8.37907 39.8889 8.37907C42.3225 8.37907 43.5413 9.42366 43.5413 11.5157C43.5413 12.0121 43.4709 12.4491 43.3362 12.8257H43.3323ZM43.5842 8.70874C42.7532 7.96507 41.5237 7.58941 39.8928 7.58941C38.3538 7.58941 37.1633 7.96891 36.3245 8.72886C35.5667 9.41599 35.1838 10.3437 35.1838 11.5119C35.1838 12.6714 35.5745 13.6058 36.3567 14.3169C36.7883 14.7002 37.2913 14.9791 37.8665 15.1507C38.4407 15.3232 39.1155 15.4094 39.8889 15.4094C41.51 15.4094 42.7405 15.0414 43.592 14.3054C44.3499 13.6346 44.7327 12.7069 44.7327 11.5109C44.7327 10.312 44.3499 9.3767 43.5842 8.70395V8.70874ZM53.8967 13.1487C53.8967 14.6504 52.5247 15.4008 49.7825 15.4008C48.9446 15.4008 48.2375 15.349 47.6643 15.2446C47.0911 15.1392 46.6243 14.9667 46.2668 14.7261C45.9902 14.5427 45.7635 14.2956 45.6067 14.0064C45.4446 13.7103 45.3381 13.3384 45.2893 12.8871L46.5657 12.8756C46.5657 13.4669 46.7883 13.901 47.2356 14.1818C47.7141 14.5172 48.5637 14.6849 49.7825 14.6849C51.6995 14.6849 52.6584 14.2134 52.6584 13.2704C52.6584 12.7194 52.3323 12.3408 51.6936 12.1319C51.5637 12.0917 50.7883 11.9862 49.3723 11.8147C47.9563 11.6422 47.0667 11.4889 46.717 11.3528C45.9602 11.0567 45.5823 10.5257 45.5823 9.75907C45.5823 9.00774 45.9202 8.44807 46.5999 8.08103C46.9338 7.92866 47.3518 7.81174 47.8528 7.72645C48.4289 7.63713 49.0117 7.59546 49.595 7.60187C52.2346 7.60187 53.5549 8.41357 53.5549 10.0389H52.3411C52.3411 8.89561 51.4133 8.32062 49.5579 8.32062C48.6125 8.32062 47.9084 8.44041 47.4446 8.66849C46.9807 8.89561 46.7493 9.25595 46.7493 9.73512C46.7493 10.1827 47.0627 10.5066 47.6897 10.7069C48.0559 10.8104 48.8977 10.9302 50.217 11.0662C51.3977 11.1707 52.2073 11.3183 52.6467 11.5071C53.4866 11.8262 53.9045 12.3696 53.9045 13.1362L53.8958 13.1477L53.8967 13.1487ZM58.9084 15.1842L58.3889 15.2561L58.0657 15.28C57.2346 15.28 56.6399 15.1622 56.2688 14.9254C55.8958 14.6887 55.717 14.2747 55.717 13.6863V8.58799H54.2073V7.83857H55.7092L55.7209 5.43316H56.885V7.83857H58.9104V8.59949L56.885 8.58799V13.5426C56.885 13.9125 56.9846 14.1664 57.1838 14.3025C57.384 14.4386 57.7405 14.5134 58.2532 14.5134C58.3346 14.521 58.4167 14.5181 58.4973 14.5047C58.6331 14.4808 58.7678 14.4511 58.9006 14.4147L58.9124 15.1737L58.9084 15.1842ZM66.9553 13.4927C66.637 13.7486 66.2756 13.9432 65.8684 14.0802C65.4622 14.2172 64.9934 14.2814 64.4651 14.2814C62.0315 14.2814 60.8157 13.2944 60.8157 11.3231C60.8157 10.405 61.1272 9.68624 61.7493 9.16682C62.3723 8.64741 63.2483 8.3877 64.3801 8.3877C65.5188 8.3877 66.384 8.65028 66.9739 9.17353C67.5637 9.69582 67.8586 10.3964 67.8586 11.2752C67.8586 12.2335 67.5579 12.9714 66.9553 13.4908V13.4927ZM69.0227 7.84049H67.8596L67.8469 9.09974C67.3342 8.58799 66.968 8.26599 66.7473 8.12991C66.0959 7.7782 65.2532 7.60282 64.219 7.60282C62.7053 7.60282 61.5481 7.94303 60.7502 8.62153C59.9934 9.24445 59.6145 10.1472 59.6145 11.3288C59.6145 11.9134 59.7102 12.4328 59.9016 12.888C60.094 13.3432 60.3733 13.7362 60.7395 14.0562C61.5393 14.7108 62.6682 15.0385 64.1282 15.0385C65.8821 15.0385 67.1252 14.568 67.8596 13.6269V14.9302C67.8596 15.7611 67.593 16.4042 67.0588 16.8594C66.5266 17.3155 65.6487 17.5398 64.428 17.5398C63.2786 17.5398 62.4612 17.3788 61.9729 17.074C61.6057 16.8344 61.3538 16.4214 61.2151 15.833H60.0178C60.1477 16.6552 60.5061 17.2494 61.0764 17.6164C61.7444 18.0391 62.8684 18.2509 64.4573 18.2509C67.4963 18.2509 69.0188 17.1421 69.0188 14.9254V7.84336L69.0227 7.84049ZM75.3157 8.58128C74.9929 8.52897 74.6663 8.50237 74.3391 8.50174C72.427 8.50174 71.4709 9.53099 71.4709 11.5885V15.1679H70.3206L70.3079 7.84432L71.4719 7.85487V9.16203H71.5325C71.7278 8.64741 72.0383 8.25737 72.4602 7.99095C72.9241 7.73412 73.6155 7.60474 74.5354 7.60474H75.3166V8.58799L75.3157 8.58128ZM76.3977 11.0432C76.5442 10.2104 76.8743 9.56645 77.386 9.11028C77.72 8.84578 78.0989 8.64741 78.5217 8.51611C78.9847 8.37808 79.4666 8.31117 79.9504 8.31774C80.9846 8.31774 81.8245 8.59566 82.4836 9.15149C83.1438 9.70828 83.4661 10.3398 83.4661 11.0423L76.3977 11.0432ZM83.5793 8.78349C83.1542 8.37238 82.6348 8.0674 82.0647 7.89416C81.4622 7.70057 80.761 7.60474 79.9465 7.60474C78.4397 7.60474 77.2708 7.94878 76.4387 8.63591C75.6067 9.32399 75.1926 10.2593 75.1926 11.4438C75.1926 12.6274 75.592 13.5617 76.3899 14.2613C77.2532 15.028 78.467 15.4113 80.0422 15.4113C80.6702 15.4113 81.2493 15.3423 81.7834 15.2034C82.2787 15.0802 82.7508 14.8803 83.1819 14.6111C83.8821 14.1176 84.3254 13.509 84.5139 12.7845H83.2561C82.8245 14.0371 81.7502 14.6629 80.0325 14.6629C78.8196 14.6629 77.887 14.3572 77.2366 13.7448C76.6741 13.2206 76.3938 12.5402 76.3938 11.7045H84.6877C84.6877 10.4625 84.3215 9.48882 83.5764 8.78732L83.5793 8.78349Z" fill="#231F20"/>
<path d="M96.9822 12.175C96.9822 14.3485 95.196 15.4362 91.6218 15.4362C89.4802 15.4362 87.9167 15.0624 86.9324 14.3168C86.1257 13.7016 85.7234 12.7634 85.7234 11.4993H87.1619C87.1619 13.53 88.6492 14.544 91.6208 14.544C93.0466 14.544 94.0769 14.337 94.7166 13.921C95.2546 13.555 95.5232 12.98 95.5232 12.197C95.5232 11.4227 95.157 10.8802 94.4236 10.5678C94.0085 10.4001 92.9978 10.1883 91.3806 9.93341C89.3523 9.62962 88.0378 9.32679 87.4353 9.023C86.5632 8.57545 86.1316 7.81741 86.1316 6.74695C86.1316 5.74933 86.4978 5.00662 87.2439 4.51979C88.0417 3.98504 89.4099 3.71671 91.3484 3.71671C94.8513 3.71671 96.6023 4.85808 96.6023 7.14179H95.1511C95.1511 5.43021 93.8513 4.57633 91.2498 4.57633C89.946 4.57633 88.9919 4.74883 88.3884 5.09575C87.8171 5.46375 87.533 6.00329 87.533 6.71533C87.533 7.45804 87.9001 7.98129 88.6326 8.28508C89.0242 8.46141 90.1726 8.70483 92.0789 9.01725C93.8708 9.28079 95.0808 9.58841 95.7039 9.93629C96.5593 10.3675 96.9871 11.115 96.9871 12.175H96.9822ZM108.673 13.2837C108.13 13.7085 107.512 14.0312 106.85 14.2354C106.174 14.4472 105.416 14.5516 104.576 14.5516C102.864 14.5516 101.48 14.0993 100.424 13.1946C99.3679 12.289 98.8406 11.0825 98.8406 9.57404C98.8406 8.00237 99.364 6.77762 100.412 5.89979C101.46 5.02196 102.847 4.584 104.576 4.584C106.328 4.584 107.706 5.04304 108.709 5.96016C109.221 6.38406 109.623 6.92145 109.883 7.528C110.136 8.126 110.261 8.80833 110.261 9.57404C110.261 11.138 109.731 12.3743 108.672 13.2837H108.673ZM109.436 14.0236C110.186 13.5051 110.741 12.8765 111.099 12.1385C111.459 11.3997 111.638 10.5477 111.638 9.58075C111.638 7.84808 111.052 6.46329 109.879 5.412C109.251 4.83795 108.494 4.41054 107.605 4.13166C106.718 3.85183 105.704 3.71191 104.563 3.71191C102.347 3.71191 100.612 4.239 99.3494 5.29316C98.0867 6.34541 97.4558 7.77525 97.4558 9.57979C97.4558 11.3364 98.0925 12.7538 99.3669 13.831C100.641 14.9091 102.383 15.4486 104.589 15.4486C105.452 15.4486 106.205 15.3911 106.848 15.2761C107.491 15.1611 108.038 14.9857 108.485 14.749L110.611 16.1942L111.499 15.394L109.44 14.0236H109.436ZM122.409 15.1659H112.574V3.98983L113.926 3.96587V14.2296H122.418L122.405 15.1621L122.409 15.1659Z" fill="#367FAF"/>
<path d="M15.6905 13.2912C15.8273 12.3434 15.7862 12.2044 16.6349 12.3577L16.8507 12.374C17.503 12.399 18.3566 12.2868 18.8585 12.0923C19.9376 11.6764 20.5773 10.9806 19.5128 11.1627C17.0851 11.5796 16.9181 10.8953 16.9181 10.8953C19.4816 7.73283 20.5538 3.71549 19.629 2.73224C17.1017 0.0517865 12.7394 1.31966 12.6622 1.35225L12.6388 1.35704C12.1034 1.26791 11.5617 1.22112 11.0187 1.21712C9.92004 1.20179 9.08703 1.4567 8.45422 1.85537C8.45422 1.85537 0.664178 -0.814546 1.02746 5.21241C1.10461 6.49466 3.23644 14.9146 5.77941 12.3712C6.7091 11.4416 7.60754 10.6557 7.60754 10.6557C8.07629 10.9126 8.61242 11.0266 9.14758 10.9816L9.19054 10.9509C9.17687 11.0669 9.18273 11.179 9.20812 11.3132C8.55383 11.9217 8.74523 12.029 7.43566 12.2533C6.11047 12.4804 6.88879 12.8858 7.3966 12.9912C8.01379 13.1187 9.43859 13.3007 10.4025 12.1795L10.3634 12.307C10.6212 12.4785 10.6036 13.5365 10.6407 14.2926C10.6769 15.0497 10.7384 15.7541 10.923 16.171C11.1085 16.5869 11.3273 17.6573 13.048 17.3516C14.4864 17.0948 15.587 16.7258 15.6876 13.2921" fill="#231F20"/>
<path d="M15.6905 13.2912C15.8273 12.3434 15.7862 12.2044 16.6349 12.3577L16.8507 12.374C17.503 12.399 18.3566 12.2868 18.8585 12.0923C19.9376 11.6764 20.5773 10.9806 19.5128 11.1627C17.0851 11.5796 16.9181 10.8953 16.9181 10.8953C19.4816 7.73283 20.5538 3.71549 19.629 2.73224C17.1017 0.0517865 12.7394 1.31966 12.6622 1.35225L12.6388 1.35704C12.1034 1.26791 11.5617 1.22112 11.0187 1.21712C9.92004 1.20179 9.08703 1.4567 8.45422 1.85537C8.45422 1.85537 0.664178 -0.814546 1.02746 5.21241C1.10461 6.49466 3.23644 14.9146 5.77941 12.3712C6.7091 11.4416 7.60754 10.6557 7.60754 10.6557C8.07629 10.9126 8.61242 11.0266 9.14758 10.9816L9.19054 10.9509C9.17687 11.0669 9.18273 11.179 9.20812 11.3132C8.55383 11.9217 8.74523 12.029 7.43566 12.2533C6.11047 12.4804 6.88879 12.8858 7.3966 12.9912C8.01379 13.1187 9.43859 13.3007 10.4025 12.1795L10.3634 12.307C10.6212 12.4785 10.6036 13.5365 10.6407 14.2926C10.6769 15.0497 10.7384 15.7541 10.923 16.171C11.1085 16.5869 11.3273 17.6573 13.048 17.3516C14.4864 17.0948 15.587 16.7258 15.6876 13.2921" stroke="#231F20" stroke-width="2"/>
<path d="M19.5126 11.1627C17.0848 11.5796 16.9178 10.8953 16.9178 10.8953C19.4813 7.73091 20.5526 3.71549 19.6278 2.73224C17.1053 0.0517866 12.7391 1.31966 12.661 1.35225L12.6376 1.35704C12.1022 1.26791 11.5604 1.22112 11.0174 1.21712C9.91979 1.20179 9.08581 1.4567 8.45397 1.85537C8.45397 1.85537 0.662955 -0.814546 1.02624 5.21241C1.10339 6.49466 3.23522 14.9155 5.77819 12.3712C6.70788 11.4416 7.60631 10.6557 7.60631 10.6557C8.07506 10.9126 8.6112 11.0266 9.14635 10.9816L9.18932 10.9509C9.17565 11.0669 9.18249 11.179 9.2069 11.3132C8.5526 11.9227 8.74401 12.029 7.43542 12.2533C6.11022 12.4804 6.88854 12.8858 7.39635 12.9912C8.01354 13.1187 9.43835 13.3007 10.4022 12.1795L10.3631 12.3079C10.62 12.4785 10.8007 13.4196 10.7714 14.2744C10.7421 15.1283 10.7206 15.7129 10.9227 16.1719C11.1258 16.629 11.327 17.6573 13.0487 17.3516C14.4881 17.0957 15.2333 16.4316 15.3368 15.3219C15.41 14.5341 15.577 14.651 15.5878 13.9457L15.7215 13.6122C15.8749 12.5446 15.746 12.1996 16.6317 12.3597L16.8475 12.376C17.4999 12.4009 18.3544 12.2887 18.8553 12.0952C19.9344 11.6783 20.5741 10.9835 19.5096 11.1656L19.5126 11.1627Z" fill="#417BA2"/>
<path d="M12.661 1.32562C12.3915 1.39654 16.9979 -0.0735468 19.6161 2.70754C20.5409 3.69174 19.4696 7.70716 16.9051 10.8716M10.5096 11.7762C10.4432 13.7638 10.5262 15.7658 10.7606 16.2526C10.995 16.7395 11.495 17.6853 13.2176 17.3787C14.6561 17.1218 15.1796 16.6254 15.4061 15.5291C15.5692 14.7241 15.8964 12.4835 15.9374 12.0254L10.5096 11.7762ZM8.44616 1.80958C8.44616 1.80958 0.64538 -0.840213 1.01257 5.18962C1.09362 6.47187 3.22155 14.8927 5.7655 12.3445C6.69518 11.415 7.53503 10.6857 7.53503 10.6857L8.44616 1.80958Z" stroke="white" stroke-width="0.5" stroke-linecap="round" stroke-linejoin="round"/>
<path fill-rule="evenodd" clip-rule="evenodd" d="M16.9015 10.8722C16.9015 10.8722 17.0646 11.5555 19.4962 11.1395C20.5607 10.9575 19.92 11.6522 18.8409 12.0691C17.9552 12.4112 15.9698 12.4985 15.9376 12.026C15.8546 10.807 16.9835 11.1779 16.9015 10.8722C16.8282 10.5971 16.3224 10.3278 15.9884 9.65508C15.6974 9.06666 11.9933 4.56153 17.0157 5.23045C17.2003 5.19883 15.7052 1.25624 11.004 1.19204C6.30188 1.12783 6.45813 6.00095 6.45813 6.00095" fill="#417BA2"/>
<path d="M16.9015 10.8722C16.9015 10.8722 17.0646 11.5555 19.4962 11.1395C20.5607 10.9575 19.92 11.6522 18.8409 12.0691C17.9552 12.4112 15.9698 12.4985 15.9376 12.026C15.8546 10.807 16.9835 11.1779 16.9015 10.8722ZM16.9015 10.8722C16.8282 10.5971 16.3224 10.3278 15.9884 9.65508C15.6974 9.06666 11.9933 4.56153 17.0157 5.23045C17.2003 5.19883 15.7052 1.25624 11.004 1.19204C6.30188 1.12783 6.45813 6.00095 6.45813 6.00095" stroke="white" stroke-width="0.5" stroke-linecap="round" stroke-linejoin="bevel"/>
<path d="M9.19448 11.288C8.5392 11.8965 8.73256 12.0029 7.42202 12.2272C6.09682 12.4552 6.87514 12.8597 7.38295 12.9651C8.00014 13.0935 9.42592 13.2746 10.3888 12.1534C10.6818 11.8112 10.3869 11.2659 9.98452 11.1279C9.7892 11.0609 9.52944 10.9765 9.1935 11.287L9.19448 11.288Z" stroke="white" stroke-width="0.5" stroke-linejoin="round"/>
<path fill-rule="evenodd" clip-rule="evenodd" d="M9.15121 11.2782C9.08578 10.9198 9.29281 10.4943 9.51546 9.99595C9.84945 9.24845 10.62 8.49999 10.0037 6.12716C9.54476 4.35999 6.46175 5.76011 6.46078 5.9997C6.45882 6.23928 6.59945 7.21487 6.40902 8.35049C6.15902 9.83207 7.54183 11.0856 9.13363 10.9572" fill="#417BA2"/>
<path d="M9.15121 11.2782C9.08578 10.9198 9.29281 10.4943 9.51546 9.99595C9.84945 9.24845 10.62 8.49999 10.0037 6.12716C9.54476 4.35999 6.46175 5.76011 6.46078 5.9997C6.45882 6.23928 6.59945 7.21487 6.40902 8.35049C6.15902 9.83207 7.54183 11.0856 9.13363 10.9572" stroke="white" stroke-width="0.5" stroke-linecap="round" stroke-linejoin="round"/>
<path d="M8.41792 5.96366C8.40424 6.04511 8.59858 6.26361 8.85151 6.29236C9.10542 6.32207 9.32026 6.15149 9.33393 6.07003C9.34858 5.98857 9.15424 5.89753 8.90131 5.86878C8.64741 5.83907 8.43256 5.8822 8.41792 5.96366Z" fill="white" stroke="white" stroke-width="0.456"/>
<path d="M16.1123 5.79567C16.1269 5.87713 15.9326 6.09563 15.6796 6.12534C15.4257 6.15409 15.2109 5.9835 15.1962 5.90108C15.1826 5.81867 15.3769 5.72858 15.6298 5.69983C15.8828 5.67013 16.0986 5.71421 16.1123 5.79567Z" fill="white" stroke="white" stroke-width="0.228"/>
<path d="M17.0166 5.23047C17.0586 5.87255 16.8506 6.30955 16.8242 6.9938C16.7852 7.98759 17.3936 9.12418 16.4775 10.2636" stroke="white" stroke-width="0.5" stroke-linecap="round" stroke-linejoin="round"/>
</svg>
