<svg width="118" height="36" viewBox="0 0 118 36" fill="none" xmlns="http://www.w3.org/2000/svg">
<path d="M81.6049 15.7484L81.5148 15.6393V15.7484H81.6049ZM81.5148 14.6575L81.6049 14.5615H81.5148V14.6575ZM72.3507 18.8979L72.3186 18.9797L72.3668 19.1041L72.4172 18.9797L72.3818 18.8924H72.3518L72.3507 18.8979ZM82.5997 15.7375V15.6284L82.5097 15.7375H82.5997ZM82.5997 14.6684V14.5724H82.5097L82.5997 14.6684ZM69.781 22.8721L69.8078 22.8732L69.8324 22.811L69.8432 22.7783L69.7971 22.6473L69.7456 22.7783L69.781 22.8721ZM74.9484 22.8721L74.9741 22.871L74.9805 22.8546L75.0084 22.7739L74.9548 22.643L74.9098 22.7739L74.9484 22.8721ZM103.771 19.1957L103.717 19.127L103.711 19.2579L103.771 19.1957ZM101.181 21.9252V21.8739L101.154 21.9426L101.181 21.9252ZM102.926 19.9473L102.92 19.9539L102.979 20.0281L103.043 19.9593L103.038 19.9528L102.926 19.9473ZM101.09 20.4557H101.118L101.182 20.3903V20.2561L101.091 20.3499L101.09 20.4557ZM81.6049 15.7375V15.6284H81.5148L81.6049 15.7375Z" fill="#29B5E8"/>
<path d="M74.9633 22.9048L74.974 22.8688L74.9483 22.8699L74.9633 22.9048ZM69.8173 22.8721L69.7905 22.871L69.8013 22.907L69.8173 22.8721ZM82.6104 14.6684L82.5203 14.5724V14.6684H82.6104ZM102.936 19.9484L103.046 19.9539L102.993 19.8884L102.936 19.9484ZM101.118 20.4775L101.09 20.4666V20.507L101.118 20.4775ZM82.5096 15.7484L82.5996 15.6393H82.5096V15.7484ZM81.6048 14.6575V14.5615L81.5147 14.6575H81.6048Z" fill="#29B5E8"/>
<path d="M109.131 18.8678L109.136 18.8492C109.28 17.9995 109.711 17.2272 110.353 16.6647C110.995 16.1021 111.81 15.7842 112.657 15.7652C114.39 15.8154 115.841 17.1092 116.123 18.8492L116.128 18.8667L116.142 18.9452H109.117L109.132 18.8689L109.131 18.8678ZM109.065 19.9761L109.059 19.8856H116.671C116.778 19.891 116.905 19.8463 116.991 19.7634C117.076 19.6805 117.125 19.567 117.126 19.4449V19.3849C117.127 18.5619 116.911 17.7538 116.499 17.0458C116.086 16.3378 115.494 15.7561 114.784 15.3622C114.074 14.9683 113.273 14.7767 112.465 14.8077C111.656 14.8387 110.872 15.0911 110.193 15.5383C109.513 15.9846 108.965 16.6091 108.606 17.346C108.246 18.0829 108.089 18.9049 108.15 19.7252C108.115 20.9739 108.564 22.1865 109.402 23.1C110.239 24.0136 111.396 24.5543 112.623 24.6049H113.052C113.828 24.5546 114.579 24.3048 115.235 23.8787C115.891 23.4527 116.429 22.8644 116.801 22.1689C116.862 22.0563 116.88 21.9249 116.852 21.7995C116.824 21.6742 116.752 21.5637 116.649 21.4892C116.548 21.426 116.427 21.4074 116.312 21.4369C116.197 21.4663 116.1 21.5438 116.044 21.6485C115.454 22.794 114.322 23.5499 113.042 23.6449H112.605C111.666 23.6071 110.775 23.2079 110.114 22.5278C109.453 21.8478 109.07 20.9377 109.043 19.9816L109.042 19.9761M82.2169 11.358C81.7506 12.018 81.534 12.8263 81.6059 13.6347V14.6798H80.3805C80.32 14.678 80.2597 14.6887 80.2033 14.7112C80.147 14.7337 80.0956 14.7675 80.0524 14.8107C79.9645 14.8979 79.9152 15.0289 79.9152 15.1412C79.9121 15.2725 79.9586 15.4001 80.0452 15.4975C80.1317 15.5949 80.2518 15.6548 80.3805 15.6649H81.6048V24.1565C81.5984 24.2409 81.6152 24.3253 81.6532 24.4006C81.6911 24.4759 81.7488 24.539 81.8199 24.5829C81.8909 24.6269 81.9725 24.6499 82.0557 24.6496C82.1388 24.6492 82.2202 24.6254 82.2909 24.5809C82.3619 24.5373 82.4197 24.4746 82.4579 24.3997C82.4961 24.3248 82.5133 24.2407 82.5075 24.1565V15.6649H83.8175C83.9472 15.6578 84.069 15.599 84.1563 15.5011C84.2436 15.4033 84.2894 15.2744 84.2839 15.1423C84.286 15.0169 84.2367 14.8969 84.1488 14.8096C84.1065 14.7671 84.0562 14.7338 84.0009 14.7117C83.9457 14.6896 83.8866 14.6791 83.8272 14.6809H82.5171V13.6358C82.4666 13.0648 82.5994 12.4926 82.8956 12.0049C83.0509 11.8591 83.2361 11.7503 83.4379 11.6864C83.6396 11.6224 83.8528 11.6049 84.062 11.635C84.0802 11.635 84.0984 11.634 84.1156 11.6307C84.137 11.634 84.1563 11.635 84.1767 11.635H84.3236C84.4489 11.6308 84.5677 11.577 84.6547 11.4852C84.7418 11.3934 84.7903 11.2706 84.7899 11.143C84.7903 11.0154 84.7418 10.8927 84.6547 10.8009C84.5677 10.709 84.4489 10.6553 84.3236 10.651H84.1767C84.157 10.6511 84.1373 10.6522 84.1177 10.6543C84.0985 10.6521 84.0792 10.651 84.0598 10.651C83.7216 10.6234 83.3815 10.6725 83.0641 10.7947C82.7467 10.917 82.4599 11.1093 82.2244 11.358M42.1954 19.0161C41.1019 18.63 39.9226 18.3398 39.9226 17.3961C39.9226 16.2005 41.3163 15.7085 42.0625 15.7085C43.8936 15.7085 44.2881 17.2358 44.8005 16.771C45.313 16.3063 43.5012 14.8161 42.1954 14.8161C41.3914 14.7812 40.5873 15.0016 39.9226 15.4445C39.5995 15.6494 39.3362 15.9385 39.1599 16.2819C38.9837 16.6252 38.9009 17.0103 38.9202 17.3972C38.8666 19.4012 41.1952 19.7394 42.1954 20.094C43.1957 20.4485 44.3578 20.863 44.3685 21.8569C44.3814 23.2314 42.7776 23.6569 42.0582 23.6569C40.0062 23.6569 39.4531 22.4318 39.0564 22.8169C38.6597 23.2019 39.1679 23.683 40.1135 24.1543C40.7211 24.44 41.3794 24.5973 42.0485 24.6169C42.8765 24.6506 43.6911 24.3971 44.3589 23.898C44.6687 23.6591 44.9203 23.3508 45.0942 22.9971C45.268 22.6433 45.3594 22.2535 45.3612 21.8579C45.3612 20.0187 43.7982 19.5889 42.1879 19.0183" fill="#29B5E8"/>
<path d="M93.6772 23.6466C92.7031 23.5902 91.7903 23.1444 91.1377 22.4064C90.4851 21.6684 90.1455 20.6979 90.1929 19.7062C90.1378 19.2072 90.1867 18.7021 90.3366 18.2237C90.4865 17.7453 90.734 17.3045 91.0628 16.9301C91.3917 16.5558 91.7945 16.2563 92.2449 16.0512C92.6953 15.8461 93.1832 15.7401 93.6766 15.7401C94.1701 15.7401 94.658 15.8461 95.1084 16.0512C95.5588 16.2563 95.9616 16.5558 96.2904 16.9301C96.6192 17.3045 96.8667 17.7453 97.0166 18.2237C97.1665 18.7021 97.2155 19.2072 97.1603 19.7062C97.2106 20.6984 96.8721 21.6704 96.2192 22.409C95.5662 23.1477 94.6521 23.5927 93.6772 23.6466ZM97.1614 16.7269L97.111 16.6549L97.0788 16.6113C96.6902 16.0609 96.1801 15.6111 95.5894 15.2979C94.9988 14.9847 94.3442 14.8169 93.6782 14.808C91.1396 14.9346 89.1777 17.1229 89.2849 19.7171C89.1777 22.3026 91.1396 24.4898 93.6782 24.6262C95.0312 24.6011 96.2941 23.9258 97.0788 22.8044L97.1132 22.7575L97.1625 22.6877V24.1462C97.156 24.3153 97.2418 24.4735 97.3844 24.5608C97.4545 24.6037 97.5347 24.6263 97.6165 24.6263C97.6983 24.6263 97.7785 24.6037 97.8486 24.5608C97.9912 24.4735 98.0769 24.3153 98.0705 24.1462V15.2858C98.0769 15.1168 97.9912 14.9586 97.8486 14.8713C97.7785 14.8284 97.6983 14.8057 97.6165 14.8057C97.5347 14.8057 97.4545 14.8284 97.3844 14.8713C97.2418 14.9586 97.156 15.1168 97.1625 15.2858L97.1614 16.7269ZM101.128 20.4797L101.1 20.508V11.0891C101.103 11.0048 101.083 10.9212 101.043 10.8473C101.003 10.7734 100.944 10.7119 100.872 10.6692C100.801 10.6266 100.719 10.6044 100.636 10.6049C100.553 10.6055 100.472 10.6288 100.401 10.6724C100.256 10.7597 100.169 10.9178 100.172 11.0891V24.1277C100.169 24.212 100.189 24.2956 100.229 24.3695C100.269 24.4433 100.328 24.5049 100.399 24.5475C100.471 24.5902 100.553 24.6124 100.636 24.6119C100.718 24.6113 100.8 24.588 100.871 24.5444C101.015 24.4571 101.103 24.2989 101.1 24.1277V21.8749L102.995 19.8753L103.048 19.9429L103.054 19.9484L106.556 24.4146C106.634 24.5378 106.773 24.6077 106.916 24.5946C107.025 24.5977 107.132 24.5623 107.219 24.4942C107.409 24.3066 107.425 24.0011 107.256 23.7938L103.659 19.1738L107.237 15.5171C107.282 15.4733 107.318 15.4206 107.343 15.3622C107.367 15.3038 107.38 15.2409 107.38 15.1773C107.38 15.1137 107.367 15.0508 107.343 14.9924C107.318 14.934 107.282 14.8813 107.237 14.8375C107.156 14.7426 107.038 14.6869 106.915 14.6869C106.792 14.6869 106.674 14.7415 106.593 14.8375L101.183 20.4098L101.128 20.4797ZM87.0303 10.6069C86.9082 10.6115 86.7926 10.664 86.7078 10.7536C86.623 10.8431 86.5757 10.9626 86.5758 11.0869V24.1233C86.5731 24.2077 86.5928 24.2912 86.6329 24.3651C86.673 24.439 86.7319 24.5005 86.8035 24.5432C86.875 24.5858 86.9566 24.6081 87.0395 24.6075C87.1225 24.607 87.2037 24.5836 87.2747 24.54C87.4195 24.4528 87.5074 24.2935 87.5042 24.1233V11.0749C87.5031 10.8098 87.2898 10.5949 87.0303 10.5949M74.9802 22.8404L74.9738 22.8568L74.9631 22.8928L74.9502 22.8578L74.9127 22.7618L72.8254 17.5255C72.7855 17.4366 72.7216 17.3612 72.6411 17.308C72.5605 17.2549 72.4668 17.2262 72.3708 17.2255C72.181 17.2331 72.0127 17.3488 71.9345 17.5255L69.7957 22.9037L69.785 22.8677L67.0898 15.1222C67.0695 15.0647 67.0379 15.0121 66.9968 14.9676C66.9558 14.923 66.9062 14.8875 66.8512 14.8631C66.7962 14.8388 66.7368 14.8262 66.6768 14.8261C66.6168 14.826 66.5574 14.8384 66.5023 14.8626C66.3957 14.9188 66.3136 15.0135 66.272 15.1281C66.2303 15.2427 66.2322 15.3689 66.2771 15.4822L69.3819 24.3022C69.3964 24.3503 69.4207 24.3948 69.4532 24.4328C69.4857 24.4707 69.5257 24.5013 69.5705 24.5226C69.5793 24.5345 69.5906 24.5442 69.6036 24.551C69.6166 24.5578 69.631 24.5615 69.6456 24.5618C69.6999 24.5843 69.7575 24.5976 69.8161 24.6011C69.9962 24.5902 70.1527 24.4735 70.2127 24.3022C70.2147 24.2872 70.2211 24.2732 70.2309 24.2618L72.3708 18.8618L74.5364 24.2618C74.5665 24.3442 74.6172 24.417 74.6837 24.4731C74.7501 24.5292 74.8298 24.5666 74.9148 24.5815H74.9716C75.0789 24.5826 75.1646 24.5466 75.2375 24.4811C75.3104 24.4157 75.3737 24.336 75.409 24.2411L78.4966 15.4615C78.5899 15.2215 78.4805 14.9488 78.25 14.8418C78.0174 14.7491 77.7569 14.8658 77.6636 15.1015L75.021 22.7378L74.9802 22.8404ZM48.1248 15.2957C48.1355 15.1277 48.0519 14.9684 47.9104 14.8811C47.7689 14.7938 47.592 14.7938 47.4494 14.8811C47.3795 14.9233 47.3225 14.9844 47.2846 15.0575C47.2468 15.1307 47.2296 15.2132 47.235 15.2957V24.2346C47.2457 24.2455 47.2522 24.2586 47.2543 24.2738C47.2511 24.2957 47.2586 24.3175 47.2725 24.3349C47.3032 24.3968 47.3459 24.4518 47.3981 24.4964C47.4502 24.541 47.5107 24.5744 47.5759 24.5946H47.6885C47.7558 24.5958 47.8224 24.58 47.8823 24.5485C47.9422 24.5171 47.9934 24.4711 48.0315 24.4146C48.0817 24.351 48.1143 24.2749 48.1259 24.1942V18.7942C48.1237 17.1611 49.3995 15.8226 51.0033 15.7746C51.7756 15.7898 52.5104 16.1161 53.0465 16.6821C53.5826 17.248 53.876 18.0072 53.8625 18.7931V24.1113C53.8561 24.2804 53.9419 24.4386 54.0845 24.5258C54.1545 24.5687 54.2348 24.5914 54.3166 24.5914C54.3984 24.5914 54.4786 24.5687 54.5487 24.5258C54.6913 24.4386 54.777 24.2804 54.7706 24.1113V18.7931C54.8028 16.6375 53.1196 14.8604 51.0023 14.8135C50.4489 14.8168 49.9033 14.9461 49.4054 15.1919C48.9075 15.4377 48.47 15.7937 48.1248 16.2338V15.2957ZM60.8332 23.6335C59.8605 23.574 58.9498 23.1275 58.298 22.3904C57.6463 21.6533 57.3057 20.6848 57.35 19.6942C57.2948 19.1952 57.3438 18.6901 57.4937 18.2117C57.6436 17.7333 57.8911 17.2925 58.2199 16.9181C58.5487 16.5438 58.9515 16.2443 59.402 16.0392C59.8524 15.8341 60.3403 15.7281 60.8337 15.7281C61.3271 15.7281 61.815 15.8341 62.2654 16.0392C62.7158 16.2443 63.1186 16.5438 63.4475 16.9181C63.7763 17.2925 64.0238 17.7333 64.1737 18.2117C64.3236 18.6901 64.3726 19.1952 64.3174 19.6942C64.3617 20.6848 64.0211 21.6533 63.3693 22.3904C62.7176 23.1275 61.8059 23.574 60.8332 23.6335ZM60.8342 14.7949C59.6172 14.8633 58.4752 15.4148 57.6536 16.331C56.8321 17.2471 56.3966 18.4548 56.4409 19.6942C56.2876 21.3895 57.0906 23.0258 58.5132 23.9215C59.9358 24.8171 61.7337 24.816 63.1553 23.9215C64.5768 23.0269 65.3798 21.3884 65.2276 19.6942C65.2744 18.4531 64.8401 17.243 64.0183 16.3247C63.1965 15.4064 62.053 14.8535 60.8342 14.7851M4.67481 8.43057L11.7076 12.7222C12.5095 13.2131 13.5387 13.0757 14.1894 12.3917C14.4005 12.1843 14.5682 11.9356 14.6825 11.6606C14.7967 11.3856 14.8551 11.0899 14.8541 10.7913V2.18948C14.8688 1.81255 14.7832 1.43858 14.6063 1.10707C14.4294 0.775562 14.1678 0.498818 13.8491 0.306069C13.5305 0.113319 13.1666 0.0117193 12.7958 0.0120002C12.4251 0.0122811 12.0614 0.114433 11.743 0.307665C11.4244 0.500206 11.1629 0.776664 10.9859 1.10787C10.8089 1.43908 10.723 1.81276 10.7374 2.18948V7.08439L6.74284 4.6473C6.50743 4.50464 6.24604 4.41204 5.97446 4.3751C5.70289 4.33816 5.42677 4.35766 5.16281 4.43241C4.89885 4.50715 4.65252 4.6356 4.43874 4.80998C4.22495 4.98436 4.04814 5.20104 3.919 5.44694C3.34759 6.48766 3.67993 7.80112 4.67481 8.43057ZM21.5825 12.7113L28.6152 8.41966C29.6123 7.79021 29.9446 6.47566 29.3721 5.43494C29.2429 5.18928 29.0661 4.97283 28.8523 4.79866C28.6386 4.6245 28.3923 4.49622 28.1285 4.42159C27.8647 4.34695 27.5887 4.32751 27.3173 4.36443C27.0459 4.40135 26.7847 4.49386 26.5494 4.63639L22.6074 7.04076V2.17748C22.622 1.80055 22.5364 1.42658 22.3595 1.09507C22.1826 0.763562 21.921 0.486818 21.6023 0.294069C21.2837 0.10132 20.9198 -0.000280308 20.5491 5.80844e-07C20.1783 0.00028147 19.8146 0.102433 19.4962 0.295665C19.1777 0.488206 18.9161 0.764663 18.7391 1.09587C18.5621 1.42708 18.4763 1.80076 18.4906 2.17748V10.6102C18.4477 11.0618 18.541 11.5157 18.7586 11.9128C18.8878 12.1586 19.0646 12.3753 19.2784 12.5497C19.4921 12.7241 19.7385 12.8525 20.0024 12.9273C20.2664 13.002 20.5425 13.0215 20.8141 12.9846C21.0857 12.9477 21.3471 12.854 21.5825 12.7113ZM15.3216 17.6029C15.3283 17.4651 15.38 17.3334 15.4684 17.2288L16.2907 16.3582C16.3888 16.2673 16.5142 16.2127 16.6466 16.2033H16.6788C16.8112 16.2112 16.9368 16.266 17.0337 16.3582L17.8559 17.2288C17.9443 17.3334 17.996 17.4651 18.0028 17.6029V17.6357C17.9965 17.7743 17.9448 17.9068 17.8559 18.012L17.0337 18.8804C16.9362 18.9713 16.8116 19.0262 16.6799 19.0364H16.6477C16.5148 19.0284 16.3888 18.9732 16.2918 18.8804L15.4695 18.012C15.3805 17.9062 15.3301 17.7742 15.3226 17.6357L15.3216 17.6029ZM12.8322 17.2451V17.9957C12.8414 18.1841 12.912 18.3641 13.0327 18.5073L15.8233 21.4549C15.9552 21.5816 16.1268 21.6569 16.3079 21.6677H17.0176C17.1986 21.6569 17.3702 21.5816 17.5022 21.4549L20.2928 18.5073C20.4139 18.3655 20.4857 18.1844 20.4932 17.9946V17.244C20.4842 17.0552 20.4137 16.8748 20.2928 16.7313L17.5022 13.7858C17.3702 13.6592 17.1986 13.5839 17.0176 13.5731H16.3079C16.1268 13.5839 15.9552 13.6592 15.8233 13.7858L13.0327 16.7335C12.9115 16.8753 12.8397 17.0553 12.8322 17.2451ZM1.0362 15.2204L5.01895 17.6509L1.0362 20.0804C0.0413156 20.7098 -0.293171 22.0244 0.279315 23.0651C0.408551 23.3109 0.585429 23.5275 0.799257 23.7018C1.01309 23.876 1.25942 24.0044 1.52338 24.079C1.78733 24.1537 2.06342 24.1731 2.33495 24.136C2.60648 24.099 2.86781 24.0064 3.10315 23.8637L10.1359 19.572C10.4529 19.3659 10.7138 19.0818 10.8945 18.7461C11.0751 18.4104 11.1699 18.0337 11.1699 17.6509C11.1699 17.2681 11.0751 16.8915 10.8945 16.5558C10.7138 16.22 10.4529 15.936 10.1359 15.7298L3.10315 11.4371C2.86775 11.2945 2.60636 11.2019 2.33478 11.1649C2.0632 11.128 1.78708 11.1475 1.52312 11.2222C1.25916 11.297 1.01284 11.4254 0.799054 11.5998C0.585267 11.7742 0.408457 11.9909 0.279315 12.2368C-0.292099 13.2775 0.0413156 14.5909 1.0362 15.2204ZM22.1217 17.6488C22.1158 18.0316 22.208 18.4094 22.3892 18.7449C22.5704 19.0804 22.8344 19.3621 23.1552 19.5622L30.1912 23.8538C30.4265 23.9964 30.6877 24.0889 30.9592 24.1258C31.2306 24.1627 31.5065 24.1433 31.7703 24.0687C32.0342 23.994 32.2804 23.8657 32.4941 23.6916C32.7079 23.5174 32.8847 23.301 33.014 23.0553C33.5864 22.0146 33.253 20.6989 32.2571 20.0706L28.2743 17.6411L32.2571 15.2106C33.2541 14.5822 33.5864 13.2688 33.014 12.2269C32.8848 11.9812 32.708 11.7646 32.4943 11.5904C32.2806 11.4161 32.0344 11.2877 31.7706 11.213C31.5068 11.1382 31.2308 11.1187 30.9593 11.1555C30.6879 11.1924 30.4266 11.2848 30.1912 11.4273L23.1552 15.72C22.832 15.9215 22.5665 16.2058 22.3851 16.5445C22.2038 16.8831 22.113 17.2643 22.1217 17.6498M13.1206 22.3113C12.6349 22.2153 12.1321 22.3069 11.7087 22.5666L4.67588 26.8593C3.681 27.4888 3.34651 28.8011 3.919 29.8429C4.04824 30.0887 4.22511 30.3053 4.43894 30.4796C4.65277 30.6539 4.89911 30.7822 5.16306 30.8568C5.42701 30.9315 5.7031 30.9509 5.97463 30.9139C6.24616 30.8769 6.5075 30.7842 6.74284 30.6415L10.7374 28.2044V33.0622C10.7227 33.4391 10.8083 33.8131 10.9852 34.1446C11.1621 34.4761 11.4237 34.7529 11.7424 34.9456C12.0611 35.1384 12.425 35.24 12.7957 35.2397C13.1664 35.2394 13.5301 35.1373 13.8485 34.944C14.1671 34.7515 14.4286 34.475 14.6056 34.1438C14.7826 33.8126 14.8685 33.4389 14.8541 33.0622V24.4495C14.862 23.9407 14.6922 23.4456 14.375 23.0522C14.0577 22.6589 13.6136 22.3929 13.1217 22.3015M28.6185 26.8506L21.5857 22.5589C21.3503 22.4162 21.089 22.3236 20.8175 22.2866C20.5459 22.2495 20.2699 22.2689 20.0059 22.3436C19.7419 22.4182 19.4956 22.5466 19.2818 22.7208C19.0679 22.8951 18.8911 23.1117 18.7618 23.3575C18.5455 23.7546 18.4524 24.2091 18.4949 24.6611V33.0524C18.4802 33.4293 18.5658 33.8033 18.7427 34.1348C18.9196 34.4663 19.1812 34.7431 19.4999 34.9358C19.8186 35.1286 20.1825 35.2302 20.5532 35.2299C20.9239 35.2296 21.2877 35.1274 21.606 34.9342C21.9246 34.7417 22.1861 34.4652 22.3631 34.134C22.5401 33.8028 22.626 33.4291 22.6116 33.0524V28.2284L26.5526 30.6328C26.788 30.7754 27.0494 30.868 27.321 30.905C27.5925 30.9419 27.8687 30.9224 28.1326 30.8477C28.3966 30.7729 28.6429 30.6445 28.8567 30.4701C29.0705 30.2957 29.2473 30.079 29.3764 29.8331C29.9478 28.7924 29.6144 27.4789 28.6195 26.8495" fill="#29B5E8"/>
</svg>
