<svg width="85" height="24" viewBox="0 0 85 24" fill="none" xmlns="http://www.w3.org/2000/svg">
<g clip-path="url(#clip0_1_211)">
<path d="M12.1016 23.6516C5.60101 23.6516 0.351318 18.446 0.351318 12C0.351318 5.55399 5.60101 0.348419 12.1016 0.348419C18.6022 0.348419 23.8519 5.55399 23.8519 12C23.8519 18.446 18.6022 23.6516 12.1016 23.6516Z" fill="black"/>
<path d="M18.3844 10.2718H16.0793V13.7213H18.3844C19.3402 13.7213 20.1343 12.9338 20.1343 11.9861C20.1343 11.0314 19.3402 10.2718 18.3844 10.2718Z" fill="#FFF100"/>
<path d="M4.78589 12C4.78589 14.662 6.9715 16.8293 9.65608 16.8293C12.3407 16.8293 14.5263 14.662 14.5263 12C14.5263 9.33799 12.3407 7.17075 9.65608 7.17075C6.9715 7.17075 4.78589 9.33799 4.78589 12Z" fill="#FFF100"/>
</g>
<defs>
<clipPath id="clip0_1_211">
<rect width="24" height="24" fill="white"/>
</clipPath>
</defs>
</svg>
