<svg width="76" height="52" viewBox="0 0 76 52" fill="none" xmlns="http://www.w3.org/2000/svg">
<g clip-path="url(#clip0_1_73)">
<path d="M18.1855 47.3747H15.2686C15.1651 42.3893 14.8815 37.7001 14.4179 33.3072H14.3908L9.94801 47.3747H7.72433L3.3085 33.3072H3.28149C2.95289 37.527 2.74583 42.2161 2.6603 47.3747H0C0.171052 41.0997 0.603182 35.2166 1.29189 29.7208H4.91098L9.11976 42.6901H9.14676L13.3825 29.7208H16.8441C17.6003 36.1553 18.0505 42.0384 18.1855 47.3747Z" fill="#00758F"/>
<path d="M30.8433 34.3507C29.655 40.8763 28.0885 45.6202 26.1439 48.5822C24.6269 50.8607 22.9659 52.0046 21.1564 52.0046C20.6747 52.0046 20.0806 51.8587 19.3739 51.5671V49.9949C19.7205 50.045 20.1211 50.0724 20.5892 50.0724C21.431 50.0724 22.1107 49.8354 22.6283 49.366C23.2495 48.7919 23.5556 48.1448 23.5556 47.4293C23.5556 46.9417 23.3125 45.9392 22.8309 44.4217L19.6259 34.3553H22.4933L24.7935 41.8834C25.3112 43.5923 25.5272 44.7863 25.4372 45.4652C26.6931 42.0657 27.5708 38.3609 28.0705 34.3507H30.8343H30.8433Z" fill="#00758F"/>
<path d="M69.6901 47.3747H61.3986V29.7208H64.1894V45.201H69.6901V47.3747Z" fill="#F29111"/>
<path fill-rule="evenodd" clip-rule="evenodd" d="M59.2289 47.7984L56.0239 46.1989C56.3075 45.962 56.5821 45.7068 56.8252 45.4106C58.1846 43.7928 58.8688 41.3958 58.8688 38.2196C58.8688 32.3821 56.6046 29.4565 52.0762 29.4565C49.8571 29.4565 48.1241 30.1947 46.8817 31.6803C45.5223 33.3026 44.8426 35.6905 44.8426 38.8439C44.8426 41.9974 45.4457 44.2212 46.6521 45.6703C47.7549 46.9782 49.4159 47.6298 51.6396 47.6298C52.4679 47.6298 53.2286 47.525 53.9218 47.3199L58.0946 49.7807L59.2334 47.7984H59.2289ZM48.8443 43.843C48.1376 42.6946 47.7865 40.8444 47.7865 38.3016C47.7865 33.8586 49.1234 31.6347 51.7882 31.6347C53.1836 31.6347 54.2054 32.1679 54.8626 33.2297C55.5693 34.3826 55.9204 36.21 55.9204 38.7209C55.9204 43.2004 54.5835 45.4425 51.9187 45.4425C50.5233 45.4425 49.5015 44.9138 48.8443 43.8475" fill="#F29111"/>
<path d="M43.6272 42.4804C43.6272 43.9797 43.0825 45.2055 42.0022 46.167C40.9174 47.124 39.4634 47.6025 37.6404 47.6025C35.9344 47.6025 34.2824 47.0511 32.6799 45.9529L33.4271 44.4354C34.8045 45.1326 36.0514 45.4789 37.1722 45.4789C38.221 45.4789 39.0448 45.242 39.639 44.7772C40.2332 44.3078 40.5888 43.6516 40.5888 42.8176C40.5888 41.7695 39.8685 40.8718 38.5406 40.1245C37.3163 39.4455 34.872 38.0282 34.872 38.0282C33.5486 37.0485 32.8824 36.0004 32.8824 34.2733C32.8824 32.8424 33.3776 31.6894 34.3679 30.8099C35.3582 29.9304 36.6366 29.4884 38.203 29.4884C39.7695 29.4884 41.2955 29.9259 42.6189 30.7963L41.9437 32.3092C40.8093 31.8216 39.693 31.5801 38.5857 31.5801C37.6899 31.5801 37.0012 31.7988 36.5195 32.2363C36.0379 32.6692 35.7363 33.2297 35.7363 33.9087C35.7363 34.9523 36.4745 35.8591 37.8339 36.6247C39.0718 37.3037 41.5746 38.7482 41.5746 38.7482C42.9385 39.7234 43.6137 40.767 43.6137 42.4804" fill="#F29111"/>
<path fill-rule="evenodd" clip-rule="evenodd" d="M73.1921 23.8103C71.5041 23.7693 70.1987 23.9379 69.1049 24.4073C68.7898 24.5349 68.2857 24.5349 68.2406 24.9405C68.4117 25.1091 68.4297 25.3871 68.5782 25.624C68.8303 26.0524 69.2715 26.6266 69.6721 26.9228C70.1132 27.2646 70.5588 27.6063 71.0225 27.9025C71.8417 28.4175 72.769 28.7137 73.5702 29.2241C74.0339 29.5203 74.4975 29.9076 74.9612 30.2266C75.1907 30.3952 75.3393 30.6732 75.6364 30.778V30.7142C75.4878 30.5228 75.4473 30.2448 75.2988 30.0307C75.0872 29.821 74.8756 29.6251 74.6641 29.4155C74.0519 28.5815 73.2957 27.857 72.4719 27.26C71.7967 26.7906 70.3203 26.1481 70.0502 25.3643C70.0502 25.3643 70.0277 25.3415 70.0097 25.3187C70.4733 25.2777 71.0225 25.1045 71.4636 24.9769C72.1793 24.7855 72.832 24.8266 73.5702 24.6352C73.9079 24.5486 74.2455 24.4438 74.5831 24.339V24.1476C74.2004 23.7648 73.9304 23.2498 73.5297 22.8898C72.4584 21.9511 71.2746 21.0351 70.0547 20.265C69.402 19.8366 68.5557 19.5632 67.8625 19.1986C67.6104 19.0711 67.1918 19.0073 67.0433 18.7931C66.6652 18.3237 66.4536 17.7085 66.179 17.1526C65.5668 15.9814 64.9771 14.6827 64.4505 13.4431C64.0724 12.6138 63.8383 11.7798 63.3747 11.0143C61.205 7.38689 58.8463 5.19041 55.2227 3.0395C54.444 2.59292 53.5167 2.39696 52.5264 2.16456C51.9997 2.14177 51.4731 2.10076 50.9464 2.07797C50.6088 1.92759 50.2712 1.52202 49.9786 1.33062C48.7768 0.565048 45.6798 -1.09826 44.7976 1.09822C44.2304 2.48355 45.6393 3.85065 46.1255 4.55243C46.4811 5.04459 46.9492 5.59598 47.1968 6.15194C47.3453 6.5165 47.3858 6.89929 47.5344 7.28208C47.872 8.22082 48.1871 9.26437 48.6282 10.1393C48.8578 10.5859 49.1099 11.0553 49.4069 11.4609C49.578 11.6978 49.8706 11.8026 49.9336 12.1854C49.641 12.6092 49.6185 13.2518 49.4475 13.7849C48.6912 16.1956 48.9838 19.1804 50.0596 20.9531C50.3972 21.4863 51.1985 22.662 52.2743 22.2108C53.2241 21.828 53.0125 20.6113 53.2871 19.545C53.3501 19.2852 53.3096 19.1166 53.4357 18.948V18.989C53.7283 19.586 54.0253 20.1602 54.2999 20.7571C54.9526 21.8007 56.0915 22.8898 57.0413 23.6144C57.5454 24.0017 57.946 24.6579 58.5762 24.8949V24.8311H58.5357C58.4097 24.6397 58.2206 24.5531 58.0496 24.4073C57.6714 24.0245 57.2483 23.5551 56.9557 23.1268C56.0735 21.9329 55.2902 20.6113 54.597 19.2442C54.2594 18.5835 53.9668 17.8589 53.6922 17.1981C53.5662 16.9429 53.5662 16.5601 53.3546 16.4325C53.0395 16.9019 52.5759 17.3075 52.3418 17.8817C51.9412 18.7976 51.9007 19.9323 51.7522 21.1035C51.6666 21.1263 51.7116 21.1035 51.6666 21.1445C50.9914 20.9759 50.7619 20.2695 50.5098 19.6771C49.8796 18.1597 49.7716 15.7308 50.3207 13.9809C50.4693 13.5343 51.0995 12.1262 50.8474 11.6978C50.7213 11.2922 50.2982 11.0598 50.0686 10.7363C49.7941 10.3307 49.497 9.82033 49.3124 9.36918C48.8083 8.17525 48.5517 6.85372 48.007 5.65978C47.7549 5.10383 47.3093 4.52964 46.9537 4.01926C46.5531 3.44508 46.112 3.0395 45.7924 2.35595C45.6888 2.11899 45.5403 1.7362 45.7068 1.48101C45.7473 1.3124 45.8329 1.24404 46.0039 1.20303C46.2785 0.970621 47.0572 1.26683 47.3318 1.39442C48.1106 1.71341 48.7633 2.01418 49.4159 2.46076C49.713 2.67494 50.0281 3.08052 50.4063 3.18533H50.8474C51.5226 3.33115 52.2788 3.22634 52.9135 3.41773C54.0298 3.77774 55.0381 4.31546 55.9474 4.88965C58.7068 6.66232 60.9799 9.17779 62.5194 12.1854C62.7715 12.673 62.8795 13.1242 63.1091 13.6345C63.5502 14.6827 64.0994 15.749 64.5405 16.7698C64.9817 17.7723 65.4048 18.7931 66.0395 19.627C66.3546 20.0736 67.6194 20.3106 68.1866 20.543C68.6052 20.7344 69.2625 20.903 69.6406 21.1399C70.3563 21.5865 71.072 22.1015 71.7472 22.5891C72.0848 22.8443 73.1381 23.3774 73.2011 23.8058" fill="#00758F"/>
<path d="M75.1997 47.3701H75.6364V45.2055H74.9792L74.4435 46.682L73.8628 45.2055H73.2326V47.3701H73.6468V45.725H73.6693L74.2769 47.3701H74.592L75.1997 45.725V47.3701ZM71.6797 47.3701H72.1433V45.5746H72.7465V45.2055H71.0495V45.5746H71.6797V47.3701Z" fill="#F29111"/>
</g>
<defs>
<clipPath id="clip0_1_73">
<rect width="75.6364" height="52" fill="white"/>
</clipPath>
</defs>
</svg>
