<svg
  version="1.1"
  height="2rem"
  width="100%"
  viewBox="0 0 36 36"
  xmlns="http://www.w3.org/2000/svg"
  fill="none"
>
  <g clip-path="url(#clip0_3727_82729)">
    <path d="M27.75 35.2402H8.25C7.00687 35.2402 6 34.2334 6 32.9902V4.49023C6 3.24711 7.00687 2.24023 8.25 2.24023H21.75L30 10.4902V32.9902C30 34.2334 28.9931 35.2402 27.75 35.2402Z" fill="#00AC47"/>
    <path d="M21.75 2.24023L30 10.4902H21.75V2.24023Z" fill="#00832D"/>
    <path d="M23.625 14.9902H18.9375H17.0625H12.375H10.5V16.8652V19.4902V21.3652V23.9902V25.8652H12.375H17.0625H18.9375H23.625H25.5V23.9902V21.3652V19.4902V16.8652V14.9902H23.625ZM12.375 16.8652H17.0625V19.4902H12.375V16.8652ZM12.375 23.9902V21.3652H17.0625V23.9902H12.375ZM23.625 23.9902H18.9375V21.3652H23.625V23.9902ZM23.625 19.4902H18.9375V16.8652H23.625V19.4902Z" fill="white"/>
  </g>
  <defs>
    <clipPath id="clip0_3727_82729">
      <rect width="36" height="36" fill="white" transform="translate(0 0.740234)"/>
    </clipPath>
  </defs>
</svg> 