<svg width="24" height="24" viewBox="0 0 24 24" fill="none" xmlns="http://www.w3.org/2000/svg">
<path fill-rule="evenodd" clip-rule="evenodd" d="M19.5141 3.56045C19.2951 3.49528 19.0633 3.48573 18.8397 3.53269C18.616 3.57964 18.4076 3.6816 18.2333 3.82935C18.2276 3.83537 18.2 3.86432 18.1488 3.93274C18.0883 4.0137 18.0201 4.11538 17.9344 4.24655C17.9167 4.27375 17.898 4.30247 17.8786 4.33245C17.7278 4.56465 17.5283 4.87215 17.3091 5.13363C17.0772 5.41024 16.683 5.81301 16.1138 5.94335C15.4383 6.098 14.8453 5.81158 14.4007 5.36696L12.9114 3.87766C12.4203 3.38663 11.5788 3.38665 11.0902 3.8761C10.9365 4.02977 10.7425 4.19539 10.5752 4.33811C10.5509 4.35877 10.5273 4.37896 10.5044 4.39858C10.305 4.56924 10.1243 4.72781 9.96939 4.88766C9.66859 5.19813 9.64131 5.33626 9.63721 5.34973C9.63972 5.35437 9.64531 5.36193 9.65757 5.37511C9.69988 5.4206 9.78202 5.48558 9.95203 5.58583C10.025 5.62886 10.1001 5.67053 10.1891 5.71986C10.2014 5.72668 10.214 5.73365 10.2268 5.74079C10.327 5.79637 10.4435 5.86149 10.5597 5.93272C10.7866 6.07191 11.0717 6.26919 11.3086 6.55547C12.0214 7.41689 12.2624 8.61164 11.9393 9.68205C11.6162 10.7525 10.7544 11.6143 9.68396 11.9374C8.61355 12.2605 7.4188 12.0195 6.55738 11.3067C6.2711 11.0698 6.07382 10.7847 5.93463 10.5578C5.8634 10.4416 5.79828 10.3251 5.7427 10.2249C5.73555 10.2121 5.72858 10.1995 5.72176 10.1872C5.67243 10.0982 5.63077 10.0231 5.58774 9.95012C5.48749 9.78011 5.42252 9.69797 5.37702 9.65566C5.3525 9.63285 5.34744 9.63315 5.34442 9.63333C5.33269 9.6337 5.22901 9.63731 5.01829 9.76904C4.7941 9.9092 4.53796 10.141 4.2906 10.4405C4.04601 10.7367 3.83724 11.0662 3.69374 11.3712C3.54176 11.6943 3.5 11.911 3.5 12L3.5 12.0013C3.49957 12.3364 3.63932 12.6737 3.87664 12.9103L3.87768 12.9114C3.9825 13.0162 4.12982 13.136 4.35056 13.315C4.55192 13.4783 4.80413 13.6831 5.03574 13.911C5.46732 14.3355 6.07434 15.0768 5.92347 16.0879C5.83669 16.6727 5.53871 17.0962 5.2182 17.402C4.94701 17.6607 4.62066 17.8686 4.38392 18.0194C4.36432 18.0319 4.34534 18.044 4.32704 18.0557C3.75335 18.4226 3.58523 18.5894 3.5327 18.8397C3.48574 19.0633 3.49529 19.2951 3.56046 19.5141C3.68931 19.9471 4.05286 20.3107 4.48586 20.4395C5.14909 20.6369 5.90591 20.2698 6.15865 19.6211L6.15813 19.6224C6.41204 18.9679 6.84025 18.3723 7.55294 18.1674C8.23207 17.9721 8.8466 18.2305 9.24298 18.4658C9.65953 18.7131 10.0393 19.0561 10.3385 19.3503C10.4927 19.5019 10.6373 19.6524 10.7635 19.7848C10.7842 19.8065 10.8042 19.8275 10.8235 19.8478C10.9269 19.9563 11.0122 20.0459 11.0886 20.1223L11.0897 20.1233C11.5778 20.613 12.4225 20.6129 12.9111 20.1226L14.341 18.6927C14.3388 18.6909 14.3366 18.6891 14.3344 18.6873C14.1741 18.5569 13.9772 18.4324 13.7312 18.277C13.7046 18.2602 13.6774 18.243 13.6497 18.2255C13.6426 18.221 13.6353 18.2164 13.6279 18.2117C13.4049 18.0706 13.0463 17.8438 12.81 17.5721C11.2176 15.7406 12.0791 12.8005 14.4082 12.118C16.0957 11.6236 17.9168 12.5492 18.5226 14.1848L18.5218 14.1827C18.5385 14.2273 18.5696 14.2802 18.6136 14.3282C18.6301 14.3462 18.6461 14.361 18.6607 14.373L20.1223 12.9114C20.3747 12.659 20.5 12.3315 20.5 12C20.5 11.6688 20.374 11.3403 20.1223 11.0886C20.0302 10.9965 19.9022 10.8878 19.7161 10.7298C19.6956 10.7123 19.6743 10.6942 19.6523 10.6755C19.4497 10.5033 19.2025 10.2907 18.9731 10.0569C18.5781 9.65442 17.9283 8.89158 18.0767 7.90982C18.2179 6.96262 18.9442 6.49906 19.3541 6.26338C19.4521 6.20706 19.5524 6.15294 19.6388 6.10633C19.65 6.1003 19.6609 6.0944 19.6716 6.08863C19.7705 6.03522 19.8521 5.99053 19.9266 5.94613C20.0816 5.85371 20.1451 5.79681 20.1706 5.76665C20.3184 5.59234 20.4204 5.38394 20.4673 5.16031C20.5143 4.93668 20.5047 4.70487 20.4395 4.48585C20.3107 4.05285 19.9471 3.6893 19.5141 3.56045ZM9.63533 5.34185C9.63566 5.34409 9.63606 5.34733 9.63606 5.34733C9.63509 5.34493 9.63533 5.34185 9.63533 5.34185ZM18.4287 1.57536C18.9778 1.46009 19.5469 1.48352 20.0846 1.64352C21.165 1.96502 22.035 2.83501 22.3565 3.91543C22.5165 4.45312 22.5399 5.02223 22.4246 5.57125C22.3094 6.12028 22.059 6.63191 21.6963 7.05985C21.4592 7.33957 21.1745 7.5306 20.9509 7.66394C20.836 7.73242 20.7208 7.79506 20.622 7.84841C20.6106 7.85455 20.5994 7.86057 20.5885 7.86647C20.4991 7.91474 20.4239 7.95533 20.3511 7.99718C20.1832 8.09372 20.1044 8.15529 20.0657 8.1962C20.0637 8.19833 20.0619 8.20027 20.0603 8.20202C20.073 8.23763 20.1283 8.37868 20.4006 8.65614C20.5603 8.81885 20.7455 8.97989 20.9476 9.1517C20.9694 9.17018 20.9918 9.18916 21.0146 9.20855C21.1849 9.35282 21.382 9.51987 21.5365 9.6744C22.1777 10.3156 22.5 11.1591 22.5 12C22.5 12.8405 22.1789 13.6832 21.5365 14.3256L20.0064 15.8557C19.3677 16.4938 18.5436 16.5227 17.9051 16.2379C17.323 15.9782 16.8639 15.4607 16.6479 14.8817L16.6471 14.8795C16.4045 14.2244 15.6452 13.8397 14.9705 14.0373C14.0407 14.3098 13.6836 15.5286 14.3193 16.2598C14.3177 16.2579 14.3168 16.2569 14.3168 16.2569C14.3168 16.2569 14.3416 16.281 14.4122 16.3322C14.4909 16.3892 14.5903 16.4538 14.7196 16.5357C14.7457 16.5522 14.7732 16.5696 14.8019 16.5876C15.031 16.7319 15.3362 16.924 15.5968 17.1361C15.8697 17.3582 16.2755 17.7415 16.4133 18.3023C16.5786 18.9755 16.2944 19.5677 15.8557 20.0064L14.3277 21.5344C13.0586 22.8075 10.9447 22.8097 9.67412 21.5362C9.57894 21.441 9.47354 21.3304 9.37114 21.2228C9.35266 21.2034 9.33429 21.1841 9.31608 21.165C9.19201 21.0349 9.06612 20.904 8.93639 20.7765C8.66786 20.5125 8.42623 20.3068 8.22197 20.1855C8.09282 20.1089 8.06904 20.2264 8.02274 20.3458L8.02221 20.3471C7.38991 21.9701 5.57172 22.8493 3.91544 22.3565C2.83502 22.035 1.96503 21.165 1.64353 20.0845C1.48353 19.5469 1.4601 18.9777 1.57537 18.4287C1.81529 17.286 2.70487 16.7183 3.20966 16.3962C3.2232 16.3876 3.23645 16.3791 3.24941 16.3708C3.54525 16.1816 3.71463 16.0723 3.83761 15.9549C3.9336 15.8634 3.94106 15.8219 3.94515 15.7943L3.94536 15.7929C3.94654 15.7858 3.96683 15.6649 3.63324 15.3368C3.47995 15.186 3.30025 15.0382 3.0909 14.8685C3.07856 14.8585 3.066 14.8483 3.05324 14.838C2.86988 14.6894 2.64658 14.5086 2.4641 14.3262C1.85021 13.7139 1.49907 12.8664 1.5 11.9993C1.50015 11.4918 1.67356 10.9672 1.88398 10.5199C2.10297 10.0544 2.40397 9.58415 2.74848 9.16698C3.0902 8.75319 3.50247 8.35802 3.95807 8.07319C4.4004 7.79665 4.99097 7.5589 5.63814 7.6552C6.59015 7.79754 7.06367 8.51563 7.3105 8.93419C7.36809 9.03186 7.42364 9.13209 7.47163 9.21868C7.47838 9.23086 7.48498 9.24277 7.49142 9.25437C7.54678 9.35412 7.59331 9.43677 7.63955 9.51218C7.7353 9.6683 7.79625 9.73586 7.83247 9.76583C8.17779 10.0516 8.6769 10.1523 9.106 10.0228C9.5351 9.89322 9.89513 9.53319 10.0247 9.10409C10.1542 8.67498 10.0535 8.17588 9.76774 7.83056C9.73777 7.79434 9.67021 7.73339 9.51409 7.63764C9.43868 7.5914 9.35604 7.54487 9.25628 7.48951C9.24468 7.48307 9.23277 7.47647 9.22059 7.46971C9.134 7.42173 9.03377 7.36618 8.93611 7.30859C8.51754 7.06176 7.79955 6.58892 7.65721 5.63691C7.51206 4.6615 8.13591 3.90583 8.53299 3.49599C8.75907 3.26264 9.00314 3.05095 9.20376 2.87922C9.2293 2.85736 9.25386 2.83636 9.2775 2.81616C9.45626 2.66335 9.58195 2.55592 9.67537 2.4625C10.9484 1.18793 13.0568 1.19463 14.3256 2.46345C14.5011 2.63896 15.5 3.99994 15.7928 3.82935C15.9453 3.82935 16.0727 3.44022 16.2028 3.2406C16.2213 3.21208 16.2403 3.18291 16.2598 3.15306C16.2638 3.14702 16.2678 3.14087 16.2719 3.13462C16.4214 2.90539 16.6581 2.54279 16.9401 2.3037C17.3681 1.94096 17.8797 1.69063 18.4287 1.57536Z" fill="#09090B"/>
</svg>
