<svg width="24" height="24" viewBox="0 0 24 24" fill="none" xmlns="http://www.w3.org/2000/svg">
<path d="M21 5C21 6.65685 16.9706 8 12 8C7.02944 8 3 6.65685 3 5M21 5C21 3.34315 16.9706 2 12 2C7.02944 2 3 3.34315 3 5M21 5V19C21 19.7956 20.0518 20.5587 18.364 21.1213C16.6761 21.6839 14.3869 22 12 22C9.61305 22 7.32387 21.6839 5.63604 21.1213C3.94821 20.5587 3 19.7956 3 19V5M3 12C3 12.7956 3.94821 13.5587 5.63604 14.1213C7.32387 14.6839 9.61305 15 12 15C14.3869 15 16.6761 14.6839 18.364 14.1213C20.0518 13.5587 21 12.7956 21 12" stroke="#09090B" stroke-width="2" stroke-linecap="round" stroke-linejoin="round"/>
</svg>
