<svg width="36" height="36" viewBox="0 0 36 36" fill="none" xmlns="http://www.w3.org/2000/svg">
<path d="M32.7863 1.93344C32.6336 1.93344 32.477 1.96157 32.3203 2.02585L9.16132 11.3312H2.57204C2.21847 11.3312 1.92918 11.6285 1.92918 11.9982V24.0116C1.92918 24.3812 2.21847 24.6785 2.57204 24.6785H6.6582C6.50954 25.1446 6.42918 25.6388 6.42918 26.141C6.42918 28.7888 8.59079 30.9424 11.2506 30.9424C13.4765 30.9424 15.3528 29.4317 15.9073 27.3906L32.3243 33.9879C32.481 34.0482 32.6377 34.0803 32.7903 34.0803C33.4694 34.0803 34.0761 33.5098 34.0761 32.7464V3.26737C34.072 2.50398 33.4694 1.93344 32.7863 1.93344ZM11.2506 28.0616C10.1859 28.0616 9.32204 27.2017 9.32204 26.141C9.32204 25.691 9.47873 25.2611 9.764 24.9196L13.1752 26.2897C13.0948 27.2781 12.2631 28.0616 11.2506 28.0616V28.0616ZM31.1792 30.408L10.2381 21.9946L9.71981 21.7857H4.82204V14.2241H9.71981L10.2381 14.0151L31.1792 5.60175V30.408V30.408Z" fill="black" fill-opacity="0.85"/>
</svg>
