<svg xmlns="http://www.w3.org/2000/svg" width="120" height="60"><path d="M52.277 32.1h7.384l-3.918-6.254-7.158 11.378h-3.24L54 23.595c.377-.527.98-.904 1.733-.904.678 0 1.28.3 1.658.83l8.74 13.638H62.9l-1.507-2.562h-7.46zm33.832 2.487v-11.83H83.32v12.96c0 .377.15.678.377.98.3.3.603.452.98.452H97.26l1.658-2.562zm-45.662-2.1c2.713 0 4.822-2.185 4.822-4.822 0-2.713-2.185-4.822-4.822-4.822H28.39v14.392h2.788V25.328h9.117a2.35 2.35 0 0 1 2.336 2.336A2.35 2.35 0 0 1 40.296 30h-7.76l8.213 7.158h3.994l-5.576-4.672zm-29.16 4.672c-3.994 0-7.158-3.24-7.158-7.158 0-3.994 3.24-7.158 7.158-7.158h8.364c3.994 0 7.158 3.24 7.158 7.158 0 3.994-3.24 7.158-7.158 7.158zm8.213-2.562a4.7 4.7 0 0 0 4.672-4.672 4.7 4.7 0 0 0-4.672-4.672h-7.987a4.7 4.7 0 0 0-4.672 4.672 4.7 4.7 0 0 0 4.672 4.672zm52.443 2.562c-3.994 0-7.158-3.24-7.158-7.158 0-3.994 3.24-7.158 7.158-7.158h9.946l-1.658 2.562h-8.138a4.7 4.7 0 0 0-4.672 4.672 4.7 4.7 0 0 0 4.672 4.672h9.946l-1.658 2.562h-8.44zm33.832-2.562c-2.1 0-3.918-1.432-4.446-3.39h11.83l1.658-2.562h-13.412c.527-1.96 2.336-3.39 4.446-3.39h8.138l1.658-2.562H105.7c-3.994 0-7.158 3.24-7.158 7.158 0 3.994 3.24 7.158 7.158 7.158h8.515l1.658-2.562h-10.097z" fill="#e30613"/></svg>