<svg width="132" height="132" viewBox="0 0 132 132" fill="none" xmlns="http://www.w3.org/2000/svg">
<path d="M64.5988 81.675L37.9736 66V38.5C37.9736 26.3497 48.0118 16.5 60.3946 16.5C68.0798 16.5 74.8618 20.2939 78.9016 26.077" stroke="#141B34" stroke-width="8.25" stroke-linecap="round" stroke-linejoin="round"/>
<path d="M52.7979 105.485C56.7963 111.516 63.7263 115.504 71.6056 115.504C83.9888 115.504 94.0269 105.655 94.0269 93.5044V66.0044L66.8866 50.0264" stroke="#141B34" stroke-width="8.25" stroke-linecap="round" stroke-linejoin="round"/>
<path d="M51.9838 74.25L51.9814 42.1816L76.2528 28.4316C86.9767 22.3565 100.689 25.9617 106.881 36.4841C110.876 43.2743 110.763 51.2856 107.299 57.7472" stroke="#141B34" stroke-width="8.25" stroke-linecap="round" stroke-linejoin="round"/>
<path d="M24.693 74.2462C21.2272 80.7081 21.1138 88.7205 25.1096 95.5114C31.301 106.034 45.0135 109.639 55.7375 103.564L80.009 89.8139L80.5365 59.0392" stroke="#141B34" stroke-width="8.25" stroke-linecap="round" stroke-linejoin="round"/>
<path d="M94.028 96.97C101.429 96.6537 108.513 92.7487 112.491 85.987C118.683 75.465 115.009 62.0098 104.285 55.9345L80.0134 42.1846L52.1904 57.3403" stroke="#141B34" stroke-width="8.25" stroke-linecap="round" stroke-linejoin="round"/>
<path d="M37.975 35.0316C30.5726 35.3464 23.4867 39.252 19.5076 46.0147C13.3162 56.5373 16.9904 69.9919 27.7143 76.0672L51.9858 89.8172L79.75 74.6939" stroke="#141B34" stroke-width="8.25" stroke-linecap="round" stroke-linejoin="round"/>
</svg>
