<svg xmlns="http://www.w3.org/2000/svg" xmlns:xlink="http://www.w3.org/1999/xlink" width="120" height="60"><style><![CDATA[.C{fill-rule:evenodd}.D{fill:#66c2e3}]]></style><defs><linearGradient id="A" x1="710.88" x2="1594.069" y1="643.58" y2="473.911" xlink:href="#H"><stop stop-color="#282662" offset="0"/><stop stop-color="#68308f" offset=".095"/><stop stop-color="#a22367" offset=".788"/><stop stop-color="#cd2032" offset=".949"/></linearGradient><linearGradient id="B" x1="2232.793" x2="2415.444" y1="327.022" y2="6.332" xlink:href="#H"><stop stop-color="#f69923" offset="0"/><stop stop-color="#f79a23" offset=".312"/><stop stop-color="#e97826" offset=".838"/></linearGradient><linearGradient id="C" x1="495.3" x2="2175.856" y1="692.335" y2="369.485" xlink:href="#H"><stop stop-color="#9e2064" offset=".323"/><stop stop-color="#c92037" offset=".63"/><stop stop-color="#d12c3e" offset=".751"/><stop stop-color="#e97826" offset="1"/></linearGradient><linearGradient id="D" x1="592.692" x2="2273.247" y1="689.86" y2="367.01" xlink:href="#H"><stop stop-color="#9e2064" offset=".323"/><stop stop-color="#c92037" offset=".63"/><stop stop-color="#d12339" offset=".751"/><stop stop-color="#e97826" offset="1"/></linearGradient><linearGradient id="E" x1="559.28" x2="2239.835" y1="515.937" y2="193.087" xlink:href="#H"><stop stop-color="#9e2064" offset=".323"/><stop stop-color="#cb2239" offset=".63"/><stop stop-color="#ce2436" offset=".751"/><stop stop-color="#e97826" offset="1"/></linearGradient><linearGradient id="F" x1="456.689" x2="2137.245" y1="544.593" y2="221.743" xlink:href="#H"><stop stop-color="#9e2064" offset=".323"/><stop stop-color="#c92037" offset=".63"/><stop stop-color="#cf2739" offset=".751"/><stop stop-color="#e97826" offset="1"/></linearGradient><linearGradient id="G" x1="665.771" x2="1667.215" y1="484.8" y2="292.414" xlink:href="#H"><stop stop-color="#282662" offset="0"/><stop stop-color="#662e8d" offset=".095"/><stop stop-color="#a22367" offset=".788"/><stop stop-color="#cd2032" offset=".949"/></linearGradient><linearGradient id="H" gradientUnits="userSpaceOnUse"/></defs><g transform="matrix(.043135 0 0 .043135 6.42918 13.49169)"><path d="M1265.602 596.3c-40.83-2.07-80.943-6.322-120.138-13.243-1.383-.265-2.747-.443-4.13-.708 25.95 26.957 43.05 85.952 42.805 85.766-44.117-50.255-90.08-91.53-141.05-108.8-9.014 18.697-9.964 47.17-6.323 81.275-21.7-40.056-23.812-66.568-23.64-76.633-9.4 29.416-37.76 55.382-69.305 80.797 30.244-41.155 46.973-76.35 47.65-104.394-129.747 12.1-271.9 21.194-422.194 28.256 7.074-11.976 17.704-17.504 30.56-18.868 27.182-1.157 205.664-9.323 443.42-32.643l20.4-2.034 5.702-.595 76.483-8.058 17.817-1.98c.127-.01.253-.02.34-.038l110.338 92.36-8.75-.462z" fill="url(#A)"/><path d="M2384.757 280.118c-27.135 25.394-60.432 42.863-92.825 60.553-19.196 10.14-39.505 20.082-59.144 29.33l-76.97-69.488c53.668-20.463 107.246-43.87 157.42-71.9-50 26.755-104.347 46.613-157.745 65.342 18.352-59.18 42.107-119.65 68.43-177.774 47.872 3.592 98.862 15.654 136.285 47.336 20.736 20.132 38.706 46.222 40.807 75.823.846 15.22-5.427 30.17-16.25 40.785z" fill="url(#B)"/><path d="M1892.154 381.227c30.328-7.574 60.123-15.5 89.254-23.738 30.243-8.55 59.755-17.488 88.372-26.82l5.1-1.62c28.177-9.234 55.46-18.86 81.758-28.856l76.997 69.426-15.906 7.392c-20.324 9.305-42.07 18.83-64.995 28.434-25.842 10.816-53.282 21.728-81.92 32.627-26.474 10.036-54.06 20.04-82.46 29.84l-77.145 25.502c-37.87-28.097-70.382-61.132-105.574-91.698l86.53-20.487z" fill="url(#C)"/><path d="M1256.995 493.486l92.208-11.93 89.988-12.822 90.963-14.234 92.77-15.976 91.222-17.4 32.627-6.664 55.858-12.046 2.993-.697 105.565 91.702-5.665 1.765-82.18 24.44c-28.137 7.918-56.673 15.447-85.48 22.575l-73.28 17.068-14.837 3.144c-30.834 6.453-60.4 11.815-88.668 16.303-32.02 5.076-62.383 8.996-90.96 11.914-18.802 1.94-36.872 3.442-54.162 4.643l-43.993 1.94c-34.373 1.087-68.345.908-101.846-.645l-106.12-92.167 72.47-8.405 20.518-2.502z" fill="url(#D)"/><path d="M1797.77 389.627l-12.205 2.564-37.57 7.7-42.394 8.267-22 4.156-68.732 12.33-90.293 14.86-92.122 13.734-92.988 12.565-87.587 10.693-97.957 10.734 17.88-48.162-.24 3.1c22.268-57.374 86.34-124.946 153.772-162.088 31.075-17.123 66.12-30.927 105.828-41.858 29.56-8.14 61.7-14.68 96.75-19.78 30.627-4.475 63.434-7.903 98.676-10.305-10.592 11.795-19.774 26.057-27.762 42.32l-4.106 8.745c-1.33 2.98-2.63 6-3.863 9.096.01-.038.06-.068.068-.107 35.13-49.87 84.926-74.38 141.527-87.07-13.555 12.044-32.473 32.392-45.825 59.112-1.828 3.642-3.48 7.4-5.065 11.238l-1.174 2.854c.01-.038.05-.03.06-.068 0 0 .01-.038.05-.03 12.852-17.15 25.882-31.066 40-42.427 3.015-2.432 6.088-4.766 9.25-6.954 4.78-3.355 9.697-6.427 14.768-9.294a164.74 164.74 0 0 1 9.93-5.208c7.93-3.847 16.276-7.216 25.168-10.116a257.43 257.43 0 0 1 8.268-2.56l11.776-2.67c17.45-3.813 32.832-6.488 46.224-8.34 6.696-.925 12.847-1.656 18.53-2.174l6.57-.584c6.335-.478 11.92-.77 16.792-.87 7.3-.154 13 .078 17.083.445-1.95 1.498-3.97 3.268-6.02 5.32-14.172 14.167-30.47 40.8-40.524 62.8l-2.93 7.6-52.733 150.263c-.614.135-4.22-.001-4.882.164z" fill="url(#E)"/><path d="M2156.377 293.622c-24.718 8.5-52.642 17.538-84.045 26.913l-4.972 1.483a2896.31 2896.31 0 0 1-89.275 24.976l-89.866 22.383-88.556 19.812 55.342-150.202c32.25-40.072 57.113-56.7 89.34-69.514a795.28 795.28 0 0 1 27.486-9.781c28.957-9.7 60.37-18.452 91.216-25.607 29.783-6.883 58.93-12.227 84.808-15.452 16.463-2.03 31.6-3.196 44.637-3.352 11.5-.128 22.316.23 32.528.976-25.573 57.993-54.14 129.693-68.665 177.374z" fill="url(#F)"/><path d="M1140.252 488.675l-75.4 7.378-10.692.997-67.027 5.715c-3.682-20.1-21.7-40.056-42.835-59.96 25.083 7.844 46.35 24.424 59.828 49.072 18.372-89.968 60.142-160.956 135.15-184.22a169.27 169.27 0 0 1 20.833-5.074c-27.364 12.256-42.685 32.142-50.887 74.783-.06.068-.127.175-.186.244.06-.068.127-.175.186-.244 43.275-54.905 77.664-79.273 128.637-95.617 12.08-3.88 25.086-7.32 39.377-10.6-69.185 40.14-100.8 98.877-105.4 167.943l-.268 3.057-17.6 45.104-13.704 1.44z" fill="url(#G)"/><g fill="#d32128"><path d="M1068.754 108.664c15.362-10.798 35.523-13.852 53.62-9.318 15.347 3.7 28.84 14.442 35.598 28.74l-11.113 6.734c-3.3-6.924-8.383-13.057-14.812-17.287-8.683-5.814-19.38-8.153-29.734-7.624-10.683.46-21.2 4.544-29.25 11.593-11.908 10.323-18.57 25.785-19.9 41.312-1.555 17.547 4.42 35.723 16.492 48.6 5.814 6.214 13.087 11.138 21.2 13.827 17.472 5.904 38.112.705 50.76-12.703 3.08-3.274 5.63-7.03 7.63-11.048l11.523 5.964c-3.5 7.958-9.348 14.757-16.357 19.846-16.442 11.908-38.657 16.352-58.1 9.873-14.372-4.78-26.5-15.107-34.653-27.74-10.193-15.712-14.797-35.203-11.638-53.755 3.034-18.566 13.187-36.198 28.734-47.026zM817.603 239l.005-140.883 58.764.015c7.968.05 15.847 2.73 22.3 7.4 10.898 7.843 17.986 20.706 18.916 34.088.595 9.843-1.895 19.866-7.094 28.254-4.5 7.28-11.178 13.302-19.17 16.462-4.73 1.905-9.843 2.764-14.932 2.684-15.027-.005-30.054-.005-45.08 0V239h-13.697M831.3 110.42v64.28l45.05.005c5.6.04 11.218-1.865 15.597-5.4 5.6-4.48 9.238-11.103 10.823-18.04 2.025-8.668 1.045-18.15-3.454-25.9-4.764-8.563-13.952-14.912-23.93-14.937l-44.086-.01z"/><path d="M968.943 98.126h11.318l58.97 140.868h-14.882l-18.267-44.036c-21.12-.005-42.237-.01-63.358 0l-18.036 44.02-14.707.015 58.963-140.868m-23.215 85.928h57.164l-28.185-69.66-28.98 69.66z" id="I"/><path d="M1180.117 98.126h13.697l.01 62.683 83.584-.005V98.126h13.902V239c-4.64.005-9.273.015-13.912-.005l.01-65.872-83.584-.005L1193.8 239c-4.56-.015-9.123.01-13.677-.015V98.126zm143.073 0l92.907-.01v12.308c-26.405-.01-52.8 0-79.215-.005l-.01 50.785 69.107.005v11.693l-69.1.005-.01 53.785 81.03.01.01 12.283h-94.722l.01-140.858z"/></g><use xlink:href="#I" x="-236.879"/><path d="M2084.35 578.88h13.27v2.836c-1.65.002-3.296-.001-4.944.002v13.868h-3.377V581.72c-1.65-.004-3.3 0-4.95-.002v-2.836zm15.394 16.708V578.88h5.05l3.03 11.392 2.997-11.4 5.055-.002v16.7c-1.042-.001-2.083 0-3.125 0v-13.14l-3.317 13.14c-1.08.001-2.162-.001-3.242.001l-3.302-13.132v13.13c-1.047-.001-2.094.001-3.14-.001z" class="D"/><path d="M1787.665 635.918h119.974l14.857-67.6 103.83.22c16.72 0 31.523-5.193 44.673-14.08 15.872-10.725 27.722-27.16 32.174-47.436l22.673-102.875c4.318-19.576 9.936-41.68-4.1-59.36-12.9-16.268-30.045-17.533-48.855-17.533-135.455.15-270.918-.003-406.38-.003-13.674 0-25.128 4.422-37.08 10.585-11.212-7.928-21.33-10.585-35.078-10.585H1408.42l15.228-68.53h-120.16l-14.857 66.857h-105.678c-14.596 0-28.616 4.58-40.857 12.443-11.867-7.38-21.017-10.586-35.074-10.586H758.2l15.972-69.46-119.974-.185-69.167 309.365 119.86.034 36.055-158.326h40.56c4.827 0 3.877 2.75 3.068 6.383L750.48 567.192l794.633.001c13.482 0 24.033-2.788 36.17-8.977 11.96 8 22.53 10.646 37.142 10.52l184.044-1.544-14.8 68.73zM1268.657 409.08h-35.37c-6.205 0-7.877 2.83-9.1 8.392L1210.9 477.06c-1.262 5.7 1.626 6.642 6.622 6.642h34.425l16.72-74.62zm202.9 1.44h37.782c7.27 0 6.873 3.813 5.565 9.702l-12.98 58.37c-1.5 6.794-5.742 6.678-11.58 6.678h-38.447c-5.648 0-5.698-3.34-4.694-7.905l12.928-58.357c1.593-7.208 4.43-8.487 11.427-8.487zm248.707 0h37.78c7.27 0 6.873 3.813 5.564 9.702l-12.98 58.37c-1.5 6.794-5.74 6.678-11.58 6.678h-38.446c-5.65 0-5.698-3.34-4.695-7.905l12.93-58.357c1.594-7.208 4.43-8.487 11.427-8.487zm221.792 75.3h35.37c6.205 0 7.878-2.83 9.1-8.392l13.284-59.586c1.262-5.7-1.626-6.642-6.622-6.642h-34.425l-16.72 74.62" class="C"/><path d="M1443.9 344.657h150.697c23.518 0 38.494 19.244 33.285 42.757l-26.85 121.2c-5.2 23.514-28.713 42.757-52.227 42.757h-150.693c-23.514 0-38.494-19.24-33.285-42.757l26.848-121.2c5.2-23.518 28.7-42.757 52.227-42.757zm27.316 48.657h74.506c12.45 0 20.373 10.183 17.617 22.623l-14.2 64.15c-2.756 12.44-15.195 22.622-27.64 22.622H1447c-12.445 0-20.372-10.18-17.616-22.622l14.2-64.15c2.757-12.445 15.2-22.623 27.64-22.623" id="J" class="C D"/><path d="M1346.132 273.834l-15.405 69.273-122.844-.1c-23.507-.013-46.972 19.227-52.178 42.74L1128.77 507c-5.2 23.5 9.777 42.74 33.296 42.74h180.888l61.123-275.903h-57.944zm-110.918 117.873h84.778l-24.35 109.328h-84.68c-12.447 0-20.347-10.128-17.592-22.56l14.213-64.207c2.755-12.434 15.2-22.56 27.63-22.56z" id="K" class="C D"/><g class="C D"><path d="M696.527 273.834l-23.456 105.75h.298l-.994 4.174-.994 3.677-19.48 87.76h.2l-16.598 74.543h57.944l16.598-74.543h.1l13.12-59.236c.022-.094-.02-.204 0-.298l5.07-22.362h84.58c12.442 0 20.445 10.216 17.7 22.66l-29.618 133.78h58.043l16.4-73.748h.1l19.58-88.556c5.208-23.516-9.778-42.837-33.296-42.837H738.868l15.703-70.765h-58.043zM1107 549.72H913.696c-23.515 0-38.495-19.246-33.286-42.757l7.8-35.166h.036l1.498-6.762c5.205-23.5 28.72-42.765 52.227-42.757l135.264.06 1.996-8.98c2.123-11.72-5.265-21.218-16.882-21.693H905.76l10.78-48.637 194.317.055c23.03.454 37.594 19.507 32.45 42.74l-3.657 16.506h.032l-4.44 20.03h.043l-28.268 127.355zm-150.268-48.66h102.987l6.696-30.128h-101.22c-.487-.05-.988-.078-1.5-.078-8.292 0-16.57 6.782-18.398 15.073-1.8 8.195 3.332 14.913 11.454 15.072-.004.02-.008.042-.016.06"/><use xlink:href="#J" x="248.392"/><use xlink:href="#K" transform="rotate(180 1620.493 447.159)"/></g><path d="M149.9 423.85l-2.87 7.808-5.495-2.015 2.87-7.808zm-2.87 7.808l-4.268 11.613-5.495-2.015 4.267-11.613zm-4.268 11.613l-.687 1.064-2.06-2.07zm-.687 1.064l-9.362 9.27-4.12-4.143 9.362-9.27zm-9.362 9.27l-8.305 8.224-4.12-4.143 8.305-8.224zm-8.305 8.224l-2.076 2.033-4.052-4.235 2.008-1.94zm-2.076 2.033c-3.748 3.608-4.5 4.324-3.4 10.77l-5.77.962c-1.6-9.5-.48-10.57 5.128-15.97zm-3.4 10.77c.87 5.2 2.596 10.487 5.306 15.643L119.04 493c-3-5.7-4.903-11.585-5.878-17.405zm5.306 15.643c2.515 4.8 5.864 9.426 10.137 13.7l-4.143 4.12c-4.742-4.756-8.436-9.863-11.2-15.107zm10.137 13.7c5.468 5.48 14.393 12.273 23.682 15.803l-2.06 5.473c-10.152-3.857-19.846-11.223-25.765-17.155zm23.682 15.803c6.462 2.456 13.047 3.3 18.55.865l2.358 5.357c-7.1 3.142-15.195 2.204-22.968-.75zm18.55.865l5.654-2.503-1.647 5.96-2.827-.78zm4.006 3.458c-.735 2.658-1.595 5.384-2.583 8.118l-5.517-1.993a104.92 104.92 0 0 0 2.445-7.683zm-2.583 8.118a103.64 103.64 0 0 1-3.142 7.71l-5.335-2.427c1.1-2.4 2.076-4.833 2.96-7.276zm-3.142 7.7c-4.95 10.854.238 16.57 8.28 20.238l-2.427 5.335c-11.003-5.018-18.072-12.9-11.187-28zm8.28 20.238c5.14 2.343 11.357 3.962 17.136 5.468l-1.465 5.655c-6.072-1.58-12.605-3.284-18.1-5.788zm17.136 5.468l4.07 1.07-1.488 5.655-4.047-1.07zm4.07 1.07c6.97 1.884 19.017 5.34 29.846 6.026l-.367 5.86c-11.348-.72-23.773-4.286-30.967-6.23zm29.846 6.026c9.787.62 18.513-1.03 20.533-8.523l5.655 1.488c-2.997 11.122-14.168 13.68-26.555 12.895zm20.533-8.523c1.07-3.97 1.688-7.036 1.946-10.077l5.86.48c-.28 3.303-.966 6.68-2.15 11.085zm1.946-10.077c.26-3.055.153-6.02-.223-9.783l5.815-.55c.424 4.235.547 7.523.268 10.813zm-.223-9.783l.23-1.465 2.68 1.2zm.23-1.465c3.942-8.8 5.567-11.177 8.436-15.38l4.83 3.297c-2.652 3.885-4.155 6.084-7.9 14.462zm8.436-15.38l1.28-1.9 4.853 3.273-1.304 1.915zm1.28-1.9c2.237-3.32 3.266-5.536 3.595-7.827l5.792.802c-.47 3.28-1.768 6.192-4.535 10.298zm3.595-7.827c.343-2.407-.002-5.28-.524-9.673l5.815-.665c.572 4.822.955 7.975.502 11.14zm-.524-9.673l-.344-2.77 5.792-.732.366 2.836zm-.344-2.77l-.413-2.888 5.792-.848.413 3.004zm-.413-2.888l-.57-3.908 3.902.588-.435 2.896zm3.33-3.32a171.89 171.89 0 0 0 24.514 1.916l-.023 5.86c-8.365-.054-16.78-.693-25.36-1.983zm24.514 1.916c8.116.052 16.188-.46 24.33-1.47l.687 5.815c-8.4 1.04-16.698 1.568-25.04 1.515zm24.33-1.47l1.8 5.448-1.465-2.54zm1.8 5.448c-4.73 2.755-9.45 5.183-15.474 8.277l-2.678-5.22c5.945-3.054 10.603-5.45 15.222-8.14zm-15.474 8.277l-1.344.7-2.678-5.22 1.345-.7zm-1.344.7c-6.2 3.182-6.247 9.864-4.06 16.862l-5.585 1.74c-2.996-9.588-2.596-18.905 6.968-23.822zm-4.06 16.862c2.48 7.943 7.748 16.3 11.054 21.396l-4.9 3.182c-3.483-5.368-9.04-14.193-11.74-22.838zm11.054 21.396c6.92 10.666 13.448 19.647 20.943 24.24l-3.045 5c-8.475-5.194-15.47-14.753-22.798-26.048zm20.943 24.24c7.082 4.34 15.362 4.743 26.33-1.2l2.77 5.175c-13.106 7.093-23.257 6.455-32.145 1.007zm26.33-1.2c5.183-2.805 6.923-5.85 9.265-9.956l5.105 2.885c-2.83 4.96-4.932 8.637-11.6 12.246zm9.265-9.956c.932-1.633 1.956-3.423 3.453-5.66l4.853 3.25c-1.2 1.8-2.246 3.623-3.2 5.294zm3.453-5.66l1.02-.95 1.408 2.575zm1.02-.95c1.7-.94 9.02-6.976 16.126-12.85l3.732 4.5c-7.35 6.074-14.9 12.32-17.044 13.5zm16.126-12.85l9.142-7.518 3.685 4.577-9.094 7.45zm9.142-7.518l2.245-1.813 1.853 2.225-2.255 1.877zm4.098.4c1.168 1.402 3.017 2.268 5.528 2.87l-1.35 5.7c-3.746-.896-6.62-2.335-8.7-4.815zm5.528 2.87c2.884.7 6.673 1.028 11.263 1.358l-.413 5.86c-4.8-.347-8.827-.7-12.2-1.518zm11.263 1.358c3.6.26 15.098.255 22.524.252v5.86c-7.587.004-19.334.01-22.937-.252zm22.524.252l5.482.006-.024 5.86-5.46-.006v-5.86zm5.482.006c6.92.043 12.405-.265 16.027-2.317l2.885 5.105c-4.78 2.708-11.103 3.12-18.934 3.072l.024-5.86zm16.027-2.317c3.3-1.875 5.3-5.57 5.794-12.477l5.86.413c-.657 9.168-3.675 14.284-8.77 17.17zm5.794-12.477c.253-3.55.313-5.665-.086-7.48l5.723-1.26c.565 2.567.514 5.078.223 9.152zm-.086-7.48c-.4-1.817-1.34-3.7-3.08-6.795l5.128-2.862c2.008 3.568 3.1 5.832 3.675 8.397zm-3.08-6.795l-.366-1.362 2.93-.07zm-.366-1.362l-.36-12.597 5.86-.138.338 12.617zm-.36-12.597l-.337-12.616 5.86-.138.337 12.616zm-.337-12.616c-.122-4.515-.6-8.138-1.502-11.66l5.677-1.42c1.004 3.96 1.55 7.985 1.685 12.943zm-1.502-11.66c-.9-3.55-2.24-7.1-4.052-11.4l5.402-2.267c1.905 4.536 3.33 8.32 4.327 12.26zm-4.052-11.4c-1.283-3.05-2.38-6.012-3.458-8.916l5.495-2.015c1.026 2.768 2.072 5.592 3.365 8.664zm2.037-10.942l-2.748 1.007zm-5.495 2.037c-1.674-4.517-3.3-8.898-5.684-13.607l5.243-2.632c2.503 4.94 4.195 9.5 5.937 14.2zm-5.684-13.607l-.264-1.82 2.885.504zm-.264-1.82a94.08 94.08 0 0 0 .714-4.525l5.792.733a115.02 115.02 0 0 1-.737 4.799zm.714-4.525a109.06 109.06 0 0 0 .504-4.716l5.86.48a117.11 117.11 0 0 1-.571 4.969zm.504-4.716l.545-6.127 4.4 4.25-2.026 2.117zm4.956-1.877l8.6 8.295-4.053 4.235-8.6-8.295zm8.6 8.295l6.437 6.202-4.052 4.235-6.437-6.203zm6.437 6.202c4.646 4.476 8.9 8.543 13.6 11.322l-2.975 5.06c-5.274-3.112-9.765-7.413-14.678-12.147zm13.6 11.322c4.53 2.673 9.64 4.223 16.277 3.9l.275 5.86c-7.94.375-14.074-1.492-19.527-4.7zm16.277 3.9c7.163-.337 14.9-3.4 21.33-8.155l3.48 4.715c-7.325 5.404-16.22 8.908-24.536 9.3zm21.33-8.155c6.137-4.527 11.03-10.533 13.018-17.07l5.6 1.695c-2.375 7.805-8.062 14.862-15.148 20.1zm13.018-17.07l2.056-6.77 5.6 1.695-2.055 6.77zm2.056-6.77l2.392-7.88 5.6 1.695-2.392 7.88zm2.392-7.88l.764-2.513 2.58.488-.537 2.873zm3.342-2.025c11.865 2.243 24.787 3.026 37.204 1.724l.572 5.815c-12.983 1.36-26.475.544-38.852-1.794zm37.204 1.724c10.9-1.144 21.432-3.914 30.477-8.74l2.748 5.175c-9.717 5.185-20.986 8.156-32.652 9.38zm30.477-8.74c13.248-7.07 23.198-17.514 30.362-29.924l5.082 2.908c-7.698 13.334-18.4 24.566-32.697 32.2zm30.362-29.924v-.012l2.54 1.465-2.54-1.454zm0-.012c8.186-14.18 12.77-30.9 14.517-48.144l5.815.55c-1.83 18.067-6.647 35.623-15.25 50.525zm14.517-48.144c1.422-14.045.634-33.2-2.306-51.726l5.77-.915c3.015 19 3.818 38.7 2.35 53.2zm-2.306-51.726c-2.593-16.34-6.858-32.144-12.744-43.4l5.22-2.7c6.177 11.822 10.63 28.262 13.317 45.198zm-12.744-43.4c-.46-.883-1.227-1.847-2.2-2.818l4.098-4.2c1.413 1.397 2.558 2.862 3.3 4.306zm-2.2-2.818c-2.512-2.478-6.244-4.826-10.1-6.155l1.9-5.54c4.695 1.615 9.24 4.477 12.308 7.505zm-10.1-6.155c-3.586-1.234-7.2-1.574-9.78-.225l-2.702-5.197c4.164-2.176 9.4-1.828 14.383-.117zm-9.78-.225a5.96 5.96 0 0 0-1.494 1.104l-4.2-4.098c.897-.9 1.9-1.64 2.982-2.204zm-1.494 1.104c-2.396 2.43-4.5 5.5-6.606 8.578l-4.83-3.297c2.276-3.327 4.55-6.644 7.246-9.378zm-6.606 8.578c-2.772 4.05-5.557 8.116-9.162 11.196l-3.8-4.465c3.048-2.604 5.596-6.326 8.132-10.03zm-9.162 11.196c-4.413 3.77-9.53 5.823-14.28 7.728l-2.175-5.447c4.32-1.732 8.972-3.6 12.655-6.746zm-14.28 7.728l-2.157.87-2.22-5.425 2.202-.893zm-2.157.87l-2.798 1.153-1.06-2.858 2.748-1.007zm-3.857-1.705c-1.894-5.116-4.22-9.686-6.9-13.982l4.967-3.112c2.88 4.596 5.38 9.52 7.438 15.08zm-6.9-13.982c-2.72-4.342-5.802-8.386-9.188-12.42l4.488-3.755c3.572 4.257 6.818 8.514 9.668 13.063zm-9.188-12.42a47.9 47.9 0 0 0-7.894-7.534l3.547-4.647a53.64 53.64 0 0 1 8.834 8.427zm-7.894-7.534c-2.735-2.084-5.843-4.037-9.47-6.306l3.112-4.967c3.672 2.3 6.824 4.28 9.905 6.626zM548.34 215c-10.217-6.397-18.78-13.9-27.516-21.574l3.845-4.417c8.552 7.503 16.935 14.856 26.784 21.024zm-27.516-21.574l-11.537-9.9 3.733-4.533c3.84 3.166 7.763 6.607 11.65 10.016zm-11.537-9.9c-19.35-15.956-37.273-23.687-56.3-24.886l.367-5.86c20.316 1.28 39.312 9.423 59.677 26.213zm-56.3-24.886c-19.178-1.207-39.67 4.164-64.002 14.405l-2.268-5.402c25.153-10.588 46.462-16.132 66.638-14.863zm-64.002 14.405c-11.467 4.826-19.952 10.503-27.316 17.312l-3.96-4.305c7.85-7.26 16.868-13.3 29.008-18.4zm-27.316 17.312c-7.42 6.86-13.797 14.966-20.95 24.534l-4.693-3.502c7.326-9.8 13.887-18.128 21.682-25.337zM340.72 214.9l-.827 1.108-1.37.07-.15-2.93zm-2.198 1.18c-4.075.212-7.487.704-10.88 2.06l-2.175-5.448c4.1-1.643 8.08-2.23 12.758-2.474zm-10.88 2.06c-3.445 1.377-6.996 3.68-11.346 7.52l-3.87-4.395c4.897-4.322 8.983-6.95 13.04-8.574zm-11.346 7.52a291.78 291.78 0 0 0-9.82 9.084l-4.075-4.212a296.68 296.68 0 0 1 10.025-9.267zm-9.82 9.084l-.01.012-2.026-2.117 2.037 2.106zm-.01.012a345.76 345.76 0 0 0-9.324 9.382l-4.235-4.053c3.1-3.236 6.26-6.424 9.507-9.564zm-9.324 9.382l-1.66.86-.458-2.885zm-1.66.86c-22.905 3.65-41.465 7.656-58.043 14.077l-2.105-5.472c16.95-6.564 35.884-10.654 59.236-14.375zm-58.043 14.077c-16.435 6.366-30.94 15.142-45.858 28.367l-3.87-4.395c15.473-13.718 30.535-22.826 47.623-29.445zm-45.858 28.367c-6.045 5.36-11.258 11-15.805 16.953l-4.647-3.547c4.8-6.275 10.26-12.197 16.583-17.8zm-15.805 16.953c-4.55 5.957-8.458 12.265-11.9 18.952l-5.22-2.655c3.578-6.97 7.674-13.57 12.464-19.844zm-11.9 18.952l-.435.63-2.175-1.958zm-.435.63c-3.332 3.682-6.658 7.414-10.225 10.625l-3.915-4.372c3.444-3.1 6.613-6.657 9.8-10.167zm-10.225 10.625c-3.74 3.366-7.792 6.228-12.477 8.033l-2.105-5.473c3.9-1.506 7.395-3.987 10.668-6.933zm-12.477 8.033h-.01l-1.04-2.736zm-.01 0c-3.76 1.445-5.598 2.17-7.68 1.287l2.267-5.403c.095.04 1.04-.477 3.33-1.357zm-7.68 1.287l-.012-.012 1.145-2.7-1.133 2.7zm-.012-.012c-2.196-.932-2.8-2.736-4.168-6.364l5.495-2.037c.772 2.062.756 2.934.963 3.02zm-4.168-6.364l-.764-2.04 1.76-1.324 1.75 2.346zm.996-3.365c5.384-4.046 5.895-12.103 6.385-19.863l5.86.367c-.572 9.074-1.17 18.5-8.743 24.188zm6.385-19.863l.184-2.795 5.86.413-.184 2.75zm.184-2.795l.208-2.86 2.86.135-.138 2.93zm3.068-2.724c4.833.23 7.036 3.64 9.4 7.318l-4.923 3.16c-1.518-2.35-2.926-4.53-4.764-4.618zm9.4 7.318c.663 1.027 1.346 2.084 2.068 2.996l-4.578 3.64c-.9-1.15-1.672-2.328-2.413-3.475zm2.64 5.445l-1.34 5.996-3.8-4.806 2.3-1.82zm-5.723-1.26c1-4.425 1.748-10.228.676-14.978l5.7-1.283c1.3 5.802.47 12.494-.654 17.52zm.676-14.978c-.68-3.02-2.14-5.617-4.85-7.02l2.678-5.22c4.483 2.323 6.834 6.348 7.873 10.958zm-4.85-7.02l-2.317-1.2.908-2.428 2.748 1.02zm-1.4-3.628l1.7-4.416 5.448 2.13-1.663 4.323zm1.7-4.416l2.684-7.12 5.54 1.923c-.834 2.372-1.82 4.883-2.776 7.327zm4.96-9.044l4.915-.853-1.653 4.7-2.77-.96zm.985 5.77c-5.674.985-18.17 7.996-27.24 17.4l-4.235-4.052c9.896-10.27 23.95-17.994 30.5-19.13zm-27.24 17.4c-3.287 3.412-6.074 7.098-7.834 10.853l-5.3-2.45c2.074-4.427 5.235-8.64 8.9-12.456zm-7.834 10.853c-1.68 3.582-2.446 7.247-1.828 10.806l-5.77.985c-.837-4.823.13-9.638 2.288-14.24zm-1.828 10.806c.56 3.233 2.297 6.483 5.567 9.634l-4.053 4.235c-4.24-4.085-6.515-8.443-7.284-12.884zm5.567 9.634l.813 1.42-2.84.7zm.813 1.42c.744 3.027 1.4 5.586 2.136 7.9l-5.585 1.74c-.756-2.4-1.453-5.082-2.23-8.24zm2.136 7.9c.694 2.212 1.45 4.2 2.402 6.178l-5.287 2.517c-1.06-2.206-1.9-4.447-2.7-6.955zm2.402 6.178c2.107 4.383 5.442 7.052 9.285 8.286l-1.785 5.585c-5.312-1.706-9.907-5.363-12.787-11.354zm9.285 8.286c4.483 1.44 9.7.998 14.572-.902l2.13 5.448c-6.092 2.375-12.702 2.896-18.488 1.04zm14.572-.902l5.088-1.985-1.162 5.326-2.86-.618zm3.926 3.34c-1.38 6.332-2.213 12.97-2.493 20.464l-5.86-.205c.292-7.826 1.17-14.8 2.63-21.494zm-2.493 20.464c-.278 7.497.006 15.9.854 25.8l-5.86.48c-.86-10.02-1.145-18.653-.854-26.475zm.854 25.8a130.81 130.81 0 0 0 .773 6.951l-5.792.778a135.38 135.38 0 0 1-.84-7.248zm.773 6.95a145.81 145.81 0 0 0 1.195 7.153l-5.745 1.1a151.64 151.64 0 0 1-1.242-7.475zm1.195 7.153l-.125 1.557-2.747-1.007"/><g class="C"><path stroke-miterlimit="10" d="M296.623 246.78l-38.578 6.27-35.203 15.43-29.9 18.808-28.45 34.72-16.074 17.023-15.542 5.728-4.1-10.047 7.187-10.375 1.615-14.63 4.814.194 5.26 4.798-1.42-14.904-5.83-3.912.177-5.68-13.813 7.814-12.508 14.757-2.608 13.2 5.36 10.563 5 17.943 10.146 4.804 10.673-.524 10.12-5.88-6.75 34.238 6.75 38.096-7.43 17.6-24.34 26.225 4.327 15.668 11.53 18.156 21.74 15.3 11.532 1.578 12.82.435-8 32.838 29.416 12.056 36.65 4.822 12.537-8.197.965-22.182 13.985-23.147.964-18.325 33.756 2.412 31.344-2.894-31.344 18.807L308.678 539l19.77 30.862 19.3 8.198 15.43-6.27 6.27-12.538 32.3-24.593 6.27 5.305 50.633 1.928 10.127-8.197.964-14.467-3.375-6.268-2.412-39.06-16.878-33.756 2.893-14.95 10.128 5.305 28.45 26.523 13.984.964 15.43-6.27 15.432-11.572 7.715-25.077 45.33 2.893 27.487-10.6 22.182-20.735 15.913-29.9 3.86-35.202-3.376-40.988-8.68-36.65-8.68-11.574-12.055-3.86-21.22 23.147-19.3 6.75-16.878-27.97-16.878-15.43-9.163-5.787-36.65-30.38-29.416-15.913-29.416-2.412-34.237 5.787-29.9 11.1-20.736 16.878-16.4 19.8-16.878 4.822z" fill="#feeb50" stroke="#1f1917" stroke-width=".859"/><g fill="#fdf7ba"><path d="M184.735 333.844c-33.046 38.542-25.705 85.287-16.547 131.086l-14.663-37.045-5.403-33.96 1.544-34.73 13.9-33.187 20.84-30.872 32.415-27.012 35.503-14.664L294 248.056l-38.6 43.994c-30.985 10.05-49.257 16.818-70.665 41.795"/><path d="M340.286 216.406c-22.974 22.413-35.522 39.317-50.14 65.56-10.458 18.774-22.188 36.854-33.182 55.363-5.56 9.37-6.087 17.226-7.75 28.03l-16.208-19.294 7.72-23.154 26.24-47.078 55.57-54.8 17.75-4.63m113.462-55.575c-18.4 6.9-48.955 9.17-51.078 30.3-1.5 14.997 1.13 22.533 10.17 38.4-22.328-23.104-27.85-19.53-71.003-12.35l18.523-26.242 32.416-20.066 41.676-9.262 19.294-.77"/></g><g fill="#edd749"><path d="M504.516 446.487c6.126 3.78 5.994 6.52 4.97 9.112l14.496-5.798 9.4-12.6 6.97-17.967-8.907-6.698-38.93 4.97-2.9 7.87.83 11.182 3.727 6.626 5.798 2.9 4.556.414m-3.618-66.578c-19.514 5.633-19.362 7.185-25.125 26.545 7.608-12.206 13.24-18.365 25.125-26.545M630.66 235.05c-3.47 1.603-6.846 2.374-9.014 5.548-4.67 6.83-8.67 12.576-16.4 17.372-3.888 2.416-7.9 3.98-12.034 5.265-3.42 1.064-5.474.114-8.385 2.206l5.18.907h11.424l14.082-8.698 8.283-8.698 6.853-13.902m-310.84 43.295c-7.678 21.007-14.385 39.016-26.016 58.035 14.904-16.056 23.937-29.704 32.473-47.858 3.315-7.05 3.942-15.326 13.177-12.25.415 7.04 1.904 14.08 2.318 21.122 5-35.77 19.06-50.728 51.77-64.6l-27.75 3.313-26.093 5.798-12.84 18.637-7.04 17.808m63.374-.85c7.053 33.2 17.2 65.064 21.62 98.788 2.866 21.915 3.18 32.444-7.848 51.352-12.05-.78-19.532.58-31.188 4.4-46.403 15.212-73.015 37.577-104.283-7.487l29.943 14.112 21.346-4.196 37.7-21.95 29.405-5.798 9.526-39.76-7.04-52.6-.83-24.85 1.657-12m79.9 205.434c-3.898 26.973 8.975 41.473 3.646 48.923-1.5 2.1-3.555 5.8-5.838 6.797-8.157 3.603-19.37-.674-20.172 1.436h-26.92l-10.768-4.556 16.567-19.465 16.152-35.204 10.353-35.618h5.384l11.597 37.7"/><path d="M417.85 404.53c2.187 12.247 5.984 15.157 11.745 27.012-3.835 19.34-9.995 42.34-17.408 59.407-3.126 7.197-5.65 11.164-11.16 16.726-9.305 9.397-18.713 17.582-29.266 25.727-7.595 5.856-12.897 2.92-22.27 1.6-3.986 7.226-5.087 11.24-12.423 14.908-11.283 5.64-21.38-6.516-30.236-13.666L326 566.2l13.254 12.426 11.182 1.657 14.9-9.112 7.87-14.9 16.566-12.426 20.295-17.394 12.84-18.224 11.596-21.537 14.9-44.73 1.242-16.98-18.637-8.284c-4.556-4.28-9.628-7.868-14.185-12.147M269.28 490.802c20.903 0 42.98-1.16 62.122-9.94 5.418-8.128 10.766-14.766 17.395-21.95-6.034 11.396-7.926 17.837-9.526 30.648l-6.213 9.1-47.214 1.243-15.324-1.657-1.656-1.657.415-5.8m-2.9-14.48l-1.623-14.704c-3.57 21.496-2.713 35.902-12.606 55.157-7.4 8.563-16.5 16.355-26.9 20.525.88 5.28 1.143 8.578.632 12.45-1.836 13.923-29.7 7.773-41.147 7.218l55.145 14.198 12.426-4.97 4.142-24.02 11.596-21.536 2.07-13.254-3.728-31.063M235.32 354.954c-.578 10.452-1.253 14.8 3.356 24.042 5.86 11.734 13.057 22.757 19.424 34.354l2.07-23.193-24.85-35.203m-85.02 78.962l-5.38 11.45c4.935 16.62 9.32 27.15 18.717 41.672-1.636 5.884-2.86 8.458-6.626 13.253-8.27-1.273-15.612-1.64-24-1.615l27.75 21.537 13.667-2.485 13.668-13.667-19.465-30.234-18.34-39.907m480.4-204.395c5.633 25.346 12.898 48.732 12.224 74.7-.827 31.846-7.034 72.073-36.54 91.28-33.044 21.506-71.834 11.334-108.087 2.12l44.315 18.222 41.417 2.07 28.163-8.283 21.95-18.224 16.567-34.8 6.212-40.173-4.97-39.346-9.1-38.93-12.138-8.633M137.6 305.06c-15.002 9.764-20.893 14.05-19.25 32.146l4.485 16.26 6.354 4.3 7.85 2.616 14.204-3.364 7.3-22.614-20.184 9.905h-4.672l-5.233-8.036 6.355-9.345 3.364-17.754 4.298 1.307 5.233 4.112-.748-9.345-3.55-5.98-3.55-3-2.243 8.784m336.55-142.564c13.313 12.362 29.654 23.1 40.304 38.218 4.12 5.85 8.7 8.84-.07 17.1 9.267-2.647 12.7-2.36 20.127-1.46 13.494 1.633 26.14 20.814 26.948 34.56-.16 1.286-3.748 4.203-14.182 7.084-.207.4-5.888-.778-5.747-.393 1.084 2.967 2.533 3.42 4.745 4.8.48 3.3.8 8.388 3.036 11.995 6.566-.115 12.98.6 19.4 1.873 2.163 3.588 1.837 7.176 1.657 10.768l7.455-1.242-2.07-16.98 6.626-11.182-9.526-21.537-18.224-17.395-1.754-.087-20.492-12.577-33.426-27.348-24.816-16.206m22.4 102.02c-.702 1.228-1.763 3.192-3.122 4.55 5.546 5.246 8.28 8.758 10.258 16.177l-18.806 9.338-15.913 15.255c-6.98-3.758-8.722-6.644-12.1-13.8-3.934 1.04-7.662 2.044-10.9.852 2.06.016 3.328-.5 5.387-1.773l10.127-10.52 17.886-13.546 11.706-3.815c1.5-.613 3.997-2.095 5.488-2.7"/><path d="M513.898 283.235c-19.945 10.74-39.047 21.54-49.245 41.934 0-25.888 25.993-37.283 49.245-41.934m-53.232-50.927c-14.8 10.097-25.28 30.475-23.965 50.334-4.824-17.196-3.115-33.445 11.697-45.32l7.496-3.644 4.77-1.367"/></g><path d="M488.972 385.605c3.06-1.666 8.617-3.956 11.678-5.622-3.15.532-8.794 1.7-11.942 2.22-8.4 1.42-9.4 3.442-10.705 11.722l-2.078 12.637c1.65-4.4 3.632-9.535 5.553-13.74 2.033-4.448 3.178-4.867 7.493-7.217zm-156.048-213.26c6.6-9.914 10.415-13.14 20.585-19.42-13.8 3.327-16.443 5.884-20.585 19.42zm-2.175 21.84c11.566-23.25 20.323-31.812 44.538-43.23-27.4 6.713-35.44 11.487-44.538 43.23zM83.072 315.206c2.538-11.642 4.903-16.034 12.082-25.6-11.644 8.135-13.162 11.477-12.082 25.6zm259.242 194.858l-1.055-8.478c-.635-5.12-.6-9.278-.202-14.43l1.176-14.96c-1.453 5.07-4.356 10.138-5.807 15.206-.58 2.03-1.06 3.67-1.337 5.186-21.672 4.428-43.186 4.705-64.865.838-1.383-8.025-3.066-16.388-4.478-22.382-.428 6.714-.152 25.276-.187 35.668-.027 8.053-.366 10.8-4.518 17.66-3.888 6.413-5.534 7.868-10.976 18.703.452 6.836.46 11.357-1.356 17.846-3.02 10.786-33.492 2.43-41.533.228-9.9-2.7-30.365-6.737-25.22-19.934 4.53-11.614 7.4-23.86 9.614-40.113-18.136-26.127-35.004-61.93-38.24-93.656-2.513-24.633-1.005-39.795 4.325-54.863 8.446-23.873 20.26-44.538 39.222-61.18 25.574-22.44 49.484-31.455 86.913-37.152-9 10.076-17.907 20.732-27.614 32.157-9.827 11.568-15.667 23.25-21.905 35.902-8.62 17.474-8.435 24.123 2.992 39.463 9.847 13.22 15.163 19.172 19.462 32.106-3.55 7.32-4.84 13.504-6.036 23.5 12.057 13.178 21.016 22.2 32.722 24.992 11.483 2.73 21.072 2.2 31.344-3.05 22.817-11.666 43.93-26.727 69.668-27.35 11.907-29.274 10.704-53.734 4.987-82.055-3.904-19.343-5.47-37.658-6.684-57.38-4.828 20.308-5.733 38.168-2.152 58.397 4.318 24.38 7.674 51.312-4.337 72.737-23.272 1.782-43.218 15.94-64.193 26.804-8.43 4.368-17.2 4.793-26.542 2.23-8.663-2.38-14.508-8.1-23.84-18.873-.146-10.806 2.292-15.794 7.254-25.58 7.973-15.716 16.774-30.345 26.43-45.8-11.826 14.275-23.03 26.2-32.336 40.55-3.558-10.136-8.644-15.282-17.07-26.695-8.23-11.146-9.093-16.028-2.94-28.927 6.188-12.963 11.436-24.357 21.968-35.73 18.198-19.652 34.87-41.525 54.77-60.878 10.805-10.5 15.192-10.146 29.526-12.318 12.954-1.963 25.604-4.443 38.816-7.512-12.778 1.2-25.13 1.63-37.568 1.938l-.386.008c12.24-15.63 19.34-24.34 39.218-32.976 48.94-21.255 80.036-23.554 118.48 8.762 9.963 8.375 18.665 16.506 28.768 23.732-3.663.313-6.82.97-10.994 2.6 5.08-.968 10.95-.008 16.222.956 1.48.96 3 1.896 4.56 2.816 7.13 4.2 11.178 6.522 16 13.243 5.098 7.102 9.347 14.198 13.093 22.02-2.455-.877-4.512-1.618-6.347-2.163a13.61 13.61 0 0 0-4.376-1.178c-3.085-.297-6.036.462-8.495 1.975l-.297.14c-3.945 1.92-10.056 4.1-14.145 4.774 2.085.72 6.698 1 8.875.128.292-.116.588-.204.893-.277-.982 1.67-1.623 3.568-1.82 5.617a13.64 13.64 0 0 0 1.459 7.589l.012.024c.37.87.883 1.67 1.447 2.248-1.87.687-3.778 1.475-5.744 2.33 9.12-1.4 17.342-1.628 26.244-.455l1.727 8.803-3.305.258-.268.024c-4.2-3.366-8.904-2.8-15.314-1.337-19.494 4.445-14.913 15.385-23.882 31.866 9.312-11.383 8.622-23.292 23.796-26.886 3.536-.837 5.943-1.884 8.337-1.525-4.308 2.167-8.035 5.76-9.512 9.93-4.165 11.762-1.58 21.672-6.154 32.657 5.668-9.82 6-19.405 11.078-29.736 1.82-3.712 8.576-9.653 12.723-9.744l3.413-.073c1 6.538 1.607 13.028 1.22 18.413-.706 9.824-3.26 24.407-4.787 29.986 5.134-6.6 7.472-20.578 9.727-30.417 2.35-10.247 1.756-22.542-.3-33.548-2.82-15.103 12.733-12.647 21.763-19.764 6.638-5.233 11.206-13.588 17.292-19.507 6.037-5.87 15.54 2.755 17.913 8.494 10.297 24.907 14.987 64.094 12.268 89.203-3.052 28.174-16.662 58.934-41.513 72.804-31.678 17.68-69.03 6.878-100.502-3.725-6.717-2.263-11.4-5.56-17.294-9.28 1.608 7.24 2.338 14.902.2 22.132-3.396 11.47-8.88 30.24 6.696 33.702 5.928 1.317 8.615 1.127 16.985-3.192-6.774 1.53-10.2 1.156-14.844.296-4.22-.777-6.456-3.458-7.635-6.618 1.474 1.065 3.878 1.644 7.985 2.633 11.547 2.782 22.55-2.775 24.7-10.782 1.255-4.678 1.04-7.135 3.7-13.5a124.21 124.21 0 0 0 7.393 2.022l-4.3 13.992c-3.7 12.105-18.17 21.867-30.935 21.642-11.8-.2-19.283-7.602-27.43-14.85l-16.37-14.505c-14.687-4.634-26.46-10.05-40.1-20.14 9.7 11.4 16.282 17.712 29.8 23.385-1.97 20.07-8.943 34.703-14.9 53.908-2.7 8.687-23.938 43.485-29.827 46.88-4.2 2.418-30.497 24.57-35.445 27.5-3.684 4.894-6.918 11.655-12.457 14.582-16.88 8.925-27.726-8.165-36.8-22.6-4.137-6.576-15.62-25.515-5.6-30.82 9.466-5.015 14.767-8.596 24.425-14.936 1.42 2.586 3.855 5.08 5.442 7.665zm58.68 30.6c-8.545 6.904-22.916 19.124-25.704 20.655-5.05 7.536-5.672 12.2-13.76 16.577-24.077 13.028-36.855-2.08-51.106-24.045-6.8-10.466-21.64-34.36-5.883-42.46 6.64-3.413 11.67-5.97 16.7-8.894-16.53 2.05-32.753 2.076-49.623-.462l.77 5.75c1.096 9.217 1.456 12.044-3.55 19.47-3.65 5.416-5.057 6.983-9.465 16.823.802 8 .454 12.5-1.803 20.878-5.017 18.618-39.783 8.413-53.952 4.58-17.046-4.6-41.4-8.902-31.4-30.817 2.342-5.134 4.18-10.386 5.565-15.394-14.905 6.597-35.618-7.397-45.484-17.287-9.383-9.408-14.48-20.332-16.256-30.933-1.512-9.022-.128-8.978 6.3-15.357L140 442.253l7.137-19.4c-.926-4.832-1.615-9.652-2.025-14.426-1.7-19.903-1.136-34.076 1.708-47.106-10.37 4.047-22.27 2.15-27.564-8.856-2.013-4.184-3.212-8.446-4.732-14.634-23.135-22.3 20.22-51.5 32.867-53.7-1.446 4.1-3.03 7.867-4.424 11.594 8.577 4.44 7.526 17.092 5.705 25.238-3.085-3.894-4.8-8.985-9.33-9.204-.665 9.212-.55 19.4-7.744 24.8 2.13 5.693 2.018 5.698 8.07 3.37 8.596-3.3 15.07-10.682 21.58-17.878 7.013-13.66 16.002-25.812 28.37-36.776 30.4-26.943 59.116-35.758 105.368-43.13 6.157-6.425 12.52-12.624 19.348-18.652 9.252-8.165 15.26-9.86 24-10.316 14.48-19.368 25.873-32.857 49.48-42.793 49.484-20.83 83.594-21.833 123.3 10.916 13.125 10.82 24.32 22.224 38.744 31.257 7.3 4.57 12.517 7.857 18.05 14.448 6.96 8.294 12.644 16.588 16.6 27.264 5.112-2.104 10.942-4.086 15.65-8.1 6.077-5.193 9.944-13.885 15.573-19.6 7.472-7.57 24.515 1.57 28.3 8.792 12.836 24.565 18.087 69.838 15.36 96.76-3.372 33.28-17.1 64.742-46.4 80.4-19.937 10.637-46.693 11.628-69.592 7.3l-4.447 14.65c-4.453 14.632-21.833 26.592-37.016 27.3-14.578.688-22.48-6.836-32.04-16.045l-15.05-14.494c-.292 3.292-.722 6.448-1.265 9.504 3.95 7.797 5.846 14.652 9.225 22.7 3.72 8.852 5.53 14.663 5.784 24.137l.675 25.233c3.75 6.665 4.08 8.287 3.533 15.914-1.155 16.074-10.008 17.608-24.763 17.515-4.916-.03-23.47.083-28.2-.258-9.402-.68-15.6-1.397-18.84-5.28zm49.75-87.7c-2.968 10.6-6.958 20.606-10.6 32.074-3.446 10.857-21.123 42.383-31.528 50.024 2.025 1.508 5.743 2.1 12.364 2.67 4.685.404 23.154.5 27.8.57 10.2.178 14.084-.6 15.117-12.215.505-5.7.06-6.755-2.787-11.744l-.755-26.697c-.238-8.436-1.857-13.295-5.174-21.157-1.985-4.705-3.063-9.096-4.43-13.525zM139.76 307.36c2.292-.26 3.7.942 5.482 2.714-.328-4.233-1.1-7.37-4.082-9.1a61.09 61.09 0 0 0-.589 2.075c-.36 1.362-.617 2.8-.8 4.313zm14.4 30.583c-1.65 4.27-3.18 8.668-4.622 13.214l-.7 2.26c-8.718 3.698-20.18 6.047-24.57-3.115-2.13-4.447-3.334-8.8-4.888-14.43-14.357-14.873 7.104-34.5 18.794-41.552-1.692 3.636-2.893 6.4-3.713 9.224-3.555 12.284 1.6 23.246-9.54 32.15 5.24 10.573 4.998 14.8 17.188 9.903 4.703-1.884 8.58-4.53 12.04-7.655zm-3.36 100.092c6.608 22.854 17.862 45.3 30.338 64.2l-.003.33c-.78 3.246-1.686 6.4-3.582 8.948-8.917 11.93-31.6-5.582-38.167-12.286-7.177-7.33-11.982-16.008-13.125-24.147-.832-5.938-.025-6.082 4.118-10.282l16.752-16.958 3.67-9.793zM573.083 254.6a13.88 13.88 0 0 1 3.007 4.412c.385-.354.798-.7 1.23-1.006l-1.598-3.482-2.638.077zM463.85 295.705a17.83 17.83 0 0 1-1.74-7.553c-4.28 3.42-8.933 6.66-13.762 8.533 6.667-5.954 15.723-19.995 22.285-24.427 7.447-5.032 17.553-4.052 26.235-8.07-2.964 2.693-6.763 4.864-10.63 6.93 4.26 1.56 7.943 4.715 10.043 9.12a17.87 17.87 0 0 1 1.63 5.737c5.833-1.916 11.56-2.823 16.4-2.753-17.306 4.858-35.714 16.22-48.406 31.266 1.426-3.924 3.418-7.465 5.818-10.627-3.326-1.74-6.135-4.52-7.87-8.155zm-80.254-62.607c-9.556 3.73-18.273 6.527-27.6 8.868-8.5 11.172-13.68 16.96-15.635 31.935-2.3-14.73-2.78-17.466 3.776-28.462-1.9.966-3.667 2.293-6.2 4.458-9.16 7.832-21.1 38.6-25.873 49.615 3.03-13.245 12.5-46.35 22.27-56 6.42-6.347 7.876-6.2 16.93-7.058l32.32-3.355zm199.47 32.115c7.752.733 12.185 1.93 19.126-1.504 12.94-6.403 22.46-16.856 28.633-29.36-3.776 14.916-11.376 27.6-27.14 33.213-7.742 2.76-12.734-.1-20.618-2.35zM434.28 266.67c2.92-12.935 8.107-25.398 28.196-35.04-26.626 6.667-31.618 17.85-28.196 35.04zM89.03 336.33c2.284-25.868 7.315-37.034 25.694-56.5-23.053 16.243-28.805 23.625-25.694 56.5"/><path d="M467.305 299.893c-1.78-3.72-.188-8.205 3.542-9.98s8.224-.2 10.004 3.534a7.47 7.47 0 0 1 .413 1.079c-3.562 2.643-6.83 5.76-9.567 9.367-1.846-.74-3.477-2.1-4.4-4m83.365-32.243c.298-3.083 2.927-5.356 6-5.058a5.64 5.64 0 0 1 5.061 6.137c-.063.656-.24 1.27-.507 1.838-2.822.48-5.643 1.308-8.55 2.377-1.216-1.244-2.184-3.516-2.013-5.293" fill="#edd749"/></g></g></svg>