<svg width="102" height="28" viewBox="0 0 102 28" fill="none" xmlns="http://www.w3.org/2000/svg">
<path opacity="0.973" fill-rule="evenodd" clip-rule="evenodd" d="M97.4737 8.15595C95.7312 8.15595 93.9887 8.15595 92.2462 8.15595C92.2462 7.89907 92.2462 7.64219 92.2462 7.38531C92.8973 7.42827 93.4498 7.38546 93.9037 7.25686C93.5943 6.99259 93.2543 6.75712 92.8837 6.55044C90.0362 6.46481 87.1887 6.46481 84.3412 6.55044C83.8649 6.73152 83.3974 6.92418 82.9387 7.12842C82.4992 7.32803 82.2442 7.67055 82.1737 8.15595C84.1287 8.15595 86.0837 8.15595 88.0387 8.15595C87.997 9.46355 88.0395 10.748 88.1662 12.0092C88.1662 12.5657 88.1662 13.1224 88.1662 13.6789C88.1237 13.6789 88.0812 13.6789 88.0387 13.6789C85.684 12.6854 83.3466 11.6579 81.0262 10.5963C82.622 9.81405 84.237 9.06482 85.8712 8.34861C84.597 8.28441 83.322 8.263 82.0462 8.28439C80.9645 8.15685 79.8594 8.11402 78.7312 8.15595C80.8692 4.69065 83.993 2.9353 88.1025 2.88989C92.2119 2.9353 95.3357 4.69065 97.4737 8.15595Z" fill="#B8E1F3"/>
<path fill-rule="evenodd" clip-rule="evenodd" d="M93.9037 7.25685C90.2269 7.2994 86.5718 7.25659 82.9387 7.12841C83.3975 6.92417 83.8649 6.7315 84.3412 6.55043C87.1887 6.4648 90.0363 6.4648 92.8837 6.55043C93.2544 6.7571 93.5943 6.99257 93.9037 7.25685Z" fill="#F5FAFD"/>
<path fill-rule="evenodd" clip-rule="evenodd" d="M82.9387 7.12842C86.5718 7.2566 90.2269 7.29941 93.9037 7.25686C93.4498 7.38545 92.8973 7.42826 92.2462 7.3853C92.2462 7.64218 92.2462 7.89906 92.2462 8.15594C90.8437 8.15594 89.4412 8.15594 88.0387 8.15594C86.0837 8.15594 84.1287 8.15594 82.1737 8.15594C82.2442 7.67054 82.4992 7.32803 82.9387 7.12842Z" fill="#EAF7FD"/>
<path fill-rule="evenodd" clip-rule="evenodd" d="M78.7312 8.15594C79.8594 8.11401 80.9645 8.15683 82.0462 8.28438C82.0462 8.37001 82.0037 8.41282 81.9187 8.41282C80.8562 8.32719 79.7937 8.24157 78.7312 8.15594Z" fill="#4B94CB"/>
<path opacity="0.943" fill-rule="evenodd" clip-rule="evenodd" d="M11.9213 8.28442C13.931 7.98145 15.6098 8.58085 16.9576 10.0826C17.3787 10.759 17.655 11.4868 17.7863 12.2661C17.0202 12.2874 16.2552 12.266 15.4913 12.2019C14.9461 10.7064 13.8835 10.107 12.3038 10.4037C11.0853 10.7366 10.3416 11.5286 10.0726 12.7798C9.66607 14.4591 10.0273 15.9361 11.1563 17.211C12.066 17.8121 13.0436 17.9406 14.0888 17.5963C14.7514 17.2928 15.2188 16.8004 15.4913 16.1193C16.2516 15.9914 17.0166 15.9486 17.7863 15.9908C17.4311 18.1254 16.1987 19.3883 14.0888 19.7798C10.0521 20.0601 7.88458 18.1549 7.5863 14.0642C7.65388 11.0492 9.09887 9.1226 11.9213 8.28442Z" fill="#277ABE"/>
<path opacity="0.933" fill-rule="evenodd" clip-rule="evenodd" d="M68.6588 8.28437C70.698 8.00564 72.4193 8.60502 73.8225 10.0825C74.197 10.5801 74.4308 11.1366 74.5238 11.7523C73.7576 11.7736 72.9926 11.7522 72.2288 11.688C71.667 10.7561 70.8383 10.3065 69.7425 10.3394C67.8684 10.429 66.806 11.4137 66.555 13.2935C66.2488 16.6248 67.715 18.0589 70.9538 17.5963C71.9478 17.1742 72.4578 16.4251 72.4838 15.3486C71.5062 15.3486 70.5288 15.3486 69.5513 15.3486C69.5513 14.6636 69.5513 13.9785 69.5513 13.2935C71.2938 13.2935 73.0362 13.2935 74.7788 13.2935C75.0782 18.1943 72.8257 20.3136 68.0213 19.6513C65.4715 18.6923 64.1965 16.8299 64.1963 14.0642C64.2524 10.9901 65.7398 9.06353 68.6588 8.28437Z" fill="#277ABE"/>
<path opacity="0.985" fill-rule="evenodd" clip-rule="evenodd" d="M78.7313 8.15594C79.7938 8.24158 80.8563 8.32719 81.9188 8.41283C81.6017 9.05161 81.283 9.69381 80.9625 10.3394C81.2081 11.4639 81.6332 12.5343 82.2375 13.5504C82.9643 14.6752 83.7506 15.7456 84.5963 16.7614C84.6051 17.4491 84.6476 18.1341 84.7238 18.8165C84.7048 18.9516 84.726 19.0801 84.7875 19.2018C85.8977 20.384 86.9814 21.5827 88.0388 22.7981C88.1124 22.9617 88.1973 22.9617 88.2938 22.7981C89.1452 21.3389 89.9953 19.8833 90.8438 18.4312C91.4762 17.9446 92.0924 17.4309 92.6925 16.8899C92.7563 15.7347 92.7775 14.5787 92.7563 13.422C93.5638 12.4801 94.3713 11.5382 95.1788 10.5963C95.2176 10.5128 95.26 10.4272 95.3063 10.3394C95.0513 9.69723 94.7963 9.05503 94.5413 8.41283C95.5577 8.28468 96.5777 8.24187 97.6013 8.28439C99.1049 10.8302 99.5512 13.5702 98.94 16.5046C97.8613 20.674 95.29 23.4355 91.2263 24.789C85.7569 25.9932 81.4857 24.2593 78.4125 19.5871C76.7813 16.4265 76.5688 13.1727 77.775 9.82567C78.0329 9.21902 78.3516 8.66244 78.7313 8.15594Z" fill="#277ABE"/>
<path fill-rule="evenodd" clip-rule="evenodd" d="M92.2463 8.28442C92.2463 9.4832 92.2463 10.682 92.2463 11.8808C90.992 12.5028 89.717 13.1022 88.4213 13.6789C88.3362 13.6789 88.2938 13.7217 88.2938 13.8074C88.2513 13.8074 88.2087 13.8074 88.1663 13.8074C88.1663 13.7646 88.1663 13.7217 88.1663 13.6789C88.1663 13.1224 88.1663 12.5658 88.1663 12.0092C88.1663 10.7676 88.1663 9.52602 88.1663 8.28442C89.5263 8.28442 90.8862 8.28442 92.2463 8.28442Z" fill="#68C1EA"/>
<path fill-rule="evenodd" clip-rule="evenodd" d="M92.2462 8.15594C93.9888 8.15594 95.7312 8.15594 97.4737 8.15594C97.5588 8.15594 97.6012 8.19875 97.6012 8.28439C96.5776 8.24187 95.5576 8.28468 94.5412 8.41283C94.7962 9.05503 95.0512 9.69723 95.3062 10.3394C95.2599 10.4272 95.2175 10.5128 95.1787 10.5963C94.1857 10.9894 93.2082 11.4176 92.2462 11.8807C92.2462 10.6819 92.2462 9.48316 92.2462 8.28439C92.2462 8.24158 92.2462 8.19875 92.2462 8.15594Z" fill="#4E8BC9"/>
<path opacity="0.982" fill-rule="evenodd" clip-rule="evenodd" d="M2.86877 8.54126C3.59128 8.54126 4.31377 8.54126 5.03627 8.54126C5.03627 12.2232 5.03627 15.9051 5.03627 19.5871C4.31377 19.5871 3.59128 19.5871 2.86877 19.5871C2.86877 15.9051 2.86877 12.2232 2.86877 8.54126Z" fill="#277ABE"/>
<path opacity="0.949" fill-rule="evenodd" clip-rule="evenodd" d="M20.2087 8.54126C22.8862 8.54126 25.5637 8.54126 28.2412 8.54126C28.2412 9.22627 28.2412 9.91129 28.2412 10.5963C26.3287 10.5963 24.4162 10.5963 22.5037 10.5963C22.5037 11.3669 22.5037 12.1376 22.5037 12.9082C24.3312 12.9082 26.1588 12.9082 27.9862 12.9082C27.9862 13.5932 27.9862 14.2783 27.9862 14.9633C26.1588 14.9633 24.3312 14.9633 22.5037 14.9633C22.5037 15.8624 22.5037 16.7614 22.5037 17.6605C24.4587 17.6605 26.4138 17.6605 28.3687 17.6605C28.3687 18.3027 28.3687 18.9449 28.3687 19.5871C25.6488 19.5871 22.9287 19.5871 20.2087 19.5871C20.2087 15.9051 20.2087 12.2232 20.2087 8.54126Z" fill="#277ABE"/>
<path opacity="0.963" fill-rule="evenodd" clip-rule="evenodd" d="M31.0463 8.54129C33.0017 8.51989 34.9567 8.5413 36.9113 8.60551C39.2793 9.15952 40.0656 10.5938 39.27 12.9083C38.9465 13.2771 38.5853 13.5982 38.1863 13.8716C39.7138 14.4869 40.2876 15.6214 39.9075 17.2752C39.4565 18.5849 38.5428 19.3341 37.1663 19.5229C35.1266 19.5872 33.0866 19.6086 31.0463 19.5872C31.0463 15.9052 31.0463 12.2232 31.0463 8.54129ZM33.2138 10.4679C34.2347 10.4465 35.2547 10.4679 36.2738 10.5321C37.2941 10.8143 37.5916 11.4351 37.1663 12.3945C36.9583 12.6254 36.7033 12.7752 36.4013 12.844C35.3396 12.9083 34.2771 12.9296 33.2138 12.9083C33.2138 12.0948 33.2138 11.2813 33.2138 10.4679ZM33.2138 14.8349C34.4096 14.7994 35.5995 14.8636 36.7838 15.0275C37.7329 15.4983 37.9666 16.2047 37.485 17.1468C37.2383 17.3526 36.9621 17.5024 36.6563 17.5963C35.5095 17.6606 34.362 17.6819 33.2138 17.6606C33.2138 16.7187 33.2138 15.7767 33.2138 14.8349Z" fill="#277ABE"/>
<path opacity="0.955" fill-rule="evenodd" clip-rule="evenodd" d="M42.5212 8.54126C45.1987 8.54126 47.8762 8.54126 50.5537 8.54126C50.5537 9.22627 50.5537 9.91129 50.5537 10.5963C48.6412 10.5963 46.7287 10.5963 44.8162 10.5963C44.8162 11.3669 44.8162 12.1376 44.8162 12.9082C46.6437 12.9082 48.4713 12.9082 50.2987 12.9082C50.2987 13.5932 50.2987 14.2783 50.2987 14.9633C48.4713 14.9633 46.6437 14.9633 44.8162 14.9633C44.8162 15.8624 44.8162 16.7614 44.8162 17.6605C46.7287 17.6605 48.6412 17.6605 50.5537 17.6605C50.5537 18.3027 50.5537 18.9449 50.5537 19.5871C47.8762 19.5871 45.1987 19.5871 42.5212 19.5871C42.5212 15.9051 42.5212 12.2232 42.5212 8.54126Z" fill="#277ABE"/>
<path opacity="0.967" fill-rule="evenodd" clip-rule="evenodd" d="M53.3588 8.54128C55.4475 8.48691 57.5299 8.55113 59.6063 8.73394C61.8714 9.66746 62.6151 11.3158 61.8375 13.6789C61.3913 14.471 60.7751 15.0917 59.9888 15.5413C60.8813 16.8685 61.7738 18.1958 62.6663 19.5229C61.7738 19.6086 60.8813 19.6086 59.9888 19.5229C59.192 18.346 58.427 17.1472 57.6938 15.9266C56.9725 15.8625 56.25 15.8411 55.5263 15.8624C55.5263 17.104 55.5263 18.3455 55.5263 19.5871C54.8037 19.5871 54.0813 19.5871 53.3588 19.5871C53.3588 15.9051 53.3588 12.2232 53.3588 8.54128ZM55.5263 10.4679C56.7343 10.4023 57.9244 10.5093 59.0963 10.789C59.9096 11.4441 60.0584 12.2361 59.5425 13.1651C59.3412 13.3631 59.1074 13.5129 58.8413 13.6147C57.7468 13.7958 56.6419 13.86 55.5263 13.8073C55.5263 12.6942 55.5263 11.581 55.5263 10.4679Z" fill="#277ABE"/>
<path fill-rule="evenodd" clip-rule="evenodd" d="M88.0387 8.15594C89.4412 8.15594 90.8437 8.15594 92.2462 8.15594C92.2462 8.19875 92.2462 8.24158 92.2462 8.28439C90.8861 8.28439 89.5262 8.28439 88.1662 8.28439C88.1662 9.52598 88.1662 10.7676 88.1662 12.0092C88.0394 10.7479 87.997 9.46354 88.0387 8.15594Z" fill="#A2D8F1"/>
<path fill-rule="evenodd" clip-rule="evenodd" d="M82.0463 8.28438C83.322 8.263 84.597 8.28441 85.8713 8.3486C84.2371 9.06481 82.6221 9.81404 81.0263 10.5963C83.3466 11.6579 85.6841 12.6854 88.0388 13.6789C87.993 13.9192 87.8655 14.1118 87.6563 14.2569C86.5752 15.0256 85.5552 15.8604 84.5963 16.7614C83.7506 15.7456 82.9643 14.6752 82.2375 13.5504C81.6332 12.5343 81.2081 11.4639 80.9625 10.3394C81.2829 9.69381 81.6017 9.05161 81.9188 8.41282C82.0038 8.41282 82.0463 8.37001 82.0463 8.28438Z" fill="#90D4F0"/>
<path fill-rule="evenodd" clip-rule="evenodd" d="M95.1788 10.5963C94.3713 11.5382 93.5637 12.4801 92.7563 13.422C91.3935 13.5222 90.0335 13.6506 88.6763 13.8073C88.5595 13.8018 88.4744 13.759 88.4213 13.6789C89.717 13.1022 90.992 12.5028 92.2463 11.8807C93.2083 11.4176 94.1858 10.9894 95.1788 10.5963Z" fill="#266FA8"/>
<path fill-rule="evenodd" clip-rule="evenodd" d="M92.7562 13.422C92.7774 14.5787 92.7562 15.7347 92.6925 16.8899C92.0923 17.4309 91.4761 17.9446 90.8437 18.4312C90.8012 18.3455 90.7587 18.26 90.7162 18.1743C89.84 16.751 89.0326 15.2954 88.2937 13.8073C88.2937 13.7216 88.3362 13.6789 88.4212 13.6789C88.4744 13.759 88.5594 13.8018 88.6762 13.8073C90.0334 13.6506 91.3935 13.5222 92.7562 13.422Z" fill="#4D8AC8"/>
<path fill-rule="evenodd" clip-rule="evenodd" d="M88.0387 13.6789C88.0811 13.6789 88.1237 13.6789 88.1662 13.6789C88.1662 13.7217 88.1662 13.7646 88.1662 13.8073C88.1662 14.8349 88.1662 15.8624 88.1662 16.8899C88.1237 16.8899 88.0811 16.8899 88.0387 16.8899C86.8914 16.841 85.7439 16.7982 84.5962 16.7615C85.5551 15.8605 86.5751 15.0256 87.6562 14.2569C87.8654 14.1119 87.9929 13.9192 88.0387 13.6789Z" fill="#ABDCF1"/>
<path fill-rule="evenodd" clip-rule="evenodd" d="M88.1663 13.8073C88.2087 13.8073 88.2513 13.8073 88.2938 13.8073C89.0326 15.2954 89.8401 16.751 90.7163 18.1743C89.8181 17.8173 88.9681 17.3893 88.1663 16.8899C88.1663 15.8624 88.1663 14.8348 88.1663 13.8073Z" fill="#54A5D7"/>
<path fill-rule="evenodd" clip-rule="evenodd" d="M84.5962 16.7615C85.7439 16.7982 86.8914 16.841 88.0387 16.8899C88.0387 17.8318 88.0387 18.7737 88.0387 19.7156C87.0984 19.6077 86.1633 19.4578 85.2337 19.2661C85.039 19.1335 84.869 18.9836 84.7237 18.8165C84.6474 18.1341 84.605 17.4491 84.5962 16.7615Z" fill="#B6E0F2"/>
<path fill-rule="evenodd" clip-rule="evenodd" d="M88.0388 16.8899C88.0812 16.8899 88.1238 16.8899 88.1663 16.8899C88.9681 17.3893 89.8182 17.8174 90.7163 18.1743C90.7587 18.26 90.8013 18.3455 90.8438 18.4312C89.9811 18.8013 89.1311 19.2081 88.2938 19.6514C88.1719 20.0873 88.1294 20.5368 88.1663 21C88.0415 20.5986 87.9989 20.1705 88.0388 19.7156C88.0388 18.7737 88.0388 17.8317 88.0388 16.8899Z" fill="#58AFDE"/>
<path fill-rule="evenodd" clip-rule="evenodd" d="M90.8438 18.4312C89.9953 19.8834 89.1453 21.339 88.2938 22.7982C88.1973 22.9617 88.1124 22.9617 88.0388 22.7982C88.1645 22.2241 88.207 21.6246 88.1663 21C88.1295 20.5369 88.1719 20.0873 88.2938 19.6514C89.1311 19.2081 89.9812 18.8014 90.8438 18.4312Z" fill="#266FA8"/>
<path fill-rule="evenodd" clip-rule="evenodd" d="M84.7238 18.8165C84.8691 18.9836 85.0391 19.1335 85.2338 19.2661C86.1634 19.4578 87.0985 19.6077 88.0388 19.7156C87.9989 20.1705 88.0415 20.5986 88.1663 21C88.2069 21.6246 88.1645 22.2241 88.0388 22.7982C86.9814 21.5827 85.8977 20.384 84.7875 19.2018C84.7259 19.0801 84.7048 18.9516 84.7238 18.8165Z" fill="#8FD3F0"/>
</svg>
