<svg xmlns="http://www.w3.org/2000/svg" viewBox="0 0 288.85 59.2"><defs><style>.cls-1{fill:#edb716;}.cls-2{fill:#327d8c;}.cls-3{fill:#444;fill-rule:evenodd;}</style></defs><g id="图层_2" data-name="图层 2"><g id="图层_1-2" data-name="图层 1"><path class="cls-1" d="M15.84,25.79c-3.9-3.2-8.19-6.74-10.47-8.63l-1.6-1.31c-1.1-.92-2-2.53-.1-3.64C4.49,11.73,18.4,3.75,23.53.78a5.82,5.82,0,0,1,5.82,0l9.83,5.67a1.16,1.16,0,0,1,0,2l-23,13.19A2.53,2.53,0,0,0,15.84,25.79Z"/><path class="cls-2" d="M21.59,35.14,12.22,49.41a2.31,2.31,0,0,1-3.1.74L2.91,46.57a5.82,5.82,0,0,1-2.91-5V17.71a5.8,5.8,0,0,1,2.34-4.66c-1.67,1.28-1,2.72.1,3.64L21.12,32.08A2.31,2.31,0,0,1,21.59,35.14Z"/><path class="cls-2" d="M37.05,33.41C41,36.62,45.24,40.15,47.52,42l1.6,1.31c1.1.92,2,2.53.1,3.64-.82.49-14.73,8.46-19.86,11.43a5.84,5.84,0,0,1-5.83,0l-9.82-5.67a1.16,1.16,0,0,1,0-2l23-13.19A2.53,2.53,0,0,0,37.05,33.41Z"/><path class="cls-2" d="M31.3,24.06,40.67,9.79a2.32,2.32,0,0,1,3.1-.74L50,12.63a5.85,5.85,0,0,1,2.92,5V41.49a5.82,5.82,0,0,1-2.34,4.67c1.67-1.29,1-2.73-.1-3.64L31.76,27.12A2.32,2.32,0,0,1,31.3,24.06Z"/><path class="cls-3" d="M206.57,41.86a7.41,7.41,0,1,1,7-7.8c0,.14,0,.27,0,.41a7.19,7.19,0,0,1-7,7.39h0m0-20.24A12.65,12.65,0,1,0,219,34.45v-.18a12.57,12.57,0,0,0-12.47-12.65M106.11,41.86a3.08,3.08,0,0,1-3.12-3s0,0,0-.06V27.06h7.45V21.62H103V15.18H97.75v6.64H94.5v5.43h3.3V38.93A8.37,8.37,0,0,0,113.56,43l-4.72-2.53a3.42,3.42,0,0,1-2.73,1.36m128.11-14.8a6.88,6.88,0,0,1,5.26,2.37l3.89-3.51a11.94,11.94,0,0,0-9.15-4.28,12.65,12.65,0,0,0,0,25.3h0a12,12,0,0,0,9.15-4.28l-4.09-3.51A6.64,6.64,0,0,1,234,41.48a7.21,7.21,0,0,1-7-7.41h0a7.42,7.42,0,0,1,7.21-7M79,27.06h-.4c-6.82-1.36-6.82-2.71-6.82-4.29a3.68,3.68,0,0,1,2.4-2.91,10.32,10.32,0,0,1,5.06-1.17,8.77,8.77,0,0,1,6.81,2.53l4.1-3.11a13.75,13.75,0,0,0-11.09-4.62,16,16,0,0,0-7.41,1.75,8.76,8.76,0,0,0-5.26,7.59c0,6,4.28,8.19,11.29,9.55h.2c8.37,2.15,8.37,3.12,8.37,4.88a4.54,4.54,0,0,1-2.73,3.48,12.46,12.46,0,0,1-5.64,1.38,10.57,10.57,0,0,1-7.79-2.93l-4.28,3.25a16.86,16.86,0,0,0,12.27,4.92,18.85,18.85,0,0,0,8.17-2,9.44,9.44,0,0,0,5.46-8.17c0-6.44-4.88-8.19-12.65-10.14m200.73,4.36h-.4c-4.09-.78-4.09-1.56-4.09-2.13s.58-1,1.16-1.38a7.56,7.56,0,0,1,3.13-.77,4.93,4.93,0,0,1,4,1.57l4.29-3.33a10.23,10.23,0,0,0-8.37-3.48,10.55,10.55,0,0,0-5.66,1.35,7.16,7.16,0,0,0-4.08,6c0,5.26,4.48,6.61,8.56,7.39h.2c5.26,1.37,5.26,2,5.26,2.53s-.58,1.17-1.55,1.75a7.35,7.35,0,0,1-3.71.78,7.1,7.1,0,0,1-4.86-1.75l-4.28,3.3a11.64,11.64,0,0,0,8.94,4,12.81,12.81,0,0,0,6.24-1.56,7.55,7.55,0,0,0,4.28-6.43c.38-5.44-4.48-6.62-9.14-7.79"/><polygon class="cls-3" points="265.36 25.12 261.88 21.22 252.13 30.38 252.13 12.27 246.87 12.27 246.87 47.32 252.13 47.32 252.13 38.93 260.9 47.32 268.69 47.32 255.44 34.67 265.36 25.12"/><path class="cls-3" d="M151.68,23.45V21.7h-5.26V47.36h5.26V32.91a5.45,5.45,0,0,1,5.4-5.48h0a5.58,5.58,0,0,1,2.53.58l2.59-4.56a11.42,11.42,0,0,0-5.06-1.18,7.62,7.62,0,0,0-5.5,1.18M128.37,41.86a7.41,7.41,0,1,1,7-7.8c0,.14,0,.27,0,.41a7.19,7.19,0,0,1-7,7.39Zm7-17.93a12.67,12.67,0,1,0-7,23.43,10.86,10.86,0,0,0,7-2.35v2.15h5.26V21.62h-5.32ZM171,29.77V18.49h8.57a6,6,0,0,1,6,5.66,6,6,0,0,1-6,5.64Zm20.05-5.64A11.26,11.26,0,0,0,179.77,13h-14V47.36h5.26V35.24h4l9.3,12.12h6.82l-9.55-12.28A11.25,11.25,0,0,0,191,24.19Z"/></g></g></svg>