<svg width="110" height="52" viewBox="0 0 110 52" fill="none" xmlns="http://www.w3.org/2000/svg">
<path d="M44.2858 32.3238L36.5225 18.7352C35.918 17.6691 35.918 16.3606 36.5225 15.3041L44.2858 1.71554C44.8904 0.649384 46.0132 0 47.2319 0H62.7682C63.9869 0 65.1096 0.659076 65.7142 1.71554L73.4775 15.3041C74.0821 16.3703 74.0821 17.6787 73.4775 18.7352L65.7142 32.3238C65.1096 33.39 63.9869 34.0393 62.7682 34.0393H47.2319C46.0132 34.0393 44.8904 33.3803 44.2858 32.3238Z" fill="url(#paint0_linear_1_33)"/>
<g opacity="0.07">
<path d="M71.248 22.9964L61.3543 13.0036L50.6546 13.9922L48.5722 16.0858L50.3379 17.8594L48.5914 20.9901L61.7958 34.3267H65.0009L71.248 22.9964Z" fill="black"/>
</g>
<path d="M61.1146 12.9142H48.8602C48.6587 12.9142 48.5052 13.079 48.5052 13.2728V15.8316C48.5052 16.0351 48.6683 16.1902 48.8602 16.1902H61.1146C61.3161 16.1902 61.4697 16.0254 61.4697 15.8316V13.2728C61.4793 13.079 61.3161 12.9142 61.1146 12.9142ZM59.2242 15.2985C58.8211 15.2985 58.4948 14.969 58.4948 14.5619C58.4948 14.1548 58.8211 13.8253 59.2242 13.8253C59.6272 13.8253 59.9535 14.1548 59.9535 14.5619C59.9535 14.969 59.6272 15.2985 59.2242 15.2985Z" fill="white"/>
<path d="M61.1145 17.8374H48.8602C48.6586 17.8374 48.5051 18.0022 48.5051 18.196V20.7548C48.5051 20.9583 48.6682 21.1134 48.8602 21.1134H61.1145C61.316 21.1134 61.4696 20.9486 61.4696 20.7548V18.196C61.4792 17.9925 61.316 17.8374 61.1145 17.8374ZM59.2241 20.212C58.821 20.212 58.4948 19.8825 58.4948 19.4754C58.4948 19.0683 58.821 18.7388 59.2241 18.7388C59.6271 18.7388 59.9534 19.0683 59.9534 19.4754C59.9534 19.8825 59.6271 20.212 59.2241 20.212Z" fill="white"/>
<path d="M8.59909 44.3704H4.5165V45.5922H7.40916C7.26453 47.3053 5.85107 48.0357 4.52307 48.0357C2.82034 48.0357 1.32799 46.6812 1.32799 44.7821C1.32799 42.9295 2.74803 41.5086 4.52307 41.5086C5.89708 41.5086 6.70572 42.3917 6.70572 42.3917L7.55379 41.5019C7.55379 41.5019 6.46904 40.2802 4.48363 40.2802C1.95912 40.2802 0 42.4315 0 44.7622C0 47.0397 1.84078 49.2641 4.54279 49.2641C6.92266 49.2641 8.66484 47.6174 8.66484 45.1805C8.67141 44.6626 8.59909 44.3704 8.59909 44.3704Z" fill="#7F7F7F"/>
<path d="M11.9389 43.48C10.2624 43.48 9.06593 44.8014 9.06593 46.3419C9.06593 47.909 10.2296 49.2503 11.9586 49.2503C13.5233 49.2503 14.8052 48.0418 14.8052 46.3751C14.8118 44.4694 13.3195 43.48 11.9389 43.48ZM11.9586 44.6155C12.7804 44.6155 13.5627 45.2861 13.5627 46.3685C13.5627 47.4309 12.7869 48.1214 11.9586 48.1214C11.0448 48.1214 10.3282 47.3844 10.3282 46.3618C10.3216 45.3658 11.0316 44.6155 11.9586 44.6155Z" fill="#7F7F7F"/>
<path d="M18.1909 43.48C16.5145 43.48 15.318 44.8014 15.318 46.3419C15.318 47.909 16.4816 49.2503 18.2106 49.2503C19.7753 49.2503 21.0573 48.0418 21.0573 46.3751C21.0573 44.4694 19.5649 43.48 18.1909 43.48ZM18.204 44.6155C19.0258 44.6155 19.8082 45.2861 19.8082 46.3685C19.8082 47.4309 19.0324 48.1214 18.204 48.1214C17.2902 48.1214 16.5736 47.3844 16.5736 46.3618C16.5736 45.3658 17.2837 44.6155 18.204 44.6155Z" fill="#7F7F7F"/>
<path d="M24.3179 43.4872C22.7795 43.4872 21.5764 44.8484 21.5764 46.369C21.5764 48.1087 22.9768 49.2574 24.2916 49.2574C25.1068 49.2574 25.5407 48.932 25.8563 48.5535V49.1246C25.8563 50.1206 25.258 50.7182 24.3508 50.7182C23.4764 50.7182 23.0425 50.0608 22.8847 49.689L21.7868 50.1538C22.1747 50.9838 22.9636 51.8537 24.3573 51.8537C25.8826 51.8537 27.0462 50.8842 27.0462 48.8457V43.6598H25.8497V44.1512C25.4947 43.7461 24.9885 43.4872 24.3179 43.4872ZM24.4297 44.616C25.1857 44.616 25.9549 45.2667 25.9549 46.3756C25.9549 47.5044 25.1857 48.1219 24.4099 48.1219C23.5882 48.1219 22.8256 47.4513 22.8256 46.3822C22.8321 45.28 23.6276 44.616 24.4297 44.616Z" fill="#7F7F7F"/>
<path d="M32.3912 43.48C30.9448 43.48 29.722 44.6421 29.722 46.3618C29.722 48.1812 31.0763 49.2569 32.5292 49.2569C33.7389 49.2569 34.4818 48.5862 34.9222 47.9886L33.9361 47.3246C33.6797 47.7297 33.2524 48.1214 32.5358 48.1214C31.7337 48.1214 31.3656 47.6766 31.1355 47.245L34.9683 45.6381L34.771 45.1666C34.3963 44.2503 33.5285 43.48 32.3912 43.48ZM32.4372 44.5889C32.9565 44.5889 33.3378 44.8678 33.4956 45.2065L30.9382 46.2888C30.8265 45.4521 31.6088 44.5889 32.4372 44.5889Z" fill="#7F7F7F"/>
<path d="M27.8944 49.0912H29.1567V40.5787H27.8944V49.0912Z" fill="#7F7F7F"/>
<path d="M42.6339 41.3629C41.707 41.3629 40.9707 41.675 40.4381 42.2992C39.9056 42.9233 39.6295 43.7799 39.6295 44.8622C39.6295 45.9778 39.8859 46.841 40.4053 47.4519C40.9246 48.0627 41.661 48.3682 42.6208 48.3682C43.2125 48.3682 43.883 48.2619 44.6391 48.0495V48.9193C44.054 49.1384 43.3308 49.2513 42.4696 49.2513C41.227 49.2513 40.2672 48.8728 39.5901 48.1092C38.9129 47.3456 38.5776 46.2633 38.5776 44.8556C38.5776 43.9791 38.742 43.2089 39.0641 42.5449C39.3928 41.8808 39.8596 41.3762 40.471 41.0176C41.0824 40.6591 41.8056 40.4798 42.6405 40.4798C43.528 40.4798 44.3038 40.6458 44.9612 40.9712L44.547 41.8211C43.9093 41.5156 43.2716 41.3629 42.6339 41.3629Z" fill="#7F7F7F"/>
<path d="M46.9993 49.1314H46.0395V40.0479H46.9993V49.1314Z" fill="#7F7F7F"/>
<path d="M54.0272 45.9249C54.0272 46.9674 53.7643 47.7841 53.2449 48.3685C52.7255 48.9528 52.0089 49.2449 51.0885 49.2449C50.5232 49.2449 50.0169 49.1121 49.583 48.8399C49.1491 48.5677 48.8073 48.1892 48.564 47.6845C48.3274 47.1799 48.209 46.5956 48.209 45.9249C48.209 44.8824 48.4654 44.0723 48.9848 43.488C49.5042 42.9037 50.2207 42.6182 51.1346 42.6182C52.0221 42.6182 52.7255 42.917 53.2449 43.5079C53.7643 44.1055 54.0272 44.9156 54.0272 45.9249ZM49.2017 45.9249C49.2017 46.7416 49.3661 47.3658 49.6882 47.7908C50.0104 48.2157 50.4903 48.4349 51.1148 48.4349C51.7394 48.4349 52.2193 48.2224 52.548 47.7974C52.8767 47.3724 53.0345 46.7483 53.0345 45.9249C53.0345 45.1148 52.8702 44.4973 52.548 44.0723C52.2193 43.6474 51.7394 43.4415 51.1083 43.4415C50.4771 43.4415 50.0038 43.6474 49.6882 44.0657C49.3595 44.484 49.2017 45.1015 49.2017 45.9249Z" fill="#7F7F7F"/>
<path d="M56.1375 42.7374V46.8874C56.1375 47.412 56.2559 47.7971 56.4925 48.0561C56.7292 48.315 57.0974 48.4412 57.597 48.4412C58.261 48.4412 58.7409 48.2553 59.0499 47.89C59.3589 47.5248 59.5101 46.9272 59.5101 46.0972V42.7374H60.4699V49.1317H59.681L59.543 48.2752H59.4904C59.2931 48.5873 59.0236 48.8329 58.6752 48.9989C58.3267 49.1649 57.9257 49.2513 57.4852 49.2513C56.716 49.2513 56.1375 49.0653 55.7562 48.7001C55.3749 48.3283 55.1842 47.7373 55.1842 46.9272V42.744H56.1375V42.7374Z" fill="#7F7F7F"/>
<path d="M66.334 48.2749H66.2814C65.8409 48.9256 65.1769 49.251 64.296 49.251C63.4676 49.251 62.8234 48.9654 62.3632 48.3944C61.903 47.8234 61.6729 47.0066 61.6729 45.9575C61.6729 44.9017 61.903 44.085 62.3632 43.5007C62.8234 42.9164 63.4676 42.6242 64.296 42.6242C65.1572 42.6242 65.8146 42.9363 66.2748 43.5671H66.3472L66.3077 43.1089L66.2814 42.6574V40.0479H67.2413V49.1314H66.4589L66.334 48.2749ZM64.4143 48.4342C65.0718 48.4342 65.5451 48.255 65.8409 47.8964C66.1368 47.5378 66.2814 46.9535 66.2814 46.1567V45.9509C66.2814 45.0412 66.1302 44.3971 65.8344 44.012C65.5385 43.6268 65.0586 43.4343 64.4012 43.4343C63.8358 43.4343 63.4085 43.6534 63.1126 44.0983C62.8168 44.5432 62.6656 45.1607 62.6656 45.9708C62.6656 46.7875 62.8168 47.405 63.1126 47.8234C63.4085 48.2284 63.8424 48.4342 64.4143 48.4342Z" fill="#7F7F7F"/>
<path d="M76.6687 46.8609C76.6687 47.6112 76.3992 48.1955 75.8601 48.6205C75.321 49.0388 74.5913 49.2513 73.6643 49.2513C72.665 49.2513 71.8892 49.1185 71.3502 48.8595V47.9034C71.6986 48.0495 72.0733 48.169 72.4809 48.2553C72.8885 48.3416 73.2961 48.3815 73.6972 48.3815C74.3546 48.3815 74.8476 48.2553 75.1764 48.003C75.5051 47.7507 75.676 47.4054 75.676 46.9539C75.676 46.6551 75.6168 46.416 75.4985 46.2301C75.3802 46.0442 75.1829 45.8649 74.9068 45.7055C74.6307 45.5462 74.2099 45.3669 73.6511 45.161C72.8622 44.8755 72.3034 44.5435 71.9681 44.1517C71.6329 43.76 71.4619 43.2553 71.4619 42.6312C71.4619 41.9738 71.7052 41.4492 72.1982 41.0641C72.6847 40.6724 73.3356 40.4798 74.1376 40.4798C74.9791 40.4798 75.7483 40.6325 76.4518 40.9446L76.1428 41.8078C75.4459 41.509 74.7688 41.3629 74.1113 41.3629C73.592 41.3629 73.1844 41.4758 72.8951 41.7016C72.5993 41.9273 72.4546 42.2394 72.4546 42.6445C72.4546 42.9433 72.5072 43.1823 72.619 43.3682C72.7242 43.5541 72.9082 43.7268 73.1646 43.8861C73.421 44.0455 73.8155 44.2181 74.3414 44.4107C75.229 44.7294 75.8338 45.0747 76.1691 45.4399C76.5044 45.8051 76.6687 46.2766 76.6687 46.8609Z" fill="#7F7F7F"/>
<path d="M79.8242 48.4478C79.9951 48.4478 80.1595 48.4345 80.3173 48.408C80.4751 48.3814 80.6 48.3549 80.692 48.3283V49.072C80.5868 49.1251 80.4356 49.1649 80.2318 49.1981C80.028 49.2313 79.8505 49.2446 79.6862 49.2446C78.4634 49.2446 77.8519 48.5939 77.8519 47.2925V43.4877H76.9447V43.0229L77.8519 42.6179L78.2595 41.25H78.8118V42.7307H80.646V43.4811H78.8118V47.246C78.8118 47.6311 78.9038 47.9299 79.0813 48.1357C79.2588 48.3482 79.5087 48.4478 79.8242 48.4478Z" fill="#7F7F7F"/>
<path d="M86.951 45.9249C86.951 46.9674 86.6881 47.7841 86.1687 48.3685C85.6493 48.9528 84.9327 49.2449 84.0123 49.2449C83.447 49.2449 82.9407 49.1121 82.5068 48.8399C82.0729 48.5677 81.7311 48.1892 81.4878 47.6845C81.2512 47.1799 81.1328 46.5956 81.1328 45.9249C81.1328 44.8824 81.3892 44.0723 81.9086 43.488C82.4279 42.9037 83.1445 42.6182 84.0584 42.6182C84.9459 42.6182 85.6493 42.917 86.1687 43.5079C86.6881 44.1055 86.951 44.9156 86.951 45.9249ZM82.1255 45.9249C82.1255 46.7416 82.2899 47.3658 82.612 47.7908C82.9342 48.2157 83.4141 48.4349 84.0386 48.4349C84.6632 48.4349 85.1431 48.2224 85.4718 47.7974C85.8005 47.3724 85.9583 46.7483 85.9583 45.9249C85.9583 45.1148 85.794 44.4973 85.4718 44.0723C85.1431 43.6474 84.6632 43.4415 84.0321 43.4415C83.4009 43.4415 82.9276 43.6474 82.612 44.0657C82.2833 44.484 82.1255 45.1015 82.1255 45.9249Z" fill="#7F7F7F"/>
<path d="M91.0467 42.6182C91.3294 42.6182 91.5792 42.6447 91.8028 42.6912L91.6713 43.5876C91.4083 43.5279 91.1782 43.5013 90.981 43.5013C90.4682 43.5013 90.0277 43.7138 89.6661 44.1321C89.3045 44.5504 89.1205 45.075 89.1205 45.6992V49.1321H88.1606V42.7377H88.9495L89.0613 43.9196H89.1073C89.344 43.5013 89.6267 43.1826 89.9554 42.9568C90.2841 42.731 90.6523 42.6182 91.0467 42.6182Z" fill="#7F7F7F"/>
<path d="M96.4111 49.131L96.2204 48.2213H96.1744C95.8588 48.6197 95.5433 48.8919 95.2277 49.038C94.9122 49.1775 94.5243 49.2505 94.0509 49.2505C93.4198 49.2505 92.9333 49.0845 92.5717 48.7591C92.2167 48.4338 92.0392 47.969 92.0392 47.3647C92.0392 46.0699 93.0648 45.3993 95.1094 45.3329L96.181 45.2997V44.9013C96.181 44.3966 96.0758 44.0314 95.8589 43.7924C95.6419 43.5533 95.3 43.4338 94.8333 43.4338C94.3073 43.4338 93.7091 43.5998 93.0451 43.9252L92.7492 43.1815C93.0582 43.0089 93.4001 42.8761 93.7748 42.7765C94.1495 42.6769 94.5177 42.6304 94.8924 42.6304C95.6485 42.6304 96.2073 42.7964 96.5689 43.135C96.9304 43.4737 97.1145 44.0181 97.1145 44.7618V49.1243L96.4111 49.131ZM94.2416 48.4471C94.8398 48.4471 95.3066 48.2811 95.6485 47.9491C95.9903 47.6171 96.1613 47.1523 96.1613 46.5613V45.9836L95.2014 46.0234C94.4388 46.05 93.8866 46.1695 93.5513 46.382C93.216 46.5945 93.0451 46.9265 93.0451 47.3714C93.0451 47.7233 93.1503 47.9889 93.3606 48.1682C93.571 48.3541 93.8669 48.4471 94.2416 48.4471Z" fill="#7F7F7F"/>
<path d="M103.985 42.7372V43.3481L102.814 43.4875C102.92 43.627 103.018 43.7996 103.104 44.0187C103.189 44.2378 103.229 44.4835 103.229 44.7624C103.229 45.3866 103.018 45.8912 102.591 46.2631C102.17 46.6349 101.585 46.8208 100.849 46.8208C100.658 46.8208 100.481 46.8075 100.316 46.7743C99.9086 46.9935 99.7048 47.2657 99.7048 47.5977C99.7048 47.7703 99.7771 47.9031 99.9217 47.9828C100.066 48.0691 100.31 48.109 100.658 48.109H101.782C102.466 48.109 102.992 48.2551 103.36 48.5472C103.728 48.8394 103.912 49.2644 103.912 49.8221C103.912 50.5326 103.63 51.0705 103.071 51.4423C102.505 51.8141 101.69 52.0001 100.612 52.0001C99.7837 52.0001 99.146 51.8473 98.6989 51.5353C98.2519 51.2232 98.0284 50.7849 98.0284 50.2139C98.0284 49.8221 98.1533 49.4901 98.3965 49.2046C98.6398 48.9191 98.9882 48.7265 99.4352 48.6269C99.2709 48.5539 99.1394 48.441 99.0276 48.2816C98.9159 48.1289 98.8633 47.943 98.8633 47.7371C98.8633 47.5047 98.9224 47.2989 99.0474 47.1263C99.1723 46.9536 99.3629 46.781 99.6325 46.6216C99.3037 46.4822 99.0408 46.2564 98.8304 45.9244C98.6266 45.599 98.5214 45.2272 98.5214 44.8022C98.5214 44.105 98.7318 43.5606 99.146 43.1821C99.5601 42.8036 100.152 42.611 100.914 42.611C101.243 42.611 101.546 42.6509 101.809 42.7305L103.985 42.7372ZM98.9356 50.2072C98.9356 50.5525 99.0802 50.8181 99.3695 50.9974C99.6588 51.1767 100.073 51.263 100.612 51.263C101.414 51.263 102.012 51.1435 102.4 50.8978C102.788 50.6521 102.979 50.3268 102.979 49.9084C102.979 49.5632 102.874 49.3241 102.663 49.1847C102.453 49.0519 102.052 48.9855 101.467 48.9855H100.316C99.8823 48.9855 99.5404 49.0917 99.2972 49.2976C99.0539 49.5034 98.9356 49.8155 98.9356 50.2072ZM99.455 44.7823C99.455 45.2272 99.5799 45.5658 99.8297 45.7983C100.08 46.0307 100.428 46.1435 100.875 46.1435C101.809 46.1435 102.282 45.6854 102.282 44.769C102.282 43.8062 101.809 43.3281 100.862 43.3281C100.408 43.3281 100.066 43.4477 99.8231 43.6934C99.5799 43.939 99.455 44.3042 99.455 44.7823Z" fill="#7F7F7F"/>
<path d="M107.666 49.25C106.733 49.25 105.99 48.9645 105.451 48.3868C104.912 47.8091 104.642 47.0123 104.642 45.9897C104.642 44.9605 104.892 44.1372 105.398 43.5329C105.904 42.9287 106.575 42.6232 107.423 42.6232C108.218 42.6232 108.843 42.8888 109.31 43.4134C109.77 43.938 110 44.6352 110 45.4984V46.1093H105.635C105.654 46.8596 105.839 47.4306 106.2 47.8224C106.555 48.2142 107.061 48.4067 107.706 48.4067C108.389 48.4067 109.06 48.2606 109.73 47.9751V48.8383C109.389 48.9844 109.073 49.0906 108.771 49.157C108.455 49.2168 108.093 49.25 107.666 49.25ZM107.403 43.4267C106.897 43.4267 106.489 43.5927 106.187 43.9313C105.885 44.2633 105.707 44.7281 105.654 45.3191H108.968C108.968 44.7082 108.83 44.2434 108.56 43.918C108.291 43.5927 107.903 43.4267 107.403 43.4267Z" fill="#7F7F7F"/>
<defs>
<linearGradient id="paint0_linear_1_33" x1="54.9999" y1="0.000112862" x2="54.9999" y2="33.9895" gradientUnits="userSpaceOnUse">
<stop stop-color="#4387FD"/>
<stop offset="1" stop-color="#4683EA"/>
</linearGradient>
</defs>
</svg>
