<svg width="114" height="20" viewBox="0 0 114 20" fill="none" xmlns="http://www.w3.org/2000/svg">
<path d="M63.005 7.78681C62.6108 7.56272 62.134 7.4342 61.5919 7.4342C61.0008 7.4342 60.5076 7.56272 60.1134 7.81866C59.7192 8.07516 59.4399 8.42722 59.2595 8.8754H59.1605V5.01644H57.058V15.1368H59.21V10.7483C59.21 10.4281 59.2755 10.1398 59.4069 9.91567C59.5256 9.6911 59.7089 9.5071 59.9331 9.3873C60.1629 9.25932 60.4257 9.21154 60.7215 9.21154C61.1652 9.21154 61.51 9.33951 61.7398 9.59601C61.9867 9.85196 62.1016 10.2199 62.1016 10.6846V15.1362H64.2537V10.3001C64.2537 9.7075 64.1388 9.19561 63.9249 8.77874C63.728 8.34649 63.4157 8.02628 63.005 7.78626V7.78681ZM48.6955 7.94719C48.1204 7.6105 47.4474 7.45067 46.6584 7.45067C45.8699 7.45067 45.1958 7.6105 44.6212 7.94664C44.0461 8.26685 43.6024 8.7315 43.2906 9.32413C42.9783 9.91622 42.8304 10.589 42.8304 11.3734C42.8304 12.1582 42.9783 12.8305 43.2906 13.4231C43.6024 14.0158 44.0461 14.4639 44.6212 14.8001C45.1964 15.1203 45.8694 15.2966 46.6584 15.2966C47.4468 15.2966 48.1209 15.1368 48.6955 14.8001C49.2707 14.4639 49.7144 14.0158 50.0261 13.4231C50.3384 12.8305 50.4863 12.1582 50.4863 11.3734C50.4863 10.589 50.3379 9.90029 50.0261 9.32413C49.7144 8.7315 49.2707 8.26739 48.6955 7.94719ZM48.1204 12.5427C48.0055 12.8948 47.8246 13.1672 47.5783 13.3589C47.3319 13.5511 47.0361 13.6631 46.6749 13.6631C46.3131 13.6631 46.0013 13.5676 45.7545 13.3594C45.5081 13.1507 45.3278 12.8788 45.1964 12.5427C45.0727 12.1599 45.0115 11.7597 45.0149 11.3574C45.0149 10.9092 45.0809 10.5248 45.1964 10.1727C45.3278 9.8201 45.5081 9.54822 45.7545 9.35599C46.0013 9.14783 46.3131 9.05171 46.6749 9.05171C47.0361 9.05171 47.3319 9.14783 47.5783 9.35599C47.8246 9.56415 48.0055 9.83658 48.1204 10.1727C48.2524 10.5248 48.3013 10.9087 48.3013 11.3574C48.3013 11.8062 48.2353 12.1901 48.1204 12.5427ZM77.7912 7.43475C77.3474 7.43475 76.9697 7.56272 76.6409 7.80274C76.3121 8.04276 76.0658 8.39537 75.9344 8.8754H75.8524V7.54624H73.7658V15.1368H75.9179V10.845C75.9179 10.5407 75.9839 10.2683 76.1318 10.0288C76.2797 9.78824 76.4765 9.61194 76.7228 9.46859C76.9862 9.33013 77.2796 9.25845 77.5773 9.25987C77.7252 9.25987 77.8896 9.27635 78.0705 9.29173C78.2508 9.30821 78.3822 9.34006 78.4972 9.37192V7.51439C78.3987 7.49846 78.3003 7.4666 78.1689 7.4666C78.0045 7.45012 77.8896 7.43475 77.7912 7.43475ZM71.6303 8.4113C71.2976 8.09026 70.8997 7.8445 70.4635 7.69069C70.0048 7.52802 69.5212 7.44679 69.0345 7.45067C68.2785 7.45067 67.6049 7.6105 67.0303 7.94664C66.4717 8.28332 66.028 8.7315 65.7157 9.32413C65.4039 9.91622 65.256 10.605 65.256 11.3734C65.256 12.1741 65.4039 12.8629 65.7157 13.455C66.028 14.0317 66.4717 14.4958 67.0463 14.8165C67.6214 15.1368 68.3115 15.2966 69.1164 15.2966C69.7575 15.2966 70.3321 15.2005 70.8088 15.0082C71.3015 14.816 71.6957 14.5441 72.008 14.1921C72.3203 13.8394 72.5336 13.3111 72.6326 12.8305H70.6279C70.546 13.0227 70.4476 13.1831 70.2997 13.3111C70.1481 13.4404 69.9758 13.5433 69.79 13.6154C69.5775 13.6822 69.3557 13.7146 69.1329 13.7115C68.7717 13.7115 68.4594 13.6313 68.1965 13.4874C67.9367 13.3437 67.7253 13.1264 67.589 12.8629C67.4411 12.5905 67.3751 12.2703 67.3751 11.8858H72.6815V11.2937C72.6815 10.6533 72.5831 10.0925 72.4022 9.59656C72.2329 9.1508 71.9696 8.74659 71.6303 8.4113ZM67.3916 10.5731C67.4081 10.3007 67.4735 10.0447 67.6049 9.82065C67.7503 9.57736 67.9535 9.37363 68.1965 9.22747C68.4617 9.07667 68.7624 8.99949 69.0675 9.00393C69.3792 9.00393 69.6585 9.06764 69.8889 9.21209C70.1353 9.34006 70.3162 9.5323 70.4476 9.75584C70.579 9.99641 70.6444 10.2529 70.6444 10.5572H67.3916V10.5731Z" fill="#383838"/>
<path d="M0.542719 13.8079C0.542719 13.8079 8.37843 19.2673 8.85568 19.5403C9.3159 19.8122 9.98944 19.8764 10.5805 19.6523C11.1721 19.4282 11.6159 18.9158 11.7473 18.4034C11.8952 17.8909 13.686 8.66751 13.686 8.66751C13.7025 8.53953 13.7514 8.17154 13.554 7.81893C13.2747 7.33889 12.6506 7.08295 12.092 7.24223C11.7847 7.33138 11.5214 7.53118 11.353 7.803C11.2541 7.97876 11.0737 8.26766 10.7449 8.5236C10.4986 8.71584 10.2523 8.82788 10.1373 8.87567C9.135 9.27661 8.01773 8.93993 7.37717 8.13969C6.98294 7.64317 6.2764 7.45094 5.65179 7.69095C5.35651 7.80604 5.10609 8.0129 4.93748 8.28101C4.76888 8.54912 4.69103 8.86427 4.71542 9.17995C4.83089 10.173 4.25576 11.1655 3.23691 11.5659C2.71582 11.7651 2.14253 11.7821 1.6105 11.6142C1.49503 11.5818 1.08486 11.4862 0.67413 11.7103C0.164982 11.9662 -0.097839 12.5748 0.0335717 13.1191C0.131992 13.4871 0.427804 13.7277 0.542719 13.8079Z" fill="#FF9538"/>
<path d="M36.1937 11.8221H36.0782L33.2202 5.01699H30.5095V15.1368H32.6456V8.52334H32.7275L35.4052 15.0884H36.8678L39.5455 8.5552H39.628V15.1368H41.7635V5.01644H39.0528L36.1937 11.8221ZM111.471 15.1368H114L110.961 10.8291L113.853 7.54679H111.372L108.875 10.4287H108.76V5.01644H106.608V15.1368H108.76V12.7184L109.351 12.078L111.471 15.1368ZM95.058 11.9017C95.058 12.2384 94.9925 12.5262 94.8446 12.7508C94.7132 12.9749 94.5158 13.1512 94.3025 13.2792C94.0721 13.3913 93.8258 13.455 93.5795 13.455C93.1687 13.455 92.8399 13.327 92.5936 13.0705C92.3473 12.8146 92.2324 12.4625 92.2159 12.0143V7.54624H90.0638V12.3818C90.0638 12.9744 90.1787 13.4868 90.3921 13.9032C90.6224 14.3354 90.9183 14.6556 91.3125 14.8797C91.7067 15.1038 92.1664 15.2323 92.6926 15.2323C93.2836 15.2323 93.7769 15.1038 94.1711 14.8314C94.5818 14.5595 94.8771 14.2074 95.0415 13.7587H95.124V15.1362H97.1941V7.54624H95.058V11.9017ZM101.186 9.35599C101.432 9.18023 101.728 9.08357 102.057 9.08357C102.451 9.08357 102.763 9.19561 103.01 9.43618C103.256 9.66027 103.404 9.96455 103.47 10.349H105.507C105.474 9.75584 105.31 9.25987 105.014 8.81114C104.718 8.36296 104.307 8.04276 103.798 7.80274C103.289 7.56272 102.697 7.43475 102.007 7.43475C101.219 7.43475 100.545 7.59457 99.9702 7.93071C99.3951 8.26685 98.9519 8.71558 98.6396 9.30821C98.3273 9.90029 98.1794 10.5731 98.1794 11.3574C98.1794 12.1264 98.3273 12.7986 98.6396 13.3913C98.9519 13.9833 99.3786 14.448 99.9537 14.7682C100.529 15.1043 101.219 15.2647 102.007 15.2647C102.697 15.2647 103.306 15.1368 103.815 14.8967C104.298 14.6735 104.708 14.318 104.997 13.8713C105.293 13.4231 105.458 12.9266 105.491 12.3345H103.453C103.42 12.6064 103.322 12.8305 103.191 13.0227C103.059 13.215 102.895 13.3589 102.697 13.455C102.493 13.5535 102.268 13.603 102.04 13.5994C101.728 13.6028 101.424 13.5075 101.169 13.327C100.923 13.1512 100.726 12.8948 100.595 12.5581C100.463 12.2219 100.397 11.8056 100.397 11.3256C100.397 10.845 100.463 10.4451 100.611 10.1085C100.743 9.78824 100.94 9.53175 101.186 9.35599ZM86.5806 5.625C85.8251 5.2246 84.9212 5.01644 83.8864 5.01644H80.1734V15.1368H83.8534C84.9053 15.1368 85.8086 14.928 86.5641 14.5282C87.31 14.1383 87.918 13.529 88.306 12.7827C88.7167 12.0302 88.9136 11.1174 88.9136 10.0607C88.9136 9.00393 88.7167 8.10702 88.306 7.35456C87.9236 6.61376 87.3209 6.00952 86.5806 5.625ZM86.4003 11.9182C86.1699 12.3982 85.8416 12.7508 85.3979 12.9749C84.9542 13.199 84.4121 13.3111 83.755 13.3111H82.3584V6.85804H83.755C84.3956 6.85804 84.9542 6.97009 85.3979 7.19418C85.8416 7.41827 86.1699 7.77088 86.4003 8.23499C86.6301 8.71558 86.745 9.32413 86.745 10.0607C86.745 10.8131 86.6301 11.4376 86.4003 11.9182ZM55.251 13.4072H54.9552C54.5939 13.4072 54.2981 13.1188 54.2981 12.7668V9.1319H55.7601V7.54624H54.2981V5.73649H52.1461V7.56217H51.0783V9.14728H52.1461V13.1666C52.1461 14.2552 53.0494 15.1362 54.1667 15.1362H55.875V13.3907L55.251 13.4072Z" fill="#383838"/>
<path d="M13.6033 1.84679C13.6033 1.84679 16.3965 10.8456 16.5933 11.3261C16.7907 11.8227 17.2834 12.2708 17.891 12.4466C18.4991 12.6229 19.1726 12.479 19.5998 12.1588C20.0271 11.8386 27.2393 5.60964 27.2393 5.60964C27.463 5.41452 27.6137 5.14916 27.6665 4.85718C27.749 4.31288 27.4037 3.73618 26.878 3.52801C26.5757 3.41723 26.2439 3.41723 25.9416 3.52801C25.7607 3.6082 25.4319 3.72025 25.0212 3.73618C24.693 3.75265 24.4466 3.68839 24.3152 3.65599C23.2799 3.36764 22.5898 2.43942 22.5898 1.43046C22.5798 1.11543 22.4691 0.811874 22.274 0.564141C22.079 0.316407 21.8097 0.137484 21.5056 0.053516C20.8485 -0.12279 20.175 0.149633 19.8302 0.678003C19.2875 1.54251 18.2197 1.97476 17.1685 1.68641C16.6098 1.52658 16.1496 1.19045 15.8544 0.758192C15.7719 0.661526 15.5091 0.341318 15.0494 0.261678C14.4908 0.165561 13.8826 0.485769 13.6528 0.982283C13.4719 1.36675 13.5703 1.71827 13.6033 1.84679Z" fill="#FF9538"/>
</svg>
