<svg viewBox="25 38 440 138" fill="none" xmlns="http://www.w3.org/2000/svg">
<path d="M213.928 116.035C210.289 116.035 207.397 117.182 205.306 119.475C203.214 121.769 202.131 124.916 202.131 128.893C202.131 132.992 203.137 136.163 205.177 138.409C207.216 140.653 210.108 141.775 213.876 141.775C216.2 141.775 218.834 141.385 221.802 140.604V143.8C219.505 144.606 216.665 145.02 213.283 145.02C208.404 145.02 204.635 143.629 201.976 140.824C199.316 138.018 198 134.041 198 128.869C198 125.648 198.645 122.818 199.91 120.378C201.201 117.938 203.034 116.084 205.435 114.767C207.835 113.449 210.676 112.791 213.954 112.791C217.439 112.791 220.485 113.4 223.068 114.596L221.441 117.719C218.937 116.597 216.432 116.035 213.928 116.035Z" fill="currentColor"/>
<path d="M230.23 145.02H226.649V111H230.23V145.02Z" fill="currentColor"/>
<path d="M255.297 132.461C255.297 136.405 254.326 139.494 252.408 141.704C250.49 143.915 247.844 145.02 244.444 145.02C242.356 145.02 240.487 144.518 238.884 143.488C237.283 142.459 236.02 141.027 235.122 139.117C234.248 137.208 233.811 134.998 233.811 132.461C233.811 128.518 234.757 125.453 236.675 123.243C238.593 121.032 241.24 119.953 244.614 119.953C247.892 119.953 250.49 121.083 252.408 123.318C254.326 125.579 255.297 128.643 255.297 132.461ZM237.477 132.461C237.477 135.55 238.084 137.911 239.274 139.519C240.463 141.127 242.235 141.955 244.541 141.955C246.848 141.955 248.62 141.152 249.834 139.544C251.049 137.937 251.631 135.576 251.631 132.461C251.631 129.397 251.024 127.061 249.834 125.453C248.62 123.846 246.848 123.067 244.517 123.067C242.187 123.067 240.438 123.846 239.274 125.428C238.059 127.011 237.477 129.346 237.477 132.461Z" fill="currentColor"/>
<path d="M264.221 119.953V135.923C264.221 137.942 264.662 139.424 265.544 140.42C266.425 141.417 267.797 141.902 269.659 141.902C272.134 141.902 273.922 141.187 275.074 139.781C276.225 138.376 276.789 136.076 276.789 132.882V119.953H280.365V144.56H277.426L276.911 141.264H276.715C275.98 142.464 274.976 143.41 273.677 144.049C272.378 144.687 270.885 145.02 269.243 145.02C266.376 145.02 264.221 144.304 262.8 142.899C261.379 141.468 260.669 139.194 260.669 136.076V119.978H264.221V119.953Z" fill="currentColor"/>
<path d="M301.932 141.413H301.729C300.029 143.818 297.467 145.02 294.068 145.02C290.871 145.02 288.385 143.965 286.609 141.854C284.833 139.744 283.946 136.724 283.946 132.846C283.946 128.943 284.833 125.924 286.609 123.764C288.385 121.604 290.871 120.524 294.068 120.524C297.39 120.524 299.928 121.678 301.704 124.01H301.983L301.831 122.316L301.729 120.647V111H305.432V144.579H302.414L301.932 141.413ZM294.524 142.002C297.061 142.002 298.887 141.339 300.029 140.013C301.17 138.688 301.729 136.528 301.729 133.583V132.821C301.729 129.459 301.145 127.077 300.004 125.654C298.862 124.23 297.01 123.519 294.474 123.519C292.292 123.519 290.643 124.329 289.502 125.973C288.36 127.618 287.777 129.901 287.777 132.895C287.777 135.914 288.36 138.197 289.502 139.744C290.643 141.24 292.317 142.002 294.524 142.002Z" fill="currentColor"/>
<path d="M339.453 136.236C339.453 138.994 338.455 141.141 336.459 142.703C334.462 144.239 331.759 145.02 328.327 145.02C324.626 145.02 321.753 144.533 319.757 143.581V140.067C321.047 140.604 322.435 141.043 323.944 141.36C325.454 141.677 326.964 141.824 328.449 141.824C330.883 141.824 332.709 141.36 333.926 140.434C335.144 139.506 335.776 138.237 335.776 136.579C335.776 135.48 335.557 134.602 335.119 133.919C334.681 133.236 333.951 132.577 332.928 131.991C331.905 131.406 330.348 130.748 328.279 129.991C325.357 128.942 323.287 127.722 322.046 126.282C320.804 124.843 320.171 122.989 320.171 120.696C320.171 118.279 321.072 116.352 322.898 114.937C324.699 113.498 327.11 112.791 330.08 112.791C333.196 112.791 336.045 113.351 338.65 114.499L337.505 117.67C334.925 116.572 332.417 116.035 329.983 116.035C328.06 116.035 326.55 116.45 325.478 117.28C324.383 118.109 323.847 119.256 323.847 120.744C323.847 121.842 324.042 122.721 324.456 123.403C324.846 124.086 325.527 124.721 326.477 125.307C327.426 125.892 328.887 126.527 330.835 127.234C334.122 128.405 336.361 129.674 337.602 131.016C338.844 132.357 339.453 134.089 339.453 136.236Z" fill="currentColor"/>
<path d="M350.875 141.987C351.446 141.987 351.996 141.936 352.524 141.835C353.052 141.734 353.469 141.633 353.777 141.532V144.363C353.425 144.565 352.92 144.717 352.238 144.843C351.556 144.97 350.963 145.02 350.413 145.02C346.323 145.02 344.278 142.543 344.278 137.588V123.101H341.243V121.331L344.278 119.789L345.641 114.581H347.488V120.218H353.623V123.076H347.488V137.411C347.488 138.877 347.796 140.015 348.39 140.798C348.984 141.608 349.819 141.987 350.875 141.987Z" fill="currentColor"/>
<path d="M377.054 132.461C377.054 136.405 376.082 139.494 374.164 141.704C372.246 143.915 369.6 145.02 366.201 145.02C364.113 145.02 362.244 144.518 360.642 143.488C359.039 142.459 357.777 141.027 356.879 139.117C356.004 137.208 355.567 134.998 355.567 132.461C355.567 128.518 356.515 125.453 358.432 123.243C360.35 121.032 362.997 119.953 366.371 119.953C369.649 119.953 372.246 121.083 374.164 123.318C376.082 125.579 377.054 128.643 377.054 132.461ZM359.234 132.461C359.234 135.55 359.84 137.911 361.03 139.519C362.219 141.127 363.992 141.955 366.298 141.955C368.605 141.955 370.377 141.152 371.591 139.544C372.805 137.937 373.388 135.576 373.388 132.461C373.388 129.397 372.781 127.061 371.591 125.453C370.377 123.846 368.605 123.067 366.274 123.067C363.943 123.067 362.195 123.846 361.03 125.428C359.816 127.011 359.234 129.346 359.234 132.461Z" fill="currentColor"/>
<path d="M392.358 119.953C393.331 119.953 394.191 120.055 394.96 120.234L394.507 123.683C393.602 123.453 392.81 123.351 392.132 123.351C390.367 123.351 388.851 124.169 387.607 125.778C386.363 127.388 385.729 129.407 385.729 131.809V145.02H382.426V120.413H385.141L385.525 124.961H385.684C386.499 123.351 387.471 122.125 388.603 121.255C389.733 120.387 391.001 119.953 392.358 119.953Z" fill="currentColor"/>
<path d="M412.174 144.567L411.501 141.123H411.338C410.226 142.631 409.112 143.662 407.999 144.215C406.885 144.744 405.517 145.02 403.847 145.02C401.62 145.02 399.904 144.391 398.629 143.16C397.376 141.927 396.75 140.167 396.75 137.879C396.75 132.977 400.368 130.438 407.581 130.186L411.362 130.06V128.552C411.362 126.641 410.991 125.258 410.226 124.353C409.46 123.448 408.254 122.995 406.607 122.995C404.752 122.995 402.641 123.624 400.299 124.856L399.255 122.04C400.345 121.386 401.551 120.884 402.873 120.507C404.195 120.13 405.494 119.953 406.816 119.953C409.483 119.953 411.454 120.582 412.73 121.864C414.006 123.146 414.655 125.208 414.655 128.023V144.542L412.174 144.567ZM404.52 141.978C406.63 141.978 408.277 141.349 409.483 140.092C410.689 138.835 411.292 137.075 411.292 134.838V132.65L407.906 132.801C405.215 132.902 403.267 133.354 402.085 134.158C400.902 134.963 400.299 136.22 400.299 137.905C400.299 139.237 400.67 140.243 401.412 140.922C402.154 141.626 403.198 141.978 404.52 141.978Z" fill="currentColor"/>
<path d="M441.513 120.411V122.624L436.94 123.129C437.351 123.634 437.736 124.259 438.071 125.054C438.405 125.847 438.559 126.738 438.559 127.748C438.559 130.009 437.736 131.838 436.067 133.186C434.423 134.533 432.136 135.206 429.258 135.206C428.513 135.206 427.82 135.158 427.177 135.038C425.585 135.832 424.788 136.819 424.788 138.021C424.788 138.647 425.07 139.128 425.636 139.417C426.201 139.729 427.151 139.874 428.513 139.874H432.907C435.578 139.874 437.634 140.404 439.073 141.462C440.512 142.521 441.231 144.061 441.231 146.082C441.231 148.656 440.127 150.605 437.943 151.952C435.733 153.299 432.547 153.973 428.334 153.973C425.096 153.973 422.604 153.419 420.857 152.289C419.11 151.158 418.236 149.57 418.236 147.501C418.236 146.082 418.724 144.878 419.675 143.843C420.626 142.809 421.988 142.112 423.735 141.75C423.093 141.486 422.578 141.077 422.142 140.5C421.705 139.946 421.5 139.272 421.5 138.527C421.5 137.684 421.731 136.939 422.219 136.314C422.707 135.687 423.452 135.062 424.505 134.485C423.221 133.979 422.193 133.161 421.371 131.958C420.574 130.78 420.163 129.432 420.163 127.892C420.163 125.366 420.986 123.393 422.604 122.022C424.223 120.651 426.535 119.953 429.516 119.953C430.8 119.953 431.982 120.097 433.009 120.386L441.513 120.411ZM421.782 147.476C421.782 148.728 422.347 149.69 423.478 150.34C424.608 150.989 426.227 151.302 428.334 151.302C431.468 151.302 433.806 150.869 435.321 149.979C436.838 149.089 437.582 147.909 437.582 146.394C437.582 145.143 437.171 144.277 436.35 143.771C435.527 143.29 433.96 143.05 431.674 143.05H427.177C425.482 143.05 424.146 143.435 423.195 144.181C422.244 144.926 421.782 146.058 421.782 147.476ZM423.812 127.82C423.812 129.432 424.3 130.66 425.277 131.501C426.252 132.344 427.614 132.753 429.361 132.753C433.009 132.753 434.859 131.092 434.859 127.772C434.859 124.283 433.009 122.552 429.309 122.552C427.537 122.552 426.201 122.985 425.251 123.874C424.3 124.765 423.812 126.088 423.812 127.82Z" fill="currentColor"/>
<path d="M454.421 145.02C450.989 145.02 448.258 143.941 446.276 141.756C444.295 139.57 443.304 136.556 443.304 132.687C443.304 128.794 444.222 125.68 446.083 123.394C447.944 121.109 450.41 119.953 453.527 119.953C456.451 119.953 458.747 120.958 460.463 122.942C462.154 124.927 463 127.564 463 130.829V133.139H446.954C447.026 135.978 447.702 138.138 449.032 139.621C450.337 141.102 452.197 141.831 454.566 141.831C457.079 141.831 459.544 141.278 462.009 140.198V143.464C460.753 144.016 459.592 144.418 458.481 144.669C457.321 144.895 455.991 145.02 454.421 145.02ZM453.454 122.993C451.593 122.993 450.095 123.62 448.984 124.901C447.871 126.157 447.219 127.915 447.026 130.151H459.206C459.206 127.84 458.699 126.082 457.707 124.85C456.717 123.62 455.291 122.993 453.454 122.993Z" fill="currentColor"/>
<path d="M241.672 70.6652H221.412V76.8374H235.767C235.049 85.4922 228.035 89.1831 221.445 89.1831C212.995 89.1831 205.589 82.339 205.589 72.7453C205.589 63.3852 212.637 56.207 221.445 56.207C228.264 56.207 232.276 60.6679 232.276 60.6679L236.485 56.1734C236.485 56.1734 231.102 50 221.249 50C208.721 50 199 60.8691 199 72.6447C199 84.1509 208.134 95.3889 221.542 95.3889C233.353 95.3889 241.998 87.0694 241.998 74.7573C242.031 72.1418 241.672 70.6652 241.672 70.6652Z" fill="currentColor"/>
<path d="M256.35 66.7222C247.976 66.7222 242 73.2862 242 80.9395C242 88.7247 247.812 95.3888 256.448 95.3888C264.264 95.3888 270.667 89.3842 270.667 81.1044C270.699 71.6375 263.246 66.7222 256.35 66.7222ZM256.448 72.3629C260.553 72.3629 264.461 75.6944 264.461 81.0714C264.461 86.3495 260.586 89.781 256.448 89.781C251.883 89.781 248.304 86.1187 248.304 81.0384C248.272 76.0901 251.818 72.3629 256.448 72.3629Z" fill="currentColor"/>
<path d="M287.406 66.7222C279.033 66.7222 273.056 73.2862 273.056 80.9395C273.056 88.7247 278.868 95.3888 287.504 95.3888C295.32 95.3888 301.722 89.3842 301.722 81.1044C301.722 71.6375 294.268 66.7222 287.406 66.7222ZM287.472 72.3629C291.576 72.3629 295.484 75.6944 295.484 81.0714C295.484 86.3495 291.608 89.781 287.472 89.781C282.907 89.781 279.328 86.1187 279.328 81.0384C279.328 76.0901 282.874 72.3629 287.472 72.3629Z" fill="currentColor"/>
<path d="M318.479 66.7222C310.418 66.7222 304.111 73.33 304.111 80.711C304.111 89.1552 311.451 94.7309 318.341 94.7309C322.614 94.7309 324.889 93.1511 326.542 91.3148V94.0866C326.542 98.9213 323.407 101.822 318.651 101.822C314.07 101.822 311.795 98.6302 310.969 96.8261L305.215 99.0824C307.247 103.111 311.382 107.333 318.686 107.333C326.68 107.333 332.778 102.627 332.778 92.7323V67.5609H326.507V69.9461C324.648 67.9798 321.994 66.7222 318.479 66.7222ZM319.066 72.2013C323.028 72.2013 327.058 75.3608 327.058 80.7432C327.058 86.2223 323.028 89.2196 318.962 89.2196C314.655 89.2196 310.659 85.9646 310.659 80.7754C310.693 75.4252 314.862 72.2013 319.066 72.2013Z" fill="currentColor"/>
<path d="M358.091 66.7222C350.848 66.7222 344.722 72.4882 344.722 81.022C344.722 90.051 351.506 95.3888 358.784 95.3888C364.843 95.3888 368.563 92.06 370.77 89.0947L365.83 85.8C364.546 87.8102 362.406 89.7545 358.817 89.7545C354.799 89.7545 352.954 87.5467 351.802 85.4047L371 77.4308L370.012 75.0913C368.135 70.5438 363.788 66.7222 358.091 66.7222ZM358.322 72.2247C360.923 72.2247 362.834 73.6092 363.623 75.2889L350.815 80.6597C350.254 76.5087 354.173 72.2247 358.322 72.2247Z" fill="currentColor"/>
<path d="M335.167 93H342.333V52.3889H335.167V93Z" fill="currentColor"/>
<path d="M58.553 166.956L27.7964 113.729C25.4012 109.552 25.4012 104.428 27.7964 100.288L58.553 47.0619C60.9481 42.8857 65.3961 40.342 70.2245 40.342H131.776C136.604 40.342 141.052 42.9236 143.447 47.0619L174.204 100.288C176.599 104.465 176.599 109.59 174.204 113.729L143.447 166.956C141.052 171.131 136.604 173.675 131.776 173.675H70.2245C65.3961 173.675 60.9481 171.094 58.553 166.956Z" fill="url(#paint0_linear_1511_139)"/>
<path opacity="0.07" d="M164.345 129.883L125.436 90.9747L83.3577 94.8237L75.1685 102.976L82.1123 109.882L75.2439 122.071L127.172 174H139.777L164.345 129.883Z" fill="black"/>
<path d="M124.629 90.342H77.369C76.5919 90.342 75.9998 91.0403 75.9998 91.8632V102.711C75.9998 103.574 76.6289 104.231 77.369 104.231H124.629C125.406 104.231 125.998 103.533 125.998 102.711V91.8632C126.035 91.0403 125.406 90.342 124.629 90.342ZM117.338 100.451C115.784 100.451 114.526 99.0541 114.526 97.3276C114.526 95.6025 115.784 94.2045 117.338 94.2045C118.893 94.2045 120.151 95.6025 120.151 97.3276C120.151 99.0541 118.893 100.451 117.338 100.451Z" fill="white"/>
<path d="M124.629 109.786H77.369C76.5919 109.786 75.9998 110.485 75.9998 111.306V122.154C75.9998 123.018 76.6289 123.675 77.369 123.675H124.629C125.406 123.675 125.998 122.977 125.998 122.154V111.306C126.035 110.444 125.406 109.786 124.629 109.786ZM117.338 119.854C115.784 119.854 114.526 118.456 114.526 116.731C114.526 115.004 115.784 113.608 117.338 113.608C118.893 113.608 120.151 115.004 120.151 116.731C120.151 118.456 118.893 119.854 117.338 119.854Z" fill="white"/>
<defs>
<linearGradient id="paint0_linear_1511_139" x1="101" y1="40.3424" x2="101" y2="173.48" gradientUnits="userSpaceOnUse">
<stop stop-color="#4387FD"/>
<stop offset="1" stop-color="#4683EA"/>
</linearGradient>
</defs>
</svg>
