<svg width="85" height="24" viewBox="0 0 85 24" fill="none" xmlns="http://www.w3.org/2000/svg">
<g clip-path="url(#clip0_1_211)">
<path d="M12.1016 23.6516C5.60101 23.6516 0.351318 18.446 0.351318 12C0.351318 5.55399 5.60101 0.348419 12.1016 0.348419C18.6022 0.348419 23.8519 5.55399 23.8519 12C23.8519 18.446 18.6022 23.6516 12.1016 23.6516Z" fill="black"/>
<path d="M18.3844 10.2718H16.0793V13.7213H18.3844C19.3402 13.7213 20.1343 12.9338 20.1343 11.9861C20.1343 11.0314 19.3402 10.2718 18.3844 10.2718Z" fill="#FFF100"/>
<path d="M4.78589 12C4.78589 14.662 6.9715 16.8293 9.65608 16.8293C12.3407 16.8293 14.5263 14.662 14.5263 12C14.5263 9.33799 12.3407 7.17075 9.65608 7.17075C6.9715 7.17075 4.78589 9.33799 4.78589 12Z" fill="#FFF100"/>
<path d="M46.8466 9.02438V13.8815C46.8466 14.9268 46.1931 15.6655 45.3005 15.6655H44.8648C43.9512 15.6655 43.3187 14.9268 43.3187 13.8815V9.02438H41.5969V14.1812C41.5969 16.0418 42.9463 17.3798 44.8367 17.3798H45.3357C47.2261 17.3798 48.5614 16.0418 48.5614 14.1812V9.02438H46.8466ZM62.5535 11.9721L65.7441 8.6411H63.3406L60.5366 11.6376V6.66898H58.8359V17.2404H60.5366V14.1394L61.3588 13.2822L64.1629 17.2474H66.2712L62.5535 11.9721ZM35.7358 15.554H33.6767V8.37629H35.7358C37.3311 8.37629 38.6031 9.98605 38.6031 11.9373C38.6031 13.9512 37.3311 15.554 35.7358 15.554ZM35.7358 6.65504H31.969V17.2543H35.7358C38.2588 17.2543 40.3249 14.892 40.3249 11.9373C40.3249 9.05225 38.2658 6.65504 35.7358 6.65504ZM71.1976 15.554H69.1666V8.37629H71.1976C72.8069 8.37629 74.0649 9.98605 74.0649 11.9373C74.0649 13.9512 72.8069 15.554 71.1976 15.554ZM71.1976 6.65504H67.4518V17.2543H71.1976C73.7557 17.2543 75.7867 14.892 75.7867 11.9373C75.7867 9.05225 73.7557 6.65504 71.1976 6.65504ZM81.4721 15.554H78.8226V12.6202H81.4721C82.2592 12.6202 82.9409 13.2962 82.9409 14.0766C82.9409 14.9059 82.2592 15.554 81.4721 15.554ZM78.8226 10.9129V8.37629H80.931C81.6408 8.37629 82.217 8.92682 82.217 9.63762C82.217 10.3415 81.6408 10.9129 80.931 10.9129H78.8226ZM83.2852 11.4773C83.6718 10.9686 83.9388 10.3275 83.9388 9.63065C83.9388 7.99999 82.5614 6.64807 80.931 6.64807H77.1219V17.2474H81.4721C83.236 17.2474 84.6486 15.8188 84.6486 14.0697C84.6486 13.0035 84.1215 12.0627 83.2852 11.4773ZM53.4105 10.6063H53.8322C54.8512 10.6063 55.6945 11.3449 55.6945 12.2648H57.4303C57.4303 10.439 55.8069 8.93378 53.8392 8.93378H53.4175C51.4779 8.93378 49.9177 10.4878 49.9177 12.3902V13.9094C49.9177 15.8327 51.4849 17.3798 53.4175 17.3798H53.8392C55.8702 17.3798 57.5287 15.8746 57.5287 14.0627H55.7929C55.7929 14.9408 54.9074 15.6585 53.8392 15.6585H53.4175C52.4266 15.6585 51.6044 14.878 51.6044 13.9094V12.3902C51.6044 11.4007 52.4196 10.6063 53.4105 10.6063Z" fill="black"/>
</g>
<defs>
<clipPath id="clip0_1_211">
<rect width="85" height="24" fill="white"/>
</clipPath>
</defs>
</svg>
