<svg fill="none" viewBox="4.87780071 29.91180071 129.02819929 22.23220017" xmlns="http://www.w3.org/2000/svg"><path d="m20.902 50.889a1.256 1.256 0 0 1 -1.255 1.255h-13.391a1.256 1.256 0 0 1 -1.256-1.254v-19.6a1.255 1.255 0 0 1 1.256-1.256h8.594l6.052 6.172z" fill="#23a566"/><path d="m15.516 36.045 5.386 5.148v-5.023h-4.771a1.205 1.205 0 0 1 -.596-.15z" fill="#1c8f5a"/><path d="m20.902 36.196h-4.784a1.256 1.256 0 0 1 -1.255-1.255v-4.941z" fill="#8ed1b1"/><path clip-rule="evenodd" d="m17.073 48.068h-8.275v-7.175h8.275zm-3.623-6.14v1.256h2.606v-1.254zm0 2.047v1.2h2.606v-1.206zm0 1.965v1.111h2.606v-1.117zm-1.023 1.105v-1.111h-2.605v1.111zm0-1.883v-1.193h-2.605v1.199zm0-1.965v-1.269h-2.605v1.256z" fill="#fff" fill-rule="evenodd"/><path d="m49.216 41.095c0-1.574-1.186-2.65-2.563-2.65s-2.564 1.076-2.564 2.65c0 1.558 1.187 2.65 2.564 2.65s2.563-1.094 2.563-2.65zm1.996 0c0 2.518-2.047 4.374-4.56 4.374-2.512 0-4.559-1.856-4.559-4.374 0-2.536 2.047-4.374 4.56-4.374 2.512 0 4.559 1.838 4.559 4.374zm7.839 0c0-1.574-1.186-2.65-2.563-2.65s-2.563 1.076-2.563 2.65c0 1.558 1.186 2.65 2.563 2.65s2.563-1.094 2.563-2.65zm1.996 0c0 2.518-2.047 4.374-4.559 4.374s-4.56-1.856-4.56-4.374c0-2.534 2.048-4.374 4.56-4.374s4.56 1.838 4.56 4.374zm7.673.015c0-1.54-1.068-2.666-2.426-2.666-1.378 0-2.531 1.126-2.531 2.666 0 1.525 1.153 2.635 2.53 2.635 1.359 0 2.427-1.11 2.427-2.634zm1.754-4.125v7.853c0 3.23-1.98 4.55-4.32 4.55a4.326 4.326 0 0 1 -4.028-2.578l1.737-.696c.31.712 1.068 1.552 2.29 1.552 1.497 0 2.425-.89 2.425-2.564v-.63h-.07c-.446.531-1.307.995-2.393.995-2.272 0-4.354-1.905-4.354-4.356 0-2.47 2.082-4.39 4.354-4.39 1.084 0 1.945.463 2.394.978h.07v-.712h1.895zm3.125-4.605h-1.947v12.82h1.946zm2.817 8.579 4.062-1.623c-.223-.547-.896-.927-1.686-.927-1.015 0-2.427.862-2.376 2.55zm4.769 1.573 1.549.994a4.563 4.563 0 0 1 -3.787 1.939c-2.582 0-4.51-1.92-4.51-4.374 0-2.601 1.945-4.374 4.287-4.374 2.358 0 3.512 1.806 3.89 2.782l.206.497-6.076 2.422c.465.878 1.189 1.325 2.203 1.325 1.017 0 1.721-.48 2.238-1.21zm-46.461-2.577v-1.856h6.498c.063.323.096.706.096 1.12 0 1.392-.395 3.114-1.67 4.34-1.24 1.243-2.824 1.906-4.922 1.906-3.89 0-7.16-3.05-7.16-6.792s3.27-6.792 7.16-6.792c2.152 0 3.684.812 4.836 1.871l-1.36 1.31c-.826-.746-1.945-1.325-3.478-1.325-2.84 0-5.061 2.202-5.061 4.936s2.221 4.936 5.061 4.936c1.842 0 2.891-.712 3.563-1.359.546-.525.904-1.274 1.046-2.297zm59.778 2.552c0 1.013-.372 1.827-1.115 2.441-.755.604-1.67.906-2.748.906-.96 0-1.805-.28-2.538-.841-.733-.56-1.24-1.326-1.52-2.296l1.423-.581c.097.344.231.657.404.937.172.28.372.523.598.728.237.194.496.35.776.468.28.108.576.162.889.162.679 0 1.234-.172 1.665-.517.431-.356.647-.825.647-1.407 0-.485-.178-.9-.534-1.244-.334-.334-.959-.658-1.875-.97-.927-.334-1.503-.56-1.73-.68-1.228-.624-1.843-1.546-1.843-2.764 0-.851.34-1.578 1.019-2.182.69-.603 1.536-.905 2.538-.905.884 0 1.649.226 2.295.679.647.442 1.078.997 1.294 1.665l-1.39.582a2.003 2.003 0 0 0 -.777-1.067c-.377-.291-.84-.437-1.39-.437-.582 0-1.072.162-1.47.485-.4.302-.6.695-.6 1.18 0 .4.157.744.47 1.035.345.29 1.094.636 2.247 1.035 1.174.398 2.01.889 2.505 1.47.507.572.76 1.278.76 2.118zm1.532-8.487h1.487v3.654l-.065 1.1h.065c.226-.389.571-.712 1.035-.97a3.035 3.035 0 0 1 1.471-.389c.969 0 1.713.28 2.23.84.528.55.792 1.337.792 2.36v4.98h-1.487v-4.688c0-1.423-.63-2.134-1.891-2.134-.604 0-1.115.253-1.536.76a2.657 2.657 0 0 0 -.614 1.746v4.316h-1.487zm12.318 11.834c-1.164 0-2.123-.4-2.878-1.197-.754-.797-1.131-1.805-1.131-3.023 0-1.207.366-2.209 1.099-3.006.733-.809 1.67-1.213 2.813-1.213 1.174 0 2.107.383 2.796 1.148.701.754 1.051 1.816 1.051 3.184l-.016.162h-6.224c.022.776.28 1.401.776 1.875s1.089.712 1.778.712c.949 0 1.692-.474 2.231-1.423l1.326.647a3.941 3.941 0 0 1 -1.487 1.568c-.626.377-1.337.566-2.134.566zm-2.377-5.173h4.543a1.933 1.933 0 0 0 -.679-1.358c-.399-.367-.938-.55-1.617-.55-.56 0-1.045.172-1.455.517-.398.345-.662.809-.792 1.39zm11.123 5.173c-1.164 0-2.124-.4-2.878-1.197s-1.132-1.805-1.132-3.023c0-1.207.367-2.209 1.1-3.006.733-.809 1.67-1.213 2.813-1.213 1.174 0 2.106.383 2.796 1.148.701.754 1.051 1.816 1.051 3.184l-.016.162h-6.224c.022.776.28 1.401.776 1.875s1.088.712 1.778.712c.949 0 1.692-.474 2.231-1.423l1.326.647a3.937 3.937 0 0 1 -1.488 1.568c-.625.377-1.336.566-2.133.566zm-2.377-5.173h4.543a1.933 1.933 0 0 0 -.679-1.358c-.399-.367-.938-.55-1.617-.55-.56 0-1.045.172-1.455.517-.398.345-.663.809-.792 1.39zm10.386 5.043c-.646 0-1.185-.2-1.616-.598-.421-.399-.636-.954-.647-1.665v-4.43h-1.39v-1.357h1.39v-2.425h1.487v2.425h1.94v1.358h-1.94v3.944c0 .528.103.89.308 1.083.204.183.436.275.695.275.118 0 .231-.01.339-.032.119-.033.226-.07.323-.113l.469 1.325c-.388.14-.84.21-1.358.21zm8.799-2.328c0 .69-.302 1.272-.905 1.746-.604.474-1.364.712-2.28.712-.797 0-1.498-.205-2.101-.615a3.47 3.47 0 0 1 -1.293-1.649l1.325-.565c.194.474.474.846.841 1.115.377.259.786.388 1.228.388.475 0 .868-.102 1.18-.307.324-.205.485-.447.485-.728 0-.506-.388-.878-1.164-1.115l-1.357-.34c-1.542-.387-2.312-1.131-2.312-2.23 0-.722.291-1.299.873-1.73.593-.442 1.347-.663 2.263-.663.7 0 1.331.167 1.891.501.572.334.97.782 1.197 1.342l-1.326.55a1.621 1.621 0 0 0 -.744-.776 2.21 2.21 0 0 0 -1.131-.291c-.388 0-.738.097-1.051.29-.302.195-.453.432-.453.712 0 .453.426.776 1.278.97l1.196.307c1.573.388 2.36 1.18 2.36 2.376z" fill="currentColor"/></svg>