<svg width="100" height="35" viewBox="0 0 100 35" fill="none" xmlns="http://www.w3.org/2000/svg">
<path d="M8.6965 33.4424L0.335264 18.6424C-0.111755 17.8516 -0.111755 16.8757 0.335264 16.0848L8.6965 1.27835C9.14261 0.4884 9.96697 0.00185 10.8682 0H27.6025C28.492 0.004625 29.3127 0.49025 29.7561 1.27835L38.1264 16.0857C38.5734 16.8766 38.5734 17.8525 38.1264 18.6434L29.7471 33.4424C29.301 34.2324 28.4766 34.7189 27.5753 34.7208H10.8438C9.9534 34.718 9.13175 34.2305 8.68564 33.4424H8.6965Z" fill="#4386FA"/>
<path opacity="0.1" d="M24.4465 12.5791C24.4465 12.5791 26.7721 18.279 23.6022 21.5109C20.4324 24.7429 14.6619 22.6736 14.6619 22.6736L26.4011 34.7199H27.5928C28.4851 34.7181 29.3094 34.2315 29.7646 33.4416L35.3007 23.6421L24.4465 12.5791Z" fill="black"/>
<path d="M27.1928 24.2537L24.6229 21.6388C24.5953 21.6094 24.5636 21.5845 24.5288 21.5648C25.6147 20.1266 26.1235 18.3195 25.9517 16.5112C25.7799 14.703 24.9404 13.0298 23.604 11.8321C22.2677 10.6344 20.5351 10.0024 18.7589 10.0648C16.9827 10.1271 15.2965 10.8791 14.0437 12.1677C11.444 14.8456 11.329 19.1357 13.7831 21.9449C14.9663 23.3007 16.6101 24.1452 18.3804 24.3069C20.1507 24.4686 21.9148 23.9353 23.3144 22.8154C23.3331 22.849 23.3559 22.8801 23.3823 22.9079L25.9522 25.5349C25.9894 25.573 26.0337 25.6032 26.0825 25.6237C26.1313 25.6441 26.1836 25.6545 26.2363 25.6542C26.3426 25.6539 26.4446 25.611 26.5204 25.5349L27.2018 24.8383C27.2391 24.8002 27.2687 24.7549 27.2887 24.7051C27.3087 24.6552 27.3189 24.6018 27.3186 24.5479C27.3182 24.4392 27.2763 24.335 27.2018 24.2574L27.1928 24.2537ZM19.0062 22.5554C17.9667 22.5552 16.9506 22.2399 16.0863 21.6495C15.2221 21.0591 14.5484 20.22 14.1505 19.2384C13.3361 17.2311 13.7867 14.9186 15.2907 13.3831C16.026 12.6323 16.9625 12.1211 17.9819 11.9142C19.0013 11.7072 20.0578 11.8137 21.018 12.2202C21.9782 12.6267 22.799 13.3151 23.3766 14.1982C23.9543 15.0814 24.263 16.1197 24.2636 17.1821C24.2618 20.1486 21.9109 22.5527 19.008 22.5545L19.0062 22.5554ZM15.6472 16.8954V19.1154C15.982 19.7194 16.4661 20.2217 17.0516 20.5741V16.8907L15.6472 16.8954ZM18.2714 15.0546V21.0551C18.7356 21.142 19.2125 21.142 19.6758 21.0551V15.0454L18.2714 15.0546ZM22.3362 19.1126V17.7991H20.9318V20.5685C21.5164 20.217 21.9996 19.7175 22.3362 19.1144V19.1126Z" fill="white"/>
<path d="M58.446 7.69574H52.1027V9.62159H56.6109C56.3865 12.3263 54.1858 13.4788 52.1118 13.4788C50.7951 13.4881 49.5283 12.9608 48.5917 12.0146C47.6552 11.0683 47.1258 9.77884 47.1222 8.43296V8.34601C47.0995 6.98256 47.6144 5.66721 48.5501 4.69689C49.4858 3.72656 50.7653 3.17989 52.0991 3.18451C53.3687 3.18636 54.5876 3.69141 55.4997 4.59514L56.8208 3.20486C55.5402 1.94035 53.8206 1.24761 52.0403 1.27901C46.5905 1.1619 43.1471 7.22443 45.9485 12.0044C47.2466 14.2158 49.6176 15.5316 52.1389 15.4398C55.8345 15.4324 58.5637 12.836 58.5637 8.99444C58.5717 8.56494 58.5329 8.13585 58.4478 7.71516L58.446 7.69574ZM63.6646 6.30546C61.2286 6.25389 59.2159 8.23666 59.1763 10.727V10.8241C59.1618 13.3493 61.1535 15.4084 63.6238 15.4232C66.0942 15.438 68.1085 13.4021 68.123 10.8768C68.123 7.86131 65.8065 6.30546 63.6736 6.30546H63.6646ZM63.689 8.09996C64.9712 8.09996 66.1775 9.14336 66.1775 10.8805C66.1775 12.6177 64.9667 13.6407 63.6754 13.6407C62.2547 13.6407 61.1417 12.4845 61.1417 10.8602C61.1417 9.23586 62.2357 8.10644 63.6781 8.10644L63.689 8.09996ZM73.3822 6.30546C70.9515 6.26167 68.9472 8.24219 68.9075 10.727V10.8241C68.8931 13.3493 70.8847 15.4084 73.3551 15.4232C75.8255 15.438 77.8398 13.4021 77.8542 10.8768C77.8542 7.87056 75.535 6.31009 73.3868 6.31009L73.3822 6.30546ZM73.4094 8.09996C74.6916 8.09996 75.8979 9.14336 75.8979 10.8805C75.8979 12.6177 74.6871 13.6407 73.3958 13.6407C71.9751 13.6407 70.8621 12.4845 70.8621 10.8602C70.8621 9.23586 71.9561 8.10644 73.3976 8.10644L73.4094 8.09996ZM82.9289 6.30546C80.549 6.30546 78.6551 8.44591 78.6551 10.8565C78.6189 13.2985 80.4992 15.3242 82.8882 15.4139C83.8294 15.4644 84.7372 15.0506 85.3296 14.3012V15.2012C85.3296 16.7737 84.3975 17.7172 82.9904 17.7172C81.9787 17.7042 81.0766 17.0623 80.7119 16.0984L79.0107 16.8218C79.6143 18.1325 80.8268 19.5154 83.0013 19.5154C85.3812 19.5154 87.2 17.9827 87.2 14.7701V6.58389H85.3305V7.34886C84.7154 6.66267 83.8391 6.28216 82.9289 6.30546ZM83.1026 8.08146C84.2754 8.08146 85.4825 9.10636 85.4825 10.862C85.4825 12.6177 84.279 13.6046 83.0755 13.6046C81.7932 13.6046 80.6142 12.5612 80.6142 10.8666C80.6142 9.12764 81.8484 8.08609 83.1072 8.08609L83.1026 8.08146ZM95.4997 6.30546C93.242 6.30546 91.3517 8.14066 91.3517 10.8518C91.2633 13.3697 93.2561 15.4497 95.7205 15.4121C97.2136 15.4191 98.6136 14.6712 99.4604 13.4141L97.9203 12.3707C97.4678 13.1569 96.639 13.6333 95.7486 13.6222C94.8111 13.6597 93.9461 13.1087 93.5659 12.2319L99.5364 9.70206L99.2351 8.96206C98.6469 7.38216 97.1756 6.32951 95.5223 6.30731L95.4997 6.30546ZM95.5784 8.04446C96.2662 8.01486 96.9086 8.39411 97.2281 9.01756L93.2311 10.7288C93.0574 9.40791 94.2808 8.05186 95.5703 8.05186L95.5784 8.04446ZM88.4985 15.1429H90.4594V1.72764H88.4976L88.4985 15.1429ZM45.3368 30.5904V21.7964H48.4515C49.1032 21.7826 49.7339 22.0326 50.2061 22.492C50.6875 22.9222 50.9571 23.5484 50.9408 24.2033C50.9811 25.0076 50.5102 25.747 49.7744 26.0348V26.0838C50.197 26.2189 50.568 26.488 50.8313 26.8516C51.0951 27.2115 51.2348 27.6506 51.2286 28.1003C51.2449 28.782 50.9698 29.4369 50.4748 29.8948C49.9724 30.3613 49.3127 30.6106 48.6342 30.5904H45.3459H45.3368ZM46.4408 22.8805V25.5788H48.4469C48.8163 25.5892 49.1733 25.4421 49.4324 25.1727C49.9409 24.6732 49.9608 23.8499 49.4776 23.3273L49.4432 23.2922C49.1971 23.0258 48.8523 22.8778 48.4949 22.8852H46.4562L46.4408 22.8805ZM46.4408 26.6314V29.5174H48.6668C49.4487 29.5248 50.0893 28.8847 50.0984 28.0837C50.0998 27.7026 49.9468 27.338 49.6758 27.0763C49.3965 26.79 49.0143 26.6337 48.6189 26.6444H46.4381L46.4408 26.6314ZM53.7189 22.4994C53.7163 23.3706 52.5429 23.6045 52.2203 22.7982C51.8935 21.9923 52.8907 21.314 53.4917 21.9333C53.641 22.0813 53.7234 22.2867 53.7198 22.5004L53.7189 22.4994ZM53.4908 24.5844V30.5969H52.3823V24.5844H53.4908ZM57.4724 33.4477C57.1593 33.4505 56.8389 33.407 56.5476 33.3182C56.2695 33.2417 56.0038 33.1245 55.7585 32.9704C55.5269 32.8148 55.3203 32.6236 55.1459 32.4034C54.9794 32.1962 54.85 31.9594 54.7622 31.7078L55.8182 31.2638C55.9319 31.6082 56.1516 31.9058 56.4444 32.112C56.743 32.3248 57.1004 32.4358 57.4651 32.4321C57.99 32.4626 58.503 32.2628 58.8731 31.8789C59.2288 31.4581 59.4107 30.9123 59.3799 30.3564V29.7625H59.3319C59.1191 30.0854 58.8271 30.3454 58.4849 30.5164C58.1248 30.7014 57.7275 30.7967 57.3267 30.7939C56.5648 30.7976 55.8399 30.4609 55.3413 29.8726C54.7977 29.2447 54.505 28.4308 54.5215 27.5925C54.5009 26.7558 54.7928 25.9425 55.3377 25.3179C55.8327 24.7222 56.5593 24.38 57.3231 24.3837C57.7256 24.381 58.123 24.4765 58.4822 24.6621C58.8243 24.8331 59.1164 25.0931 59.3292 25.416H59.3772V24.5714H60.4341V30.3342C60.4793 31.1732 60.1898 31.9946 59.6287 32.6078C59.0519 33.168 58.2782 33.4662 57.4832 33.4348L57.4724 33.4477ZM57.5104 29.7598C58.0204 29.7738 58.5097 29.5531 58.8433 29.1585C59.5613 28.2449 59.5613 26.9438 58.8433 26.0302C58.513 25.6296 58.0225 25.4039 57.5104 25.415C56.9991 25.4076 56.5105 25.6333 56.1775 26.0302C55.8001 26.4621 55.6137 27.0319 55.6363 27.5971C55.6131 28.1691 55.807 28.7282 56.1775 29.1576C56.5123 29.5516 56.9991 29.7755 57.5104 29.7681V29.7598Z" fill="#767677"/>
<path d="M69.979 30.5816L69.1085 31.1578L68.5176 30.2606C67.8758 30.5891 67.1685 30.7616 66.4508 30.7647C65.2745 30.7906 64.1234 30.3078 63.3018 29.4327C61.6006 27.5994 61.6006 24.7272 63.3018 22.8948C65.0389 21.1093 67.8655 21.1093 69.6026 22.8948C70.4467 23.7553 70.9077 24.9326 70.8776 26.1508C70.8814 26.8137 70.7481 27.47 70.4867 28.0767C70.2324 28.6743 69.8571 29.2099 69.3854 29.6482L69.979 30.5816ZM66.4572 29.6843C66.9598 29.6842 67.4557 29.5652 67.9059 29.3365L66.9033 27.7955L67.7738 27.1942L68.7692 28.7297C69.436 28.0586 69.7939 27.1306 69.7546 26.1749C69.7881 25.2388 69.4533 24.3295 68.8063 23.6589C68.198 23.0038 67.3468 22.6428 66.4635 22.6654C65.5764 22.6435 64.7212 23.004 64.1071 23.6589C62.8584 25.0926 62.8584 27.2664 64.1071 28.6909C64.7223 29.3511 65.5818 29.7147 66.4734 29.6917L66.4572 29.6843ZM77.1666 30.5751H76.1079V29.7333H76.0599C75.8726 30.0478 75.6047 30.3041 75.2844 30.4733C74.9523 30.6655 74.5774 30.7671 74.1958 30.7684C73.5778 30.8089 72.9721 30.5788 72.5299 30.1357C72.1155 29.6362 71.9073 28.9887 71.9526 28.3357V24.5543H73.0566V28.2543C73.0819 29.2409 73.5645 29.7343 74.5044 29.7343C74.9346 29.735 75.3411 29.5326 75.6057 29.1857C75.9042 28.8182 76.0627 28.3526 76.0518 27.875V24.558H77.1557V30.5705L77.1666 30.5751ZM81.0975 30.773C80.2903 30.7971 79.5112 30.465 78.9583 29.8628C78.3927 29.2403 78.0914 28.4143 78.1185 27.5651C78.0932 26.7234 78.3882 25.902 78.9402 25.2758C80.0775 24.0746 81.955 24.0526 83.119 25.2267C83.6764 25.9038 83.9551 26.777 83.8945 27.6595V27.7816H79.2641C79.2583 28.3171 79.4668 28.8318 79.8415 29.2061C80.7543 30.1159 82.2711 29.8415 82.8231 28.6668L83.8094 29.1571C83.5579 29.6501 83.1778 30.0636 82.7109 30.3503C82.2259 30.6389 81.673 30.7851 81.1128 30.774L81.0975 30.773ZM79.3293 26.8418H82.7046C82.681 26.4394 82.501 26.0648 82.2042 25.7984C81.8666 25.5209 81.435 25.3655 80.997 25.3886C80.6043 25.3794 80.2215 25.52 79.922 25.7808C79.6143 26.0555 79.4062 26.4283 79.3266 26.8381L79.3293 26.8418ZM86.0038 30.5751H84.8998V24.5626H85.9568V25.5459H86.0047C86.1341 25.2036 86.3821 24.915 86.6852 24.7291C86.9865 24.5163 87.3394 24.3961 87.7059 24.3822C87.9851 24.3755 88.2627 24.4264 88.5221 24.5321L88.1828 25.6273C87.9743 25.5547 87.7537 25.5252 87.534 25.5403C87.1141 25.5422 86.7169 25.7309 86.4454 26.0583C86.1459 26.3836 85.9803 26.8142 85.983 27.2608V30.5816L86.0038 30.5751ZM94.6483 24.5626L90.9654 33.253H89.8225L91.1825 30.219L88.7692 24.5644H89.9727L91.7282 28.8916H91.7526L93.4538 24.5644H94.6483V24.5626Z" fill="#767677"/>
</svg>
