<svg width="108" height="18" viewBox="0 0 108 18" fill="none" xmlns="http://www.w3.org/2000/svg">
<g clip-path="url(#clip0_1_328)">
<path d="M2.42075 0H1.42537C1.16496 0 0.953857 0.211101 0.953857 0.471508V16.974C0.953857 17.2344 1.16496 17.4455 1.42537 17.4455H2.42075C2.68115 17.4455 2.89225 17.2344 2.89225 16.974V0.471508C2.89225 0.211101 2.68115 0 2.42075 0Z" fill="#151515"/>
<path d="M6.2977 0H5.30232C5.04191 0 4.83081 0.211101 4.83081 0.471508V16.974C4.83081 17.2344 5.04191 17.4455 5.30232 17.4455H6.2977C6.55811 17.4455 6.76921 17.2344 6.76921 16.974V0.471508C6.76921 0.211101 6.55811 0 6.2977 0Z" fill="#151515"/>
<path d="M10.1749 0H9.17952C8.91911 0 8.70801 0.211101 8.70801 0.471508V16.974C8.70801 17.2344 8.91911 17.4455 9.17952 17.4455H10.1749C10.4353 17.4455 10.6464 17.2344 10.6464 16.974V0.471508C10.6464 0.211101 10.4353 0 10.1749 0Z" fill="#151515"/>
<path d="M14.0509 0H13.0555C12.7951 0 12.584 0.211101 12.584 0.471508V16.974C12.584 17.2344 12.7951 17.4455 13.0555 17.4455H14.0509C14.3113 17.4455 14.5224 17.2344 14.5224 16.974V0.471508C14.5224 0.211101 14.3113 0 14.0509 0Z" fill="#151515"/>
<path d="M17.9288 6.78484H16.9334C16.673 6.78484 16.4619 6.99594 16.4619 7.25635V10.1901C16.4619 10.4505 16.673 10.6616 16.9334 10.6616H17.9288C18.1892 10.6616 18.4003 10.4505 18.4003 10.1901V7.25635C18.4003 6.99594 18.1892 6.78484 17.9288 6.78484Z" fill="#151515"/>
<path d="M33.1108 5.00049C32.0046 5.00049 31.1413 5.38302 30.521 6.14806C29.9007 6.90277 29.5905 7.94178 29.5905 9.26511C29.5905 10.5781 29.88 11.6119 30.459 12.3666C31.0379 13.1214 31.9167 13.4987 33.0953 13.4987C33.5708 13.4987 34.0257 13.4574 34.4599 13.3746C34.9045 13.2816 35.3542 13.1627 35.8091 13.018V14.4602C35.3749 14.6256 34.9304 14.7445 34.4755 14.8169C34.0309 14.8996 33.5036 14.9409 32.8937 14.9409C31.7564 14.9409 30.8156 14.7083 30.0713 14.2431C29.3269 13.7675 28.7686 13.1058 28.3964 12.2581C28.0243 11.4 27.8382 10.3972 27.8382 9.2496C27.8382 8.13305 28.0398 7.14572 28.443 6.28763C28.8565 5.42954 29.4561 4.76271 30.2419 4.28714C31.0276 3.80123 31.9891 3.55828 33.1263 3.55828C33.6846 3.55828 34.2273 3.62031 34.7546 3.74437C35.2922 3.85809 35.7833 4.02351 36.2278 4.24061L35.6075 5.63631C35.2457 5.47089 34.8528 5.32615 34.4289 5.20209C34.0154 5.06769 33.576 5.00049 33.1108 5.00049ZM39.6521 14.7858H38.0083V3H39.6521V14.7858ZM43.071 3.24812C43.3192 3.24812 43.5363 3.32049 43.7224 3.46523C43.9084 3.60997 44.0015 3.85292 44.0015 4.19409C44.0015 4.52492 43.9084 4.76788 43.7224 4.92295C43.5363 5.06769 43.3192 5.14006 43.071 5.14006C42.8022 5.14006 42.5748 5.06769 42.3887 4.92295C42.2129 4.76788 42.1251 4.52492 42.1251 4.19409C42.1251 3.85292 42.2129 3.60997 42.3887 3.46523C42.5748 3.32049 42.8022 3.24812 43.071 3.24812ZM43.8774 6.4272V14.7858H42.2336V6.4272H43.8774ZM49.824 14.9409C48.6661 14.9409 47.7356 14.5998 47.0326 13.9174C46.3296 13.2247 45.9781 12.1392 45.9781 10.6608C45.9781 9.62695 46.1487 8.78954 46.4898 8.14855C46.831 7.50757 47.3014 7.03717 47.901 6.73735C48.5007 6.4272 49.183 6.27212 49.948 6.27212C50.4133 6.27212 50.8475 6.32382 51.2507 6.4272C51.6642 6.52025 52.0054 6.6288 52.2742 6.75286L51.778 8.08652C51.4885 7.9728 51.1783 7.87459 50.8475 7.79188C50.527 7.70917 50.222 7.66782 49.9325 7.66782C48.4231 7.66782 47.6684 8.66031 47.6684 10.6453C47.6684 11.5964 47.8545 12.3201 48.2267 12.8164C48.5989 13.3126 49.1468 13.5607 49.8705 13.5607C50.3357 13.5607 50.7441 13.509 51.0956 13.4057C51.4575 13.3023 51.7883 13.1679 52.0881 13.0025V14.4292C51.7883 14.6049 51.4626 14.7342 51.1111 14.8169C50.7596 14.8996 50.3306 14.9409 49.824 14.9409ZM55.6896 8.89292C55.6896 9.09969 55.6792 9.34782 55.6585 9.63729C55.6379 9.92677 55.6224 10.1852 55.612 10.4127H55.6585C55.7723 10.2576 55.9273 10.056 56.1238 9.80788C56.3305 9.54942 56.5115 9.33748 56.6665 9.17206L59.2253 6.4272H61.1328L57.7676 10.0095L61.3499 14.7858H59.4114L56.651 11.0485L55.6896 11.8549V14.7858H54.0612V3H55.6896V8.89292ZM71.5476 14.7858H69.8727V9.73034H64.5846V14.7858H62.9098V3.71335H64.5846V8.30363H69.8727V3.71335H71.5476V14.7858ZM81.6904 10.5988C81.6904 11.9841 81.3337 13.0542 80.6203 13.8089C79.907 14.5636 78.9455 14.9409 77.7359 14.9409C76.9812 14.9409 76.3092 14.7703 75.7199 14.4292C75.1409 14.088 74.6809 13.5969 74.3397 12.9559C74.0089 12.3046 73.8435 11.5189 73.8435 10.5988C73.8435 9.21342 74.195 8.14855 74.898 7.40418C75.601 6.64948 76.5625 6.27212 77.7824 6.27212C78.5475 6.27212 79.2195 6.44271 79.7984 6.78388C80.3877 7.11471 80.8478 7.60061 81.1786 8.2416C81.5198 8.88258 81.6904 9.66831 81.6904 10.5988ZM75.5338 10.5988C75.5338 11.5396 75.7096 12.2736 76.0611 12.8009C76.4229 13.3281 76.9915 13.5918 77.7669 13.5918C78.5423 13.5918 79.1057 13.3281 79.4572 12.8009C79.8191 12.2736 80 11.5396 80 10.5988C80 9.64763 79.8191 8.91877 79.4572 8.41219C79.0954 7.89526 78.5268 7.6368 77.7514 7.6368C76.976 7.6368 76.4126 7.89526 76.0611 8.41219C75.7096 8.91877 75.5338 9.64763 75.5338 10.5988ZM90.9698 6.4272V14.7858H89.6516L89.419 13.6848H89.3415C89.0727 14.119 88.7005 14.4395 88.2249 14.6463C87.7493 14.8427 87.2479 14.9409 86.7207 14.9409C85.7385 14.9409 84.989 14.698 84.472 14.2121C83.9551 13.7262 83.6967 12.9559 83.6967 11.9014V6.4272H85.356V11.6533C85.356 12.9456 85.9194 13.5918 87.0463 13.5918C87.9044 13.5918 88.4989 13.3385 88.8297 12.8319C89.1605 12.3253 89.326 11.6016 89.326 10.6608V6.4272H90.9698ZM99.0939 12.4287C99.0939 13.2454 98.7945 13.8709 98.1946 14.3051C97.5948 14.729 96.7623 14.9409 95.6978 14.9409C95.1085 14.9409 94.6019 14.8944 94.178 14.8014C93.7645 14.7186 93.382 14.5946 93.0305 14.4292V12.987C93.3923 13.1627 93.8162 13.323 94.3021 13.4677C94.7983 13.6021 95.2791 13.6693 95.7443 13.6693C96.3646 13.6693 96.8097 13.5711 97.0779 13.3746C97.3568 13.1782 97.4968 12.9146 97.4968 12.5838C97.4968 12.3977 97.4451 12.2322 97.3417 12.0875C97.2383 11.9324 97.0423 11.7774 96.7526 11.6223C96.4732 11.4569 96.0596 11.2708 95.5117 11.064C94.9741 10.8469 94.5192 10.635 94.147 10.4282C93.7852 10.2111 93.506 9.95778 93.3096 9.66831C93.1132 9.36849 93.015 8.98597 93.015 8.52074C93.015 7.79705 93.3044 7.24394 93.8834 6.86142C94.4727 6.46855 95.2481 6.27212 96.2095 6.27212C96.716 6.27212 97.192 6.32382 97.6368 6.4272C98.0912 6.53058 98.5306 6.67532 98.9549 6.86142L98.4122 8.11754C98.0503 7.96246 97.6777 7.83323 97.2954 7.72985C96.9131 7.61612 96.5249 7.55926 96.132 7.55926C95.6357 7.55926 95.2584 7.6368 94.9999 7.79188C94.7415 7.94695 94.6122 8.16406 94.6122 8.4432C94.6122 8.63963 94.6743 8.81022 94.7983 8.95495C94.9224 9.09969 95.1292 9.24443 95.4186 9.38917C95.7185 9.53391 96.1268 9.70966 96.6438 9.91643C97.1608 10.1129 97.6002 10.3145 97.962 10.5212C98.3346 10.728 98.6136 10.9813 98.7999 11.2811C98.9959 11.5809 99.0939 11.9634 99.0939 12.4287ZM104.342 6.27212C105.437 6.27212 106.301 6.61329 106.932 7.29563C107.562 7.96763 107.877 8.88775 107.877 10.056V10.9554H102.263C102.284 11.8135 102.507 12.47 102.93 12.9249C103.365 13.3798 103.969 13.6073 104.744 13.6073C105.282 13.6073 105.758 13.5607 106.171 13.4677C106.596 13.3643 107.03 13.2144 107.474 13.018V14.3826C107.05 14.5687 106.626 14.7083 106.203 14.8014C105.778 14.8944 105.272 14.9409 104.683 14.9409C103.866 14.9409 103.147 14.7807 102.527 14.4602C101.918 14.1397 101.436 13.6641 101.085 13.0335C100.744 12.3925 100.574 11.6068 100.574 10.6763C100.574 9.73551 100.729 8.93945 101.039 8.28812C101.359 7.6368 101.798 7.14055 102.357 6.79938C102.926 6.44788 103.587 6.27212 104.342 6.27212ZM104.342 7.54375C103.753 7.54375 103.277 7.73502 102.915 8.11754C102.564 8.50006 102.357 9.04283 102.294 9.74585H106.234C106.223 9.09452 106.063 8.56726 105.752 8.16406C105.453 7.75052 104.982 7.54375 104.342 7.54375Z" fill="#151515"/>
</g>
<defs>
<clipPath id="clip0_1_328">
<rect width="108" height="18" fill="white"/>
</clipPath>
</defs>
</svg>
