<svg width="713" height="113" viewBox="0 0 713 113" fill="none" xmlns="http://www.w3.org/2000/svg">
<g clip-path="url(#clip0_1984_733)">
<path d="M98.9 46.5996L52.3 72.8996L2.4 44.7996L0 46.0996V66.4996L52.3 95.8996L98.9 69.6996V80.4996L52.3 106.8L2.4 78.6996L0 79.9996V83.4996L52.3 112.9L104.5 83.4996V63.0996L102.1 61.7996L52.3 89.7996L5.6 63.5996V52.7996L52.3 78.9996L104.5 49.5996V29.4996L101.9 27.9996L52.3 55.8996L8 31.0996L52.3 6.19961L88.7 26.6996L91.9 24.8996V22.3996L52.3 0.0996094L0 29.4996V32.6996L52.3 62.0996L98.9 35.7996V46.5996Z" fill="#FF3621"/>
<path d="M202.2 96.1994V6.39941H188.4V39.9994C188.4 40.4994 188.1 40.8994 187.6 41.0994C187.1 41.2994 186.6 41.0994 186.3 40.7994C181.6 35.2994 174.3 32.1994 166.3 32.1994C149.2 32.1994 135.8 46.5994 135.8 64.9994C135.8 73.9994 138.9 82.2994 144.6 88.3994C150.3 94.4994 158 97.7994 166.3 97.7994C174.2 97.7994 181.5 94.4994 186.3 88.7994C186.6 88.3994 187.2 88.2994 187.6 88.3994C188.1 88.5994 188.4 88.9994 188.4 89.4994V96.1994H202.2ZM169.3 85.2994C158.3 85.2994 149.7 76.3994 149.7 64.9994C149.7 53.5994 158.3 44.6994 169.3 44.6994C180.3 44.6994 188.9 53.5994 188.9 64.9994C188.9 76.3994 180.3 85.2994 169.3 85.2994Z" fill="#0B2026"/>
<path d="M276 96.0996V33.6996H262.3V39.9996C262.3 40.4996 262 40.8996 261.5 41.0996C261 41.2996 260.5 41.0996 260.2 40.6996C255.6 35.1996 248.4 32.0996 240.2 32.0996C223.1 32.0996 209.7 46.4996 209.7 64.8996C209.7 83.2996 223.1 97.6996 240.2 97.6996C248.1 97.6996 255.4 94.3996 260.2 88.5996C260.5 88.1996 261.1 88.0996 261.5 88.1996C262 88.3996 262.3 88.7996 262.3 89.2996V96.0996H276ZM243.3 85.2996C232.3 85.2996 223.7 76.3996 223.7 64.9996C223.7 53.5996 232.3 44.6996 243.3 44.6996C254.3 44.6996 262.9 53.5996 262.9 64.9996C262.9 76.3996 254.3 85.2996 243.3 85.2996Z" fill="#0B2026"/>
<path d="M393.3 96.1996V33.6996H379.6V39.9996C379.6 40.4996 379.3 40.8996 378.8 41.0996C378.3 41.2996 377.8 41.0996 377.5 40.6996C372.9 35.1996 365.7 32.0996 357.5 32.0996C340.3 32.0996 327 46.4996 327 64.9996C327 83.4996 340.4 97.7996 357.5 97.7996C365.4 97.7996 372.7 94.4996 377.5 88.6996C377.8 88.2996 378.4 88.1996 378.8 88.2996C379.3 88.4996 379.6 88.8996 379.6 89.3996V96.1996H393.3ZM360.6 85.2996C349.6 85.2996 341 76.3996 341 64.9996C341 53.5996 349.6 44.6996 360.6 44.6996C371.6 44.6996 380.2 53.5996 380.2 64.9996C380.2 76.3996 371.6 85.2996 360.6 85.2996Z" fill="#0B2026"/>
<path d="M418.4 88.7994C418.5 88.7994 418.7 88.6994 418.8 88.6994C419.1 88.6994 419.5 88.8994 419.7 89.0994C424.4 94.5994 431.7 97.6994 439.7 97.6994C456.8 97.6994 470.2 83.2994 470.2 64.8994C470.2 55.8994 467.1 47.5994 461.4 41.4994C455.7 35.3994 448 32.0994 439.7 32.0994C431.8 32.0994 424.5 35.3994 419.7 41.0994C419.4 41.4994 418.9 41.5994 418.4 41.4994C417.9 41.2994 417.6 40.8994 417.6 40.3994V6.39941H403.8V96.1994H417.6V89.8994C417.6 89.3994 417.9 88.9994 418.4 88.7994ZM417 64.9994C417 53.5994 425.6 44.6994 436.6 44.6994C447.6 44.6994 456.2 53.5994 456.2 64.9994C456.2 76.3994 447.6 85.2994 436.6 85.2994C425.6 85.2994 417 76.2994 417 64.9994Z" fill="#0B2026"/>
<path d="M510.1 46.4994C511.4 46.4994 512.6 46.5994 513.4 46.7994V32.5994C512.9 32.4994 512 32.3994 511.1 32.3994C503.9 32.3994 497.3 36.0994 493.8 41.9994C493.5 42.4994 493 42.6994 492.5 42.4994C492 42.3994 491.6 41.8994 491.6 41.3994V33.6994H477.9V96.2994H491.7V68.6994C491.7 54.9994 498.7 46.4994 510.1 46.4994Z" fill="#0B2026"/>
<path d="M536.1 33.6992H522.1V96.2992H536.1V33.6992Z" fill="#0B2026"/>
<path d="M528.9 6.49902C524.2 6.49902 520.4 10.299 520.4 14.999C520.4 19.699 524.2 23.499 528.9 23.499C533.6 23.499 537.4 19.699 537.4 14.999C537.4 10.299 533.6 6.49902 528.9 6.49902Z" fill="#0B2026"/>
<path d="M577.1 32.0996C557.9 32.0996 544 45.8996 544 64.9996C544 74.2996 547.3 82.5996 553.2 88.5996C559.2 94.5996 567.6 97.8996 577 97.8996C584.8 97.8996 590.8 96.3996 602.2 87.9996L594.3 79.6996C588.7 83.3996 583.5 85.1996 578.4 85.1996C566.8 85.1996 558.1 76.4996 558.1 64.9996C558.1 53.4996 566.8 44.7996 578.4 44.7996C583.9 44.7996 589 46.5996 594.1 50.2996L602.9 41.9996C592.6 33.1996 583.3 32.0996 577.1 32.0996Z" fill="#0B2026"/>
<path d="M626.5 68.699C626.7 68.499 627 68.399 627.3 68.399H627.4C627.7 68.399 628 68.599 628.3 68.799L650.4 96.199H667.4L638.8 61.599C638.4 61.099 638.4 60.399 638.9 59.999L665.2 33.699H648.3L625.6 56.499C625.3 56.799 624.8 56.899 624.3 56.799C623.9 56.599 623.6 56.199 623.6 55.699V6.49902H609.7V96.299H623.5V71.899C623.5 71.599 623.6 71.199 623.9 70.999L626.5 68.699Z" fill="#0B2026"/>
<path d="M689.9 97.799C701.2 97.799 712.7 90.899 712.7 77.799C712.7 69.199 707.3 63.299 696.3 59.699L688.8 57.199C683.7 55.499 681.3 53.099 681.3 49.799C681.3 45.999 684.7 43.399 689.5 43.399C694.1 43.399 698.2 46.399 700.8 51.599L711.9 45.599C707.8 37.199 699.3 31.999 689.5 31.999C677.1 31.999 668.1 39.999 668.1 50.899C668.1 59.599 673.3 65.399 684 68.799L691.7 71.299C697.1 72.999 699.4 75.199 699.4 78.699C699.4 83.999 694.5 85.899 690.3 85.899C684.7 85.899 679.7 82.299 677.3 76.399L666 82.399C669.7 91.899 678.8 97.799 689.9 97.799Z" fill="#0B2026"/>
<path d="M314.4 97.1994C318.8 97.1994 322.7 96.7994 324.9 96.4994V84.4994C323.1 84.6994 319.9 84.8994 318 84.8994C312.4 84.8994 308.1 83.8994 308.1 71.7994V46.0994C308.1 45.3994 308.6 44.8994 309.3 44.8994H322.8V33.5994H309.3C308.6 33.5994 308.1 33.0994 308.1 32.3994V14.3994H294.3V32.4994C294.3 33.1994 293.8 33.6994 293.1 33.6994H283.5V44.9994H293.1C293.8 44.9994 294.3 45.4994 294.3 46.1994V75.2994C294.3 97.1994 308.9 97.1994 314.4 97.1994Z" fill="#0B2026"/>
</g>
<defs>
<clipPath id="clip0_1984_733">
<rect width="712.8" height="113" fill="white"/>
</clipPath>
</defs>
</svg>
